<?xml version="1.0" encoding="UTF-8"?>
<svg xmlns="http://www.w3.org/2000/svg" xmlns:xlink="http://www.w3.org/1999/xlink" width="24px" height="24px" viewBox="0 0 24 31" version="1.1">
<g id="surface1">
<path style=" stroke:none;fill-rule:evenodd;fill:rgb(0%,0%,0%);fill-opacity:1;" d="M 11.988281 27.335938 C 12.546875 27.335938 12.996094 27.785156 12.996094 28.34375 C 12.996094 28.898438 12.546875 29.351562 11.988281 29.351562 C 11.429688 29.351562 10.976562 28.898438 10.976562 28.34375 C 10.976562 27.785156 11.429688 27.335938 11.988281 27.335938 Z M 5.464844 17.019531 C 5.449219 16.992188 5.429688 16.964844 5.410156 16.9375 C 5.320312 16.792969 5.234375 16.648438 5.144531 16.484375 C 5.058594 16.308594 4.96875 16.140625 4.890625 15.988281 C 4.8125 15.824219 4.738281 15.644531 4.671875 15.46875 C 4.613281 15.316406 4.550781 15.140625 4.484375 14.929688 C 4.386719 14.632812 4.109375 14.445312 3.808594 14.445312 L 1.898438 14.445312 C 1.832031 14.445312 1.765625 14.4375 1.722656 14.414062 C 1.679688 14.390625 1.625 14.359375 1.589844 14.316406 C 1.546875 14.269531 1.511719 14.226562 1.492188 14.183594 C 1.46875 14.140625 1.460938 14.074219 1.460938 14.007812 L 1.460938 11.605469 C 1.460938 11.539062 1.46875 11.484375 1.480469 11.441406 C 1.503906 11.394531 1.539062 11.339844 1.59375 11.285156 C 1.636719 11.242188 1.679688 11.207031 1.722656 11.199219 C 1.769531 11.175781 1.835938 11.164062 1.902344 11.164062 L 3.65625 11.164062 C 4.007812 11.164062 4.296875 10.910156 4.363281 10.582031 C 4.40625 10.394531 4.449219 10.21875 4.492188 10.0625 C 4.550781 9.886719 4.605469 9.71875 4.671875 9.542969 C 4.738281 9.378906 4.800781 9.199219 4.890625 9.035156 C 4.96875 8.859375 5.058594 8.707031 5.132812 8.554688 C 5.285156 8.265625 5.230469 7.9375 5.011719 7.71875 L 3.644531 6.339844 C 3.632812 6.328125 3.632812 6.328125 3.621094 6.328125 C 3.578125 6.285156 3.542969 6.242188 3.523438 6.199219 C 3.5 6.15625 3.5 6.109375 3.5 6.042969 C 3.5 5.980469 3.507812 5.921875 3.53125 5.878906 C 3.554688 5.824219 3.585938 5.78125 3.644531 5.726562 L 5.332031 4.050781 C 5.386719 3.996094 5.429688 3.960938 5.484375 3.9375 C 5.53125 3.917969 5.585938 3.90625 5.652344 3.90625 C 5.71875 3.90625 5.773438 3.917969 5.820312 3.9375 C 5.863281 3.960938 5.917969 3.996094 5.964844 4.039062 L 5.972656 4.039062 L 7.21875 5.28125 C 7.464844 5.523438 7.847656 5.554688 8.128906 5.359375 C 8.269531 5.269531 8.414062 5.183594 8.578125 5.09375 C 8.753906 5.007812 8.921875 4.917969 9.078125 4.839844 C 9.242188 4.761719 9.417969 4.6875 9.597656 4.621094 C 9.75 4.566406 9.925781 4.5 10.136719 4.433594 C 10.433594 4.335938 10.621094 4.058594 10.621094 3.761719 L 10.621094 1.851562 C 10.621094 1.789062 10.632812 1.722656 10.65625 1.675781 C 10.675781 1.632812 10.710938 1.589844 10.742188 1.546875 C 10.789062 1.503906 10.832031 1.46875 10.875 1.457031 C 10.917969 1.433594 10.984375 1.425781 11.050781 1.425781 L 12.941406 1.425781 C 13.007812 1.425781 13.074219 1.433594 13.117188 1.457031 C 13.160156 1.46875 13.207031 1.503906 13.25 1.546875 C 13.28125 1.589844 13.316406 1.632812 13.339844 1.675781 C 13.359375 1.71875 13.371094 1.789062 13.371094 1.851562 L 13.371094 3.761719 C 13.371094 4.058594 13.558594 4.332031 13.855469 4.433594 C 14.066406 4.5 14.242188 4.5625 14.394531 4.617188 C 14.574219 4.683594 14.75 4.761719 14.917969 4.839844 C 15.070312 4.917969 15.238281 5.003906 15.414062 5.09375 C 15.578125 5.179688 15.722656 5.269531 15.867188 5.355469 C 16.140625 5.554688 16.527344 5.523438 16.773438 5.277344 L 18.019531 4.035156 L 18.027344 4.035156 C 18.070312 3.992188 18.128906 3.957031 18.171875 3.9375 C 18.214844 3.914062 18.269531 3.902344 18.339844 3.902344 C 18.40625 3.902344 18.460938 3.914062 18.507812 3.9375 C 18.5625 3.960938 18.605469 3.992188 18.660156 4.046875 L 20.347656 5.722656 C 20.40625 5.777344 20.4375 5.820312 20.460938 5.875 C 20.484375 5.917969 20.492188 5.972656 20.492188 6.042969 C 20.492188 6.109375 20.492188 6.152344 20.46875 6.195312 C 20.449219 6.242188 20.414062 6.285156 20.371094 6.328125 C 20.363281 6.328125 20.363281 6.328125 20.347656 6.335938 L 18.980469 7.714844 C 18.761719 7.933594 18.707031 8.265625 18.859375 8.550781 C 18.9375 8.703125 19.027344 8.859375 19.101562 9.035156 C 19.191406 9.199219 19.257812 9.378906 19.320312 9.539062 C 19.386719 9.71875 19.441406 9.882812 19.5 10.058594 C 19.542969 10.214844 19.585938 10.390625 19.628906 10.578125 C 19.695312 10.910156 19.984375 11.164062 20.335938 11.164062 L 22.089844 11.164062 C 22.15625 11.164062 22.222656 11.171875 22.269531 11.195312 C 22.3125 11.207031 22.355469 11.238281 22.398438 11.285156 C 22.453125 11.339844 22.488281 11.394531 22.511719 11.4375 C 22.519531 11.480469 22.53125 11.535156 22.53125 11.605469 L 22.53125 14.007812 C 22.53125 14.070312 22.523438 14.136719 22.5 14.183594 C 22.476562 14.226562 22.445312 14.269531 22.402344 14.3125 C 22.367188 14.355469 22.3125 14.390625 22.269531 14.410156 C 22.226562 14.433594 22.160156 14.445312 22.09375 14.445312 L 20.183594 14.445312 C 19.882812 14.445312 19.609375 14.632812 19.507812 14.929688 C 19.441406 15.136719 19.378906 15.3125 19.320312 15.46875 C 19.257812 15.644531 19.179688 15.820312 19.101562 15.984375 C 19.023438 16.140625 18.933594 16.304688 18.847656 16.480469 C 18.757812 16.648438 18.671875 16.792969 18.582031 16.933594 C 18.5625 16.960938 18.542969 16.988281 18.527344 17.019531 L 20.199219 17.019531 C 20.269531 16.878906 20.339844 16.726562 20.414062 16.570312 C 20.503906 16.371094 20.589844 16.175781 20.667969 15.976562 C 20.679688 15.941406 20.703125 15.898438 20.714844 15.863281 L 22.128906 15.863281 C 22.382812 15.863281 22.625 15.824219 22.847656 15.734375 C 23.066406 15.644531 23.277344 15.503906 23.453125 15.328125 C 23.632812 15.148438 23.773438 14.949219 23.863281 14.71875 C 23.953125 14.488281 23.996094 14.253906 23.996094 14.003906 L 23.996094 11.605469 C 23.996094 11.363281 23.9375 11.121094 23.851562 10.898438 C 23.761719 10.679688 23.632812 10.480469 23.453125 10.304688 L 23.445312 10.292969 C 23.269531 10.117188 23.070312 9.972656 22.847656 9.886719 C 22.628906 9.789062 22.382812 9.742188 22.132812 9.742188 L 20.925781 9.742188 C 20.925781 9.710938 20.917969 9.6875 20.90625 9.652344 C 20.839844 9.445312 20.773438 9.234375 20.695312 9.035156 C 20.605469 8.828125 20.527344 8.628906 20.441406 8.441406 C 20.429688 8.417969 20.40625 8.386719 20.398438 8.355469 L 21.390625 7.351562 C 21.578125 7.1875 21.710938 6.988281 21.8125 6.765625 C 21.898438 6.546875 21.953125 6.304688 21.953125 6.050781 C 21.953125 5.796875 21.910156 5.570312 21.8125 5.335938 C 21.710938 5.117188 21.578125 4.917969 21.402344 4.742188 L 21.390625 4.742188 L 19.703125 3.066406 C 19.527344 2.890625 19.328125 2.761719 19.09375 2.660156 C 18.863281 2.5625 18.628906 2.515625 18.378906 2.515625 C 18.136719 2.515625 17.894531 2.558594 17.660156 2.660156 C 17.429688 2.746094 17.230469 2.890625 17.050781 3.066406 L 16.191406 3.917969 L 16.125 3.882812 C 15.949219 3.785156 15.75 3.695312 15.539062 3.597656 C 15.339844 3.507812 15.144531 3.421875 14.945312 3.34375 C 14.910156 3.332031 14.867188 3.308594 14.832031 3.296875 L 14.832031 1.886719 C 14.832031 1.632812 14.789062 1.390625 14.703125 1.171875 C 14.613281 0.949219 14.46875 0.738281 14.292969 0.5625 C 14.105469 0.386719 13.90625 0.242188 13.683594 0.15625 C 13.453125 0.0664062 13.222656 0.0234375 12.96875 0.0234375 L 11.03125 0.0234375 C 10.777344 0.0234375 10.546875 0.0664062 10.3125 0.15625 C 10.09375 0.242188 9.894531 0.386719 9.703125 0.5625 C 9.527344 0.738281 9.382812 0.949219 9.296875 1.171875 C 9.207031 1.390625 9.164062 1.632812 9.164062 1.886719 L 9.164062 3.296875 C 9.132812 3.308594 9.085938 3.328125 9.054688 3.34375 C 8.855469 3.421875 8.65625 3.507812 8.457031 3.597656 C 8.25 3.695312 8.046875 3.78125 7.871094 3.882812 L 7.804688 3.917969 L 6.945312 3.066406 C 6.769531 2.890625 6.570312 2.746094 6.335938 2.660156 C 6.105469 2.5625 5.863281 2.515625 5.621094 2.515625 C 5.363281 2.515625 5.136719 2.558594 4.902344 2.660156 C 4.671875 2.757812 4.472656 2.890625 4.292969 3.066406 L 2.605469 4.742188 L 2.59375 4.742188 C 2.417969 4.917969 2.289062 5.117188 2.1875 5.335938 C 2.089844 5.566406 2.042969 5.796875 2.042969 6.050781 C 2.042969 6.304688 2.097656 6.546875 2.1875 6.765625 C 2.285156 6.984375 2.417969 7.183594 2.605469 7.347656 L 3.601562 8.351562 C 3.589844 8.382812 3.566406 8.417969 3.558594 8.441406 C 3.46875 8.625 3.390625 8.824219 3.300781 9.035156 C 3.222656 9.234375 3.160156 9.441406 3.09375 9.652344 C 3.082031 9.683594 3.070312 9.707031 3.070312 9.738281 L 1.867188 9.738281 C 1.609375 9.738281 1.367188 9.785156 1.148438 9.882812 C 0.929688 9.972656 0.730469 10.113281 0.554688 10.292969 L 0.542969 10.300781 C 0.367188 10.476562 0.234375 10.675781 0.144531 10.894531 C 0.0546875 11.117188 0 11.363281 0 11.605469 L 0 14.003906 C 0 14.257812 0.0429688 14.488281 0.132812 14.71875 C 0.21875 14.949219 0.363281 15.148438 0.539062 15.328125 C 0.71875 15.503906 0.925781 15.644531 1.148438 15.734375 C 1.367188 15.824219 1.613281 15.863281 1.867188 15.863281 L 3.28125 15.863281 C 3.289062 15.898438 3.3125 15.941406 3.324219 15.976562 C 3.402344 16.175781 3.492188 16.371094 3.578125 16.570312 C 3.65625 16.730469 3.722656 16.878906 3.792969 17.019531 Z M 8.199219 14.792969 C 7.988281 14.800781 7.828125 14.84375 7.71875 14.917969 C 7.65625 14.960938 7.609375 15.015625 7.582031 15.078125 C 7.550781 15.148438 7.535156 15.234375 7.535156 15.332031 C 7.542969 15.617188 7.695312 15.996094 7.988281 16.433594 L 7.992188 16.4375 L 8.941406 17.945312 C 9.324219 18.550781 9.722656 19.167969 10.21875 19.617188 C 10.695312 20.054688 11.277344 20.347656 12.042969 20.351562 C 12.871094 20.355469 13.480469 20.046875 13.972656 19.589844 C 14.484375 19.109375 14.886719 18.453125 15.285156 17.800781 L 16.355469 16.042969 C 16.554688 15.589844 16.628906 15.285156 16.582031 15.105469 C 16.554688 15 16.4375 14.945312 16.238281 14.9375 C 16.195312 14.933594 16.152344 14.933594 16.105469 14.933594 C 16.058594 14.9375 16.007812 14.9375 15.957031 14.945312 C 15.929688 14.945312 15.902344 14.945312 15.871094 14.9375 C 15.777344 14.945312 15.679688 14.9375 15.578125 14.921875 L 15.945312 13.304688 C 13.226562 13.730469 11.191406 11.71875 8.316406 12.902344 L 8.523438 14.808594 C 8.410156 14.808594 8.296875 14.808594 8.199219 14.792969 Z M 16.601562 14.453125 C 16.863281 14.53125 17.035156 14.699219 17.105469 14.96875 C 17.179688 15.269531 17.097656 15.6875 16.84375 16.261719 C 16.839844 16.273438 16.835938 16.285156 16.828125 16.292969 L 15.746094 18.070312 C 15.332031 18.757812 14.90625 19.445312 14.339844 19.972656 L 14.3125 20 C 14.367188 20.078125 14.425781 20.164062 14.488281 20.253906 C 14.671875 20.527344 14.886719 20.84375 15.085938 21.085938 C 16.265625 21.816406 18.851562 22.011719 19.863281 22.574219 C 22.441406 24.007812 21.5 27.488281 21.6875 29.992188 C 21.632812 30.585938 21.296875 30.925781 20.632812 30.976562 L 19.921875 30.976562 L 20.707031 25.039062 C 20.765625 24.574219 20.4375 24.195312 20.03125 24.195312 L 14.507812 24.195312 C 14.644531 23.226562 14.746094 22.300781 14.792969 21.601562 C 14.535156 21.316406 14.257812 20.914062 14.023438 20.566406 C 13.96875 20.488281 13.917969 20.414062 13.871094 20.347656 C 13.375 20.679688 12.78125 20.886719 12.042969 20.882812 C 11.21875 20.878906 10.574219 20.597656 10.039062 20.167969 C 9.890625 20.613281 9.671875 21.226562 9.460938 21.523438 C 9.441406 21.546875 9.417969 21.570312 9.394531 21.585938 C 9.484375 22.3125 9.613281 23.238281 9.761719 24.199219 L 4.105469 24.199219 C 3.703125 24.199219 3.371094 24.578125 3.429688 25.039062 L 4.214844 30.976562 L 3.5 30.976562 C 2.835938 30.925781 2.503906 30.585938 2.445312 29.996094 C 2.480469 27.34375 1.46875 24.132812 4.269531 22.578125 C 5.292969 22.007812 7.9375 21.8125 9.089844 21.058594 C 9.269531 20.730469 9.460938 20.132812 9.582031 19.78125 C 9.59375 19.742188 9.574219 19.808594 9.59375 19.75 C 9.167969 19.296875 8.824219 18.757812 8.492188 18.230469 L 7.542969 16.722656 C 7.191406 16.207031 7.015625 15.734375 7 15.347656 C 6.996094 15.164062 7.027344 15 7.09375 14.851562 C 7.164062 14.703125 7.273438 14.574219 7.421875 14.476562 C 7.488281 14.429688 7.566406 14.390625 7.648438 14.355469 C 7.589844 13.539062 7.5625 12.507812 7.605469 11.644531 C 7.625 11.441406 7.664062 11.234375 7.71875 11.03125 C 8.070312 9.792969 9.136719 8.898438 10.355469 8.476562 C 10.945312 8.273438 10.71875 7.789062 11.316406 7.820312 C 12.738281 7.898438 14.921875 8.808594 15.765625 9.777344 C 16.945312 11.128906 16.640625 12.796875 16.601562 14.453125 Z M 10.109375 22.742188 C 9.628906 22.199219 9.589844 21.628906 10.109375 21.027344 C 10.710938 21.175781 11.261719 21.4375 11.769531 21.785156 C 11.875 21.738281 12.003906 21.71875 12.128906 21.730469 C 12.65625 21.355469 13.328125 21.203125 13.917969 20.925781 C 14.617188 21.609375 14.542969 22.234375 13.851562 22.816406 C 13.46875 22.730469 13.101562 22.59375 12.75 22.414062 C 12.738281 22.503906 12.71875 22.601562 12.675781 22.707031 L 12.851562 24.195312 L 11.421875 24.195312 L 11.601562 22.707031 C 11.488281 22.519531 11.445312 22.359375 11.449219 22.226562 C 11.03125 22.472656 10.582031 22.636719 10.109375 22.742188 Z M 10.109375 22.742188 "/>
</g>
</svg>
