<?xml version="1.0" encoding="utf-8"?>
<!-- Generator: Adobe Illustrator 17.1.0, SVG Export Plug-In . SVG Version: 6.00 Build 0)  -->
<!DOCTYPE svg PUBLIC "-//W3C//DTD SVG 1.1//EN" "http://www.w3.org/Graphics/SVG/1.1/DTD/svg11.dtd">
<svg version="1.1" id="delivery-girl" xmlns="http://www.w3.org/2000/svg" xmlns:xlink="http://www.w3.org/1999/xlink" x="0px"
	 y="0px" viewBox="0 0 1010.0006 840.5948" enable-background="new 0 0 1010.0006 840.5948" xml:space="preserve">
<g>
	<g>
		<rect x="62.6891" y="491.3956" fill="#DFDFE1" width="453.8344" height="338.288"/>
		<path fill="#4D4D4D" d="M516.5235,839.9346H62.6891c-5.666,0-10.251-4.5849-10.251-10.251v-338.288
			c0-5.6661,4.585-10.252,10.251-10.252h453.8344c5.6661,0,10.251,4.5859,10.251,10.252v338.288
			C526.7745,835.3497,522.1896,839.9346,516.5235,839.9346L516.5235,839.9346z M72.9401,819.4327h433.332V501.6465H72.9401V819.4327
			L72.9401,819.4327z"/>
	</g>
	<g>
		<path fill="#4D4D4D" d="M425.985,669.71H140.1735c-4.0645,0-7.7486-2.4033-9.3902-6.127L60.1461,503.0079
			c-2.2822-5.1758,0.0801-11.2325,5.2661-13.5049c5.1856-2.2617,11.2119,0.0703,13.5147,5.2558l67.9341,154.4483h272.8369
			l80.6679-158.1826c2.5625-5.0752,8.7696-7.0274,13.795-4.4746c5.0253,2.5722,7.0478,8.7402,4.4648,13.7851l-83.5107,163.7784
			C433.3727,667.5469,429.8287,669.71,425.985,669.71L425.985,669.71z"/>
	</g>
	<g>
		<path fill="#4D4D4D" d="M62.6891,839.9346c-1.4214,0-2.8633-0.29-4.2447-0.9209c-5.1455-2.3428-7.4282-8.4287-5.0854-13.5752
			l77.4844-170.2246c2.3623-5.1465,8.4492-7.4082,13.5747-5.0859c5.1455,2.3428,7.4282,8.4297,5.0854,13.5742L72.0192,833.9288
			C70.2975,837.7022,66.5734,839.9346,62.6891,839.9346L62.6891,839.9346z"/>
	</g>
	<g>
		<path fill="#4D4D4D" d="M516.5235,839.9346c-3.664,0-7.208-1.9726-9.0502-5.4355l-90.5386-170.2256
			c-2.6626-4.9951-0.7608-11.2119,4.2446-13.8652c4.9058-2.6534,11.1724-0.7911,13.8555,4.2353l90.5386,170.2246
			c2.6626,4.9961,0.7607,11.2129-4.2447,13.8652C519.8068,839.5538,518.1652,839.9346,516.5235,839.9346L516.5235,839.9346z"/>
	</g>
</g>
<g>
	<g>
		<path fill="#FFFFFF" d="M672.9938,442.6822l34.4775,1.5615c-29.5527,37.7808-54.7793,48.5327-69.1553,51.2358
			C653.6119,470.5323,667.108,450.9712,672.9938,442.6822z"/>
		<g>
			<path fill="#5FD4AF" d="M832.8483,638.9756l-0.0801,180.4571H610.8053l0.4014-162.4571c0-2.8632-1.2413-5.6465-3.3643-7.5879
				c-1.3613-1.2617-33.0352-31.2949-7.7285-84.3925c8.0098-16.8379,16.8594-33.1563,25.6289-48.3731
				c1.2812,0.1006,2.3623,0.2608,4.084,0.2608c17.6592,0,57.662-8.3291,102.3515-71.4981l57.2227,2.603
				C834.3697,485.0088,833.2076,600.5743,832.8483,638.9756z"/>
			<path fill="#4D4D4D" d="M843.0192,829.6836H600.5348l0.421-172.7382c-1.6621-1.501-38.543-36.67-10.0919-96.3643
				c7.2686-15.2676,15.7773-31.3242,25.9883-49.0742l3.2441-5.6055l9.7305,0.7305c13.9745,0,51.0957-6.5469,93.9824-67.1631
				l3.2441-4.5752l66.2314,3.0132l2.623,2.1626c43.628,35.9189,47.8321,130.6621,47.1914,198.8066L843.0192,829.6836
				L843.0192,829.6836z M621.0768,809.1807h201.4394l0.0801-170.2051c0.9014-96.1045-11.6328-156.83-37.2598-180.9067
				l-48.0927-2.1924c-44.1475,60.1948-84.3721,70.7163-105.6953,71.2378c-8.5889,15.1563-15.877,29.041-22.1846,42.2852
				c-22.0235,46.2412,4.3047,71.4179,5.4464,72.4697c4.2041,3.8447,6.6474,9.3701,6.6474,15.1064L621.0768,809.1807
				L621.0768,809.1807z"/>
		</g>
	</g>
	<g>
		<path fill="#4D4D4D" d="M843.0192,839.9346H600.5143c-2.7227,0-5.3457-1.0918-7.2676-3.0234
			c-1.9219-1.9317-3.0029-4.5449-2.9824-7.2774l0.4394-168.4042c-15.1162-16.418-32.9355-55.0098-9.0898-105.0439
			c32.1152-67.5234,76.2227-127.5586,78.0859-130.0815c2.041-2.753,5.3252-4.275,8.709-4.1543l125.1758,5.706
			c2.0223,0.0899,3.9844,0.7808,5.6268,1.9819c55.7803,41.0748,54.5792,163.4688,54.1192,209.5489l-0.0605,8.1181v182.3789
			C853.2701,835.3497,848.6852,839.9346,843.0192,839.9346L843.0192,839.9346z M610.8053,819.4327h221.9629l0.0595-180.4473
			c0.3799-38.4111,1.5225-153.9873-43.4267-190.9976l-116.3867-5.3056c-10.7324,15.0962-46.4912,66.8227-72.9005,122.313
			c-25.287,53.0976,6.3672,83.1406,7.7285,84.3925c2.123,1.9414,3.3643,4.7247,3.3643,7.5879L610.8053,819.4327L610.8053,819.4327z"
			/>
	</g>
	<g>
		<path fill="#4D4D4D" d="M629.8268,516.8829c-5.626,0-9.0098-0.8213-9.5303-0.9717c-5.4658-1.4512-8.7295-7.0772-7.2686-12.543
			c1.4415-5.4062,6.9279-8.5596,12.3947-7.3086c0.9803,0.2012,43.1465,8.1094,94.9433-69.5552
			c3.1631-4.7251,9.5293-5.9663,14.2148-2.8432c4.7051,3.1435,5.9863,9.5005,2.8438,14.2158
			C690.6334,508.0733,648.1861,516.8829,629.8268,516.8829L629.8268,516.8829z"/>
	</g>
	<g>
		<path fill="#FF9554" d="M999.7496,351.9034c0-59.9556-53.1377-76.1534-53.1377-76.1534l-2.1621-47.0708
			C933.7584,102.3116,837.1324,10.251,719.2037,10.251c-117.9687,0-212.9917,89.9483-222.2016,218.4282
			c-2.0821,30.0025-4.2447,57.7427-4.2447,57.7427s-49.0932,13.9654-53.9389,67.6035c-2.1221,23.5557,10.7119,74.962,70.6772,74.962
			h186.2432h237.6582C933.3971,428.9874,999.7496,422.5201,999.7496,351.9034z"/>
		<path fill="#4D4D4D" d="M933.3971,439.2383H509.4957c-24.8672,0-45.6499-8.3388-60.0654-24.1162
			c-17.7393-19.4111-22.3042-45.5395-20.8228-62.0176c4.3247-47.7822,39.2627-67.6035,54.4395-74.0107
			c0.7607-9.9507,2.2622-29.9727,3.7241-51.1255C496.2413,95.8643,593.9879,0,719.2037,0
			c123.2539,0,224.4649,97.9366,235.4571,227.8179l1.8818,40.7144c21.624,9.4204,53.458,35.4087,53.458,83.3711
			c0,63.2187-49.4531,84.7422-75.6016,87.2851C934.0582,439.2183,933.7379,439.2383,933.3971,439.2383L933.3971,439.2383z
			 M719.2037,20.5025c-114.1445,0-203.3012,87.8555-211.9707,208.9072c-2.082,30.023-4.2646,57.813-4.2646,57.813
			c-0.3203,4.2749-3.2832,7.8887-7.4077,9.0601c-1.6822,0.5005-42.4063,12.9638-46.5308,58.6635
			c-0.9009,9.9209,1.3613,30.8438,15.5366,46.3409c10.5718,11.5825,25.688,17.4487,44.9292,17.4487H932.817
			c5.7266-0.7207,56.6816-8.7896,56.6816-66.8325c0-51.7666-45.4102-66.2124-45.8701-66.3526
			c-4.1445-1.2612-7.0674-4.9951-7.248-9.33l-2.1621-47.0713C923.9869,108.418,833.5485,20.5025,719.2037,20.5025L719.2037,20.5025z
			"/>
	</g>
	<g>
		<path fill="#FFFFFF" d="M857.4752,404.0801c-36.2402,30.5933-82.21,49.874-135.1074,49.874
			c-50.4151,0-92.6611-19.9414-129.9024-45.5292c-14.8553-10.2115-34.7578-37.0806-34.7578-37.0806V198.9966h328.5987v174.6802
			C886.3063,373.6768,872.1305,391.6963,857.4752,404.0801z"/>
		<path fill="#4D4D4D" d="M722.3678,464.2056c-45.5899,0-88.7168-15.0366-135.708-47.3315
			c-16.0771-11.0523-36.3398-38.272-37.1807-39.4331c-1.3213-1.7618-2.0215-3.9043-2.0215-6.0967V198.9966
			c0-5.666,4.584-10.2509,10.25-10.2509h328.5987c5.666,0,10.2509,4.5849,10.2509,10.2509v174.6802
			c0,2.3027-0.7812,4.5352-2.2031,6.3369c-0.5996,0.771-14.9961,18.9907-30.2724,31.895
			C823.5572,446.126,774.5651,464.2056,722.3678,464.2056L722.3678,464.2056z M567.9597,367.9004
			c6.5869,8.5494,20.4824,25.3179,30.3124,32.0752c43.4277,29.8326,82.8506,43.7276,124.0957,43.7276
			c47.291,0,91.7197-16.4077,128.5-47.4517c10.4111-8.7998,20.7822-20.8926,25.1875-26.2187V209.2481H567.9597V367.9004
			L567.9597,367.9004z"/>
	</g>
	<path fill="#4D4D4D" d="M652.3307,271.085c0,10.6816-8.6485,19.3613-19.3809,19.3613c-10.6914,0-19.3408-8.6797-19.3408-19.3613
		c0-10.6714,8.6494-19.3809,19.3408-19.3809C643.6822,251.7041,652.3307,260.4136,652.3307,271.085z"/>
	<path fill="#4D4D4D" d="M836.6119,271.085c0,10.6816-8.6895,19.3613-19.3808,19.3613c-10.6914,0-19.3809-8.6797-19.3809-19.3613
		c0-10.6714,8.6895-19.3809,19.3809-19.3809C827.9225,251.7041,836.6119,260.4136,836.6119,271.085z"/>
	<g>
		<path fill="#4D4D4D" d="M724.4098,371.5845c-20.8828,0-39.5635-12.5434-47.6319-31.9448
			c-2.162-5.2354,0.3204-11.2319,5.5459-13.4043c5.2061-2.1323,11.212,0.3003,13.3947,5.5361
			c4.8652,11.7325,16.1377,19.3111,28.6913,19.3111c12.5938,0,23.8457-7.5586,28.6318-19.2613
			c2.1621-5.2558,8.2285-7.7085,13.374-5.6059c5.2452,2.1523,7.748,8.1387,5.6064,13.3745
			C764.0533,359.0308,745.3727,371.5845,724.4098,371.5845L724.4098,371.5845z"/>
	</g>
	<g>
		<g>
			<polygon fill="#5FD4AF" points="784.3551,164.9498 784.3551,92.1602 846.4225,117.8282 846.4225,139.2715 			"/>
			<path fill="#4D4D4D" d="M784.3551,175.2007c-2.0029,0-3.9844-0.5805-5.7061-1.7319c-2.8437-1.9019-4.5449-5.0952-4.5449-8.519
				V92.1602c0-3.4238,1.7012-6.6172,4.5449-8.519c2.8428-1.9224,6.4473-2.2725,9.6309-0.9512l62.0664,25.668
				c3.8242,1.5815,6.3281,5.3256,6.3281,9.4702v21.4433c0,4.1446-2.5039,7.8887-6.3281,9.4702L788.2799,174.42
				C787.0182,174.9405,785.6764,175.2007,784.3551,175.2007L784.3551,175.2007z M794.6061,107.4971v42.1157l41.5654-17.1987v-7.7285
				L794.6061,107.4971L794.6061,107.4971z"/>
		</g>
		<g>
			<polygon fill="#5FD4AF" points="929.9537,164.9498 929.9537,92.1602 867.8463,117.8282 867.8463,139.2715 			"/>
			<path fill="#4D4D4D" d="M929.9537,175.2007c-1.3222,0-2.6631-0.2602-3.9238-0.7807l-62.1084-25.6783
				c-3.8242-1.5815-6.3271-5.3256-6.3271-9.4702v-21.4433c0-4.1446,2.5029-7.8887,6.3271-9.4702l62.1084-25.668
				c3.1836-1.3013,6.7666-0.9712,9.6299,0.9512c2.8428,1.9018,4.5449,5.0952,4.5449,8.519v72.7896
				c0,3.4238-1.7021,6.6171-4.5449,8.519C933.9381,174.6202,931.9557,175.2007,929.9537,175.2007L929.9537,175.2007z
				 M878.0973,132.4141l41.6045,17.209v-42.1362l-41.6045,17.1987V132.4141L878.0973,132.4141z"/>
		</g>
		<g>
			<path fill="#FFFFFF" d="M878.5377,128.5401c0,10.6216-8.5693,19.2309-19.2617,19.2309c-10.6113,0-19.2598-8.6093-19.2598-19.2309
				c0-10.6318,8.6485-19.3013,19.2598-19.3013C869.9684,109.2388,878.5377,117.9083,878.5377,128.5401z"/>
			<path fill="#4D4D4D" d="M859.276,158.022c-16.2773,0-29.5117-13.2241-29.5117-29.4819c0-16.2979,13.2343-29.5523,29.5117-29.5523
				c16.2783,0,29.5127,13.2544,29.5127,29.5523C888.7887,144.7979,875.5543,158.022,859.276,158.022L859.276,158.022z
				 M859.276,119.4903c-4.9649,0-9.0098,4.0644-9.0098,9.0498c0,4.9551,4.0449,8.9795,9.0098,8.9795
				c4.9658,0,9.0098-4.0244,9.0098-8.9795C868.2858,123.5547,864.2418,119.4903,859.276,119.4903L859.276,119.4903z"/>
		</g>
	</g>
	<g>
		<path fill="#FFFFFF" d="M584.4166,795.0459c0,19.501-15.8164,35.2989-35.3574,35.2989c-19.4614,0-35.3189-15.7979-35.3189-35.2989
			c0-19.541,15.8575-35.3183,35.3189-35.3183C568.6002,759.7276,584.4166,775.5049,584.4166,795.0459z"/>
		<path fill="#4D4D4D" d="M549.0592,840.5948c-25.1279,0-45.5698-20.4317-45.5698-45.5489
			c0-25.1269,20.4419-45.5703,45.5698-45.5703c25.1465,0,45.6094,20.4434,45.6094,45.5703
			C594.6686,820.1631,574.2057,840.5948,549.0592,840.5948L549.0592,840.5948z M549.0592,769.9786
			c-13.8154,0-25.0679,11.2422-25.0679,25.0673c0,13.8145,11.2525,25.0469,25.0679,25.0469
			c13.834,0,25.1074-11.2324,25.1074-25.0469C574.1666,781.2208,562.8932,769.9786,549.0592,769.9786L549.0592,769.9786z"/>
	</g>
	<g>
		<path fill="#5FD4AF" d="M740.6676,506.4112c-29.9522,0-38.5225,17.0996-38.5225,40.7051v211.9101H556.5475v70.6572h218.3973
			c0,0,0-265.4697,0-282.5673C774.9449,521.3877,766.3356,506.4112,740.6676,506.4112z"/>
		<path fill="#4D4D4D" d="M774.9449,839.9346H556.5475c-5.666,0-10.252-4.5849-10.252-10.251v-70.6572
			c0-5.666,4.586-10.251,10.252-10.251h135.3467V547.1163c0-42.1163,26.5293-50.9561,48.7734-50.9561
			c29.5518,0,44.5283,17.1494,44.5283,50.9561v282.5673C785.1959,835.3497,780.611,839.9346,774.9449,839.9346L774.9449,839.9346z
			 M566.7975,819.4327H764.694V547.1163c0-25.4688-8.8106-30.4532-24.0264-30.4532c-20.6025,0-28.2705,8.2481-28.2705,30.4532
			v211.9101c0,5.666-4.586,10.252-10.252,10.252H566.7975V819.4327L566.7975,819.4327z"/>
	</g>
</g>
<g>
	<g>
		<path fill="#CCCCCC" d="M201.1998,442.1817c0,0-3.2236-178.0142-148.8818-197.4151l-42.086,32.3453
			C10.232,277.1119,139.713,241.5533,201.1998,442.1817z"/>
		<path fill="#4D4D4D" d="M201.1998,452.4327c-4.4448,0-8.4692-2.8833-9.8105-7.2481
			C148.6627,305.7427,74.0016,284.9302,33.297,284.9302c-12.4136,0-20.3223,2.0523-20.3823,2.0825
			c-4.8052,1.2911-9.7105-1.0014-11.8526-5.3759c-2.1626-4.3848-0.9414-9.6807,2.9229-12.6538l42.0859-32.3453
			c2.1626-1.6518,4.8252-2.4028,7.6084-2.0322c152.626,20.332,157.7319,205.5239,157.772,207.3858
			c0.1001,5.1157-3.584,9.5102-8.6494,10.3115C202.2609,452.3926,201.7203,452.4327,201.1998,452.4327L201.1998,452.4327z
			 M43.1276,264.7681c34.2973,2.3628,83.5712,18.1499,124.6958,79.5069c-18.6001-40.0137-52.1568-79.1563-112.7027-88.7369
			L43.1276,264.7681L43.1276,264.7681z"/>
	</g>
	<g>
		<path fill="#CCCCCC" d="M249.7731,442.1817c0,0,3.2232-178.0142,148.8618-197.4151l42.1059,32.3453
			C440.7408,277.1119,311.2399,241.5533,249.7731,442.1817z"/>
		<path fill="#4D4D4D" d="M249.7731,452.4327c-0.521,0-1.0615-0.0401-1.6021-0.1299c-5.0454-0.8013-8.7495-5.1958-8.6494-10.3115
			c0.04-1.8619,5.1455-187.0538,157.7519-207.3858c2.8028-0.3804,5.4459,0.3706,7.6084,2.0322l42.1055,32.3453
			c3.8843,2.9834,5.106,8.309,2.9234,12.6938c-2.1822,4.3945-7.0879,6.5869-11.8931,5.3159
			c-0.02-0.0102-7.9287-2.0625-20.3418-2.0625c-40.7046,0-115.3857,20.8125-158.0923,160.2544
			C258.2419,449.5494,254.2179,452.4327,249.7731,452.4327L249.7731,452.4327z M395.8317,255.5381
			c-60.5259,9.5806-94.0621,48.7032-112.6827,88.7168c41.125-61.3466,90.3785-77.124,124.6958-79.4868L395.8317,255.5381
			L395.8317,255.5381z"/>
	</g>
	<g>
		<g>
			<line fill="#FFFFFF" x1="124.1158" y1="182.4888" x2="145.7794" y2="182.4888"/>
			<path fill="#4D4D4D" d="M145.7794,192.7398h-21.6636c-5.666,0-10.2509-4.585-10.2509-10.251
				c0-5.6665,4.5849-10.2514,10.2509-10.2514h21.6636c5.6665,0,10.2515,4.5849,10.2515,10.2514
				C156.0309,188.1548,151.4459,192.7398,145.7794,192.7398L145.7794,192.7398z"/>
		</g>
		<g>
			<line fill="#FFFFFF" x1="179.5162" y1="182.4888" x2="201.1998" y2="182.4888"/>
			<path fill="#4D4D4D" d="M201.1998,192.7398h-21.6836c-5.666,0-10.251-4.585-10.251-10.251c0-5.6665,4.585-10.2514,10.251-10.2514
				h21.6836c5.6665,0,10.2515,4.5849,10.2515,10.2514C211.4513,188.1548,206.8663,192.7398,201.1998,192.7398L201.1998,192.7398z"/>
		</g>
		<g>
			<line fill="#FFFFFF" x1="162.6778" y1="146.3492" x2="162.6778" y2="168.023"/>
			<path fill="#4D4D4D" d="M162.6778,178.274c-5.666,0-10.2509-4.585-10.2509-10.251v-21.6738c0-5.666,4.5849-10.251,10.2509-10.251
				c5.6665,0,10.2515,4.585,10.2515,10.251v21.6738C172.9293,173.689,168.3443,178.274,162.6778,178.274L162.6778,178.274z"/>
		</g>
		<g>
			<line fill="#FFFFFF" x1="162.6778" y1="201.7696" x2="162.6778" y2="223.4532"/>
			<path fill="#4D4D4D" d="M162.6778,233.7046c-5.666,0-10.2509-4.5849-10.2509-10.2514v-21.6836
				c0-5.666,4.5849-10.251,10.2509-10.251c5.6665,0,10.2515,4.585,10.2515,10.251v21.6836
				C172.9293,229.1197,168.3443,233.7046,162.6778,233.7046L162.6778,233.7046z"/>
		</g>
	</g>
	<g>
		<g>
			<line fill="#FFFFFF" x1="295.4025" y1="62.6182" x2="317.066" y2="62.6182"/>
			<path fill="#4D4D4D" d="M317.066,72.8692h-21.6635c-5.6661,0-10.251-4.585-10.251-10.251s4.5849-10.251,10.251-10.251h21.6635
				c5.666,0,10.2515,4.585,10.2515,10.251S322.732,72.8692,317.066,72.8692L317.066,72.8692z"/>
		</g>
		<g>
			<line fill="#FFFFFF" x1="350.8028" y1="62.6182" x2="372.4664" y2="62.6182"/>
			<path fill="#4D4D4D" d="M372.4664,72.8692h-21.6636c-5.666,0-10.2509-4.585-10.2509-10.251s4.5849-10.251,10.2509-10.251h21.6636
				c5.666,0,10.251,4.585,10.251,10.251S378.1324,72.8692,372.4664,72.8692L372.4664,72.8692z"/>
		</g>
		<g>
			<line fill="#FFFFFF" x1="333.9044" y1="26.4888" x2="333.9044" y2="48.1827"/>
			<path fill="#4D4D4D" d="M333.9044,58.4336c-5.666,0-10.251-4.5849-10.251-10.2509V26.4888c0-5.666,4.585-10.251,10.251-10.251
				c5.666,0,10.251,4.585,10.251,10.251v21.6939C344.1554,53.8487,339.5704,58.4336,333.9044,58.4336L333.9044,58.4336z"/>
		</g>
		<g>
			<line fill="#FFFFFF" x1="333.9044" y1="81.8589" x2="333.9044" y2="103.5328"/>
			<path fill="#4D4D4D" d="M333.9044,113.7837c-5.666,0-10.251-4.5849-10.251-10.2509V81.8589c0-5.666,4.585-10.2509,10.251-10.2509
				c5.666,0,10.251,4.5849,10.251,10.2509v21.6739C344.1554,109.1988,339.5704,113.7837,333.9044,113.7837L333.9044,113.7837z"/>
		</g>
	</g>
</g>
</svg>
