<?xml version="1.0" encoding="utf-8"?>
<!-- Generator: Adobe Illustrator 24.0.2, SVG Export Plug-In . SVG Version: 6.00 Build 0)  -->
<svg version="1.1" xmlns="http://www.w3.org/2000/svg" xmlns:xlink="http://www.w3.org/1999/xlink" x="0px" y="0px"
	 viewBox="0 0 1080 1080" style="enable-background:new 0 0 1080 1080;" xml:space="preserve">
<style type="text/css">
	.st0{fill:#EBDBB2;stroke:#000000;stroke-width:6;stroke-miterlimit:10;}
	.st1{fill:#FFFFFF;}
	.st2{fill:#FFFFFF;stroke:#FFFFFF;stroke-miterlimit:10;}
	.st3{fill:#F7F7F7;}
	.st4{fill:url(#SVGID_1_);stroke:#000000;stroke-width:6;stroke-miterlimit:10;}
	.st5{fill:url(#SVGID_2_);stroke:#000000;stroke-width:6;stroke-miterlimit:10;}
	.st6{fill:url(#SVGID_3_);stroke:#000000;stroke-width:6;stroke-miterlimit:10;}
	.st7{fill:#8EC07C;stroke:#000000;stroke-width:6;stroke-miterlimit:10;}
	.st8{font-family:'AfterDisaster';}
	.st9{font-size:28px;}
	.st10{letter-spacing:2;}
</style>
<g id="Layer_1">
</g>
<g id="Image">
	<path class="st0" d="M492.65,447.54l51.66-34.62c0.8-0.54,1.85-0.54,2.65,0.01l51.1,34.6c1.39,0.94,1.39,2.99,0,3.93l-51.66,35.15
		c-0.81,0.55-1.87,0.55-2.68-0.01l-51.1-35.13C491.24,450.52,491.25,448.47,492.65,447.54z"/>
	<path class="st0" d="M376.63,383.57l51.66-34.62c0.8-0.54,1.85-0.54,2.65,0.01l51.1,34.6c1.39,0.94,1.39,2.99,0,3.93l-51.66,35.15
		c-0.81,0.55-1.87,0.55-2.68-0.01l-51.1-35.13C375.23,386.54,375.24,384.5,376.63,383.57z"/>
	<path class="st0" d="M607.43,383.57l51.66-34.62c0.8-0.54,1.85-0.54,2.65,0.01l51.1,34.6c1.39,0.94,1.39,2.99,0,3.93l-51.66,35.15
		c-0.81,0.55-1.87,0.55-2.68-0.01l-51.1-35.13C606.03,386.54,606.04,384.5,607.43,383.57z"/>
	<path class="st0" d="M493.03,317.3l51.66-34.62c0.8-0.54,1.85-0.54,2.65,0.01l51.1,34.6c1.39,0.94,1.39,2.99,0,3.93l-51.66,35.15
		c-0.81,0.55-1.87,0.55-2.68-0.01l-51.1-35.13C491.63,320.28,491.64,318.23,493.03,317.3z"/>
	<polyline class="st1" points="440.47,385.24 457.18,373.14 447.96,366.8 428.95,380.05 410.51,366.8 401.29,373.14 418,385.24 	"/>
	<polyline class="st2" points="417.65,385.43 400.94,397.53 410.16,403.87 429.18,390.62 447.62,403.87 456.84,397.53 
		440.13,385.43 	"/>
	<rect x="539.01" y="295.34" class="st1" width="13.25" height="46.1"/>
	
		<rect x="539" y="295.92" transform="matrix(4.487972e-11 -1 1 4.487972e-11 226.6487 864.5981)" class="st1" width="13.25" height="46.1"/>
	<rect x="511.64" y="444.3" class="st3" width="66.84" height="10.95"/>
	<rect x="627.87" y="379.22" class="st1" width="66.84" height="10.95"/>
	<ellipse class="st1" cx="660.04" cy="368.81" rx="6.63" ry="6.05"/>
	<ellipse class="st1" cx="660.14" cy="401.29" rx="6.63" ry="6.05"/>
	<linearGradient id="SVGID_1_" gradientUnits="userSpaceOnUse" x1="545.6356" y1="715.9338" x2="545.6356" y2="466.5376">
		<stop  offset="0" style="stop-color:#FFFFFF"/>
		<stop  offset="0.7854" style="stop-color:#8EC07C"/>
	</linearGradient>
	<path class="st4" d="M485.49,466.87l58.62,40.16c0.58,0.39,1.33,0.4,1.91,0.01l59.78-40.21c1.13-0.76,2.65,0.05,2.65,1.41v205.07
		c0,0.57-0.28,1.1-0.75,1.41l-61.1,40.92c-0.58,0.39-1.34,0.38-1.91-0.01l-61.12-42.06c-0.46-0.32-0.74-0.84-0.74-1.4v-203.9
		C482.83,466.91,484.36,466.1,485.49,466.87z"/>
	<linearGradient id="SVGID_2_" gradientUnits="userSpaceOnUse" x1="429.2343" y1="651.0012" x2="429.2343" y2="400.6383">
		<stop  offset="0" style="stop-color:#FFFFFF"/>
		<stop  offset="0.7822" style="stop-color:#8EC07C"/>
	</linearGradient>
	<path class="st5" d="M367,401.47v207.77c0,0.28,0.14,0.54,0.37,0.69l61.4,40.93c0.28,0.19,0.65,0.19,0.93-0.01l37.79-25.94
		c0.23-0.15,0.36-0.41,0.36-0.68V448.51c0-0.11,0.02-0.22,0.06-0.33c3.11-7.55,13.35-13.61,23.17-19.77
		c0.24-0.15,0.39-0.42,0.39-0.7v-26.24c0-0.66-0.73-1.06-1.29-0.69l-60.49,39.77c-0.28,0.18-0.64,0.18-0.91,0l-60.49-39.77
		C367.73,400.41,367,400.81,367,401.47z"/>
	<linearGradient id="SVGID_3_" gradientUnits="userSpaceOnUse" x1="661.7656" y1="651.6653" x2="661.7656" y2="401.3024">
		<stop  offset="0" style="stop-color:#FFFFFF"/>
		<stop  offset="0.7177" style="stop-color:#8EC07C"/>
	</linearGradient>
	<path class="st6" d="M724,402.13V609.9c0,0.28-0.14,0.54-0.37,0.69l-61.4,40.93c-0.28,0.19-0.65,0.19-0.93-0.01l-37.79-25.94
		c-0.23-0.15-0.36-0.41-0.36-0.68V449.17c0-0.11-0.02-0.22-0.06-0.33c-3.11-7.55-13.35-13.61-23.17-19.77
		c-0.24-0.15-0.39-0.42-0.39-0.7v-26.24c0-0.66,0.73-1.06,1.29-0.69l60.49,39.77c0.28,0.18,0.64,0.18,0.91,0l60.49-39.77
		C723.27,401.08,724,401.47,724,402.13z"/>
	<path class="st7" d="M484.03,332.19l61.17,42.09c0.26,0.18,0.61,0.18,0.87,0l59.45-40.38c0.51-0.35,1.2,0.02,1.2,0.64v31.58
		c0,0.25-0.12,0.48-0.32,0.62l-21.83,15.67c-0.2,0.14-0.32,0.38-0.32,0.62v35.63c0,0.61-0.68,0.98-1.19,0.64l-37.57-24.86
		c-0.26-0.17-0.59-0.17-0.85,0l-37.57,24.86c-0.51,0.34-1.19-0.03-1.19-0.64v-35.61c0-0.26-0.13-0.5-0.35-0.64l-22.35-14.53
		c-0.22-0.14-0.35-0.38-0.35-0.64v-34.42C482.83,332.2,483.52,331.84,484.03,332.19z"/>
	<text transform="matrix(1 0 0 1 497.7661 746.4258)" class="st8 st9 st10">DysIMAL</text>
</g>
</svg>
