<?xml version="1.0" encoding="utf-8"?>
<!-- Generator: Adobe Illustrator 17.1.0, SVG Export Plug-In . SVG Version: 6.00 Build 0)  -->
<!DOCTYPE svg PUBLIC "-//W3C//DTD SVG 1.1//EN" "http://www.w3.org/Graphics/SVG/1.1/DTD/svg11.dtd">
<svg version="1.1" id="folder-files" xmlns="http://www.w3.org/2000/svg" xmlns:xlink="http://www.w3.org/1999/xlink" x="0px"
	 y="0px" viewBox="0 0 1007.2704 1009.9995" enable-background="new 0 0 1007.2704 1009.9995" xml:space="preserve">
<g>
	<polygon fill="#FF9554" points="680.134,998.2554 116.3362,998.2554 237.1697,619.8364 800.968,619.8364 	"/>
	<path fill="#4D4D4D" d="M680.134,1009.9995H116.3362c-3.7388,0-7.271-1.7891-9.4732-4.8164
		c-2.2246-3.0283-2.8437-6.9277-1.7202-10.5059l120.8335-378.4189c1.5601-4.8623,6.0786-8.166,11.1934-8.166H800.968
		c3.7383,0,7.2715,1.789,9.4727,4.8174c2.2256,3.0273,2.8447,6.9267,1.7207,10.5048l-120.834,378.419
		C689.7688,1006.6968,685.2493,1009.9995,680.134,1009.9995L680.134,1009.9995z M132.4153,986.5112h539.1406l113.333-354.9316
		H245.7483L132.4153,986.5112L132.4153,986.5112z"/>
</g>
<g>
	<rect x="180.7903" y="426.6582" fill="#5FD4AF" width="483.334" height="322.0395"/>
	<path fill="#4D4D4D" d="M664.1243,760.4418h-483.334c-6.4912,0-11.7442-5.2529-11.7442-11.7441V426.6582
		c0-6.4912,5.253-11.7441,11.7442-11.7441h483.334c6.4912,0,11.7441,5.2529,11.7441,11.7441v322.0395
		C675.8684,755.1889,670.6155,760.4418,664.1243,760.4418L664.1243,760.4418z M192.5339,736.9546h459.8462V438.4018H192.5339
		V736.9546L192.5339,736.9546z"/>
</g>
<g>
	<g>
		<polygon fill="#FFFFFF" points="995.5227,306.2832 553.6584,501.7549 423.2371,207.2402 865.1926,11.7685 		"/>
		<path fill="#4D4D4D" d="M553.6584,513.4985c-4.4951,0-8.7851-2.6147-10.7353-6.9956L412.5022,211.9883
			c-1.2612-2.8443-1.353-6.0786-0.229-8.9917c1.124-2.8902,3.3716-5.2295,6.2158-6.4912L860.4446,1.0342
			c5.8712-2.6836,12.8672,0.0459,15.4824,5.9863l130.3301,294.5146c1.2617,2.8443,1.3535,6.0787,0.2285,8.9917
			c-1.1231,2.8902-3.3711,5.2295-6.2149,6.4913L558.4065,512.4892C556.8704,513.1772,555.2414,513.4985,553.6584,513.4985
			L553.6584,513.4985z M438.7429,213.2266L559.6457,486.272l420.3936-185.9751L859.2063,27.2515L438.7429,213.2266
			L438.7429,213.2266z"/>
	</g>
	<g>
		<g>
			<line fill="#FFFFFF" x1="529.0696" y1="259.8125" x2="841.1536" y2="121.6841"/>
			<path fill="#4D4D4D" d="M529.0696,271.5561c-4.4956,0-8.8076-2.6147-10.7344-6.9956
				c-2.6382-5.9179,0.0459-12.8681,5.9863-15.4829l312.084-138.1284c5.8731-2.6377,12.8691,0.0459,15.4834,5.9868
				c2.6377,5.918-0.0459,12.8677-5.9873,15.4829l-312.084,138.128C532.2805,271.2353,530.6516,271.5561,529.0696,271.5561
				L529.0696,271.5561z"/>
		</g>
		<g>
			<line fill="#FFFFFF" x1="551.4563" y1="322.1099" x2="863.4954" y2="184.0732"/>
			<path fill="#4D4D4D" d="M551.4563,333.854c-4.4961,0-8.8076-2.6148-10.7344-6.9961c-2.6377-5.9175,0.0459-12.8677,5.9863-15.4824
				l312.0391-138.0366c5.8945-2.6607,12.8672,0.0459,15.4824,5.9868c2.6377,5.9175-0.0459,12.8676-5.9863,15.4824L556.2043,332.8447
				C554.6672,333.5327,553.0393,333.854,551.4563,333.854L551.4563,333.854z"/>
		</g>
		<g>
			<line fill="#FFFFFF" x1="580.3567" y1="386.6553" x2="892.3957" y2="248.6191"/>
			<path fill="#4D4D4D" d="M580.3567,398.3994c-4.4951,0-8.8066-2.6147-10.7344-6.9961
				c-2.6367-5.9175,0.0469-12.8677,5.9873-15.4824l312.0381-138.0366c5.8945-2.6836,12.8906,0.0459,15.4824,5.9868
				c2.6387,5.9175-0.0449,12.8677-5.9863,15.4824L585.1047,397.3901C583.5686,398.0781,581.9407,398.3994,580.3567,398.3994
				L580.3567,398.3994z"/>
		</g>
	</g>
</g>
<g>
	<g>
		<polygon fill="#FFFFFF" points="951.0237,635.7085 509.114,831.1343 378.739,536.665 820.6946,341.1938 		"/>
		<path fill="#4D4D4D" d="M509.114,842.8784c-4.4956,0-8.8076-2.6152-10.7344-6.9961L368.0041,541.4131
			c-1.2617-2.8443-1.3535-6.0782-0.2295-8.9912c1.1241-2.8902,3.3721-5.2295,6.2164-6.4912L815.9465,330.459
			c5.8946-2.6836,12.8672,0.0688,15.4824,5.9868L961.759,630.9604c1.2607,2.8448,1.3526,6.0782,0.2285,8.9922
			c-1.123,2.8897-3.3711,5.2295-6.2158,6.4903L513.8621,841.8686C512.3254,842.5571,510.697,842.8784,509.114,842.8784
			L509.114,842.8784z M394.2444,542.6518l120.8564,273l420.4405-185.9296L814.7082,356.6763L394.2444,542.6518L394.2444,542.6518z"
			/>
	</g>
	<g>
		<g>
			<line fill="#FFFFFF" x1="484.5256" y1="589.1919" x2="796.6555" y2="451.2012"/>
			<path fill="#4D4D4D" d="M484.5256,600.936c-4.4961,0-8.8081-2.6142-10.7348-6.9961c-2.6377-5.9404,0.0459-12.8681,5.9868-15.4824
				l312.1299-137.9912c5.873-2.6606,12.8681,0.0688,15.4824,5.9868c2.6387,5.9404-0.0449,12.8677-5.9863,15.4824L489.2737,599.9272
				C487.7366,600.6147,486.1081,600.936,484.5256,600.936L484.5256,600.936z"/>
		</g>
		<g>
			<line fill="#FFFFFF" x1="506.9123" y1="651.4897" x2="818.9973" y2="513.4985"/>
			<path fill="#4D4D4D" d="M506.9123,663.2339c-4.4956,0-8.8081-2.6153-10.7348-6.9961
				c-2.6377-5.9414,0.0459-12.8672,5.9868-15.4824l312.085-137.9913c5.8711-2.6611,12.8671,0.0689,15.4824,5.9864
				c2.6377,5.9409-0.0459,12.8677-5.9863,15.4829l-312.085,137.9907C510.1233,662.9125,508.4949,663.2339,506.9123,663.2339
				L506.9123,663.2339z"/>
		</g>
		<g>
			<line fill="#FFFFFF" x1="535.8137" y1="716.0347" x2="847.8977" y2="578.0444"/>
			<path fill="#4D4D4D" d="M535.8137,727.7787c-4.4961,0-8.8086-2.6152-10.7353-6.9961
				c-2.6377-5.9404,0.0459-12.8672,5.9873-15.4824L843.1496,567.31c5.8721-2.6376,12.8672,0.0459,15.4825,5.9864
				c2.6386,5.9414-0.045,12.8681-5.9864,15.4824L540.5618,726.77C539.0246,727.4585,537.3957,727.7787,535.8137,727.7787
				L535.8137,727.7787z"/>
		</g>
	</g>
</g>
<g>
	<polygon fill="#FF9554" points="680.134,998.2554 116.3362,998.2554 11.7424,672.1791 317.6799,672.1791 365.9856,615.8452 
		555.3098,615.8452 	"/>
	<path fill="#4D4D4D" d="M680.134,1009.9995H116.3362c-5.1148,0-9.6333-3.3027-11.1934-8.166L0.5491,675.7573
		c-1.1241-3.5547-0.5049-7.4775,1.6972-10.5058c2.2251-3.0274,5.7344-4.8165,9.4961-4.8165h300.5469l44.7739-52.2285
		c2.2476-2.6142,5.5049-4.1054,8.9224-4.1054h189.3242c5.0918,0,9.5879,3.2802,11.1699,8.0976l124.8252,382.4102
		c1.1699,3.5781,0.5508,7.5-1.6748,10.5508C687.4289,1008.187,683.8957,1009.9995,680.134,1009.9995L680.134,1009.9995z
		 M124.8918,986.5112h539.0489L546.8,627.5893H371.3757l-44.7734,52.2286c-2.2476,2.6142-5.5049,4.1054-8.9224,4.1054H27.8445
		L124.8918,986.5112L124.8918,986.5112z"/>
</g>
</svg>
