<?xml version="1.0" encoding="utf-8"?>
<!-- Generator: Adobe Illustrator 17.1.0, SVG Export Plug-In . SVG Version: 6.00 Build 0)  -->
<!DOCTYPE svg PUBLIC "-//W3C//DTD SVG 1.1//EN" "http://www.w3.org/Graphics/SVG/1.1/DTD/svg11.dtd">
<svg version="1.1" id="hotel-trees" xmlns="http://www.w3.org/2000/svg" xmlns:xlink="http://www.w3.org/1999/xlink" x="0px"
	 y="0px" viewBox="0 0 1010 961.7456" enable-background="new 0 0 1010 961.7456" xml:space="preserve">
<g>
	<g>
		<path fill="#5FD4AF" d="M909.2969,815.4175l-5.7403-3.1719c-112.3906-62.1562-112.3906-179.0136,0-241.1269l5.7403-3.1914
			l5.7392,3.1914c112.3712,62.1133,112.3712,178.9706,0,241.1269L909.2969,815.4175z"/>
		<path fill="#4D4D4D" d="M909.2969,827.6265l-10.9053-6.0312c-57.083-31.5684-89.8193-78.9239-89.8193-129.9454
			c0.0107-51.0078,32.747-98.3437,89.8193-129.8808l10.9053-6.0742l10.9365,6.0839
			c57.0303,31.5274,89.7568,78.8633,89.7666,129.8711c0.0107,51.0098-32.7148,98.377-89.7871,129.9454L909.2969,827.6265
			L909.2969,827.6265z M909.2969,580.1578l-0.543,0.3007c-50.0801,27.6758-78.7988,68.1973-78.8096,111.1914
			c0,43.0059,28.708,83.5489,78.7891,111.2442l0.5635,0.3125l0.5742-0.3125c50.0596-27.6856,78.7676-68.2383,78.7568-111.2442
			c-0.0097-42.9941-28.708-83.5156-78.7568-111.1796L909.2969,580.1578L909.2969,580.1578z"/>
	</g>
	<g>
		<path fill="#4D4D4D" d="M909.2969,954.7124c-5.9063,0-10.6856-4.7812-10.6856-10.6875v-205.748
			c0-5.9062,4.7793-10.6855,10.6856-10.6855c5.9062,0,10.6855,4.7793,10.6855,10.6855v205.748
			C919.9824,949.9312,915.2031,954.7124,909.2969,954.7124L909.2969,954.7124z"/>
	</g>
	<g>
		<path fill="#4D4D4D" d="M909.2969,748.9624c-2.7344,0-5.4688-1.0429-7.5557-3.1289l-38.5693-38.5703
			c-4.1748-4.1758-4.1748-10.9375,0-15.1113c4.1738-4.1738,10.9355-4.1738,15.1103,0l38.5694,38.5703
			c4.1748,4.1738,4.1748,10.9356,0,15.1113C914.7656,747.9195,912.0313,748.9624,909.2969,748.9624L909.2969,748.9624z"/>
	</g>
	<g>
		<path fill="#4D4D4D" d="M909.2969,748.9624c-2.7344,0-5.4688-1.0429-7.5557-3.1289c-4.1738-4.1757-4.1738-10.9375,0-15.1113
			l38.5908-38.5703c4.1747-4.1738,10.9365-4.1738,15.1113,0c4.1738,4.1738,4.1738,10.9355,0,15.1113l-38.5918,38.5703
			C914.7656,747.9195,912.0313,748.9624,909.2969,748.9624L909.2969,748.9624z"/>
	</g>
	<g>
		<path fill="#4D4D4D" d="M909.2969,748.9624c-5.9063,0-10.6856-4.7793-10.6856-10.6855v-64.3242
			c0-5.9063,4.7793-10.6875,10.6856-10.6875c5.9062,0,10.6855,4.7812,10.6855,10.6875v64.3242
			C919.9824,744.1831,915.2031,748.9624,909.2969,748.9624L909.2969,748.9624z"/>
	</g>
</g>
<g>
	<g>
		<path fill="#5FD4AF" d="M100.6826,815.4175l-5.7187-3.1719c-112.3702-62.1562-112.3702-179.0136,0-241.1269l5.7187-3.1914
			l5.7608,3.1914c112.3711,62.1133,112.3711,178.9706,0,241.1269L100.6826,815.4175z"/>
		<path fill="#4D4D4D" d="M100.6621,827.6265l-10.8838-6.041C32.7158,790.0269-0.0098,742.6597,0,691.6499
			c0.0107-51.0078,32.7363-98.3437,89.7988-129.8808l10.8633-6.0742l10.957,6.0742c57.0518,31.5371,89.7784,78.873,89.7881,129.8808
			c0.0108,51.0098-32.7148,98.377-89.7881,129.9454L100.6621,827.6265L100.6621,827.6265z M100.7041,580.1578l-0.5322,0.291
			c-50.0908,27.6855-78.7891,68.207-78.7998,111.2011c-0.0098,43.0059,28.6982,83.5586,78.7685,111.2442l0.5635,0.3125l0.584-0.3223
			c50.0498-27.6758,78.7578-68.2285,78.7471-111.2344c-0.0098-42.9941-28.7081-83.5156-78.7569-111.1796L100.7041,580.1578
			L100.7041,580.1578z"/>
	</g>
	<g>
		<path fill="#4D4D4D" d="M100.6826,954.7124c-5.9062,0-10.6855-4.7812-10.6855-10.6875v-205.748
			c0-5.9062,4.7793-10.6855,10.6855-10.6855c5.9072,0,10.6865,4.7793,10.6865,10.6855v205.748
			C111.3691,949.9312,106.5898,954.7124,100.6826,954.7124L100.6826,954.7124z"/>
	</g>
	<g>
		<path fill="#4D4D4D" d="M100.6826,748.9624c-2.7334,0-5.4678-1.0429-7.5547-3.1289l-38.5703-38.5703
			c-4.1738-4.1758-4.1738-10.9375,0-15.1113c4.1738-4.1738,10.9365-4.1738,15.1104,0l38.5703,38.5703
			c4.1748,4.1738,4.1748,10.9356,0,15.1113C106.1514,747.9195,103.417,748.9624,100.6826,748.9624L100.6826,748.9624z"/>
	</g>
	<g>
		<path fill="#4D4D4D" d="M100.6826,748.9624c-2.7334,0-5.4678-1.0429-7.5547-3.1289c-4.1748-4.1757-4.1748-10.9473,0-15.1113
			l38.6114-38.5703c4.1748-4.1738,10.9365-4.1738,15.1113,0c4.1738,4.1738,4.1738,10.9473,0,15.1113l-38.6123,38.5703
			C106.1514,747.9195,103.417,748.9624,100.6826,748.9624L100.6826,748.9624z"/>
	</g>
	<g>
		<path fill="#4D4D4D" d="M100.6826,748.9624c-5.9062,0-10.6855-4.7793-10.6855-10.6855v-64.3242
			c0-5.9063,4.7793-10.6875,10.6855-10.6875c5.9072,0,10.6865,4.7812,10.6865,10.6875v64.3242
			C111.3691,744.1831,106.5898,748.9624,100.6826,748.9624L100.6826,748.9624z"/>
	</g>
</g>
<g>
	<path fill="#4D4D4D" d="M978.7148,961.7456H31.2656c-5.9072,0-10.6865-4.7792-10.6865-10.6875
		c0-5.9062,4.7793-10.6855,10.6865-10.6855h947.4492c5.9063,0,10.6856,4.7793,10.6856,10.6855
		C989.4004,956.9664,984.6211,961.7456,978.7148,961.7456L978.7148,961.7456z"/>
</g>
<g>
	<g>
		<g>
			<rect x="252.083" y="130.5704" fill="#CCCCCC" width="499.5322" height="49.955"/>
			<path fill="#4D4D4D" d="M751.6152,191.211H252.083c-5.9062,0-10.6865-4.7793-10.6865-10.6856v-49.955
				c0-5.9073,4.7803-10.6866,10.6865-10.6866h499.5322c5.9063,0,10.6856,4.7793,10.6856,10.6866v49.955
				C762.3008,186.4317,757.5215,191.211,751.6152,191.211L751.6152,191.211z M262.7686,169.8389h478.1602v-28.583H262.7686V169.8389
				L262.7686,169.8389z"/>
		</g>
		<g>
			<rect x="282.0537" y="10.6856" fill="#FF9554" width="439.5899" height="119.8848"/>
			<path fill="#4D4D4D" d="M721.6436,141.2559H282.0537c-5.9062,0-10.6855-4.7793-10.6855-10.6855V10.6856
				C271.3682,4.7793,276.1475,0,282.0537,0h439.5899c5.9072,0,10.6865,4.7793,10.6865,10.6856v119.8848
				C732.3301,136.4766,727.5508,141.2559,721.6436,141.2559L721.6436,141.2559z M292.7402,119.8838H710.957V21.3721H292.7402
				V119.8838L292.7402,119.8838z"/>
		</g>
	</g>
	<g>
		<g>
			<rect x="232.0879" y="183.8545" fill="#FFFFFF" width="539.5215" height="741.0318"/>
			<path fill="#4D4D4D" d="M771.6094,935.5718H232.0879c-5.9063,0-10.6856-4.7793-10.6856-10.6855V183.8545
				c0-5.9072,4.7793-10.6865,10.6856-10.6865h539.5215c5.9062,0,10.6855,4.7793,10.6855,10.6865v741.0318
				C782.2949,930.7925,777.5156,935.5718,771.6094,935.5718L771.6094,935.5718z M242.7744,914.2007h518.1494V194.5401H242.7744
				V914.2007L242.7744,914.2007z"/>
		</g>
		<g>
			<g>
				<rect x="291.5293" y="277.336" fill="#CCCCCC" width="48.9639" height="48.9853"/>
				<path fill="#4D4D4D" d="M351.1797,337.0069h-70.3359v-70.3565h70.3359V337.0069L351.1797,337.0069z M302.2158,315.6348h27.5918
					v-27.6123h-27.5918V315.6348L302.2158,315.6348z"/>
			</g>
			<g>
				<rect x="539.208" y="277.336" fill="#CCCCCC" width="48.9434" height="48.9853"/>
				<path fill="#4D4D4D" d="M598.8369,337.0069h-70.3144v-70.3565h70.3144V337.0069L598.8369,337.0069z M549.8945,315.6348h27.5703
					v-27.6123h-27.5703V315.6348L549.8945,315.6348z"/>
			</g>
			<g>
				<rect x="662.0566" y="277.336" fill="#CCCCCC" width="49.0264" height="48.9853"/>
				<path fill="#4D4D4D" d="M721.7686,337.0069h-70.3985v-70.3565h70.3985V337.0069L721.7686,337.0069z M672.7422,315.6348h27.6543
					v-27.6123h-27.6543V315.6348L672.7422,315.6348z"/>
			</g>
			<g>
				<rect x="291.5293" y="376.1827" fill="#CCCCCC" width="48.9639" height="48.9531"/>
				<path fill="#4D4D4D" d="M351.1797,435.8223h-70.3359v-70.3262h70.3359V435.8223L351.1797,435.8223z M302.2158,414.4502h27.5918
					v-27.582h-27.5918V414.4502L302.2158,414.4502z"/>
			</g>
			<g>
				<rect x="414.4189" y="376.1827" fill="#CCCCCC" width="48.9854" height="48.9531"/>
				<path fill="#4D4D4D" d="M474.0898,435.8223h-70.3564v-70.3262h70.3564V435.8223L474.0898,435.8223z M425.1055,414.4502h27.6123
					v-27.582h-27.6123V414.4502L425.1055,414.4502z"/>
			</g>
			<g>
				<rect x="291.5293" y="474.9766" fill="#CCCCCC" width="48.9639" height="48.9736"/>
				<path fill="#4D4D4D" d="M351.1797,534.6368h-70.3359v-70.3467h70.3359V534.6368L351.1797,534.6368z M302.2158,513.2647h27.5918
					v-27.6025h-27.5918V513.2647L302.2158,513.2647z"/>
			</g>
			<g>
				<rect x="414.4189" y="474.9766" fill="#CCCCCC" width="48.9854" height="48.9736"/>
				<path fill="#4D4D4D" d="M474.0898,534.6368h-70.3564v-70.3467h70.3564V534.6368L474.0898,534.6368z M425.1055,513.2647h27.6123
					v-27.6025h-27.6123V513.2647L425.1055,513.2647z"/>
			</g>
			<g>
				<rect x="662.0566" y="474.9766" fill="#CCCCCC" width="49.0264" height="48.9736"/>
				<path fill="#4D4D4D" d="M721.7686,534.6368h-70.3985v-70.3467h70.3985V534.6368L721.7686,534.6368z M672.7422,513.2647h27.6543
					v-27.6025h-27.6543V513.2647L672.7422,513.2647z"/>
			</g>
			<g>
				<rect x="414.4189" y="573.7496" fill="#CCCCCC" width="48.9854" height="49.0468"/>
				<path fill="#4D4D4D" d="M474.0898,633.482h-70.3564v-70.418h70.3564V633.482L474.0898,633.482z M425.1055,612.1109h27.6123
					v-27.6758h-27.6123V612.1109L425.1055,612.1109z"/>
			</g>
			<g>
				<rect x="539.208" y="573.7496" fill="#CCCCCC" width="48.9434" height="49.0468"/>
				<path fill="#4D4D4D" d="M598.8369,633.482h-70.3144v-70.418h70.3144V633.482L598.8369,633.482z M549.8945,612.1109h27.5703
					v-27.6758h-27.5703V612.1109L549.8945,612.1109z"/>
			</g>
			<g>
				<rect x="662.0566" y="573.7496" fill="#CCCCCC" width="49.0264" height="49.0468"/>
				<path fill="#4D4D4D" d="M721.7686,633.482h-70.3985v-70.418h70.3985V633.482L721.7686,633.482z M672.7422,612.1109h27.6543
					v-27.6758h-27.6543V612.1109L672.7422,612.1109z"/>
			</g>
			<g>
				<rect x="291.5293" y="672.6167" fill="#CCCCCC" width="48.9639" height="48.9629"/>
				<path fill="#4D4D4D" d="M351.1797,732.2671h-70.3359v-70.3359h70.3359V732.2671L351.1797,732.2671z M302.2158,710.8941h27.5918
					v-27.5918h-27.5918V710.8941L302.2158,710.8941z"/>
			</g>
			<g>
				<rect x="662.0566" y="672.6167" fill="#CCCCCC" width="49.0264" height="48.9629"/>
				<path fill="#4D4D4D" d="M721.7686,732.2671h-70.3985v-70.3359h70.3985V732.2671L721.7686,732.2671z M672.7422,710.8941h27.6543
					v-27.5918h-27.6543V710.8941L672.7422,710.8941z"/>
			</g>
		</g>
		<rect x="420.6182" y="697.3902" fill="#FFFFFF" width="172.2295" height="253.5019"/>
		<rect x="421.3691" y="742.4722" fill="#ECECED" width="169.4747" height="160.8965"/>
		<g>
			<path fill="#4D4D4D" d="M592.8477,961.5777H420.6182c-5.9073,0-10.6866-4.7793-10.6866-10.6856V697.3902
				c0-5.9063,4.7793-10.6856,10.6866-10.6856h172.2295c5.9062,0,10.6855,4.7793,10.6855,10.6856v253.5019
				C603.5332,956.7984,598.7539,961.5777,592.8477,961.5777L592.8477,961.5777z M431.3037,940.2066h150.8574V708.0757H431.3037
				V940.2066L431.3037,940.2066z"/>
		</g>
		<g>
			<line fill="#FFFFFF" x1="506.7324" y1="749.4019" x2="506.7324" y2="898.8804"/>
			<path fill="#4D4D4D" d="M506.7324,909.5679c-5.9062,0-10.6855-4.7812-10.6855-10.6875V749.4019
				c0-5.9062,4.7793-10.6855,10.6855-10.6855c5.9063,0,10.6865,4.7793,10.6865,10.6855v149.4785
				C517.4189,904.7867,512.6387,909.5679,506.7324,909.5679L506.7324,909.5679z"/>
		</g>
		<g>
			<line fill="#FFFFFF" x1="430.3652" y1="742.8472" x2="586.3564" y2="742.8472"/>
			<path fill="#4D4D4D" d="M586.3564,753.5347H430.3652c-5.9072,0-10.6865-4.7793-10.6865-10.6875
				c0-5.9062,4.7793-10.6855,10.6865-10.6855h155.9912c5.9063,0,10.6856,4.7793,10.6856,10.6855
				C597.042,748.7554,592.2627,753.5347,586.3564,753.5347L586.3564,753.5347z"/>
		</g>
		<g>
			<line fill="#FFFFFF" x1="430.3652" y1="905.3726" x2="586.3564" y2="905.3726"/>
			<path fill="#4D4D4D" d="M586.3564,916.0581H430.3652c-5.9072,0-10.6865-4.7792-10.6865-10.6855
				c0-5.9082,4.7793-10.6875,10.6865-10.6875h155.9912c5.9063,0,10.6856,4.7793,10.6856,10.6875
				C597.042,911.2789,592.2627,916.0581,586.3564,916.0581L586.3564,916.0581z"/>
		</g>
	</g>
	<g>
		<path fill="#4D4D4D" d="M394.3408,104.669V79.8116h-28.5097v24.8574h-14.2344V41.627h14.2344v26.3086h28.5097V41.627h14.2549
			v63.042H394.3408z"/>
		<path fill="#4D4D4D" d="M486.5088,73.1534c0,18.1992-14.5684,32.1523-33.8535,32.1523c-19.2637,0-33.8535-13.8799-33.8535-32.1523
			c0-18.3672,14.5898-31.9746,33.8535-31.9746C471.9404,41.1788,486.5088,54.8594,486.5088,73.1534z M433.3916,73.1534
			c0,11.0722,8.9111,19.7021,19.4512,19.7021c10.54,0,19.0976-8.6299,19.0976-19.7021c0-11.0928-8.5576-19.5674-19.0976-19.5674
			C442.1992,53.586,433.3916,62.0606,433.3916,73.1534z"/>
		<path fill="#4D4D4D" d="M522.0732,53.6905v50.9785h-14.1923V53.6905h-19.2022V41.627h52.7002v12.0635H522.0732z"/>
		<path fill="#4D4D4D" d="M564.0869,53.4405v13.6709h30.4717v11.8125h-30.4717v13.9316h34.792v11.8135H549.873V41.627h47.9834
			v11.8135H564.0869z"/>
		<path fill="#4D4D4D" d="M652.1426,92.2403v12.4287h-41.2422V41.627h14.2139v50.6133H652.1426z"/>
	</g>
</g>
</svg>
