<?xml version="1.0" encoding="iso-8859-1"?>
<!-- Generator: Adobe Illustrator 19.0.0, SVG Export Plug-In . SVG Version: 6.00 Build 0)  -->
<svg version="1.1" id="Layer_1" xmlns="http://www.w3.org/2000/svg" xmlns:xlink="http://www.w3.org/1999/xlink" x="0px" y="0px"
	 viewBox="0 0 512 512" style="enable-background:new 0 0 512 512;" xml:space="preserve">
<path style="fill:#FFE6B8;" d="M463.311,200.043c-4.867-18.074-12.021-35.21-21.155-51.064c14.05-16.402,13.324-41.113-2.204-56.641
	l-20.289-20.289c-15.528-15.528-40.239-16.255-56.641-2.204c-15.855-9.134-32.99-16.288-51.064-21.155
	c-1.664-21.533-19.651-38.49-41.61-38.49h-28.693c-21.959,0-39.945,16.957-41.61,38.49c-18.074,4.866-35.21,12.021-51.064,21.155
	c-16.402-14.05-41.113-13.324-56.641,2.204l-20.29,20.289c-15.528,15.528-16.255,40.239-2.204,56.641
	c-9.134,15.855-16.288,32.99-21.155,51.064c-21.533,1.665-38.49,19.651-38.49,41.611v28.693c0,21.959,16.957,39.945,38.49,41.61
	c4.867,18.074,12.021,35.21,21.155,51.064c-14.05,16.402-13.324,41.113,2.204,56.641l20.289,20.289
	c15.528,15.528,40.239,16.255,56.641,2.204c15.855,9.134,32.99,16.288,51.064,21.155c1.665,21.532,19.651,38.49,41.611,38.49h28.693
	c21.959,0,39.945-16.957,41.61-38.49c18.074-4.866,35.21-12.021,51.064-21.155c16.402,14.05,41.113,13.324,56.641-2.204
	l20.289-20.289c15.528-15.528,16.255-40.239,2.204-56.641c9.134-15.855,16.288-32.99,21.155-51.064
	c21.533-1.664,38.49-19.651,38.49-41.611v-28.693C501.801,219.694,484.844,201.708,463.311,200.043z"/>
<circle style="fill:#FFAD61;" cx="256" cy="256" r="170.837"/>
<path style="fill:#D35B38;" d="M267.255,162.242c0,0-2.558,4.946,7.674,10.232c4.166,2.152,11.809,4.248,19.407,5.977l0.731-11.207
	c1.007-15.449-11.253-28.534-26.735-28.534h-24.663c-15.482,0-27.743,13.086-26.735,28.535l1.096,16.807
	C256.888,181.891,267.255,162.242,267.255,162.242z"/>
<path style="fill:#FFE6B8;" d="M274.929,172.474c-10.232-5.286-7.674-10.232-7.674-10.232s-10.366,19.649-49.225,21.81l2.56,39.249
	c0.788,12.091,7.692,22.944,18.31,28.784l0,0c10.649,5.856,23.554,5.856,34.203,0l0,0c10.617-5.839,17.521-16.693,18.31-28.784
	l2.925-44.85C286.737,176.723,279.095,174.627,274.929,172.474z"/>
<path style="fill:#BCC987;" d="M353.722,332.091c-4.382-24.183-23.257-42.628-46.689-47.04c-3.526-0.664-7.154-1.013-10.852-1.013
	H283.88L256,311.919l-27.881-27.881h-12.301c-3.698,0-7.326,0.349-10.852,1.013c-23.431,4.412-42.307,22.856-46.688,47.04l0,0
	c-2.128,11.742,6.896,22.546,18.829,22.546h157.786C346.827,354.639,355.849,343.835,353.722,332.091L353.722,332.091z"/>
<g>
	<path style="fill:#4D3D36;" d="M471.323,190.954c-4.306-14.277-10.028-28.09-17.072-41.213
		c12.809-20.164,10.23-47.299-7.086-64.616l-20.289-20.289c-17.317-17.317-44.451-19.895-64.615-7.085
		c-13.122-7.044-26.935-12.766-41.212-17.071C315.846,17.362,294.836,0,270.346,0h-28.693c-24.488,0-45.5,17.362-50.7,40.679
		c-14.278,4.306-28.09,10.028-41.212,17.071c-20.165-12.81-47.3-10.231-64.616,7.085L64.835,85.125
		c-17.315,17.317-19.894,44.452-7.085,64.616c-7.044,13.121-12.766,26.934-17.072,41.212C17.362,196.154,0,217.165,0,241.654v28.693
		c0,24.489,17.362,45.499,40.677,50.7c4.306,14.278,10.029,28.091,17.072,41.212c-12.808,20.165-10.23,47.3,7.086,64.616
		l20.289,20.289c17.316,17.316,44.451,19.895,64.616,7.085c13.122,7.044,26.935,12.766,41.212,17.071
		c5.201,23.315,26.212,40.679,50.7,40.679h28.693c24.488,0,45.5-17.362,50.7-40.679c14.278-4.306,28.091-10.028,41.212-17.071
		c20.164,12.81,47.299,10.231,64.615-7.085l20.29-20.289c17.316-17.317,19.895-44.452,7.085-64.616
		c7.045-13.123,12.766-26.936,17.072-41.213c23.316-5.202,40.678-26.211,40.678-50.7v-28.693
		C512,217.165,494.639,196.154,471.323,190.954z M491.602,270.346c0,16.371-12.771,30.18-29.076,31.44
		c-4.308,0.333-7.939,3.345-9.063,7.518c-4.583,17.019-11.36,33.38-20.143,48.626c-2.158,3.745-1.721,8.444,1.091,11.727
		c10.64,12.421,9.905,31.217-1.67,42.794l-20.289,20.289c-11.577,11.577-30.373,12.309-42.795,1.671
		c-3.282-2.812-7.981-3.249-11.727-1.091c-15.245,8.784-31.604,15.561-48.625,20.143c-4.172,1.124-7.183,4.754-7.517,9.063
		c-1.261,16.304-15.071,29.076-31.442,29.076h-28.693c-16.37,0-30.18-12.771-31.441-29.077c-0.333-4.309-3.344-7.939-7.517-9.063
		c-17.02-4.583-33.38-11.36-48.625-20.143c-1.586-0.914-3.341-1.362-5.089-1.362c-2.379,0-4.745,0.831-6.637,2.453
		c-12.422,10.64-31.219,9.905-42.795-1.671L79.26,412.45c-11.576-11.577-12.309-30.374-1.671-42.795
		c2.812-3.283,3.249-7.982,1.091-11.727c-8.783-15.244-15.56-31.603-20.143-48.626c-1.124-4.173-4.755-7.183-9.063-7.517
		c-16.304-1.259-29.076-15.068-29.076-31.439v-28.693c0-16.371,12.771-30.18,29.076-31.44c4.308-0.334,7.939-3.344,9.063-7.517
		c4.584-17.021,11.361-33.381,20.143-48.626c2.158-3.745,1.721-8.444-1.091-11.727c-10.64-12.421-9.905-31.218,1.67-42.795
		l20.289-20.289c11.577-11.578,30.374-12.309,42.795-1.671c3.283,2.813,7.982,3.249,11.727,1.091
		c15.245-8.784,31.604-15.561,48.625-20.143c4.173-1.124,7.183-4.754,7.517-9.063c1.261-16.303,15.071-29.075,31.442-29.075h28.693
		c16.37,0,30.181,12.771,31.442,29.077c0.333,4.309,3.344,7.939,7.517,9.063c17.019,4.583,33.379,11.36,48.625,20.143
		c3.745,2.158,8.444,1.722,11.727-1.091c12.421-10.641,31.218-9.906,42.794,1.671l20.289,20.289
		c11.576,11.577,12.31,30.373,1.671,42.794c-2.812,3.283-3.249,7.982-1.091,11.727c8.784,15.246,15.561,31.606,20.143,48.626
		c1.124,4.173,4.755,7.184,9.063,7.518c16.303,1.259,29.075,15.068,29.075,31.439V270.346z"/>
	<path style="fill:#4D3D36;" d="M256,74.964c-99.824,0-181.036,81.212-181.036,181.036S156.176,437.036,256,437.036
		S437.036,355.824,437.036,256S355.824,74.964,256,74.964z M256,416.637c-88.576,0-160.637-72.061-160.637-160.637
		S167.424,95.363,256,95.363S416.637,167.424,416.637,256S344.576,416.637,256,416.637z"/>
	<path style="fill:#4D3D36;" d="M207.852,184.715l2.56,39.249c1.02,15.648,9.832,29.5,23.571,37.057
		c6.893,3.792,14.454,5.687,22.016,5.687c7.562,0,15.123-1.895,22.017-5.687c13.739-7.557,22.55-21.409,23.571-37.057l2.925-44.851
		l0.73-11.206c0.663-10.167-2.953-20.262-9.919-27.698c-6.966-7.435-16.805-11.7-26.993-11.7h-24.662
		c-10.189,0-20.028,4.265-26.994,11.701c-6.967,7.435-10.582,17.53-9.919,27.697L207.852,184.715z M268.187,243.147
		c-7.631,4.197-16.742,4.197-24.372,0.001c-7.606-4.184-12.483-11.85-13.047-20.511l-1.918-29.42
		c17.919-2.55,29.589-8.691,36.863-14.424c1.361,0.967,2.873,1.882,4.535,2.741c3.077,1.59,7.485,3.163,13.356,4.762l-2.37,36.34
		C280.669,231.298,275.791,238.965,268.187,243.147z M284.925,165.435c-3.081-0.973-4.625-1.667-5.314-2.021
		c-0.643-0.331-1.151-0.631-1.566-0.895l2.91-7.759C283.523,157.767,284.918,161.492,284.925,165.435z M231.561,154.157
		c3.171-3.384,7.471-5.249,12.108-5.249h17.694l-3.303,8.807c-1.53,2.201-9.235,11.666-30.542,15.09l-0.406-6.226
		C226.81,161.953,228.39,157.541,231.561,154.157z"/>
	<path style="fill:#4D3D36;" d="M308.92,275.029c-4.193-0.788-8.479-1.189-12.738-1.189h-12.301c-2.705,0-5.299,1.075-7.212,2.987
		L256,297.495l-20.668-20.669c-1.912-1.912-4.507-2.987-7.212-2.987h-12.301c-4.259,0-8.545,0.401-12.74,1.189
		c-27.76,5.227-49.798,27.429-54.837,55.245c-1.554,8.58,0.76,17.34,6.349,24.032c5.589,6.694,13.795,10.532,22.516,10.532h157.786
		c8.719,0,16.927-3.839,22.516-10.531c5.589-6.694,7.903-15.453,6.349-24.032C358.718,302.457,336.681,280.256,308.92,275.029z
		 M341.752,341.231c-1.001,1.198-3.222,3.209-6.859,3.209H177.107c-3.636,0-5.858-2.01-6.859-3.209s-2.582-3.743-1.934-7.322
		c3.542-19.554,19.031-35.161,38.539-38.834c2.953-0.555,5.97-0.836,8.966-0.836h8.077l24.892,24.893
		c1.912,1.912,4.507,2.987,7.212,2.987c2.705,0,5.299-1.075,7.212-2.987l24.893-24.893h8.077c2.997,0,6.013,0.281,8.964,0.836
		c19.509,3.675,34.998,19.281,38.54,38.834C344.334,337.489,342.752,340.033,341.752,341.231z"/>
	<path style="fill:#4D3D36;" d="M363.17,173.038c-4.698,3.108-5.988,9.435-2.88,14.133c13.51,20.426,20.65,44.227,20.65,68.829
		c0,5.632,4.566,10.199,10.199,10.199s10.199-4.567,10.199-10.199c0-28.617-8.311-56.309-24.034-80.082
		C374.196,171.221,367.868,169.93,363.17,173.038z"/>
	<path style="fill:#4D3D36;" d="M336.871,160.759c1.43,1.216,2.857,2.487,4.242,3.775c1.965,1.83,4.459,2.734,6.947,2.734
		c2.733,0,5.46-1.091,7.468-3.25c3.838-4.124,3.606-10.577-0.516-14.415c-1.608-1.497-3.266-2.972-4.927-4.385
		c-4.292-3.648-10.728-3.128-14.377,1.164C332.059,150.674,332.579,157.111,336.871,160.759z"/>
</g>
<g>
</g>
<g>
</g>
<g>
</g>
<g>
</g>
<g>
</g>
<g>
</g>
<g>
</g>
<g>
</g>
<g>
</g>
<g>
</g>
<g>
</g>
<g>
</g>
<g>
</g>
<g>
</g>
<g>
</g>
</svg>
