<?xml version="1.0" encoding="utf-8"?>
<!-- Generator: Adobe Illustrator 17.1.0, SVG Export Plug-In . SVG Version: 6.00 Build 0)  -->
<!DOCTYPE svg PUBLIC "-//W3C//DTD SVG 1.1//EN" "http://www.w3.org/Graphics/SVG/1.1/DTD/svg11.dtd">
<svg version="1.1" id="magnifier-eye" xmlns="http://www.w3.org/2000/svg" xmlns:xlink="http://www.w3.org/1999/xlink" x="0px"
	 y="0px" viewBox="0 0 1010.0015 947.8594" enable-background="new 0 0 1010.0015 947.8594" xml:space="preserve">
<g>
	<g>
		<polygon fill="#CCCCCC" points="248.3579,653.3389 308.0961,720.9521 449.2216,596.3672 389.5502,528.7549 		"/>
		<path fill="#4D4D4D" d="M308.0961,732.373c-3.1562,0-6.3017-1.3047-8.5547-3.8594l-59.7383-67.6123
			c-2.0078-2.2754-3.0336-5.2422-2.8442-8.2764c0.1899-3.0224,1.5728-5.8437,3.8369-7.8516l141.1924-124.5849
			c4.729-4.1602,11.9453-3.7139,16.1279,1.0039l59.6714,67.6123c4.1714,4.7295,3.7251,11.9453-1.0039,16.1279l-141.1255,124.585
			C313.4833,731.4365,310.7841,732.373,308.0961,732.373L308.0961,732.373z M264.4858,654.3428L309.1,704.835l124.0049-109.4717
			l-44.5586-50.4922L264.4858,654.3428L264.4858,654.3428z"/>
	</g>
	<g>
		<polygon fill="#5FD4AF" points="11.4238,811.6074 121.6093,936.4375 382.2446,706.4072 272.0033,581.5772 		"/>
		<path fill="#4D4D4D" d="M121.6093,947.8594c-3.1563,0-6.3018-1.3057-8.5659-3.8594L2.8578,819.1699
			c-4.1714-4.7295-3.7251-11.9453,1.0039-16.1279l260.5796-230.0303c4.729-4.1718,11.9453-3.7256,16.128,1.0039l110.2412,124.8301
			c1.9966,2.2754,3.0224,5.2422,2.833,8.2754c-0.1895,3.0234-1.5728,5.8447-3.8369,7.8525L129.1713,945.0039
			C126.9965,946.9219,124.2973,947.8594,121.6093,947.8594L121.6093,947.8594z M27.5405,812.6113l95.0727,107.71l243.5034-214.917
			l-95.1172-107.71L27.5405,812.6113L27.5405,812.6113z"/>
	</g>
	<g>
		<path fill="#FF9554" d="M432.9819,96.5117C292.0795,220.8955,278.7065,436.002,403.0907,576.9151
			c124.3951,140.8915,339.4795,154.2753,480.3477,29.8916c140.9365-124.3946,154.3428-339.4463,29.8926-480.2706
			C788.9462-14.3437,573.8398-27.7832,432.9819,96.5117z"/>
		<path fill="#4D4D4D" d="M658.3613,703.419c-0.0108,0,0,0-0.0108,0c-100.918,0-197.083-43.3546-263.8257-118.9414
			c-128.3657-145.4307-114.5019-368.1661,30.895-496.5323C489.6977,31.2295,572.29,0,657.9599,0
			c100.9726,0,197.1719,43.3652,263.9365,118.9746c62.2031,70.3897,93.2432,160.7998,87.4102,254.5674
			c-5.8448,93.7568-47.8604,179.6387-118.3057,241.8311C826.6904,672.1445,744.0654,703.419,658.3613,703.419L658.3613,703.419z
			 M657.9599,22.8428c-80.1055,0-157.3208,29.1992-217.416,82.2344c-135.961,120.0234-148.9214,328.2929-28.8872,464.2763
			c62.4038,70.6797,152.3227,111.2227,246.7046,111.2227c80.1376,0,157.3876-29.2334,217.5156-82.335
			c65.8838-58.1436,105.167-138.4492,110.6318-226.1152c5.4541-87.6777-23.5674-172.2109-81.7324-238.0274
			C842.3388,63.3858,752.3857,22.8428,657.9599,22.8428L657.9599,22.8428z"/>
	</g>
	<g>
		<path fill="#FFFFFF" d="M476.1239,145.3858c-113.9331,100.5488-124.7075,274.455-24.1918,388.4326
			c100.56,113.8769,274.4877,124.6964,388.4096,24.1357c113.9219-100.582,124.7412-274.4658,24.1807-388.3428
			C763.9179,55.7344,590.0575,44.8486,476.1239,145.3858z"/>
		<path fill="#4D4D4D" d="M658.3271,638.2598c-0.0108,0-0.0108,0-0.0215,0c-82.2354-0.0108-160.5776-35.3233-214.9395-96.8799
			c-104.542-118.5498-93.2436-300.0293,25.1958-404.5596c52.399-46.2314,119.688-71.6836,189.4976-71.6836
			c82.2353,0,160.6113,35.3233,215.0176,96.9121c50.6601,57.3633,75.9443,131.0323,71.1816,207.4336
			c-4.751,76.3907-38.9707,146.3672-96.3555,197.0381C795.4931,612.7744,728.1591,638.2598,658.3271,638.2598L658.3271,638.2598z
			 M658.0595,87.9785c-64.2324,0-126.168,23.4229-174.3735,65.9737c-109.0035,96.1875-119.3985,263.2119-23.1885,372.3154
			c50.0239,56.6484,122.1313,89.1387,197.8188,89.1494h0.0108c64.2676,0,126.2245-23.4443,174.4531-66.0283
			c52.8115-46.6221,84.3086-111.0225,88.6816-181.334c4.3829-70.3008-18.8828-138.0918-65.5058-190.8809
			C805.8886,120.4912,733.747,87.9785,658.0595,87.9785L658.0595,87.9785z"/>
	</g>
</g>
<g>
	<g>
		<path fill="#FFFFFF" d="M826.8466,366.46c0,0-32.4795-102.166-167.1699-102.166c-143.9243,0-162.562,116.0849-162.562,116.0849"/>
		<path fill="#4D4D4D" d="M497.1259,391.8008c-0.6025,0-1.2046-0.0449-1.8179-0.1455c-6.2348-1.0039-10.4731-6.8594-9.4697-13.083
			c0.2012-1.2598,21.939-125.7002,173.8384-125.7002c141.4043,0,177.6982,109.0263,178.0547,110.1299
			c1.9081,5.9892-1.4044,12.3916-7.3947,14.3105c-5.9785,1.9854-12.414-1.3613-14.3652-7.3613
			c-1.25-3.8486-32.0664-94.2363-156.2949-94.2363c-132.6703,0-150.583,102.1328-151.2857,106.4716
			C507.4872,387.8076,502.6357,391.8008,497.1259,391.8008L497.1259,391.8008z"/>
	</g>
	<g>
		<path fill="#FFFFFF" d="M794.3671,412.9248c0,0-134.6904,27.8067-255.4385,0"/>
		<path fill="#4D4D4D" d="M659.2529,436.794c-38.6133,0-81.3868-3.1788-122.8887-12.7373
			c-6.1465-1.417-9.9824-7.5508-8.5663-13.6963c1.4164-6.1455,7.4726-10.0049,13.6971-8.5664
			c116.8106,26.9248,249.2247,0.2119,250.5625-0.0557c6.1465-1.2041,12.2247,2.6885,13.4961,8.8779
			c1.2715,6.1797-2.6992,12.2246-8.8779,13.4961C792.9833,424.8711,733.9482,436.794,659.2529,436.794L659.2529,436.794z"/>
	</g>
	<g>
		<path fill="#5FD4AF" d="M589.9677,347.8887c0,38.4248,31.207,69.665,69.6875,69.665c38.502,0,69.6641-31.2402,69.6641-69.665
			c0-38.501-31.1621-69.7197-69.6641-69.7197C621.1747,278.169,589.9677,309.3877,589.9677,347.8887z"/>
		<path fill="#4D4D4D" d="M659.6552,428.9756c-44.7266,0-81.1094-36.3721-81.1094-81.0869
			c0-44.7363,36.3828-81.1416,81.1094-81.1416c44.7139,0,81.0859,36.4053,81.0859,81.1416
			C740.7411,392.6035,704.3691,428.9756,659.6552,428.9756L659.6552,428.9756z M659.6552,289.5899
			c-32.1338,0-58.2656,26.1552-58.2656,58.2988c0,32.1113,26.1318,58.2441,58.2656,58.2441
			c32.1113,0,58.2432-26.1328,58.2432-58.2441C717.8984,315.7451,691.7665,289.5899,659.6552,289.5899L659.6552,289.5899z"/>
	</g>
	<g>
		<line fill="#FFFFFF" x1="794.3671" y1="310.6924" x2="840.8095" y2="273.5625"/>
		<path fill="#4D4D4D" d="M794.3779,322.1133c-3.3575,0-6.6807-1.4717-8.9336-4.294c-3.9375-4.9189-3.1348-12.1123,1.7949-16.0498
			l46.4433-37.1298c4.9082-3.9375,12.125-3.1231,16.0508,1.7949c3.9375,4.9189,3.1338,12.1133-1.7959,16.0508l-46.4433,37.1298
			C799.3974,321.2988,796.8759,322.1133,794.3779,322.1133L794.3779,322.1133z"/>
	</g>
	<g>
		<line fill="#FFFFFF" x1="715.4003" y1="264.294" x2="729.3193" y2="217.8613"/>
		<path fill="#4D4D4D" d="M715.4003,275.7149c-1.082,0-2.1865-0.1563-3.2793-0.4795c-6.0459-1.8184-9.4697-8.1758-7.6631-14.2207
			l13.92-46.4327c1.8066-6.0449,8.1425-9.4462,14.2207-7.6621c6.0449,1.8184,9.4697,8.1758,7.6621,14.2207l-13.919,46.4317
			C724.8583,272.5244,720.3193,275.7149,715.4003,275.7149L715.4003,275.7149z"/>
	</g>
	<g>
		<line fill="#FFFFFF" x1="603.954" y1="268.9336" x2="585.372" y2="217.8613"/>
		<path fill="#4D4D4D" d="M603.954,280.3545c-4.6621,0-9.0449-2.8779-10.7295-7.5176l-18.5811-51.0713
			c-2.1641-5.9228,0.8916-12.4814,6.8253-14.6338c5.8896-2.1416,12.4814,0.9034,14.6338,6.8262l18.582,51.0713
			c2.1631,5.9229-0.8926,12.4815-6.8262,14.6338C606.5751,280.1318,605.248,280.3545,603.954,280.3545L603.954,280.3545z"/>
	</g>
	<g>
		<line fill="#FFFFFF" x1="515.7524" y1="320.0274" x2="469.2533" y2="287.5039"/>
		<path fill="#4D4D4D" d="M515.7411,331.4492c-2.2641,0-4.5395-0.6699-6.5361-2.0634l-46.499-32.5235
			c-5.1641-3.6142-6.4243-10.7305-2.8106-15.9053c3.6026-5.1865,10.7295-6.4355,15.9048-2.8105l46.499,32.5234
			c5.1641,3.6133,6.4244,10.7295,2.8106,15.9053C522.8905,329.7539,519.3438,331.4492,515.7411,331.4492L515.7411,331.4492z"/>
	</g>
	<path fill="#4D4D4D" d="M634.9609,346.7627c0,13.875,11.2431,25.1397,25.0957,25.1397c13.8974,0,25.1396-11.2647,25.1396-25.1397
		c0-13.9082-11.2422-25.1621-25.1396-25.1621C646.204,321.6006,634.9609,332.8545,634.9609,346.7627z"/>
</g>
</svg>
