<?xml version="1.0" encoding="utf-8"?>
<!-- Generator: Adobe Illustrator 17.1.0, SVG Export Plug-In . SVG Version: 6.00 Build 0)  -->
<!DOCTYPE svg PUBLIC "-//W3C//DTD SVG 1.1//EN" "http://www.w3.org/Graphics/SVG/1.1/DTD/svg11.dtd">
<svg version="1.1" id="party-popper" xmlns="http://www.w3.org/2000/svg" xmlns:xlink="http://www.w3.org/1999/xlink" x="0px"
	 y="0px" viewBox="0 0 708.1454 1010.0002" enable-background="new 0 0 708.1454 1010.0002" xml:space="preserve">
<g>
	<path fill="#FFFFFF" d="M331.5565,627.6916c0,0,144.1104-364.0439-144.1514-508.2153l45.5533-60.6573
		C232.9585,58.819,513.5682,233.279,331.5565,627.6916z"/>
	<path fill="#4D4D4D" d="M331.5565,638.0022c-1.3491,0-2.7388-0.2618-4.0479-0.8262c-5.1352-2.1953-7.5922-8.0752-5.538-13.2715
		c5.7192-14.5195,137.2041-356.9741-139.1768-495.2046c-2.7393-1.3696-4.7329-3.8667-5.4175-6.8472
		c-0.7051-2.9804-0.0605-6.122,1.7925-8.559l45.5532-60.6773c3.2017-4.269,9.1426-5.3769,13.6739-2.5571
		c2.8999,1.792,286.228,183.8642,102.5249,581.9614C339.1889,635.7873,335.4633,638.0022,331.5565,638.0022L331.5565,638.0022z
		 M202.9521,115.9318c147.7764,79.7286,178.1445,218.7847,173.7954,332.4058c34.356-229.3975-106.4722-349.4228-141.5332-375.3608
		L202.9521,115.9318L202.9521,115.9318z"/>
</g>
<g>
	<path fill="#FFFFFF" d="M407.4384,726.3088c0,0,121.3145-159.3359,280.6094-75.8418l-22.7558,68.2695
		C665.2919,718.7365,596.9813,612.5061,407.4384,726.3088z"/>
	<path fill="#4D4D4D" d="M407.4384,736.6193c-2.8398,0-5.6591-1.1679-7.6728-3.4228c-3.3028-3.6856-3.5244-9.2031-0.5235-13.1299
		c3.2217-4.25,80.5733-104.1161,195.2422-104.1161c33.128,0,66.2159,8.5381,98.3565,25.3945
		c4.4707,2.336,6.5859,7.5928,4.9941,12.3858l-22.7558,68.2685c-1.2696,3.7666-4.5723,6.4854-8.4991,6.9678
		c-4.1484,0.4238-7.833-1.3281-9.9677-4.6523c-1.0479-1.5899-27.3086-40.3165-92.8389-40.3165
		c-43.6807,0-94.4893,17.2188-151.0186,51.1524C411.1035,736.1369,409.2704,736.6193,407.4384,736.6193L407.4384,736.6193z
		 M563.7734,663.3762c50.6084,0,81.6211,20.4814,97.3701,35.1826l14.2979-42.8555c-26.6631-12.6875-53.8506-19.1308-80.9571-19.1308
		c-53.2461,0-98.5576,24.79-130.2548,49.1582C499.9951,670.8674,533.3036,663.3762,563.7734,663.3762L563.7734,663.3762z"/>
</g>
<g>
	<polygon fill="#FF9554" points="303.4433,881.6574 181.4443,738.6936 192.9233,719.9045 324.0249,874.1252 	"/>
	<g>
		<polygon fill="#5FD4AF" points="226.4336,909.9113 138.5092,808.9377 170.5698,756.4562 283.6269,888.9279 		"/>
		<path fill="#4D4D4D" d="M223.3125,922.0354l-97.5508-112.0108l43.4184-71.0683l131.9068,154.5625L223.3125,922.0354
			L223.3125,922.0354z M151.2568,807.8693l78.2983,89.919l36.6119-13.4326l-94.2081-110.3789L151.2568,807.8693L151.2568,807.8693z"
			/>
	</g>
	<polygon fill="#FF9554" points="185.6733,924.8537 116.3969,845.1262 127.7148,826.6389 206.5371,917.2014 	"/>
	<g>
		<polygon fill="#5FD4AF" points="102.2196,955.465 71.9316,917.8869 105.5624,862.8479 165.7768,932.1447 		"/>
		<path fill="#4D4D4D" d="M98.8363,967.6887l-39.4917-48.9766l44.7681-73.2431l79.2652,91.207L98.8363,967.6887L98.8363,967.6887z
			 M84.518,917.0803l21.085,26.1601l42.5727-15.6269l-41.163-47.3653L84.518,917.0803L84.518,917.0803z"/>
	</g>
	<polygon fill="#FF9554" points="60.976,935.8098 82.6049,962.6545 33.5878,980.6174 	"/>
	<g>
		<polygon fill="#5FD4AF" points="343.8412,866.8557 203.7983,702.1232 233.1601,654.0314 396.4834,847.5432 		"/>
		<path fill="#4D4D4D" d="M340.6391,879.0197L191.1108,703.1291l40.6997-66.6777l182.0518,215.7031L340.6391,879.0197
			L340.6391,879.0197z M216.4853,701.1359l130.5576,153.5762l32.0606-11.7607L234.5092,671.6135L216.4853,701.1359
			L216.4853,701.1359z"/>
	</g>
</g>
<g>
	<g>
		<path fill="#4D4D4D" d="M10.3076,1010.0002c-3.0205,0-5.981-1.3301-7.9746-3.7656c-2.7793-3.4043-3.1016-8.1768-0.8257-11.9229
			l221.5635-362.5322c1.7319-2.8203,4.7124-4.6523,8.0151-4.8945c3.3227-0.2813,6.5449,1.0879,8.6592,3.625l181.2871,214.8173
			c2.1748,2.5772,2.9599,6.042,2.0937,9.2842c-0.8652,3.2617-3.2617,5.8809-6.4238,7.0489L13.852,1009.3752
			C12.7041,1009.799,11.4956,1010.0002,10.3076,1010.0002L10.3076,1010.0002z M233.2202,654.7365L34.5341,979.8322
			l361.2442-132.4707L233.2202,654.7365L233.2202,654.7365z"/>
	</g>
	<g>
		<path fill="#4D4D4D" d="M337.558,885.0607c-2.9204,0-5.8203-1.2285-7.854-3.625L188.1303,714.9104
			c-3.6855-4.3497-3.1616-10.8545,1.168-14.5391c4.3901-3.6856,10.855-3.1621,14.54,1.1875L345.412,868.0842
			c3.685,4.3301,3.1616,10.834-1.1685,14.5195C342.2905,884.2551,339.914,885.0607,337.558,885.0607L337.558,885.0607z"/>
	</g>
	<g>
		<path fill="#4D4D4D" d="M298.7309,901.6955c-2.8999,0-5.7998-1.2285-7.854-3.6055L161.8095,746.7892
			c-3.7055-4.3495-3.1821-10.8535,1.148-14.5391c4.289-3.666,10.8139-3.2021,14.5395,1.1475l129.0679,151.2998
			c3.7056,4.33,3.1816,10.8359-1.1479,14.541C303.4834,900.8889,301.1074,901.6955,298.7309,901.6955L298.7309,901.6955z"/>
	</g>
	<g>
		<path fill="#4D4D4D" d="M223.7753,932.2053c-2.8798,0-5.7392-1.1885-7.7734-3.5244l-93.0395-106.8155
			c-3.7461-4.3086-3.3028-10.8134,1.0068-14.5595c4.2895-3.7452,10.7944-3.2627,14.54,1.0068l93.0396,106.8145
			c3.7461,4.289,3.3027,10.8144-1.0068,14.54C228.5883,931.3791,226.1718,932.2053,223.7753,932.2053L223.7753,932.2053z"/>
	</g>
	<g>
		<path fill="#4D4D4D" d="M182.1289,946.1408c-2.8794,0-5.7393-1.1885-7.7735-3.5449l-73.5859-84.6416
			c-3.7456-4.29-3.2822-10.8145,1.0073-14.54c4.2891-3.7256,10.814-3.3028,14.5396,1.0068l73.5864,84.6416
			c3.7456,4.3105,3.2822,10.8145-1.0073,14.5605C186.9423,945.3147,184.5253,946.1408,182.1289,946.1408L182.1289,946.1408z"/>
	</g>
	<g>
		<path fill="#4D4D4D" d="M96.0571,973.8908c-3.0005,0-6.001-1.3086-8.0352-3.8261l-34.6782-43.0352
			c-3.5644-4.4512-2.8599-10.9355,1.5708-14.5c4.3901-3.584,10.9351-2.8799,14.4995,1.5508l34.6787,43.0351
			c3.5644,4.4317,2.8594,10.9161-1.5708,14.5C100.6288,973.1467,98.3329,973.8908,96.0571,973.8908L96.0571,973.8908z"/>
	</g>
</g>
<g>
	<g>
		<line fill="#FFFFFF" x1="481.4267" y1="328.1511" x2="513.165" y2="328.1511"/>
		<path fill="#4D4D4D" d="M513.165,338.4621h-31.7383c-5.6992,0-10.3105-4.6118-10.3105-10.311s4.6113-10.3106,10.3105-10.3106
			h31.7383c5.6992,0,10.3105,4.6114,10.3105,10.3106S518.8641,338.4621,513.165,338.4621L513.165,338.4621z"/>
	</g>
	<g>
		<line fill="#FFFFFF" x1="562.6259" y1="328.1511" x2="594.3641" y2="328.1511"/>
		<path fill="#4D4D4D" d="M594.3641,338.4621h-31.7383c-5.6992,0-10.3115-4.6118-10.3115-10.311s4.6123-10.3106,10.3115-10.3106
			h31.7383c5.6992,0,10.3106,4.6114,10.3106,10.3106S600.0634,338.4621,594.3641,338.4621L594.3641,338.4621z"/>
	</g>
	<g>
		<line fill="#FFFFFF" x1="537.9354" y1="275.1667" x2="537.9354" y2="306.9255"/>
		<path fill="#4D4D4D" d="M537.9354,317.236c-5.6992,0-10.3105-4.6113-10.3105-10.3105v-31.7588
			c0-5.6987,4.6113-10.3105,10.3105-10.3105c5.6992,0,10.3115,4.6118,10.3115,10.3105v31.7588
			C548.2469,312.6247,543.6346,317.236,537.9354,317.236L537.9354,317.236z"/>
	</g>
	<g>
		<line fill="#FFFFFF" x1="537.9354" y1="356.3449" x2="537.9354" y2="388.0832"/>
		<path fill="#4D4D4D" d="M537.9354,398.3942c-5.6992,0-10.3105-4.6118-10.3105-10.311v-31.7383
			c0-5.6992,4.6113-10.3105,10.3105-10.3105c5.6992,0,10.3115,4.6113,10.3115,10.3105v31.7383
			C548.2469,393.7824,543.6346,398.3942,537.9354,398.3942L537.9354,398.3942z"/>
	</g>
</g>
<g>
	<g>
		<line fill="#FFFFFF" x1="584.9384" y1="469.302" x2="616.7177" y2="469.302"/>
		<path fill="#4D4D4D" d="M616.7177,479.6125h-31.7793c-5.6992,0-10.3105-4.6113-10.3105-10.3105
			c0-5.6993,4.6113-10.3111,10.3105-10.3111h31.7793c5.6993,0,10.3106,4.6118,10.3106,10.3111
			C627.0283,475.0012,622.4169,479.6125,616.7177,479.6125L616.7177,479.6125z"/>
	</g>
	<g>
		<line fill="#FFFFFF" x1="666.0966" y1="469.302" x2="697.8348" y2="469.302"/>
		<path fill="#4D4D4D" d="M697.8348,479.6125h-31.7383c-5.6992,0-10.3105-4.6113-10.3105-10.3105
			c0-5.6993,4.6113-10.3111,10.3105-10.3111h31.7383c5.6992,0,10.3106,4.6118,10.3106,10.3111
			C708.1454,475.0012,703.5341,479.6125,697.8348,479.6125L697.8348,479.6125z"/>
	</g>
	<g>
		<line fill="#FFFFFF" x1="641.4072" y1="416.3176" x2="641.4072" y2="448.1164"/>
		<path fill="#4D4D4D" d="M641.4072,458.427c-5.6992,0-10.3106-4.6119-10.3106-10.3106v-31.7988
			c0-5.6992,4.6114-10.3111,10.3106-10.3111c5.6992,0,10.3105,4.6119,10.3105,10.3111v31.7988
			C651.7177,453.8151,647.1063,458.427,641.4072,458.427L641.4072,458.427z"/>
	</g>
	<g>
		<line fill="#FFFFFF" x1="641.4072" y1="497.4758" x2="641.4072" y2="529.2136"/>
		<path fill="#4D4D4D" d="M641.4072,539.5246c-5.6992,0-10.3106-4.6118-10.3106-10.311v-31.7378
			c0-5.6992,4.6114-10.311,10.3106-10.311c5.6992,0,10.3105,4.6118,10.3105,10.311v31.7378
			C651.7177,534.9128,647.1063,539.5246,641.4072,539.5246L641.4072,539.5246z"/>
	</g>
</g>
<g>
	<g>
		<line fill="#FFFFFF" x1="462.618" y1="807.9299" x2="494.3964" y2="807.9299"/>
		<path fill="#4D4D4D" d="M494.3964,818.2414H462.618c-5.6992,0-10.3105-4.6123-10.3105-10.3115
			c0-5.6992,4.6113-10.3106,10.3105-10.3106h31.7783c5.6993,0,10.3106,4.6114,10.3106,10.3106
			C504.707,813.6291,500.0956,818.2414,494.3964,818.2414L494.3964,818.2414z"/>
	</g>
	<g>
		<line fill="#FFFFFF" x1="543.7762" y1="807.9299" x2="575.5536" y2="807.9299"/>
		<path fill="#4D4D4D" d="M575.5536,818.2414h-31.7774c-5.6992,0-10.3115-4.6123-10.3115-10.3115
			c0-5.6992,4.6122-10.3106,10.3115-10.3106h31.7774c5.6992,0,10.3115,4.6114,10.3115,10.3106
			C585.8652,813.6291,581.2529,818.2414,575.5536,818.2414L575.5536,818.2414z"/>
	</g>
	<g>
		<line fill="#FFFFFF" x1="519.0859" y1="755.006" x2="519.0859" y2="786.7648"/>
		<path fill="#4D4D4D" d="M519.0859,797.0764c-5.6992,0-10.3106-4.6123-10.3106-10.3116V755.006
			c0-5.6992,4.6114-10.3105,10.3106-10.3105c5.6992,0,10.3115,4.6113,10.3115,10.3105v31.7588
			C529.3973,792.4641,524.785,797.0764,519.0859,797.0764L519.0859,797.0764z"/>
	</g>
	<g>
		<line fill="#FFFFFF" x1="519.0859" y1="836.1848" x2="519.0859" y2="867.9631"/>
		<path fill="#4D4D4D" d="M519.0859,878.2736c-5.6992,0-10.3106-4.6113-10.3106-10.3105v-31.7783
			c0-5.6992,4.6114-10.3116,10.3106-10.3116c5.6992,0,10.3115,4.6124,10.3115,10.3116v31.7783
			C529.3973,873.6623,524.785,878.2736,519.0859,878.2736L519.0859,878.2736z"/>
	</g>
</g>
<g>
	<polygon fill="#5FD4AF" points="472.042,9.8425 492.9062,52.0529 539.5068,58.8796 505.7949,91.7458 513.7695,138.1648 
		472.042,116.2341 430.3564,138.1648 438.2899,91.7458 404.5791,58.8796 451.1786,52.0529 	"/>
	<path fill="#4D4D4D" d="M513.7695,148.4758c-1.6514,0-3.2822-0.4028-4.793-1.188l-36.9345-19.3936l-36.8926,19.3936
		c-3.4649,1.8125-7.6934,1.5303-10.8555-0.7856c-3.1611-2.2959-4.7725-6.2027-4.1074-10.0894l7.0273-41.0625l-29.8242-29.1001
		c-2.8203-2.7388-3.8262-6.8267-2.6182-10.5522c1.2081-3.7256,4.4307-6.4644,8.3174-7.0284l41.2432-6.0415l18.4678-37.3569
		c3.4629-7.0283,15.0224-7.0283,18.4863,0l18.4668,37.3569l41.2441,6.0415c3.8867,0.564,7.1084,3.3028,8.3164,7.0284
		c1.209,3.7255,0.2012,7.8134-2.6172,10.5522L516.871,95.3303l7.0683,41.0825c0.6651,3.8667-0.9267,7.7734-4.1084,10.0894
		C518.0389,147.8112,515.9042,148.4758,513.7695,148.4758L513.7695,148.4758z M426.7108,66.049l18.7686,18.3057
		c2.4375,2.3765,3.5449,5.7798,2.9804,9.123l-4.4297,25.8374l23.2188-12.2036c2.9805-1.5913,6.6055-1.5708,9.5859,0l23.2403,12.2036
		l-4.4502-25.8374c-0.5635-3.3432,0.5439-6.7465,2.9804-9.123L517.374,66.049l-25.958-3.8061
		c-3.3633-0.4834-6.2432-2.5982-7.753-5.6187l-11.621-23.5014l-11.6192,23.5014c-1.5098,3.0205-4.3906,5.1353-7.7539,5.6187
		L426.7108,66.049L426.7108,66.049z"/>
</g>
<g>
	<polygon fill="#FF9554" points="196.0249,373.5837 216.9282,415.8142 263.5693,422.6008 229.7768,455.487 237.7514,501.906 
		196.0249,480.0153 154.3784,501.906 162.3129,455.487 128.561,422.6008 175.2016,415.8142 	"/>
	<path fill="#4D4D4D" d="M154.3784,512.217c-2.1348,0-4.2696-0.6646-6.062-1.9536c-3.1617-2.3159-4.7725-6.2227-4.1079-10.0894
		l7.0283-41.0825l-29.8653-29.1001c-2.8198-2.7388-3.8266-6.8266-2.6181-10.5727c1.208-3.7256,4.4302-6.4444,8.3169-7.0079
		l41.2842-6.0214l18.4267-37.377c1.7319-3.5044,5.3164-5.7397,9.2437-5.7397l0,0c3.9267,0,7.5112,2.2153,9.2431,5.7397
		l18.5073,37.377l41.2842,6.0214c3.8867,0.5635,7.1089,3.2823,8.3169,7.0079c1.2085,3.7461,0.2017,7.8339-2.6177,10.5727
		l-29.9057,29.1001l7.0683,41.0825c0.6646,3.8667-0.9262,7.7735-4.1079,10.0694c-3.1621,2.2959-7.3711,2.6181-10.8549,0.8056
		l-36.9336-19.3735l-36.8536,19.3535C157.6611,511.8342,156.0297,512.217,154.3784,512.217L154.3784,512.217z M196.0249,469.7048
		c1.6513,0,3.2822,0.4028,4.7929,1.188l23.2398,12.1836l-4.4507-25.8374c-0.564-3.3433,0.5434-6.7666,2.9805-9.1431l18.809-18.3057
		l-25.9585-3.7661c-3.3427-0.4834-6.2426-2.5976-7.7529-5.6386l-11.6401-23.5215l-11.6001,23.5215
		c-1.4903,3.041-4.3902,5.1552-7.7529,5.6386l-25.9791,3.7862l18.7896,18.3061c2.4365,2.356,3.5444,5.7593,2.9805,9.1226
		l-4.4307,25.8374l23.1797-12.1836C192.7221,470.1076,194.3735,469.7048,196.0249,469.7048L196.0249,469.7048z"/>
</g>
</svg>
