<?xml version="1.0" encoding="utf-8"?>
<!-- Generator: Adobe Illustrator 17.1.0, SVG Export Plug-In . SVG Version: 6.00 Build 0)  -->
<!DOCTYPE svg PUBLIC "-//W3C//DTD SVG 1.1//EN" "http://www.w3.org/Graphics/SVG/1.1/DTD/svg11.dtd">
<svg version="1.1" id="piggy-bank-dollars" xmlns="http://www.w3.org/2000/svg" xmlns:xlink="http://www.w3.org/1999/xlink" x="0px"
	 y="0px" viewBox="0 0 1010.0002 867.7872" enable-background="new 0 0 1010.0002 867.7872" xml:space="preserve">
<g>
	<g>
		<polyline fill="#FFFFFF" points="185.4268,522.1221 155.9199,375.1416 300.0811,419.6382 190.8828,521.5176 		"/>
		<path fill="#4D4D4D" d="M185.4165,532.4307c-4.812,0-9.1108-3.3828-10.0972-8.2754l-29.5068-146.98
			c-0.7148-3.5639,0.5034-7.2485,3.1909-9.6845c2.6983-2.4366,6.5034-3.3223,9.9566-2.1949l144.1616,44.4966
			c3.5132,1.0874,6.1811,3.9468,7.0063,7.5303c0.8257,3.584-0.3217,7.3491-3.0097,9.8457L197.9199,529.0479
			c-2.4262,2.2559-5.5771,3.1211-8.6679,2.6582c-0.5738,0.2206-1.1675,0.4023-1.792,0.5234
			C186.7754,532.3702,186.0908,532.4307,185.4165,532.4307L185.4165,532.4307z M169.4399,390.1016l23.2149,115.6709l87.3828-81.5234
			L169.4399,390.1016L169.4399,390.1016z"/>
	</g>
	<g>
		<polyline fill="#FFFFFF" points="543.957,522.1221 573.4746,375.1416 429.3735,419.6382 538.5615,521.5176 		"/>
		<path fill="#4D4D4D" d="M543.9678,532.4307c-0.6747,0-1.3594-0.0605-2.044-0.2012c-0.6133-0.1211-1.2079-0.3027-1.7715-0.5234
			c-2.9804,0.5234-6.2109-0.4023-8.6279-2.6582l-109.188-101.8794c-2.688-2.4966-3.8354-6.2617-3.0102-9.8457
			c0.8257-3.5835,3.4936-6.4429,7.0068-7.5303l144.1006-44.4966c3.4629-1.1274,7.2695-0.2417,9.9473,2.1949
			c2.6971,2.436,3.916,6.1206,3.201,9.6845l-29.5175,146.98C553.0781,529.0479,548.7793,532.4307,543.9678,532.4307
			L543.9678,532.4307z M449.417,424.229l87.3223,81.483l23.2148-115.6104L449.417,424.229L449.417,424.229z"/>
	</g>
	<g>
		<path fill="#FFFFFF" d="M519.6455,857.4385c54.292,0,51.5938-40.7519,51.5938-59.7187c0-16.3496,0-168.4434,0-207.7852
			c0-114.7661-93.0406-207.7056-207.816-207.7056c-114.7246,0-207.7148,92.9395-207.7148,207.7056V800.378
			c0,0-5.5068,57.0996,46.0874,57.0996c32.6577,0,48.9263-19.0469,48.9263-57.0996h225.4433
			C476.1655,800.378,473.4575,857.4385,519.6455,857.4385z"/>
		<path fill="#4D4D4D" d="M201.7959,867.7872c-17.3154,0-31.1177-5.5372-41.0337-16.4502
			c-18.1611-20.0137-15.4434-50.6582-15.3125-51.9463l-0.0503-209.4561c0-120.2222,97.8023-218.0146,218.0239-218.0146
			c120.2725,0,218.1255,97.7924,218.1255,218.0146l0.0098,210.3018c0.0801,13.4297,0.2109,35.8994-15.4131,51.6045
			c-10.4795,10.5507-26.1338,15.9062-46.5,15.9062c-14.8896,0-27.1514-4.9336-36.4228-14.6582
			c-12.2115-12.8047-15.9063-30.9463-16.9732-42.4023H260.6182C256.5005,860.0752,222.5542,867.7872,201.7959,867.7872
			L201.7959,867.7872z M363.4233,392.5376c-108.8457,0-197.4062,88.5508-197.4062,197.397V800.378
			c-0.0606,1.1875-1.9629,24,10.0674,37.1679c5.9292,6.4825,14.3354,9.6231,25.7114,9.6231c17.9795,0,38.6172-5.3145,38.6172-46.791
			c0-5.6992,4.6108-10.3086,10.3091-10.3086h225.4433c2.8086,0,5.4966,1.167,7.4395,3.1806c1.9429,2.0342,2.98,4.792,2.8589,7.5909
			c-0.0098,0.2412-0.896,24.9062,11.7285,38.0742c5.2954,5.5156,12.3222,8.2148,21.4531,8.2148
			c14.6777,0,25.4092-3.3027,31.8818-9.8261c9.5743-9.6241,9.4844-25.4102,9.4141-36.9463l-0.0107-210.4229
			C560.9307,481.0884,472.3296,392.5376,363.4233,392.5376L363.4233,392.5376z"/>
	</g>
	<g>
		<g>
			<path fill="#5FD4AF" d="M454.3599,625.6524c0,40.5107-40.7515,73.3291-90.9663,73.3291
				c-50.2452,0-91.0274-32.8184-91.0274-73.3291c0-40.4697,40.7822-73.3291,91.0274-73.3291
				C413.6084,552.3233,454.3599,585.1827,454.3599,625.6524z"/>
			<path fill="#4D4D4D" d="M363.3936,709.2901c-55.8726,0-101.336-37.5098-101.336-83.6377
				c0-46.1279,45.4634-83.6377,101.336-83.6377c55.8422,0,101.2753,37.5098,101.2753,83.6377
				C464.6689,671.7803,419.2358,709.2901,363.3936,709.2901L363.3936,709.2901z M363.3936,562.6319
				c-44.5069,0-80.7183,28.2685-80.7183,63.0205c0,34.751,36.2114,63.0205,80.7183,63.0205
				c44.4765,0,80.6577-28.2695,80.6577-63.0205C444.0513,590.9004,407.8701,562.6319,363.3936,562.6319L363.3936,562.6319z"/>
		</g>
		<path fill="#4D4D4D" d="M351.2119,625.6524c0,8.6982-7.0771,15.7451-15.7246,15.7451c-8.7383,0-15.7549-7.0469-15.7549-15.7451
			c0-8.6572,7.0166-15.7451,15.7549-15.7451C344.1348,609.9073,351.2119,616.9952,351.2119,625.6524z"/>
		<path fill="#4D4D4D" d="M409.8228,625.6524c0,8.6982-7.0567,15.7451-15.7852,15.7451c-8.6978,0-15.7246-7.0469-15.7246-15.7451
			c0-8.6572,7.0268-15.7451,15.7246-15.7451C402.7661,609.9073,409.8228,616.9952,409.8228,625.6524z"/>
	</g>
	<path fill="#4D4D4D" d="M270.5947,553.4502c0,13.5704-11.0537,24.5645-24.6245,24.5645c-13.5703,0-24.584-10.9941-24.584-24.5645
		c0-13.5703,11.0137-24.5634,24.584-24.5634C259.541,528.8868,270.5947,539.8799,270.5947,553.4502z"/>
	<path fill="#4D4D4D" d="M509.5981,553.4502c0,13.5704-10.9931,24.5645-24.5634,24.5645c-13.6006,0-24.5943-10.9941-24.5943-24.5645
		c0-13.5703,10.9937-24.5634,24.5943-24.5634C498.605,528.8868,509.5981,539.8799,509.5981,553.4502z"/>
	<g>
		<path fill="#4D4D4D" d="M117.6045,752.0948c-21.7251,0-45.6348-7.4893-61.6411-31.6309c-3.292-0.623-6.7451-1.4287-10.3994-2.4551
			C16.6006,709.9541,0,680.5792,0,637.4112c0-5.6992,4.6108-10.3086,10.3086-10.3086c5.6982,0,10.3091,4.6094,10.3091,10.3086
			c0,17.8379,3.312,47.6572,24.1308,58.2881c-4.5205-17.7784,0.7954-29.335,5.0035-35.1944
			c7.9526-11.0537,22.0668-16.8525,36.5937-15c13.3594,1.6309,24.0503,9.3623,28.5908,20.6973
			c6.4126,16.0468,4.5,31.4902-5.2348,42.3633c-4.1778,4.6709-11.8794,10.6103-24.9766,12.8252
			c25.5,19.208,61.0166,5.0537,62.8389,4.2685c5.2851-2.1347,11.3056,0.3418,13.4599,5.5772
			c2.1743,5.2549-0.3022,11.2754-5.5468,13.4697C145.9131,748.6924,132.252,752.0948,117.6045,752.0948L117.6045,752.0948z
			 M68.8091,701.417c11.6875,0.9063,20.7983-1.3281,25.5298-6.6035c4.3188-4.8125,4.8525-12.4629,1.4497-20.9599
			c-1.6909-4.2276-6.1607-7.1885-11.9395-7.8926c-7.1177-0.8457-13.8623,1.7314-17.3554,6.584
			c-4.44,6.1806-3.7149,16.2275,2.0434,28.3291C68.6274,701.0557,68.7183,701.2364,68.8091,701.417L68.8091,701.417z"/>
	</g>
</g>
<g>
	<g>
		<path fill="#FFFFFF" d="M887.0449,139.4097c0,0-1.2676,37.2886-40.0869,42.564c0,0,35.376,2.2949,40.0869,39.7446
			c0,0,5.1153-37.2886,38.5576-41.1543C925.6025,180.564,890.8906,179.2754,887.0449,139.4097z"/>
		<path fill="#4D4D4D" d="M887.0449,232.0074c-0.0293,0-0.0703,0-0.0995,0c-5.1543-0.0606-9.4844-3.8863-10.1279-9
			c-3.6045-28.6714-29.4268-30.6851-30.5244-30.7451c-5.2852-0.3423-9.4523-4.6309-9.6329-9.9263
			c-0.1913-5.2954,3.664-9.8657,8.9082-10.5708c29.8593-4.0669,31.1386-31.5303,31.1777-32.6978
			c0.1816-5.4365,4.5508-9.7851,9.9766-9.9663c6.0507-0.1211,10.0684,3.9258,10.5811,9.3218
			c2.8594,29.5571,26.124,31.6914,28.7725,31.8525c5.3457,0.2818,9.623,4.6309,9.7851,9.9869
			c0.1602,5.3354-3.7558,9.9257-9.0703,10.5502c-24.9376,2.879-29.3662,31.1475-29.5371,32.3555
			C896.5088,228.2217,892.1602,232.0074,887.0449,232.0074L887.0449,232.0074z M875.0859,181.8326
			c4.3692,3.1006,8.5274,7.0068,12.0606,11.8994c3-4.5303,6.7148-8.8594,11.2441-12.564c-4.1172-2.98-8.0332-6.7851-11.3955-11.5366
			C883.8848,174.0606,879.9688,178.2486,875.0859,181.8326L875.0859,181.8326z"/>
	</g>
	<g>
		<path fill="#FFFFFF" d="M563.5879,75.7852c0,0-1.2676,37.2886-40.0767,42.6045c0,0,35.4069,2.2549,40.0767,39.7046
			c0,0,5.1543-37.3291,38.5976-41.1948C602.1855,116.8995,567.4746,115.6514,563.5879,75.7852z"/>
		<path fill="#4D4D4D" d="M563.5879,168.4029c-0.0195,0-0.0391,0-0.0703,0c-5.1738-0.0401-9.5235-3.9058-10.1572-9.0401
			c-3.5743-28.6513-29.4063-30.6245-30.5035-30.6845c-5.2856-0.3423-9.4531-4.6309-9.6445-9.9063
			c-0.1914-5.2954,3.6543-9.8857,8.8994-10.5908c29.8589-4.0869,31.1382-31.5703,31.1772-32.7383
			c0.1816-5.436,4.541-9.7851,9.9765-9.9663c5.8096-0.0605,10.0576,3.9063,10.5811,9.3023
			c2.9795,30.5434,27.665,31.7714,28.7119,31.812c5.3857,0.2011,9.7148,4.5097,9.9258,9.9057
			c0.2109,5.376-3.7549,10.0269-9.1114,10.6514c-25.2167,2.8994-29.5361,32.0537-29.5761,32.3555
			C573.0918,164.5977,568.7324,168.4029,563.5879,168.4029L563.5879,168.4029z M551.6484,118.2286
			c4.3594,3.0805,8.5176,6.9863,12.0508,11.8588c3.0098-4.5302,6.7245-8.8588,11.2656-12.5639
			c-4.1279-2.9795-8.0449-6.7852-11.416-11.5166C560.4473,110.4366,556.5313,114.6246,551.6484,118.2286L551.6484,118.2286z"/>
	</g>
	<g>
		<path fill="#FFFFFF" d="M961.0996,249.8262c0,0-1.2285,37.2886-40.0273,42.5635c0,0,35.3965,2.2954,40.0273,39.7451
			c0,0,5.1738-37.3291,38.6367-41.1543C999.7363,290.9805,964.9648,289.6919,961.0996,249.8262z"/>
		<path fill="#4D4D4D" d="M961.0996,342.4434c-0.0205,0-0.0508,0-0.0811,0c-5.1747-0.04-9.5127-3.9058-10.1475-9.04
			c-3.543-28.6509-29.3652-30.6646-30.4629-30.7251c-5.2852-0.3423-9.4531-4.6309-9.6348-9.9258
			c-0.1914-5.2954,3.6641-9.8662,8.9102-10.5708c29.8281-4.0669,31.0762-31.5303,31.1172-32.6978
			c0.1709-5.4365,4.54-9.7856,9.9668-9.9668c5.5967,0.1812,10.0762,3.9063,10.5898,9.3223
			c2.8692,29.5571,26.1953,31.6914,28.8527,31.8525c5.3456,0.2818,9.624,4.6309,9.7861,9.9864
			c0.1504,5.3559-3.7656,9.9262-9.0918,10.5503c-25.2275,2.8794-29.5566,32.0337-29.5967,32.3159
			C970.6025,338.6582,966.2441,342.4434,961.0996,342.4434L961.0996,342.4434z M949.1895,292.2491
			c4.3691,3.0805,8.5175,7.0063,12.0507,11.8789c3-4.5303,6.7149-8.8389,11.2452-12.5435
			c-4.1182-2.98-8.0439-6.7851-11.4161-11.5171C957.9785,284.4771,954.0723,288.6651,949.1895,292.2491L949.1895,292.2491z"/>
	</g>
</g>
<g>
	<g>
		<g>
			<g>
				<path fill="#FF9554" d="M848.3877,313.2491v285.7851c0,21.1416-47.0732,38.2959-105.2822,38.2959
					c-58.1075,0-105.2617-17.1543-105.2617-38.2959V316.8331L848.3877,313.2491z"/>
				<path fill="#4D4D4D" d="M743.1055,647.6387c-57.4336,0-115.5703-16.6904-115.5703-48.6045V316.8331
					c0-5.6177,4.5096-10.2085,10.1367-10.3091l210.5449-3.584c2.2441-0.02,5.4258,1.0268,7.3984,2.9599
					c1.9737,1.9332,3.0811,4.5909,3.0811,7.3492v285.7851C858.6963,630.9483,800.5488,647.6387,743.1055,647.6387L743.1055,647.6387
					z M648.1523,326.9605v272.0737c0,9.5039,33.5137,27.9873,94.9532,27.9873c61.4492,0,94.9736-18.4834,94.9736-27.9873V323.7388
					L648.1523,326.9605L648.1523,326.9605z"/>
			</g>
			<g>
				<path fill="#FF9554" d="M848.3877,313.2491c0,21.1006-47.0732,38.2148-105.2822,38.2148
					c-58.1075,0-105.2617-17.1142-105.2617-38.2148c0-21.1411,47.1542-38.2954,105.2617-38.2954
					C801.3145,274.9537,848.3877,292.108,848.3877,313.2491z"/>
				<path fill="#4D4D4D" d="M743.1055,361.7725c-57.4336,0-115.5703-16.6714-115.5703-48.5234
					c0.0096-63.8257,231.1718-63.8057,231.1611,0C858.6963,345.1011,800.5488,361.7725,743.1055,361.7725L743.1055,361.7725z
					 M743.1055,285.2623c-61.4395,0-94.9532,18.4834-94.9532,27.9868c0,9.4629,33.5137,27.9057,94.9532,27.9057
					c61.4492,0,94.9736-18.4428,94.9736-27.9057C838.0791,303.7457,804.5547,285.2623,743.1055,285.2623L743.1055,285.2623z"/>
			</g>
		</g>
		<g>
			<path fill="#4D4D4D" d="M743.1055,410.8194c-57.4336,0-115.5703-16.6909-115.5703-48.604
				c0-5.6978,4.6103-10.3086,10.3086-10.3086c5.6972,0,10.3085,4.6108,10.3085,10.3086c0,9.5034,33.5137,27.9868,94.9532,27.9868
				c61.4492,0,94.9736-18.4834,94.9736-27.9868c0-5.6978,4.6104-10.3086,10.3086-10.3086s10.3086,4.6108,10.3086,10.3086
				C858.6963,394.1285,800.5488,410.8194,743.1055,410.8194L743.1055,410.8194z"/>
		</g>
		<g>
			<path fill="#4D4D4D" d="M743.1055,458.6182c-57.4336,0-115.5703-16.6709-115.5703-48.5234
				c0-5.6983,4.6103-10.3086,10.3086-10.3086c5.6972,0,10.3085,4.6103,10.3085,10.3086c0,9.4629,33.5137,27.9062,94.9532,27.9062
				c61.4492,0,94.9736-18.4433,94.9736-27.9062c0-5.6983,4.6104-10.3086,10.3086-10.3086s10.3086,4.6103,10.3086,10.3086
				C858.6963,441.9473,800.5488,458.6182,743.1055,458.6182L743.1055,458.6182z"/>
		</g>
		<g>
			<path fill="#4D4D4D" d="M743.1055,506.4581c-57.4336,0-115.5703-16.6919-115.5703-48.5645
				c0-5.6982,4.6103-10.3086,10.3086-10.3086c5.6972,0,10.3085,4.6104,10.3085,10.3086c0,9.4834,33.5137,27.9463,94.9532,27.9463
				c61.4492,0,94.9736-18.4629,94.9736-27.9463c0-5.6982,4.6104-10.3086,10.3086-10.3086s10.3086,4.6104,10.3086,10.3086
				C858.6963,489.7662,800.5488,506.4581,743.1055,506.4581L743.1055,506.4581z"/>
		</g>
		<g>
			<path fill="#4D4D4D" d="M743.1055,554.2959c-57.4336,0-115.5703-16.6914-115.5703-48.6035
				c0-5.6982,4.6103-10.3086,10.3086-10.3086c5.6972,0,10.3085,4.6104,10.3085,10.3086c0,9.5039,33.5137,27.9864,94.9532,27.9864
				c61.4492,0,94.9736-18.4825,94.9736-27.9864c0-5.6982,4.6104-10.3086,10.3086-10.3086s10.3086,4.6104,10.3086,10.3086
				C858.6963,537.6045,800.5488,554.2959,743.1055,554.2959L743.1055,554.2959z"/>
		</g>
		<g>
			<path fill="#4D4D4D" d="M743.1055,599.7598c-57.4336,0-115.5703-16.6914-115.5703-48.6045
				c0-5.6972,4.6103-10.3086,10.3086-10.3086c5.6972,0,10.3085,4.6114,10.3085,10.3086c0,9.5039,33.5137,27.9863,94.9532,27.9863
				c61.4492,0,94.9736-18.4824,94.9736-27.9863c0-5.6972,4.6104-10.3086,10.3086-10.3086s10.3086,4.6114,10.3086,10.3086
				C858.6963,583.0684,800.5488,599.7598,743.1055,599.7598L743.1055,599.7598z"/>
		</g>
	</g>
	<g>
		<g>
			<path fill="#FF9554" d="M479.7998,201.9869v47.8393c0,21.1812-47.1445,38.3355-105.3022,38.3355
				c-58.128,0-105.2622-17.1543-105.2622-38.3355v-44.2554L479.7998,201.9869z"/>
			<path fill="#4D4D4D" d="M374.4976,298.4703c-57.4331,0-115.5708-16.7115-115.5708-48.6441v-44.2554
				c0-5.6176,4.5103-10.208,10.1378-10.3085l210.5639-3.584c2.124,0,5.4263,1.0268,7.3994,2.9594
				c1.9732,1.9331,3.0806,4.5909,3.0806,7.3492v47.8393C490.1084,281.7588,431.9507,298.4703,374.4976,298.4703L374.4976,298.4703z
				 M279.5444,215.6983v34.1279c0,9.5029,33.5132,28.0269,94.9532,28.0269c61.4594,0,94.9931-18.524,94.9931-28.0269v-37.3491
				L279.5444,215.6983L279.5444,215.6983z"/>
		</g>
		<g>
			<path fill="#FF9554" d="M479.7998,201.9869c0,21.1411-47.1445,38.2954-105.3022,38.2954
				c-58.128,0-105.2622-17.1543-105.2622-38.2954c0-21.1412,47.1342-38.2549,105.2622-38.2549
				C432.6553,163.732,479.7998,180.8457,479.7998,201.9869z"/>
			<path fill="#4D4D4D" d="M374.4976,250.5909c-57.4331,0-115.5708-16.691-115.5708-48.604c0-63.7452,231.1919-63.7251,231.1816,0
				C490.1084,233.8999,431.9507,250.5909,374.4976,250.5909L374.4976,250.5909z M374.4976,174.0406
				c-61.44,0-94.9532,18.4634-94.9532,27.9463c0,9.5034,33.5132,27.9868,94.9532,27.9868c61.4594,0,94.9931-18.4834,94.9931-27.9868
				C469.4907,192.504,435.957,174.0406,374.4976,174.0406L374.4976,174.0406z"/>
		</g>
	</g>
	<g>
		<g>
			<g>
				<path fill="#CCCCCC" d="M992.0059,437.5582v285.8667c0,21.1806-47.1748,38.2949-105.2832,38.2949
					c-58.168,0-105.3018-17.1143-105.3018-38.2949V441.1416L992.0059,437.5582z"/>
				<path fill="#4D4D4D" d="M886.7227,772.0284c-57.4532,0-115.6104-16.6914-115.6104-48.6035V441.1416
					c0-5.6171,4.5107-10.208,10.1377-10.3085l210.584-3.584c2.0644-0.2012,5.416,1.0268,7.3994,2.9599
					c1.9736,1.9326,3.0811,4.5904,3.0811,7.3492v285.8667C1002.3145,755.337,944.166,772.0284,886.7227,772.0284L886.7227,772.0284z
					 M791.7305,451.2696v272.1553c0,9.5029,33.5332,27.9863,94.9922,27.9863c61.4511,0,94.9746-18.4834,94.9746-27.9863v-275.377
					L791.7305,451.2696L791.7305,451.2696z"/>
			</g>
			<g>
				<path fill="#CCCCCC" d="M992.0059,437.5582c0,21.1005-47.1748,38.2148-105.2832,38.2148
					c-58.168,0-105.3018-17.1143-105.3018-38.2148c0-21.1412,47.1338-38.2554,105.3018-38.2554
					C944.8311,399.3028,992.0059,416.417,992.0059,437.5582z"/>
				<path fill="#4D4D4D" d="M886.7227,486.0816c-57.4532,0-115.6104-16.6714-115.6104-48.5234
					c0-63.7452,231.2021-63.7452,231.2021,0C1002.3145,469.4102,944.166,486.0816,886.7227,486.0816L886.7227,486.0816z
					 M886.7227,409.6114c-61.459,0-94.9922,18.4634-94.9922,27.9468c0,9.4628,33.5332,27.9057,94.9922,27.9057
					c61.4511,0,94.9746-18.4429,94.9746-27.9057C981.6973,428.0748,948.1738,409.6114,886.7227,409.6114L886.7227,409.6114z"/>
			</g>
		</g>
		<g>
			<path fill="#CCCCCC" d="M992.0059,486.5245c0,21.1406-47.1748,38.2949-105.2832,38.2949
				c-58.168,0-105.3018-17.1543-105.3018-38.2949"/>
			<path fill="#4D4D4D" d="M886.7227,535.128c-57.4532,0-115.6104-16.6914-115.6104-48.6035
				c0-5.6978,4.6104-10.3086,10.3086-10.3086s10.3096,4.6108,10.3096,10.3086c0,9.5039,33.5332,27.9863,94.9922,27.9863
				c61.4511,0,94.9746-18.4824,94.9746-27.9863c0-5.6978,4.6103-10.3086,10.3086-10.3086c5.6972,0,10.3086,4.6108,10.3086,10.3086
				C1002.3145,518.4366,944.166,535.128,886.7227,535.128L886.7227,535.128z"/>
		</g>
		<g>
			<path fill="#CCCCCC" d="M992.0059,534.4034c0,21.1416-47.1748,38.2959-105.2832,38.2959
				c-58.168,0-105.3018-17.1543-105.3018-38.2959"/>
			<path fill="#4D4D4D" d="M886.7227,583.0079c-57.4532,0-115.6104-16.6914-115.6104-48.6045
				c0-5.6973,4.6104-10.3086,10.3086-10.3086s10.3096,4.6113,10.3096,10.3086c0,9.5039,33.5332,27.9863,94.9922,27.9863
				c61.4511,0,94.9746-18.4824,94.9746-27.9863c0-5.6973,4.6103-10.3086,10.3086-10.3086c5.6972,0,10.3086,4.6113,10.3086,10.3086
				C1002.3145,566.3165,944.166,583.0079,886.7227,583.0079L886.7227,583.0079z"/>
		</g>
		<g>
			<path fill="#CCCCCC" d="M992.0059,582.2832c0,21.1407-47.1748,38.2549-105.2832,38.2549
				c-58.168,0-105.3018-17.1142-105.3018-38.2549"/>
			<path fill="#4D4D4D" d="M886.7227,630.8467c-57.4532,0-115.6104-16.6914-115.6104-48.5635
				c0-5.6982,4.6104-10.3095,10.3086-10.3095s10.3096,4.6113,10.3096,10.3095c0,9.4834,33.5332,27.9463,94.9922,27.9463
				c61.4511,0,94.9746-18.4629,94.9746-27.9463c0-5.6982,4.6103-10.3095,10.3086-10.3095c5.6972,0,10.3086,4.6113,10.3086,10.3095
				C1002.3145,614.1553,944.166,630.8467,886.7227,630.8467L886.7227,630.8467z"/>
		</g>
		<g>
			<path fill="#CCCCCC" d="M992.0059,630.1221c0,21.1406-47.1748,38.2949-105.2832,38.2949
				c-58.168,0-105.3018-17.1543-105.3018-38.2949"/>
			<path fill="#4D4D4D" d="M886.7227,678.7256c-57.4532,0-115.6104-16.6914-115.6104-48.6035
				c0-5.6982,4.6104-10.3086,10.3086-10.3086s10.3096,4.6104,10.3096,10.3086c0,9.5039,33.5332,27.9863,94.9922,27.9863
				c61.4511,0,94.9746-18.4824,94.9746-27.9863c0-5.6982,4.6103-10.3086,10.3086-10.3086c5.6972,0,10.3086,4.6104,10.3086,10.3086
				C1002.3145,662.0342,944.166,678.7256,886.7227,678.7256L886.7227,678.7256z"/>
		</g>
		<g>
			<path fill="#CCCCCC" d="M992.0059,675.545c0,21.1806-47.1748,38.2959-105.2832,38.2959
				c-58.168,0-105.3018-17.1153-105.3018-38.2959"/>
			<path fill="#4D4D4D" d="M886.7227,724.1495c-57.4532,0-115.6104-16.6914-115.6104-48.6045
				c0-5.6983,4.6104-10.3086,10.3086-10.3086s10.3096,4.6103,10.3096,10.3086c0,9.5029,33.5332,27.9873,94.9922,27.9873
				c61.4511,0,94.9746-18.4844,94.9746-27.9873c0-5.6983,4.6103-10.3086,10.3086-10.3086c5.6972,0,10.3086,4.6103,10.3086,10.3086
				C1002.3145,707.4581,944.166,724.1495,886.7227,724.1495L886.7227,724.1495z"/>
		</g>
	</g>
	<g>
		<path fill="#4D4D4D" d="M783.0518,213.1817c0-9.2217-3-16.8325-9-22.8325c-6.0401-6.0401-16.3086-11.5972-30.8252-16.6709
			c-22.9737-7.3692-40.209-16.6309-51.7051-27.7451c-11.4961-11.1143-17.2344-26.2549-17.2344-45.4229
			c0-18.1211,5.4766-32.9399,16.4092-44.4966c10.9521-11.5171,25.9736-18.4028,45.04-20.5371V0h25.8526v35.7989
			c18.8662,2.4966,33.5029,9.9463,43.9131,22.4292c10.4091,12.4433,15.5029,28.8725,15.2812,49.2485l-0.4824,0.8457h-38.2149
			c0-12.604-3.041-22.5503-9.1015-29.8389c-6.0801-7.3291-14.5762-10.9936-25.5293-10.9936
			c-11.4971,0-19.9942,2.9399-25.5313,8.8594c-5.537,5.9194-8.2949,13.8525-8.2949,23.8388c0,9.3023,2.8789,16.792,8.6172,22.4297
			c5.7588,5.6377,16.3691,11.3155,31.873,17.0738c22.9727,7.4902,40.127,16.7519,51.4629,27.7851
			c11.3155,11.0742,16.9942,26.1748,16.9942,45.3828c0,18.7652-5.7383,33.7046-17.1758,44.8594
			c-11.4356,11.1943-27.0996,17.7983-47.0527,19.852v31.6915h-25.8536V277.732c-19.5097-1.9326-35.5966-8.8189-48.201-20.6577
			c-12.6447-11.7989-18.7443-29.1949-18.3018-52.188l0.3223-0.8052h38.2148c0,15.0601,3.7852,25.812,11.376,32.1743
			c7.5898,6.4028,17.1943,9.624,28.792,9.624c12.3428,0,21.8252-2.9394,28.4502-8.7783
			C779.75,231.2217,783.0518,223.2486,783.0518,213.1817z"/>
	</g>
</g>
</svg>
