<?xml version="1.0" encoding="utf-8"?>
<!-- Generator: Adobe Illustrator 17.1.0, SVG Export Plug-In . SVG Version: 6.00 Build 0)  -->
<!DOCTYPE svg PUBLIC "-//W3C//DTD SVG 1.1//EN" "http://www.w3.org/Graphics/SVG/1.1/DTD/svg11.dtd">
<svg version="1.1" id="sale-scale" xmlns="http://www.w3.org/2000/svg" xmlns:xlink="http://www.w3.org/1999/xlink" x="0px" y="0px"
	 viewBox="0 0 1010.0004 893.0098" enable-background="new 0 0 1010.0004 893.0098" xml:space="preserve">
<g>
	<g>
		<polygon fill="#CCCCCC" points="487.9029,727.4912 407.6295,882.7041 568.1758,882.7041 		"/>
		<path fill="#4D4D4D" d="M568.1758,893.0098H407.6295c-3.5928,0-6.9346-1.8721-8.8062-4.9522
			c-1.872-3.0586-2.0029-6.8828-0.3525-10.0839l80.2734-155.2129c3.5425-6.8438,14.7745-6.8438,18.3169,0l80.273,155.2129
			c1.6514,3.2011,1.5205,7.0253-0.3516,10.0839C575.1105,891.1377,571.7695,893.0098,568.1758,893.0098L568.1758,893.0098z
			 M424.5576,872.3985H551.248l-63.3452-122.4639L424.5576,872.3985L424.5576,872.3985z"/>
	</g>
	<g>
		<path fill="#DFDFE1" d="M864.6719,757.0205c-1.4688,9.6211-10.5078,16.2237-20.0879,14.7538L175.2534,668.6748
			c-9.6616-1.5089-16.2339-10.5058-14.7641-20.1679l0,0c1.4692-9.5821,10.5068-16.2041,20.1386-14.7344l669.3301,103.1601
			C859.5801,738.4014,866.1406,747.3994,864.6719,757.0205L864.6719,757.0205z"/>
		<path fill="#4D4D4D" d="M847.2607,782.2822c-1.3994,0-2.8183-0.1015-4.2373-0.3222L173.6837,678.8604
			c-15.2173-2.375-25.6943-16.6866-23.3799-31.9044c2.2847-14.8946,16.5259-25.7637,31.874-23.3692l669.3496,103.1602
			c7.3672,1.1269,13.8594,5.0723,18.2676,11.0908c4.3877,5.9981,6.1895,13.3652,5.0625,20.7324
			C872.7939,772.0967,860.9277,782.2822,847.2607,782.2822L847.2607,782.2822z M178.8463,643.958
			c-4.5991,0-7.6387,2.6367-8.1719,6.1192c-0.604,4.0048,2.1538,7.789,6.1694,8.4131l670.417,103.1796
			c3.5733,0,6.6827-2.6572,7.2256-6.1992c0.293-1.9521-0.1806-3.8857-1.3281-5.4756c-1.1465-1.5488-2.838-2.576-4.7598-2.8779
			L179.0576,643.958C178.9874,643.958,178.9171,643.958,178.8463,643.958L178.8463,643.958z"/>
	</g>
	<g>
		<path fill="#EFEFF0" d="M304.48,501.7686H43.4708c0,0-21.145,133.9765,126.9922,133.9765
			C318.5898,635.7451,304.48,501.7686,304.48,501.7686z"/>
		<path fill="#4D4D4D" d="M170.463,646.0508c-49.0942,0-86.0503-14.1104-109.8423-41.9482
			C24.1271,561.3897,32.9034,502.6338,33.296,500.1582c0.7847-5.0117,5.1025-8.6953,10.1748-8.6953H304.48
			c5.2734,0,9.6919,3.9854,10.2451,9.2188c0.2617,2.4755,5.918,60.8486-32.3364,103.3408
			C257.2779,631.9004,219.6271,646.0508,170.463,646.0508L170.463,646.0508z M52.9112,512.0742
			c-0.7446,16.3037,0.6343,52.1133,23.4903,78.7637c19.6958,22.9668,51.3383,34.6006,94.0615,34.6006
			c43.0752,0,75.5732-11.835,96.6079-35.2051c23.9429-26.6094,27.3247-61.7148,27.4653-78.1592H52.9112L52.9112,512.0742z"/>
	</g>
	<g>
		<path fill="#EFEFF0" d="M999.3126,600.499H738.3439c0,0-21.1749,134.0372,126.9921,134.0372
			C1013.463,734.5362,999.3126,600.499,999.3126,600.499z"/>
		<path fill="#4D4D4D" d="M865.3359,744.8428c-49.1035,0-86.0605-14.1104-109.8418-41.9482
			c-36.5136-42.7335-27.7177-101.5292-27.3252-104.0048c0.7852-5.0127,5.1026-8.6953,10.1749-8.6953h260.9687
			c5.2734,0,9.6924,3.9843,10.2461,9.2187c0.2617,2.4746,5.9375,60.8887-32.3262,103.4004
			C952.1309,730.7119,914.4902,744.8428,865.3359,744.8428L865.3359,744.8428z M747.7852,610.8057
			c-0.7559,16.3047,0.623,52.1533,23.4794,78.8242c19.6963,22.9668,51.3487,34.6016,94.0713,34.6016
			c43.0557,0,75.5528-11.836,96.5782-35.2061c23.963-26.6299,27.3242-61.7744,27.455-78.2197H747.7852L747.7852,610.8057z"/>
	</g>
</g>
<g>
	<path fill="#5FD4AF" d="M781.1172,444.9453L856.9424,550.46c13.4863,17.4912,25.664,0.5429,25.664,0.5429l78.4424-104.3671
		c7.1651-14.4327-8.334-14.0498-8.334-14.0498h-36.5537V294.3018h-88.9287V432.586h-38.0029
		C789.2296,432.586,777.4542,432.3848,781.1172,444.9453z"/>
	<path fill="#4D4D4D" d="M869.8351,568.6768c-5.4152,0-13.4561-2.0536-21.0547-11.917l-76.0362-105.7959
		c-0.6738-0.9463-1.1972-2.0127-1.5195-3.1406c-2.6172-8.9366-0.1611-14.835,2.3555-18.1758
		c4.0762-5.4346,10.7383-7.3672,15.6191-7.3672h27.7276V294.3018c0-5.6963,4.6093-10.3057,10.3056-10.3057h88.9287
		c5.6963,0,10.3057,4.6094,10.3057,10.3057v127.9785h26.248c0,0,0,0,0.0098,0c3.0498,0,13.0039,0.6435,18.0459,8.7764
		c2.415,3.8847,4.2871,10.5468-0.4932,20.1689l-79.4277,105.9766C890.1152,558.209,882.2344,568.6768,869.8351,568.6768
		L869.8351,568.6768z M792.4199,442.8916l72.8965,101.5488c2.1641,2.7989,3.875,3.6241,4.5186,3.6241
		c1.3387,0,3.7441-2.1534,4.3973-3.0801l76.5508-101.8311l-34.6221-0.2617c-5.6963,0-10.3056-4.6094-10.3056-10.3056V304.6074
		h-68.3164V432.586c0,5.6962-4.6094,10.3056-10.3067,10.3056H792.4199L792.4199,442.8916z"/>
</g>
<g>
	<g>
		<path fill="#FF9554" d="M223.4015,166.666v-42.331c0,0,63.4658-9.4199,63.4658,56.4814c0,28.2197-23.5405,44.6045-23.5405,44.6045
			h-27.2041v82.3272l96.8393,145.7714H10.3087l96.9297-145.7714v-82.3272H79.9137c0,0-23.46-16.3848-23.46-44.6045
			c0-65.9013,63.4561-56.4814,63.4561-56.4814v44.6855C119.9098,169.0205,171.731,197.2412,223.4015,166.666z"/>
		<path fill="#4D4D4D" d="M332.9619,463.8262H10.3087c-3.794,0-7.2866-2.0938-9.0879-5.4356
			c-1.7915-3.3408-1.6006-7.4072,0.5029-10.5673l95.209-143.1954v-68.9003h-17.019c-2.1133,0-4.1665-0.6446-5.8975-1.8526
			c-1.1372-0.8047-27.8682-19.8467-27.8682-53.0586c0-62.3994,50.3218-67.25,65.7505-67.25c5.7969,0,9.521,0.583,9.521,0.583
			c5.022,0.7657,8.7959,5.0928,8.7959,10.1856v38.083c7.6592,3.1406,22.7759,8.1728,40.9219,8.1728
			c14.895,0,28.9854-3.3613,41.958-10.0039V124.335c0-5.0928,3.7744-9.4199,8.7964-10.1856c0,0,3.7241-0.583,9.5313-0.583
			c15.4184,0,65.75,4.8506,65.75,67.25c0,33.2119-26.8213,52.2744-27.9585,53.0586c-1.731,1.208-3.7842,1.8526-5.8877,1.8526
			h-16.8979v68.9003l95.1182,143.1954c2.1035,3.1601,2.2944,7.2265,0.4931,10.5673
			C340.2486,461.7324,336.7563,463.8262,332.9619,463.8262L332.9619,463.8262z M29.5416,443.2139h284.1973l-86.2012-129.7695
			c-1.1172-1.6915-1.7207-3.6641-1.7207-5.6963v-82.3272c0-5.6963,4.6094-10.3056,10.3057-10.3056h23.5708
			c5.0625-4.4483,16.8676-16.7266,16.8676-34.2989c0-37.1377-22.7754-45.9941-42.854-46.5986v32.4482
			c0,3.6426-1.9218,7.0039-5.062,8.876c-17.5625,10.3867-36.916,15.6602-57.5078,15.6602
			c-31.6826,0-55.1728-12.6006-56.1592-13.1241c-3.311-1.8115-5.3745-5.2929-5.3745-9.0576v-34.8027
			c-20.0781,0.6045-42.8437,9.4609-42.8437,46.5986c0,17.5518,11.7148,29.8106,16.7973,34.2989h23.6812
			c5.6968,0,10.3061,4.6093,10.3061,10.3056v82.3272c0,2.0322-0.604,4.0048-1.7212,5.6963L29.5416,443.2139L29.5416,443.2139z"/>
	</g>
	<g>
		<line fill="#FFFFFF" x1="111.6368" y1="304.2051" x2="229.8224" y2="304.2051"/>
		<path fill="#4D4D4D" d="M229.8224,314.5108H111.6368c-5.6963,0-10.3061-4.6094-10.3061-10.3057
			c0-5.6963,4.6098-10.3057,10.3061-10.3057h118.1856c5.6967,0,10.3061,4.6094,10.3061,10.3057
			C240.1284,309.9014,235.5191,314.5108,229.8224,314.5108L229.8224,314.5108z"/>
	</g>
	<g>
		<path fill="#4D4D4D" d="M152.2062,231.6611c-1.4795,0-2.9893-0.3222-4.4185-1.0068c-5.1426-2.4355-7.3267-8.5947-4.8711-13.7275
			l17.6631-37.0772c1.6206-3.4013,4.9717-5.6562,8.7461-5.8574c3.7842-0.4629,7.3369,1.6709,9.3193,4.8711l22.8765,37.0771
			c2.9892,4.8516,1.4892,11.1915-3.3516,14.1915c-4.8511,2.9589-11.1914,1.4892-14.1806-3.3624l-12.9429-20.9736l-9.5308,19.9873
			C159.7545,229.4873,156.0606,231.6611,152.2062,231.6611L152.2062,231.6611z"/>
	</g>
</g>
<g>
	<g>
		<g>
			<line fill="#FFFFFF" x1="295.0898" y1="49.9395" x2="318.8618" y2="49.9395"/>
			<path fill="#4D4D4D" d="M318.8618,60.2451h-23.772c-5.6962,0-10.3061-4.6093-10.3061-10.3056s4.6099-10.3067,10.3061-10.3067
				h23.772c5.6963,0,10.3057,4.6104,10.3057,10.3067S324.5582,60.2451,318.8618,60.2451L318.8618,60.2451z"/>
		</g>
		<g>
			<line fill="#FFFFFF" x1="355.9189" y1="49.9395" x2="379.7711" y2="49.9395"/>
			<path fill="#4D4D4D" d="M379.7711,60.2451h-23.8521c-5.6967,0-10.3061-4.6093-10.3061-10.3056s4.6094-10.3067,10.3061-10.3067
				h23.8521c5.6968,0,10.3061,4.6104,10.3061,10.3067S385.4679,60.2451,379.7711,60.2451L379.7711,60.2451z"/>
		</g>
		<g>
			<line fill="#FFFFFF" x1="337.4102" y1="10.3057" x2="337.4102" y2="34.1182"/>
			<path fill="#4D4D4D" d="M337.4102,44.4238c-5.6963,0-10.3057-4.6093-10.3057-10.3056V10.3057
				C327.1046,4.6094,331.714,0,337.4102,0c5.6967,0,10.3061,4.6094,10.3061,10.3057v23.8125
				C347.7164,39.8145,343.107,44.4238,337.4102,44.4238L337.4102,44.4238z"/>
		</g>
		<g>
			<line fill="#FFFFFF" x1="337.4102" y1="71.1143" x2="337.4102" y2="94.9473"/>
			<path fill="#4D4D4D" d="M337.4102,105.2529c-5.6963,0-10.3057-4.6093-10.3057-10.3056v-23.833
				c0-5.6963,4.6094-10.3057,10.3057-10.3057c5.6967,0,10.3061,4.6094,10.3061,10.3057v23.833
				C347.7164,100.6436,343.107,105.2529,337.4102,105.2529L337.4102,105.2529z"/>
		</g>
	</g>
	<g>
		<g>
			<line fill="#FFFFFF" x1="774.7773" y1="162.8408" x2="798.5898" y2="162.8408"/>
			<path fill="#4D4D4D" d="M798.5898,173.1475h-23.8125c-5.6972,0-10.3066-4.6104-10.3066-10.3067
				c0-5.6963,4.6094-10.3056,10.3066-10.3056h23.8125c5.6954,0,10.3057,4.6093,10.3057,10.3056
				C808.8956,168.5371,804.2852,173.1475,798.5898,173.1475L798.5898,173.1475z"/>
		</g>
		<g>
			<line fill="#FFFFFF" x1="835.6055" y1="162.8408" x2="859.418" y2="162.8408"/>
			<path fill="#4D4D4D" d="M859.418,173.1475h-23.8125c-5.6953,0-10.3047-4.6104-10.3047-10.3067
				c0-5.6963,4.6094-10.3056,10.3047-10.3056h23.8125c5.6972,0,10.3066,4.6093,10.3066,10.3056
				C869.7246,168.5371,865.1152,173.1475,859.418,173.1475L859.418,173.1475z"/>
		</g>
		<g>
			<line fill="#FFFFFF" x1="817.1074" y1="123.1475" x2="817.1074" y2="146.96"/>
			<path fill="#4D4D4D" d="M817.1074,157.2656c-5.6953,0-10.3056-4.6093-10.3056-10.3056v-23.8125
				c0-5.6963,4.6104-10.3057,10.3056-10.3057c5.6973,0,10.3067,4.6094,10.3067,10.3057V146.96
				C827.4141,152.6563,822.8047,157.2656,817.1074,157.2656L817.1074,157.2656z"/>
		</g>
		<g>
			<line fill="#FFFFFF" x1="817.1074" y1="183.9961" x2="817.1074" y2="207.7881"/>
			<path fill="#4D4D4D" d="M817.1074,218.0947c-5.6953,0-10.3056-4.6093-10.3056-10.3066v-23.792
				c0-5.6963,4.6104-10.3057,10.3056-10.3057c5.6973,0,10.3067,4.6094,10.3067,10.3057v23.792
				C827.4141,213.4854,822.8047,218.0947,817.1074,218.0947L817.1074,218.0947z"/>
		</g>
	</g>
	<g>
		<g>
			<line fill="#FFFFFF" x1="598.4492" y1="520.2666" x2="622.2012" y2="520.2666"/>
			<path fill="#4D4D4D" d="M622.2012,530.5723h-23.752c-5.6963,0-10.3055-4.6094-10.3055-10.3057
				c0-5.6972,4.6093-10.3066,10.3055-10.3066h23.752c5.6972,0,10.3066,4.6094,10.3066,10.3066
				C632.5079,525.9629,627.8984,530.5723,622.2012,530.5723L622.2012,530.5723z"/>
		</g>
		<g>
			<line fill="#FFFFFF" x1="659.2783" y1="520.2666" x2="683.0704" y2="520.2666"/>
			<path fill="#4D4D4D" d="M683.0704,530.5723h-23.7921c-5.6963,0-10.3056-4.6094-10.3056-10.3057
				c0-5.6972,4.6093-10.3066,10.3056-10.3066h23.7921c5.6973,0,10.3067,4.6094,10.3067,10.3066
				C693.3771,525.9629,688.7676,530.5723,683.0704,530.5723L683.0704,530.5723z"/>
		</g>
		<g>
			<line fill="#FFFFFF" x1="640.7197" y1="480.5528" x2="640.7197" y2="504.3447"/>
			<path fill="#4D4D4D" d="M640.7197,514.6504c-5.6963,0-10.3056-4.6094-10.3056-10.3057v-23.7919
				c0-5.6963,4.6093-10.3057,10.3056-10.3057c5.6964,0,10.3057,4.6094,10.3057,10.3057v23.7919
				C651.0255,510.041,646.4161,514.6504,640.7197,514.6504L640.7197,514.6504z"/>
		</g>
		<g>
			<line fill="#FFFFFF" x1="640.7197" y1="541.4014" x2="640.7197" y2="565.2139"/>
			<path fill="#4D4D4D" d="M640.7197,575.5205c-5.6963,0-10.3056-4.6104-10.3056-10.3066v-23.8125
				c0-5.6963,4.6093-10.3057,10.3056-10.3057c5.6964,0,10.3057,4.6094,10.3057,10.3057v23.8125
				C651.0255,570.9102,646.4161,575.5205,640.7197,575.5205L640.7197,575.5205z"/>
		</g>
	</g>
</g>
<g>
	<path fill="#4D4D4D" d="M436.9972,280.332l-8.0816,17.1504c-12.52-7.5888-25.0503-10.7089-33.7861-10.7089
		c-11.3628,0-18.7803,4.2675-18.7803,12.0371c0,25.2011,62.2886,11.6748,62.1275,53.2207c0,20.6113-18.126,33.2929-43.5083,33.2929
		c-18.126,0-35.2652-7.4082-47.1314-18.2978l8.4038-16.8067c11.8657,10.8692,26.7007,16.8067,39.0601,16.8067
		c13.5063,0,21.5879-5.1123,21.5879-14.0088c0-25.7051-62.2984-11.3731-62.2984-52.3955c0-19.7861,16.9785-32.1455,42.0288-32.1455
		C411.6147,268.4766,426.2788,273.2471,436.9972,280.332z"/>
	<path fill="#4D4D4D" d="M478.2511,358.6328l-11.0508,26.0264h-20.2695l50.9257-115.3574h19.9473l50.4326,115.3574H547.463
		l-11.0293-26.0264H478.2511z M507.2563,290.0752l-21.7592,51.2471h43.5288L507.2563,290.0752z"/>
	<path fill="#4D4D4D" d="M654.6484,367.0264v17.6328h-69.3632V269.3018h19.4453v97.7246H654.6484z"/>
	<path fill="#4D4D4D" d="M694.4238,286.7735v31.1396h56.3594v17.4717h-56.3594v31.8027h64.9346v17.4717h-84.3799V269.3018h82.4072
		v17.4717H694.4238z"/>
</g>
</svg>
