<?xml version="1.0" encoding="utf-8"?>
<!-- Generator: Adobe Illustrator 17.1.0, SVG Export Plug-In . SVG Version: 6.00 Build 0)  -->
<!DOCTYPE svg PUBLIC "-//W3C//DTD SVG 1.1//EN" "http://www.w3.org/Graphics/SVG/1.1/DTD/svg11.dtd">
<svg version="1.1" id="screen-girl-chat" xmlns="http://www.w3.org/2000/svg" xmlns:xlink="http://www.w3.org/1999/xlink" x="0px"
	 y="0px" viewBox="0 0 1010 936.7714" enable-background="new 0 0 1010 936.7714" xml:space="preserve">
<g>
	<g>
		<path fill="#FFFFFF" d="M667.623,751.2216v106.0186c0,0-3.5351,63.7021,56.5821,67.2139H285.8066
			c60.0816-3.5118,56.5455-67.2139,56.5455-67.2139V751.2216H667.623z"/>
		<path fill="#4D4D4D" d="M724.2051,936.7714H285.8066c-6.664,0-12.1128-5.2929-12.3173-11.956
			c-0.1924-6.6641,4.9438-12.2695,11.5957-12.6543c47.2832-2.7666,45.082-52.1309,44.9741-54.2481l-0.0244-106.6914
			c0-6.8086,5.5092-12.3173,12.3174-12.3173H667.623c6.8086,0,12.3184,5.5087,12.3184,12.3173v106.0186
			c-0.2656,5.918-1.1553,52.2266,44.9854,54.9209c6.6513,0.3848,11.788,5.9902,11.5957,12.6543
			C736.3184,931.4785,730.8691,936.7714,724.2051,936.7714L724.2051,936.7714z M337.8052,912.1367h334.4253
			c-14.0489-17.537-17.7422-40.5352-16.9004-55.5703l-0.0235-93.0274H354.6689v93.7012
			C355.4868,871.8662,351.8062,894.6718,337.8052,912.1367L337.8052,912.1367z"/>
	</g>
	<g>
		<rect x="12.3169" y="12.3173" fill="#FFFFFF" width="985.3657" height="763.6348"/>
		<path fill="#4D4D4D" d="M997.6826,788.2685H12.3169C5.5088,788.2685,0,782.7597,0,775.9521V12.3173C0,5.5092,5.5088,0,12.3169,0
			h985.3657C1004.4902,0,1010,5.5092,1010,12.3173v763.6348C1010,782.7597,1004.4902,788.2685,997.6826,788.2685L997.6826,788.2685z
			 M24.6338,763.6347h960.7314v-739H24.6338V763.6347L24.6338,763.6347z"/>
	</g>
	<g>
		<defs>
			<rect id="SVGID_1_" x="78.2925" y="68.875" width="856.8911" height="650.5195"/>
		</defs>
		<defs>
			<path id="SVGID_2_" d="M935.1836,731.7109H78.2925c-6.8081,0-12.3169-5.5088-12.3169-12.3164V68.875
				c0-6.8081,5.5088-12.3174,12.3169-12.3174h856.8911c6.8076,0,12.3164,5.5093,12.3164,12.3174v650.5195
				C947.5,726.2021,941.9912,731.7109,935.1836,731.7109L935.1836,731.7109z M90.6099,707.0771h832.2563V81.1919H90.6099V707.0771
				L90.6099,707.0771z"/>
		</defs>
		<use xlink:href="#SVGID_1_"  overflow="visible" fill="#CCCCCC"/>
		<use xlink:href="#SVGID_2_"  overflow="visible" fill="#4D4D4D"/>
		<clipPath id="SVGID_3_">
			<use xlink:href="#SVGID_1_"  overflow="visible"/>
		</clipPath>
		<clipPath id="SVGID_4_" clip-path="url(#SVGID_3_)">
			<use xlink:href="#SVGID_2_"  overflow="visible"/>
		</clipPath>
	</g>
</g>
<g>
	<g>
		<path fill="#FF9554" d="M764.7656,446.9033l-2.5508-54.9697c-12.413-147.3243-125.1425-254.7618-262.748-254.7618
			c-137.5566,0-248.3862,104.9356-259.1035,254.7618c-2.502,35.0507-5.0039,67.3593-5.0039,67.3593
			c-3.4038,90.7178-2.502,90.4043-0.4331,152.3994H385.209l224.7744-2.4541H764.332
			C764.332,609.2382,768.9512,494.9199,764.7656,446.9033z"/>
		<path fill="#4D4D4D" d="M385.209,624.0097H234.9263c-6.6397,0-12.0884-5.2695-12.3052-11.9082l-0.6973-20.0644
			c-1.5156-42.8692-1.8764-53.045,1.1304-133.2022c0.0244-0.5049,2.5259-32.7646,5.0278-67.7676
			c11.0303-154.2519,125.1675-266.2124,271.3848-266.2124c144.0039,0,262.2432,114.3658,275.0176,266.044l2.5859,55.4272
			c4.1738,47.752-0.2402,158.7022-0.4337,163.417c-0.2637,6.5918-5.7012,11.8125-12.3047,11.8125H609.9834l-224.6421,2.4541
			C385.2935,624.0097,385.2573,624.0097,385.209,624.0097L385.209,624.0097z M246.8223,599.375h138.3144l224.7149-2.4541h142.5957
			c1.0351-30.3594,3.332-111.2627,0.0488-148.959l-2.5859-55.4512c-11.668-138.3506-119.3457-243.0215-250.4434-243.0215
			c-132.9258,0-236.731,102.3374-246.8228,243.334c-2.502,35.0752-5.0039,67.4316-5.0039,67.4316
			c-2.9467,78.7618-2.6338,87.7588-1.0942,130.917L246.8223,599.375L246.8223,599.375z"/>
	</g>
	<g>
		<path fill="#FFFFFF" d="M660.8398,596.6328c-42.2441,35.6758-95.8671,58.1445-157.5722,58.1445
			c-58.8428,0-108.1831-23.2627-151.5938-53.1172c-17.2968-11.9316-40.5717-43.2295-40.5717-43.2295V357.3637h383.3208V561.125
			C694.4229,561.125,677.9199,582.1738,660.8398,596.6328z"/>
		<path fill="#4D4D4D" d="M503.2676,667.0947c-53.3457,0-103.7329-17.5615-158.5703-55.2822
			c-18.7764-12.9424-42.4839-44.6973-43.4825-46.0206c-1.5756-2.1416-2.4296-4.7158-2.4296-7.3613V357.3637
			c0-6.8081,5.5087-12.3169,12.3169-12.3169h383.3208c6.8076,0,12.3173,5.5088,12.3173,12.3169V561.125
			c0,2.7666-0.9257,5.4365-2.623,7.6015c-0.709,0.8906-17.4883,22.2051-35.3145,37.3125
			C621.4941,645.9726,564.2637,667.0947,503.2676,667.0947L503.2676,667.0947z M323.4194,554.2685
			c7.7339,9.9834,23.8521,29.3975,35.2432,37.2637c50.5312,34.7383,96.4917,50.9287,144.605,50.9287
			c55.0898,0,106.8359-19.1016,149.6211-55.2344c12.0888-10.2246,24.0683-24.2256,29.2168-30.456V369.6806H323.4194V554.2685
			L323.4194,554.2685z"/>
	</g>
	<g>
		<path fill="#FFFFFF" d="M525.2559,531.9433c0,18.8613-9.0455,34.1611-20.1597,34.1611c-11.1143,0-20.1118-15.2998-20.1118-34.1611
			c0-18.9082,8.9975-34.208,20.1118-34.208C516.2104,497.7353,525.2559,513.0351,525.2559,531.9433z"/>
		<path fill="#4D4D4D" d="M505.0962,578.4218c-18.4878,0-32.4287-19.9912-32.4287-46.4785
			c0-26.5342,13.9409-46.5254,32.4287-46.5254c18.5117,0,32.4761,19.9912,32.4761,46.5254
			C537.5723,558.4306,523.6079,578.4218,505.0962,578.4218L505.0962,578.4218z M505.0601,510.0527
			c-1.7564,0.3603-7.7583,7.8906-7.7583,21.8906c0,13.8809,5.9296,21.3867,7.7944,21.8438
			c1.8765-0.4572,7.8423-7.9385,7.8423-21.8438C512.9385,517.9189,506.9004,510.413,505.0601,510.0527L505.0601,510.0527z"/>
	</g>
	<path fill="#4D4D4D" d="M421.5347,441.4423c0,12.4854-10.0918,22.6133-22.6011,22.6133c-12.4497,0-22.5894-10.1279-22.5894-22.6133
		c0-12.4853,10.1397-22.5888,22.5894-22.5888C411.4429,418.8535,421.5347,428.957,421.5347,441.4423z"/>
	<path fill="#4D4D4D" d="M636.4941,441.4423c0,12.4854-10.1279,22.6133-22.5654,22.6133c-12.5089,0-22.5889-10.1279-22.5889-22.6133
		c0-12.4853,10.0801-22.5888,22.5889-22.5888C626.3662,418.8535,636.4941,428.957,636.4941,441.4423z"/>
	<g>
		<g>
			<path fill="#4D4D4D" d="M729.1006,394.6035c-6.1826,0-11.5108-4.6426-12.2207-10.9219
				c-12.4619-109.1211-104.707-191.4194-214.5864-191.4194s-202.1734,82.2983-214.6949,191.4194
				c-0.7817,6.7363-6.7959,11.5234-13.6401,10.8496c-6.7598-0.7939-11.6074-6.8799-10.8257-13.6396
				c13.9409-121.583,116.7598-213.2637,239.1607-213.2637c122.4135,0,225.1831,91.6807,239.0522,213.2637
				c0.7813,6.7597-4.0781,12.8701-10.8379,13.6396C730.0391,394.5795,729.5576,394.6035,729.1006,394.6035L729.1006,394.6035z"/>
		</g>
	</g>
	<g>
		<g>
			<path fill="#5FD4AF" d="M255.9277,367.2753c-22.7573,0-41.2212,27.6651-41.2212,61.7774
				c0,34.1367,18.4639,61.8027,41.2212,61.8027c6.8081,0,13.0752-2.6953,18.7163-7.001V374.2998
				C269.0029,369.9936,262.7358,367.2753,255.9277,367.2753z"/>
			<path fill="#4D4D4D" d="M255.9277,503.1718c-30.0224,0-53.5381-32.5488-53.5381-74.1191
				c0-41.5459,23.5157-74.0947,53.5381-74.0947c9.0698,0,17.8863,3.2236,26.1861,9.5507c3.0551,2.3335,4.8471,5.9419,4.8471,9.7911
				v109.5546c0,3.8487-1.792,7.4581-4.8471,9.7911C273.8384,499.9726,265.0215,503.1718,255.9277,503.1718L255.9277,503.1718z
				 M255.9277,379.5922c-15.396,0-28.9038,23.1187-28.9038,49.4605c0,29.9746,17.1641,56.3418,35.3033,47.9941v-95.9389
				C260.1377,380.0976,258.021,379.5922,255.9277,379.5922L255.9277,379.5922z"/>
		</g>
	</g>
	<g>
		<g>
			<path fill="#5FD4AF" d="M746.6016,367.2753c22.7343,0,41.2099,27.6651,41.2099,61.7774
				c0,34.1367-18.4756,61.8027-41.2099,61.8027c-6.7598,0-13.0625-2.6953-18.7403-7.001V374.2998
				C733.5391,369.9936,739.8418,367.2753,746.6016,367.2753z"/>
			<path fill="#4D4D4D" d="M746.6016,503.1718c-9.0567,0-17.873-3.1992-26.1855-9.5019c-3.0664-2.334-4.8712-5.9668-4.8712-9.8155
				V374.2998c0-3.8492,1.8047-7.4815,4.8712-9.8155c8.336-6.3266,17.1523-9.5263,26.1855-9.5263
				c30.0117,0,53.5273,32.5488,53.5273,74.0947C800.1289,470.623,776.6133,503.1718,746.6016,503.1718L746.6016,503.1718z
				 M740.1787,477.0224c18.7041,8.5156,35.3154-18.0674,35.3154-47.9697c0-29.8545-16.539-56.7256-35.3154-47.9209V477.0224
				L740.1787,477.0224z"/>
		</g>
	</g>
	<g>
		<path fill="#FFFFFF" d="M575.7988,584.3398c0,11.1377-9.0449,20.1836-20.207,20.1836c-11.1152,0-20.1836-9.0459-20.1836-20.1836
			c0-11.1387,9.0684-20.1836,20.1836-20.1836C566.7539,564.1562,575.7988,573.2011,575.7988,584.3398z"/>
		<path fill="#4D4D4D" d="M555.5918,616.8398c-17.9229,0-32.5015-14.5781-32.5015-32.5c0-17.9229,14.5786-32.501,32.5015-32.501
			c17.9336,0,32.5244,14.5781,32.5244,32.501C588.1162,602.2617,573.5254,616.8398,555.5918,616.8398L555.5918,616.8398z
			 M555.5918,576.4726c-4.3428,0-7.8672,3.5371-7.8672,7.8672s3.5244,7.8662,7.8672,7.8662c4.3535,0,7.8906-3.5361,7.8906-7.8662
			S559.9453,576.4726,555.5918,576.4726L555.5918,576.4726z"/>
	</g>
	<g>
		<path fill="#4D4D4D" d="M575.7871,596.6562c-6.3867,0-11.7754-4.9316-12.2578-11.4023
			c-0.5166-6.7598,4.5713-12.6778,11.3437-13.2071c0.962-0.0722,97.3096-8.4688,142.0791-93.9179
			c3.1514-5.9903,10.6211-8.3243,16.6231-5.1963c6.0264,3.1758,8.3603,10.6093,5.1963,16.6474
			c-51.2529,97.8145-157.5723,106.7159-162.0703,107.0528C576.4004,596.6562,576.0879,596.6562,575.7871,596.6562L575.7871,596.6562
			z"/>
	</g>
</g>
</svg>
