<?xml version="1.0" encoding="utf-8"?>
<!-- Generator: Adobe Illustrator 17.1.0, SVG Export Plug-In . SVG Version: 6.00 Build 0)  -->
<!DOCTYPE svg PUBLIC "-//W3C//DTD SVG 1.1//EN" "http://www.w3.org/Graphics/SVG/1.1/DTD/svg11.dtd">
<svg version="1.1" id="send-receive-email" xmlns="http://www.w3.org/2000/svg" xmlns:xlink="http://www.w3.org/1999/xlink" x="0px"
	 y="0px" viewBox="0 0 973.8121 1010" enable-background="new 0 0 973.8121 1010" xml:space="preserve">
<g>
	<path fill="#5FD4AF" d="M97.4218,302.957l96.6289-104.1562h-46.436c0-50.8311,41.1938-92.0479,92.0366-92.0479
		s92.0366,41.2168,92.0366,92.0479h94.8199c0-103.251-83.6866-186.9258-186.8565-186.9258
		c-103.2163,0-186.9028,83.6748-186.9028,186.9258H11.8798L97.4218,302.957z"/>
	<path fill="#4D4D4D" d="M97.4218,314.832c-0.1162,0-0.2319,0-0.3481,0c-3.4326-0.1035-6.6568-1.6924-8.8369-4.3369L2.6948,206.3398
		c-2.8994-3.5488-3.5259-8.4668-1.5542-12.6181c1.9717-4.1524,6.1465-6.7959,10.7392-6.7959h29.3413
		C47.3906,82.8164,134.0229,0,239.6514,0c109.5718,0,198.7315,89.1836,198.7315,198.8008c0,6.5644-5.3106,11.876-11.875,11.876
		h-94.8199c-6.5644,0-11.8759-5.3116-11.8759-11.876c0-44.209-35.9517-80.1719-80.1607-80.1719
		c-40.1733,0-73.5268,29.7002-79.2793,68.2969h33.6787c4.7315,0,8.9995,2.7949,10.878,7.1201
		c1.9023,4.3379,1.0439,9.3711-2.1802,12.8271l-96.6289,104.1553C103.8696,313.4639,100.7153,314.832,97.4218,314.832
		L97.4218,314.832z M36.9995,210.6768l60.9555,74.2343l68.8882-74.2343h-19.2285c-6.564,0-11.8755-5.3116-11.8755-11.876
		c0-57.3018,46.6211-103.9229,103.9121-103.9229c53.2783,0,97.3247,40.3116,103.2393,92.0479h71.3471
		C408.1142,95.9209,332.1518,23.751,239.6514,23.751c-96.5132,0-175.0268,78.5254-175.0268,175.0498
		c0,6.5644-5.3116,11.876-11.876,11.876H36.9995L36.9995,210.6768z"/>
</g>
<g>
	<path fill="#FF9554" d="M876.3447,707.0078l-96.6758,104.1445h46.4824c0,50.8887-41.2402,92.1055-92.037,92.1055
		c-50.8419,0-92.0371-41.2168-92.0371-92.1055h-94.8193c0,103.2618,83.6396,186.9717,186.8564,186.9717
		c103.1699,0,186.9023-83.7099,186.9023-186.9717h40.916L876.3447,707.0078z"/>
	<path fill="#4D4D4D" d="M734.1143,1010c-109.5723,0-198.7324-89.207-198.7324-198.8477c0-6.5644,5.3125-11.8769,11.876-11.8769
		h94.8193c6.5645,0,11.877,5.3125,11.877,11.8769c0,44.2432,35.9511,80.2295,80.1602,80.2295
		c40.1738,0,73.5273-29.7236,79.2792-68.3545h-33.7245c-4.7324,0-9-2.7949-10.8789-7.1328
		c-1.9024-4.3252-1.043-9.3593,2.1797-12.826l96.6758-104.1446c2.3203-2.5156,5.5898-4.0234,9.0468-3.7921
		c3.4317,0.1046,6.6563,1.6934,8.836,4.3369l85.5898,104.1446c2.8985,3.5488,3.5254,8.4551,1.5527,12.6064
		c-1.9707,4.1631-6.1464,6.8076-10.7382,6.8076h-29.3887C926.374,927.1602,839.7431,1010,734.1143,1010L734.1143,1010z
		 M559.5283,823.0273c6.123,91.0391,82.0859,163.2207,174.5859,163.2207c96.5137,0,175.0273-78.5488,175.0273-175.0957
		c0-6.5644,5.3105-11.8769,11.875-11.8769h15.7949l-61.002-74.2227l-68.9101,74.2227h19.2519c6.5625,0,11.875,5.3125,11.875,11.8769
		c0,57.336-46.6211,103.9805-103.912,103.9805c-53.2773,0-97.3242-40.3349-103.2393-92.1055H559.5283L559.5283,823.0273z"/>
</g>
<g>
	<g>
		<path fill="#CCCCCC" d="M658.499,716.7031c0,15.378-12.4317,27.834-27.7871,27.834H125.8583
			c-15.3549,0-27.7871-12.456-27.7871-27.834V388.7305c0-15.3662,12.4322-27.8565,27.7871-27.8565h504.8536
			c15.3554,0,27.7871,12.4903,27.7871,27.8565V716.7031z"/>
		<path fill="#4D4D4D" d="M630.7119,756.4121H125.8583c-21.8725,0-39.663-17.8135-39.663-39.709V388.7305
			c0-21.9073,17.7905-39.7325,39.663-39.7325h504.8536c21.873,0,39.664,17.8252,39.664,39.7325v327.9726
			C670.3759,738.5986,652.5849,756.4121,630.7119,756.4121L630.7119,756.4121z M125.8583,372.75
			c-8.7675,0-15.9116,7.167-15.9116,15.9805v327.9726c0,8.8028,7.1441,15.9571,15.9116,15.9571h504.8536
			c8.7675,0,15.9121-7.1543,15.9121-15.9571V388.7305c0-8.8135-7.1446-15.9805-15.9121-15.9805H125.8583L125.8583,372.75z"/>
	</g>
	<g>
		<g>
			<path fill="#4D4D4D" d="M641.7529,743.0176c0,0-117.2715-102.9727-190.4502-166.3867
				c-4.9639-4.3028-5.4971-11.795-1.2061-16.7588c4.291-4.9406,11.8057-5.4854,16.7471-1.1944
				c73.2236,63.461,190.5889,166.503,190.5889,166.503L641.7529,743.0176L641.7529,743.0176z"/>
		</g>
		<g>
			<path fill="#4D4D4D" d="M108.5087,748.2939c-3.3169,0-6.6103-1.3799-8.9531-4.082c-4.3144-4.9404-3.7807-12.4443,1.1597-16.7471
				l191.7734-166.9785c4.9404-4.3027,12.4556-3.7921,16.7466,1.1602c4.314,4.9404,3.7808,12.4433-1.1597,16.7461L116.3022,745.3711
				C114.0522,747.332,111.269,748.2939,108.5087,748.2939L108.5087,748.2939z"/>
		</g>
		<g>
			<path fill="#4D4D4D" d="M380.6284,638.5137c-12.4092,0-23.9834-5.5089-37.1577-14.3106
				c-12.7574-8.5361-205.064-206.1308-243.4747-245.6552c-4.5693-4.7081-4.4765-12.2237,0.232-16.793
				c4.7085-4.5576,12.2236-4.4531,16.7929,0.2324c90.3667,92.9522,228.7925,234.2656,239.8331,242.6045
				c18.0918,12.0605,26.2329,14.9717,46.5053,0.1387c20.3184-14.7637,178.4356-178.4707,237.6514-240.3076
				c4.5693-4.7208,12.084-4.9063,16.793-0.3711c4.7324,4.5459,4.8945,12.0605,0.3711,16.7929
				c-8.7676,9.1387-214.6651,224.0713-240.8291,243.0791C403.3129,634.1641,391.6459,638.5137,380.6284,638.5137L380.6284,638.5137z
				"/>
		</g>
	</g>
</g>
<g>
	<g>
		<path fill="#FFFFFF" d="M850.5517,612.4668c0,15.3769-12.4336,27.8096-27.834,27.8096H317.9101
			c-15.355,0-27.7871-12.4327-27.7871-27.8096V284.4941c0-15.3671,12.4321-27.8691,27.7871-27.8691h504.8076
			c15.4004,0,27.834,12.502,27.834,27.8691V612.4668z"/>
		<path fill="#4D4D4D" d="M822.7177,652.1523H317.9101c-21.8726,0-39.6631-17.8027-39.6631-39.6855V284.4941
			c0-21.9189,17.7905-39.7441,39.6631-39.7441h504.8076c21.8965,0,39.709,17.8252,39.709,39.7441v327.9727
			C862.4267,634.3496,844.6143,652.1523,822.7177,652.1523L822.7177,652.1523z M317.9101,268.501
			c-8.7676,0-15.9116,7.1787-15.9116,15.9931v327.9727c0,8.79,7.144,15.9336,15.9116,15.9336h504.8076
			c8.791,0,15.9571-7.1436,15.9571-15.9336V284.4941c0-8.8144-7.1661-15.9931-15.9571-15.9931H317.9101L317.9101,268.501z"/>
	</g>
	<g>
		<g>
			<path fill="#4D4D4D" d="M833.8056,638.792c0-0.0117-117.3203-102.9844-190.4756-166.4209
				c-4.9404-4.3027-5.4736-11.8066-1.1826-16.7588c4.3145-4.9639,11.8067-5.4736,16.7695-1.1943
				c73.1563,63.4834,190.5684,166.5136,190.5684,166.5136L833.8056,638.792L833.8056,638.792z"/>
		</g>
		<g>
			<path fill="#4D4D4D" d="M300.5605,644.0566c-3.3169,0-6.6104-1.3789-8.9531-4.082c-4.3145-4.9394-3.7808-12.4434,1.1596-16.7461
				l191.774-166.9902c4.9624-4.3135,12.4546-3.8037,16.7456,1.1601c4.3144,4.9405,3.7812,12.4444-1.1602,16.7461L308.354,641.1348
				C306.104,643.0947,303.3208,644.0566,300.5605,644.0566L300.5605,644.0566z"/>
		</g>
		<g>
			<path fill="#4D4D4D" d="M572.6562,534.2539c-12.4092,0-23.9834-5.5088-37.1572-14.3223
				c-12.7578-8.5009-205.0406-206.0966-243.4507-245.6201c-4.5698-4.709-4.4771-12.2236,0.2319-16.7929
				c4.7315-4.5459,12.2232-4.4649,16.7925,0.2314c90.3203,92.9297,228.7212,234.2197,239.8091,242.5703
				c18.0683,12.0615,26.2558,14.9717,46.5283,0.1504c20.249-14.752,178.4131-178.46,237.6533-240.2852
				c4.5449-4.708,12.084-4.9052,16.793-0.3593c4.7305,4.5351,4.8926,12.0498,0.3711,16.7812
				c-8.7676,9.1387-214.7598,224.0606-240.8076,243.0567C595.3408,529.9053,583.6738,534.2539,572.6562,534.2539L572.6562,534.2539z
				"/>
		</g>
	</g>
</g>
</svg>
