<?xml version="1.0" encoding="UTF-8"?>
<svg xmlns="http://www.w3.org/2000/svg" xmlns:xlink="http://www.w3.org/1999/xlink" width="24px" height="24px" viewBox="0 0 24 27" version="1.1">
<g id="surface1">
<path style=" stroke:none;fill-rule:evenodd;fill:rgb(0%,0%,0%);fill-opacity:1;" d="M 10.101562 23.617188 L 8.414062 24.238281 L 10.101562 24.867188 L 10.101562 26.324219 L 7.867188 25.085938 C 6.890625 24.542969 6.878906 23.949219 7.867188 23.40625 L 10.101562 22.164062 Z M 8.777344 16.773438 C 10.402344 18.5625 14.085938 18.246094 15.445312 16.773438 C 15.105469 16.378906 14.789062 15.960938 14.503906 15.527344 L 14.316406 15.261719 C 13.648438 15.703125 12.859375 15.933594 12.050781 15.917969 C 11.148438 15.921875 10.269531 15.613281 9.578125 15.042969 C 9.394531 15.585938 9.132812 16.332031 8.859375 16.6875 C 8.835938 16.714844 8.808594 16.742188 8.777344 16.765625 Z M 15.105469 19.941406 L 2.234375 19.941406 C 1.980469 19.957031 1.742188 20.074219 1.582031 20.269531 C 1.425781 20.464844 1.359375 20.714844 1.398438 20.960938 L 2.1875 26.929688 L 0.179688 26.929688 C 0.179688 23.742188 -0.976562 19.832031 2.433594 17.96875 C 3.699219 17.273438 6.96875 17.039062 8.394531 16.125 C 8.632812 15.625 8.835938 15.105469 9 14.578125 C 9.015625 14.53125 8.988281 14.609375 9.011719 14.535156 C 8.5 13.964844 8.046875 13.347656 7.652344 12.695312 L 6.476562 10.871094 C 6.046875 10.246094 5.820312 9.671875 5.804688 9.199219 C 5.796875 8.992188 5.84375 8.785156 5.933594 8.59375 C 6.023438 8.410156 6.160156 8.25 6.335938 8.136719 C 6.425781 8.078125 6.523438 8.03125 6.621094 7.996094 C 6.539062 6.902344 6.519531 5.808594 6.566406 4.714844 C 6.59375 4.464844 6.640625 4.214844 6.710938 3.972656 C 7.144531 2.476562 8.460938 1.382812 9.972656 0.871094 C 10.703125 0.625 10.421875 0.0351562 11.164062 0.0703125 C 12.921875 0.167969 15.632812 1.273438 16.667969 2.445312 C 18.121094 4.089844 17.746094 6.113281 17.699219 8.128906 C 18.003906 8.207031 18.238281 8.445312 18.3125 8.746094 C 18.40625 9.109375 18.3125 9.621094 17.988281 10.316406 C 17.988281 10.316406 17.988281 10.34375 17.96875 10.355469 L 16.628906 12.511719 C 16.113281 13.34375 15.585938 14.175781 14.886719 14.820312 L 14.851562 14.851562 L 15.078125 15.15625 C 15.300781 15.492188 15.570312 15.871094 15.816406 16.167969 C 17.273438 17.042969 20.472656 17.292969 21.726562 17.972656 C 24.851562 19.683594 23.789062 23.902344 23.960938 26.933594 L 21.96875 26.933594 L 22.757812 20.96875 C 22.800781 20.722656 22.734375 20.46875 22.574219 20.277344 C 22.414062 20.082031 22.179688 19.960938 21.925781 19.949219 L 15.105469 19.949219 Z M 7.289062 8.53125 C 7.082031 8.53125 6.878906 8.582031 6.699219 8.683594 C 6.625 8.730469 6.566406 8.796875 6.53125 8.875 C 6.488281 8.972656 6.46875 9.078125 6.476562 9.183594 C 6.488281 9.535156 6.675781 9.988281 7.035156 10.515625 L 8.210938 12.347656 C 8.683594 13.078125 9.179688 13.824219 9.789062 14.375 C 10.398438 14.953125 11.210938 15.277344 12.058594 15.273438 C 12.949219 15.289062 13.808594 14.953125 14.445312 14.347656 C 15.078125 13.765625 15.578125 12.972656 16.070312 12.175781 L 17.390625 10.042969 C 17.640625 9.492188 17.730469 9.121094 17.671875 8.910156 C 17.640625 8.777344 17.496094 8.714844 17.246094 8.703125 C 17.191406 8.703125 17.140625 8.703125 17.085938 8.703125 C 17.023438 8.699219 16.960938 8.699219 16.902344 8.703125 C 16.867188 8.707031 16.832031 8.707031 16.796875 8.703125 C 16.675781 8.707031 16.554688 8.703125 16.4375 8.683594 L 16.882812 6.714844 C 13.519531 7.234375 11.003906 4.789062 7.449219 6.226562 L 7.703125 8.550781 C 7.570312 8.558594 7.433594 8.550781 7.296875 8.53125 Z M 13.894531 23.613281 L 15.582031 24.234375 L 13.894531 24.863281 L 13.894531 26.316406 L 16.125 25.078125 C 17.105469 24.535156 17.109375 23.945312 16.125 23.398438 L 13.894531 22.15625 Z M 11.964844 26.734375 L 10.847656 26.734375 L 12.230469 21.476562 L 13.34375 21.476562 Z M 11.964844 26.734375 "/>
</g>
</svg>
