<?xml version="1.0" encoding="utf-8"?>
<!-- Generator: Adobe Illustrator 17.1.0, SVG Export Plug-In . SVG Version: 6.00 Build 0)  -->
<!DOCTYPE svg PUBLIC "-//W3C//DTD SVG 1.1//EN" "http://www.w3.org/Graphics/SVG/1.1/DTD/svg11.dtd">
<svg version="1.1" id="student-cap-books" xmlns="http://www.w3.org/2000/svg" xmlns:xlink="http://www.w3.org/1999/xlink" x="0px"
	 y="0px" viewBox="0 0 1010.0001 973.6679" enable-background="new 0 0 1010.0001 973.6679" xml:space="preserve">
<g>
	<g>
		<path fill="#FF9554" d="M267.0439,66.205L70.563,121.7206l-5.4653-1.6904v403.6304c0,0,13.2651,51.3295,92.6147,39.1909
			l237.5039-114.7359V44.4853L267.0439,66.205z"/>
		<path fill="#4D4D4D" d="M134.6943,575.0097c-66.2046,0-79.0571-46.7798-79.5703-48.7725
			c-0.2217-0.8457-0.3325-1.7109-0.3325-2.5766V120.0302c0-3.2813,1.5601-6.3613,4.187-8.294
			c2.6372-1.9521,6.0186-2.4951,9.169-1.5498l2.5463,0.7852l193.5523-54.6904l129.2495-21.961
			c3.0293-0.5039,6.0586,0.3418,8.3735,2.294c2.315,1.9531,3.6534,4.831,3.6534,7.8711v403.6303
			c0,3.9454-2.2642,7.5689-5.8272,9.2798L162.1909,572.1308c-0.916,0.4433-1.9023,0.7451-2.9184,0.9062
			C150.6973,574.3456,142.4341,575.0097,134.6943,575.0097L134.6943,575.0097z M75.4038,522.0907
			c2.0234,5.6358,13.9497,32.3067,59.2905,32.3067c6.2505,0,12.9532-0.503,19.9483-1.5098l230.2676-111.2334V56.6835L268.7651,76.37
			L75.4038,131.0605V522.0907L75.4038,522.0907z"/>
	</g>
	<g>
		<path fill="#FFFFFF" d="M395.2163,44.4853L157.7124,159.2011c-89.3032,15.9023-92.6147-39.1709-92.6147-39.1709L299.0894,10.3261
			C299.0894,10.3261,316.1895,46.5985,395.2163,44.4853z"/>
		<path fill="#4D4D4D" d="M127.8506,172.3857c-69.1436,0.0205-73.0083-51.2286-73.0386-51.7315
			c-0.2519-4.2275,2.0933-8.1728,5.9077-9.9639L294.7114,0.9862c5.1934-2.4355,11.2827-0.2011,13.6978,4.9512
			c0.0708,0.1006,15.4795,28.3223,80.2451,28.3223l6.2905-0.0811c5.0523,0.041,9.1387,3.1407,10.2862,7.8711
			c1.1469,4.7305-1.1578,9.6016-5.5357,11.7149L162.1909,168.4814c-0.8452,0.4023-1.7412,0.7041-2.667,0.8652
			C148.1909,171.3593,137.5327,172.3857,127.8506,172.3857L127.8506,172.3857z M76.9136,125.8671
			c3.4824,9.5615,14.7246,25.9063,50.937,25.9063c8.0918,0,17.0493-0.8252,26.6714-2.4756l200.8789-97.0225
			c-34.0987-5.7568-51.5611-19.8076-59.6328-29.0059L76.9136,125.8671L76.9136,125.8671z"/>
	</g>
	<g>
		<line fill="#FFFFFF" x1="157.7124" y1="159.2011" x2="157.7124" y2="556.3701"/>
		<path fill="#4D4D4D" d="M157.7124,566.6757c-5.6968,0-10.3062-4.6094-10.3062-10.3057V159.2011
			c0-5.6963,4.6094-10.3057,10.3062-10.3057c5.6963,0,10.3062,4.6094,10.3062,10.3057v397.1689
			C168.0186,562.0663,163.4087,566.6757,157.7124,566.6757L157.7124,566.6757z"/>
	</g>
</g>
<g>
	<g>
		<path fill="#5FD4AF" d="M401.0942,126.1093l-196.4809,55.4961l-5.4448-1.711v403.67c0,0,13.2651,51.33,92.604,39.1718
			l237.4843-114.7158V104.3896L401.0942,126.1093z"/>
		<path fill="#4D4D4D" d="M268.7246,634.914c-66.1748,0-79.0171-46.7803-79.5303-48.7735c-0.2216-0.8447-0.332-1.7109-0.332-2.576
			v-403.67c0-3.2812,1.5601-6.3613,4.207-8.3134c2.6568-1.9326,6.0586-2.4756,9.189-1.5098l2.5161,0.7852l193.522-54.6709
			l129.2392-21.961c3.0289-0.5234,6.0591,0.3223,8.3746,2.2949c2.3144,1.9522,3.6523,4.8311,3.6523,7.8702v403.6308
			c0,3.9453-2.2637,7.5684-5.8271,9.2793L296.2515,632.0155c-0.9161,0.4434-1.9024,0.7442-2.919,0.9063
			C284.7476,634.2304,276.4746,634.914,268.7246,634.914L268.7246,634.914z M209.4746,581.9941
			c2.0127,5.6367,13.9395,32.3076,59.25,32.3076c6.2603,0,12.9732-0.5225,19.9785-1.5303L518.9507,501.559V116.5878
			l-116.1353,19.6865l-193.3408,54.6709V581.9941L209.4746,581.9941z"/>
	</g>
	<g>
		<path fill="#FFFFFF" d="M529.2568,104.3896L291.7725,219.1054c-89.3028,15.9028-92.604-39.211-92.604-39.211l233.9716-109.664
			C433.1401,70.2304,450.2397,106.5439,529.2568,104.3896z"/>
		<path fill="#4D4D4D" d="M261.9312,232.2904c-69.1539,0-73.0186-51.269-73.0489-51.7719
			c-0.2514-4.2276,2.0933-8.1729,5.9077-9.9639L428.7617,60.8905c5.2036-2.416,11.2827-0.1611,13.6978,4.9512
			c0.0708,0.1016,15.4594,28.3428,80.1245,28.3428l6.3911-0.1006c5.2231,0.2607,9.1587,3.1602,10.2964,7.8701
			c1.1465,4.7305-1.1582,9.6016-5.5361,11.7149L296.2515,228.3857c-0.8457,0.4023-1.7412,0.7045-2.667,0.8657
			C282.2515,231.2641,271.603,232.2904,261.9312,232.2904L261.9312,232.2904z M210.9844,185.7314
			c3.4721,9.582,14.7143,25.9462,50.9467,25.9462c8.0821,0,17.0396-0.8251,26.6508-2.4755l200.8389-97.0225
			c-34.0786-5.7568-51.5303-19.8076-59.6123-29.0059L210.9844,185.7314L210.9844,185.7314z"/>
	</g>
	<g>
		<line fill="#FFFFFF" x1="291.7725" y1="219.1054" x2="291.7725" y2="616.3145"/>
		<path fill="#4D4D4D" d="M291.7725,626.621c-5.6963,0-10.3062-4.6094-10.3062-10.3066v-397.209
			c0-5.6963,4.6099-10.3057,10.3062-10.3057c5.6967,0,10.3061,4.6094,10.3061,10.3057v397.209
			C302.0786,622.0116,297.4692,626.621,291.7725,626.621L291.7725,626.621z"/>
	</g>
</g>
<g>
	<g>
		<polygon fill="#A6A6A6" points="549.627,445.7807 456.5098,670.0995 672.3555,750.5566 892.4678,670.0995 795.1035,445.7807 		"/>
		<path fill="#4D4D4D" d="M672.3555,760.8622c-1.2188,0-2.4356-0.2217-3.6035-0.6435l-215.8453-80.4572
			c-2.6167-0.9863-4.7304-2.9785-5.8476-5.5547c-1.1172-2.5566-1.1372-5.4755-0.0703-8.0527l93.1176-224.3188
			c1.6006-3.8448,5.3545-6.3609,9.5206-6.3609h245.4765c4.1055,0,7.8203,2.4356,9.4502,6.1997l97.3643,224.3199
			c1.1376,2.6162,1.1376,5.5546,0.0204,8.1718c-1.1172,2.6172-3.2704,4.6299-5.9278,5.6162l-220.1123,80.4561
			C674.75,760.661,673.5527,760.8622,672.3555,760.8622L672.3555,760.8622z M470.1274,664.1816l202.2574,75.3847l206.2744-75.3847
			l-90.3194-208.0948H556.5117L470.1274,664.1816L470.1274,664.1816z"/>
	</g>
	<g>
		<path fill="#4D4D4D" d="M672.3555,760.8622c-5.6973,0-10.3067-4.6094-10.3067-10.3056V454.2753
			c0-5.6968,4.6094-10.3061,10.3067-10.3061c5.6964,0,10.3056,4.6093,10.3056,10.3061v296.2813
			C682.6611,756.2528,678.0518,760.8622,672.3555,760.8622L672.3555,760.8622z"/>
	</g>
	<g>
		<polygon fill="#A6A6A6" points="368.4248,421.807 670.2617,307.6142 972.0781,421.807 670.2617,535.9594 		"/>
		<path fill="#4D4D4D" d="M670.2617,546.2655c-1.2383,0-2.4765-0.2216-3.6436-0.664L364.7813,431.4486
			c-4.0059-1.5092-6.6626-5.354-6.6626-9.6416s2.6469-8.1323,6.6626-9.642l301.8369-114.1929c2.3349-0.8858,4.9521-0.8858,7.2871,0
			L975.7227,412.165c4.0058,1.5097,6.6621,5.3544,6.6621,9.642s-2.6563,8.1324-6.6621,9.6416L673.9053,545.6015
			C672.7383,546.0439,671.5,546.2655,670.2617,546.2655L670.2617,546.2655z M397.5513,421.807l272.7104,103.1416L942.9512,421.807
			L670.2617,318.6249L397.5513,421.807L397.5513,421.807z"/>
	</g>
	<g>
		<path fill="#4D4D4D" d="M965.8389,560.496c-5.6963,0-10.3057-4.6094-10.3057-10.3057V432.1132H669.5371
			c-5.6973,0-10.3066-4.6099-10.3066-10.3062c0-5.6967,4.6093-10.3061,10.3066-10.3061h296.3018
			c5.6963,0,10.3056,4.6094,10.3056,10.3061v128.3833C976.1445,555.8866,971.5352,560.496,965.8389,560.496L965.8389,560.496z"/>
	</g>
	<g>
		<polygon fill="#FFFFFF" points="965.8389,547.3515 937.6172,609.4511 971.4951,668.6913 999.6953,606.6328 		"/>
		<path fill="#4D4D4D" d="M971.4951,678.997c-3.6836,0-7.1064-1.9727-8.9482-5.1934l-33.877-59.2402
			c-1.6406-2.8779-1.8008-6.3604-0.4326-9.3799l28.2217-62.0986c1.5996-3.522,5.042-5.8574,8.9062-6.0181
			c3.9551-0.5034,7.4981,1.8115,9.4209,5.1729l33.8672,59.2797c1.6299,2.879,1.792,6.3614,0.4229,9.3809l-28.2012,62.0586
			c-1.5898,3.5215-5.0322,5.8574-8.8965,6.0176C971.8164,678.997,971.6563,678.997,971.4951,678.997L971.4951,678.997z
			 M949.1816,608.9071l21.2666,37.1788l17.6934-38.9102l-21.2568-37.2188L949.1816,608.9071L949.1816,608.9071z"/>
	</g>
</g>
<g>
	<g>
		<path fill="#CCCCCC" d="M10.3062,750.0938v51.7314c0,0,92.0004-1.9121,164.1235,73.0088c0,0,107.8017-11.1113,204.2407,88.5283
			l203.023-93.8428v-59.4609L77.1753,739.9482L10.3062,750.0938z"/>
		<path fill="#4D4D4D" d="M378.6704,973.6679c-2.7275,0-5.4248-1.086-7.4077-3.1397
			c-74.9106-77.3974-155.5884-85.7509-186.7988-85.7509c-5.5357,0-8.7261,0.2822-8.9976,0.3027
			c-3.2007,0.3828-6.2705-0.8262-8.4643-3.0996c-65.3594-67.8965-146.9634-69.8496-156.0616-69.8496
			C5.2539,812.1308,0,807.5214,0,801.8251v-51.7314c0-5.0928,3.7241-9.421,8.7563-10.1856l66.8692-10.1445
			c0.9863-0.1416,1.9829-0.1416,2.9692-0.0215l504.5176,70.1104c5.0928,0.7041,8.8877,5.0527,8.8877,10.206v59.4609
			c0,4.0264-2.3359,7.67-5.9785,9.3604L382.998,972.7226C381.6094,973.3661,380.1299,973.6679,378.6704,973.6679L378.6704,973.6679z
			 M184.4639,864.1659c33.1128,0,117.5044,8.5743,196.4507,86.7969l190.4721-88.0254v-43.9023L77.2358,750.3554l-56.6235,8.5947
			v32.9912c27.436,1.9727,98.4316,12.8828,157.8833,72.3242C180.126,864.205,182.1289,864.1659,184.4639,864.1659L184.4639,864.1659
			z"/>
	</g>
	<g>
		<path fill="#FFFFFF" d="M10.3062,750.0938c0,0,106.9965-1.4493,164.1235,68.1971c0,0,101.1689-15.076,203.7778,79.5303
			l203.2046-89.3135c0,0-72.667-85.4883-196.6626-84.0587c0,0-63.6387-64.7754-165.7436-67.6543L10.3062,750.0938z"/>
		<path fill="#4D4D4D" d="M378.2075,908.1269c-2.5366,0-5.0425-0.9453-6.9848-2.7364
			c-76.0484-70.1103-151.5425-77.6796-180.4683-77.6796c-9.1187,0-14.4429,0.7246-14.8355,0.7851
			c-3.4921,0.4629-7.1757-0.8848-9.4604-3.6631c-52.2456-63.709-151.4522-64.4337-155.6489-64.4337
			c-4.8614,0-9.3199-3.4012-10.3365-8.1523c-1.0063-4.7705,1.1875-9.5811,5.626-11.5537l208.6997-93.2989
			c1.419-0.6445,3.0093-0.9062,4.4986-0.9062c93.2788,2.6367,155.0048,54.1875,169.5786,67.6348
			c124.7905,0.4824,197.3564,84.1396,200.3857,87.7021c2.1133,2.4961,2.9189,5.8174,2.1944,8.9981
			c-0.7354,3.1601-2.919,5.8173-5.8975,7.1259L382.354,907.2616C381.0254,907.8456,379.6064,908.1269,378.2075,908.1269
			L378.2075,908.1269z M190.7544,807.0995c30.707,0,109.7139,7.7696,189.4155,78.6035l183.4072-80.6171
			c-23.1181-21.5977-85.2973-70.3516-175.7583-70.3516l-2.9487,0.0205c-3.2812-0.7852-5.4951-1.0674-7.458-3.0791
			c-0.6138-0.6045-61.2329-60.8711-156.3735-64.4941L50.5645,743.3906c37.0581,5.9786,91.0341,21.9003,128.2231,64.1113
			C181.7466,807.3007,185.7822,807.0995,190.7544,807.0995L190.7544,807.0995z"/>
	</g>
	<g>
		<path fill="#4D4D4D" d="M174.4297,880.7919c-5.6968,0-10.3062-4.6094-10.3062-10.3057v-52.1953
			c0-4.0663,2.3951-7.75,6.1089-9.4199l210.3198-93.8428c5.2037-2.2939,11.2828,0.0205,13.6075,5.2139
			c2.3252,5.2129-0.0098,11.292-5.2134,13.627l-204.2105,91.1055v45.5117C184.7358,876.1825,180.126,880.7919,174.4297,880.7919
			L174.4297,880.7919z"/>
	</g>
	<g>
		<line fill="#FFFFFF" x1="378.2075" y1="897.8212" x2="378.2075" y2="957.5253"/>
		<path fill="#4D4D4D" d="M378.2075,967.831c-5.6968,0-10.3061-4.6104-10.3061-10.3057v-59.7041
			c0-5.6963,4.6093-10.3057,10.3061-10.3057c5.6963,0,10.3062,4.6094,10.3062,10.3057v59.7041
			C388.5137,963.2206,383.9038,967.831,378.2075,967.831L378.2075,967.831z"/>
	</g>
</g>
<g>
	<g>
		<path fill="#FFFFFF" d="M596.4277,714.9276c0,0-15.3984-59.4609-25.5644-59.4609c-10.125,0-24.7188,59.4209-24.7188,59.4209
			l24.6582,29.0264L596.4277,714.9276z"/>
		<path fill="#4D4D4D" d="M570.8027,754.2196c-0.0293,0-0.0703,0-0.0996,0c-2.9902-0.0205-5.8183-1.3486-7.75-3.6435
			l-24.6581-29.0254c-2.1445-2.5166-2.9492-5.918-2.1544-9.1191c16.5157-67.2715,28.8156-67.2715,34.7227-67.2715
			c5.8887,0,18.1465,0,35.539,67.1914c0.8653,3.3008,0.0196,6.8438-2.2548,9.4004l-25.6241,28.9863
			C576.5703,752.9511,573.752,754.2196,570.8027,754.2196L570.8027,754.2196z M557.4375,712.2704l13.5176,15.9023l14.0898-15.9229
			c-4.5195-16.4853-9.9434-32.1055-14.0801-40.9023C566.9385,680.245,561.6748,696.0263,557.4375,712.2704L557.4375,712.2704z"/>
	</g>
	<g>
		<polygon fill="#FF9554" points="546.1445,714.8876 596.4277,714.9276 596.2666,931.4569 545.9844,931.4569 		"/>
		<path fill="#4D4D4D" d="M596.2666,941.7636h-50.2822c-2.7383,0-5.3545-1.0869-7.2871-3.0195
			c-1.9317-1.9327-3.0196-4.5694-3.0196-7.2872l0.1612-216.5693c0-2.7373,1.0869-5.3545,3.0195-7.2871s4.5596-3.0186,7.2861-3.0186
			h0.0108l50.2822,0.0391c5.6875,0,10.2969,4.6309,10.2969,10.3066l-0.1621,216.5293
			C606.5723,937.1542,601.9531,941.7636,596.2666,941.7636L596.2666,941.7636z M556.3008,921.1513h29.6699l0.1406-195.917
			l-29.6699-0.041L556.3008,921.1513L556.3008,921.1513z"/>
	</g>
</g>
</svg>
