<?xml version="1.0" encoding="iso-8859-1"?>
<!-- Generator: Adobe Illustrator 19.0.0, SVG Export Plug-In . SVG Version: 6.00 Build 0)  -->
<svg version="1.1" id="Layer_1" xmlns="http://www.w3.org/2000/svg" xmlns:xlink="http://www.w3.org/1999/xlink" x="0px" y="0px"
	 viewBox="0 0 512 512" style="enable-background:new 0 0 512 512;" xml:space="preserve">
<polygon style="fill:#E7ECED;" points="496.728,260.804 496.728,444.216 424.166,444.216 347.706,495.801 347.706,444.216 
	61.124,444.216 61.124,341.047 87.834,341.047 164.294,392.63 164.294,341.047 450.876,341.047 450.876,260.804 "/>
<polygon style="fill:#AFB6BB;" points="450.876,192.024 450.876,260.804 450.876,341.047 164.294,341.047 164.294,392.63 
	87.834,341.047 61.124,341.047 15.272,341.047 15.272,157.634 61.124,157.634 450.876,157.634 "/>
<polygon style="fill:#8C9397;" points="496.728,8.612 496.728,192.024 450.876,192.024 450.876,157.634 61.124,157.634 
	61.124,8.612 "/>
<g>
	<path style="fill:#231F20;" d="M505.341,200.636V0H52.512v149.022H6.659v200.638h45.853v103.169h286.582V512l87.706-59.172h78.541
		V252.19h-45.854v-51.555h45.855V200.636z M69.737,17.225h418.379v166.187h-28.629v-34.389H69.737V17.225z M23.884,166.246h418.378
		v166.188h-286.58v43.996l-65.214-43.996H23.884V166.246z M488.116,269.415v166.188h-66.582L356.319,479.6v-43.997H69.737v-85.944
		h15.464l87.706,59.171v-59.171h286.58v-80.244H488.116z"/>
	<rect x="112.708" y="45.853" style="fill:#231F20;" width="332.44" height="17.225"/>
	<rect x="112.708" y="103.165" style="fill:#231F20;" width="332.44" height="17.225"/>
	<rect x="66.855" y="212.073" style="fill:#231F20;" width="332.44" height="17.225"/>
	<rect x="66.855" y="269.385" style="fill:#231F20;" width="332.44" height="17.225"/>
	<rect x="204.413" y="384.023" style="fill:#231F20;" width="240.723" height="17.225"/>
</g>
<g>
</g>
<g>
</g>
<g>
</g>
<g>
</g>
<g>
</g>
<g>
</g>
<g>
</g>
<g>
</g>
<g>
</g>
<g>
</g>
<g>
</g>
<g>
</g>
<g>
</g>
<g>
</g>
<g>
</g>
</svg>
