<?xml version="1.0" encoding="iso-8859-1"?>
<!-- Generator: Adobe Illustrator 19.0.0, SVG Export Plug-In . SVG Version: 6.00 Build 0)  -->
<svg version="1.1" id="Layer_1" xmlns="http://www.w3.org/2000/svg" xmlns:xlink="http://www.w3.org/1999/xlink" x="0px" y="0px"
	 viewBox="0 0 512 512" style="enable-background:new 0 0 512 512;" xml:space="preserve">
<g>
	<path style="fill:#2D2D2D;" d="M57.736,126.1h141.136c0.128-5.96,1.168-11.688,2.984-17.064H51.328c-7.04,0-12.8,5.76-12.8,12.8
		v294.4c0,0,7.008,0,19.2,0V126.1H57.736z"/>
	<path style="fill:#2D2D2D;" d="M460.848,109.036H310.144c1.816,5.376,2.856,11.104,2.984,17.064h141.32v290.136
		c12.304,0,19.336,0,19.2,0v-294.4C473.648,114.796,467.888,109.036,460.848,109.036z"/>
</g>
<path style="fill:#8AD5DD;" d="M256,184.54c-31.584,0-57.192-25.608-57.192-57.192c0-0.424,0.056-0.832,0.064-1.248H57.736v290.136
	c71.888,0,324.84,0,396.712,0V126.1h-141.32c0.008,0.416,0.064,0.824,0.064,1.248C313.192,158.932,287.584,184.54,256,184.54z
	 M256,197.676h39.8L256,285.78l-39.8-88.104H256z M140.072,251.78c0-53.328,57.96-54.096,57.96-54.096l55.256,119.792
	c0.384,0-113.224,0-113.224,0S140.072,305.1,140.072,251.78z M371.92,367.772H140.08v-16h231.84L371.92,367.772L371.92,367.772z
	 M371.928,251.78c0,53.328,0,65.688,0,65.688s-113.608,0-113.224,0l55.256-119.792C313.96,197.676,371.928,198.452,371.928,251.78z"
	/>
<path style="fill:#E8E8E8;" d="M57.736,416.236c-12.2,0-19.2,0-19.2,0H0v8.536h512v-8.536h-38.352c0.136,0-6.896,0-19.2,0
	C382.576,416.236,129.624,416.236,57.736,416.236z"/>
<polygon style="fill:#C9C9C9;" points="25.6,441.836 486.4,441.836 512,424.772 0,424.772 "/>
<path style="fill:#E8E8E8;" d="M198.808,127.348c0,31.584,25.608,57.192,57.192,57.192s57.192-25.608,57.192-57.192
	c0-0.424-0.056-0.832-0.064-1.248c-0.128-5.96-1.168-11.688-2.984-17.064C302.496,86.444,281.168,70.164,256,70.164
	s-46.496,16.288-54.144,38.872c-1.816,5.376-2.856,11.104-2.984,17.064C198.864,126.524,198.808,126.932,198.808,127.348z"/>
<g>
	<path style="fill:#2D2D2D;" d="M198.04,197.676c0,0-57.96,0.776-57.96,54.096c0,53.328,0,65.688,0,65.688s113.608,0,113.224,0
		L198.04,197.676z"/>
	<path style="fill:#2D2D2D;" d="M371.928,317.468c0,0,0-12.368,0-65.688c0-53.328-57.96-54.096-57.96-54.096l-55.256,119.792
		C258.32,317.468,371.928,317.468,371.928,317.468z"/>
</g>
<polygon style="fill:#DB2B42;" points="295.8,197.676 256,197.676 216.2,197.676 256,285.78 "/>
<rect x="140.08" y="351.772" style="fill:#FFFFFF;" width="231.84" height="16"/>
<g>
</g>
<g>
</g>
<g>
</g>
<g>
</g>
<g>
</g>
<g>
</g>
<g>
</g>
<g>
</g>
<g>
</g>
<g>
</g>
<g>
</g>
<g>
</g>
<g>
</g>
<g>
</g>
<g>
</g>
</svg>
