<?xml version="1.0" encoding="iso-8859-1"?>
<!-- Generator: Adobe Illustrator 19.0.0, SVG Export Plug-In . SVG Version: 6.00 Build 0)  -->
<svg version="1.1" id="Layer_1" xmlns="http://www.w3.org/2000/svg" xmlns:xlink="http://www.w3.org/1999/xlink" x="0px" y="0px"
	 viewBox="0 0 512 512" style="enable-background:new 0 0 512 512;" xml:space="preserve">
<polygon style="fill:#B3B3B3;" points="445.831,100.684 353.793,100.684 353.793,8.644 "/>
<polygon style="fill:#F2F2F2;" points="129.446,8.644 353.793,8.644 353.793,100.684 445.831,100.684 445.831,503.356 
	66.169,503.356 66.169,8.644 "/>
<g>
	<path style="fill:#231F20;" d="M357.372,0H57.525v512h396.95V97.103L357.372,0z M362.436,29.512l62.528,62.528h-62.528V29.512z
		 M74.812,494.712V17.288h45.989v258.861h109.327V57.525h-63.307v169.713h17.288V74.812h28.732v184.049h-74.752V17.288h207.06v92.04
		h92.039v385.386H74.812V494.712z"/>
	<rect x="261.756" y="166.825" style="fill:#231F20;" width="138.058" height="17.288"/>
	<rect x="261.756" y="212.844" style="fill:#231F20;" width="138.058" height="17.288"/>
	<rect x="261.756" y="258.863" style="fill:#231F20;" width="138.058" height="17.288"/>
	<rect x="112.185" y="304.883" style="fill:#231F20;" width="287.618" height="17.288"/>
	<rect x="112.185" y="350.902" style="fill:#231F20;" width="287.618" height="17.288"/>
	<rect x="112.185" y="396.922" style="fill:#231F20;" width="287.618" height="17.288"/>
</g>
<g>
</g>
<g>
</g>
<g>
</g>
<g>
</g>
<g>
</g>
<g>
</g>
<g>
</g>
<g>
</g>
<g>
</g>
<g>
</g>
<g>
</g>
<g>
</g>
<g>
</g>
<g>
</g>
<g>
</g>
</svg>
