<?xml version="1.0" encoding="iso-8859-1"?>
<!-- Generator: Adobe Illustrator 19.0.0, SVG Export Plug-In . SVG Version: 6.00 Build 0)  -->
<svg version="1.1" id="Layer_1" xmlns="http://www.w3.org/2000/svg" xmlns:xlink="http://www.w3.org/1999/xlink" x="0px" y="0px"
	 viewBox="0 0 512 512" style="enable-background:new 0 0 512 512;" xml:space="preserve">
<path style="fill:#1E0478;" d="M512,89.745c0,26.08-11.19,49.596-29.023,66.014c14.726,32.609,22.203,67.416,22.203,103.65
	C505.18,398.688,391.868,512,252.59,512S0,398.688,0,259.41S113.312,6.82,252.59,6.82c36.234,0,71.041,7.477,103.65,22.203
	C372.659,11.19,396.175,0,422.255,0C471.75,0,512,40.25,512,89.745z M479.921,259.41c0-31.081-6.1-60.988-18.136-89.126
	c-11.935,5.885-25.347,9.207-39.53,9.207c-49.482,0-89.745-40.263-89.745-89.745c0-14.183,3.322-27.595,9.207-39.53
	c-28.139-12.036-58.045-18.136-89.126-18.136c-125.348,0-227.331,101.983-227.331,227.331S127.242,486.741,252.59,486.741
	S479.921,384.758,479.921,259.41z M486.741,89.745c0-35.565-28.922-64.486-64.486-64.486c-35.552,0-64.486,28.922-64.486,64.486
	c0,35.552,28.934,64.486,64.486,64.486C457.819,154.231,486.741,125.297,486.741,89.745z"/>
<path style="fill:#94E7EF;" d="M422.255,25.259c35.565,0,64.486,28.922,64.486,64.486c0,35.552-28.922,64.486-64.486,64.486
	c-35.552,0-64.486-28.934-64.486-64.486C357.769,54.181,386.703,25.259,422.255,25.259z M468.403,89.745
	c0-6.984-5.645-12.63-12.63-12.63h-20.889V56.227c0-6.984-5.645-12.63-12.629-12.63c-6.971,0-12.63,5.645-12.63,12.63v20.889
	h-20.889c-6.971,0-12.63,5.645-12.63,12.63c0,6.971,5.658,12.63,12.63,12.63h20.889v20.889c0,6.971,5.658,12.629,12.63,12.629
	c6.984,0,12.629-5.658,12.629-12.629v-20.889h20.889C462.758,102.375,468.403,96.717,468.403,89.745z"/>
<g>
	<path style="fill:#1E0478;" d="M455.773,77.116c6.984,0,12.63,5.645,12.63,12.63c0,6.971-5.645,12.63-12.63,12.63h-20.889v20.889
		c0,6.971-5.645,12.629-12.629,12.629c-6.971,0-12.63-5.658-12.63-12.629v-20.889h-20.889c-6.971,0-12.63-5.658-12.63-12.63
		c0-6.984,5.658-12.63,12.63-12.63h20.889V56.227c0-6.984,5.658-12.63,12.63-12.63c6.984,0,12.629,5.645,12.629,12.63v20.889
		H455.773z"/>
	<path style="fill:#1E0478;" d="M383.987,360.193v36.322c0,13.64-11.101,24.741-24.741,24.741H145.921
		c-13.64,0-24.741-11.101-24.741-24.741v-36.322c0-30.071,23.983-54.623,53.814-55.582c0.29-0.025,31.018,1.49,40.01-31.41
		c-18.048-13.791-31.207-37.282-35.148-65.396c-2.084-2.88-4.635-10.823-5.696-14.966c-10.533-41.298,9.068-83.026,43.685-93.029
		c3.372-0.972,6.896-1.629,10.482-1.958c9.737-4.711,20.03-7.098,30.639-7.098c41.311,0,74.918,36.108,74.918,80.5
		c0,11.531-2.223,22.67-6.605,33.089c-0.455,1.099-1.061,2.071-1.793,2.93c-2.526,18.654-9.194,35.906-19.412,49.748
		c-4.761,6.454-10.104,11.884-15.875,16.292c8.841,32.357,39.707,31.271,39.985,31.296
		C360.017,305.583,383.987,330.135,383.987,360.193z M361.254,396.516v-36.322c0-18.136-14.751-32.9-32.887-32.9
		c-0.316,0-10.748,0.215-22.001-4.357c-14.612,13.311-33.771,20.813-53.739,20.813s-39.139-7.515-53.751-20.839
		c-11.038,4.206-21.761,4.382-22.076,4.382c-18.136,0-32.887,14.764-32.887,32.9v36.322c0,1.111,0.897,2.008,2.008,2.008h213.325
		C360.358,398.524,361.254,397.627,361.254,396.516z M291.388,160.622c7.186,0,13.88,2.071,19.55,5.633
		c-2.299-29.515-24.716-52.766-51.97-52.766c-7.704,0-15.193,1.894-22.291,5.608c-1.465,0.783-3.107,1.225-4.761,1.301
		c-2.69,0.114-5.304,0.543-7.767,1.25c-20.75,5.999-32.988,30.614-29.578,57.098c5.128-6.833,8.942-14.625,11.101-22.923
		c1.44-5.494,6.201-9.422,11.846-9.775c5.645-0.366,10.836,2.917,12.933,8.159c0.707,1.743,1.869,3.258,3.397,4.395
		c1.768,1.313,3.877,2.021,6.113,2.021H291.388z M303.904,190.983c-2.349-4.521-7.073-7.628-12.516-7.628h-51.427
		c-6.593,0-12.882-1.907-18.3-5.532c-4.774,9.813-11.367,18.717-19.374,26.194c4.572,33.898,25.992,59.725,50.341,59.725
		c11.632,0,19.854-5.81,20.422-6.087C291.06,246.427,303.714,220.802,303.904,190.983z M286.185,310.092
		c-7.515-7.11-13.299-16.052-16.595-26.118c-5.481,1.629-11.164,2.501-16.961,2.501c-5.847,0-11.556-0.884-17.025-2.539
		c-3.296,10.078-9.068,19.007-16.57,26.118c9.674,7.047,21.42,10.962,33.594,10.962C264.79,321.017,276.523,317.114,286.185,310.092
		z"/>
</g>
<g>
	<path style="fill:#9B8CCC;" d="M361.254,360.193v36.322c0,1.111-0.897,2.008-2.008,2.008H145.921c-1.111,0-2.008-0.897-2.008-2.008
		v-36.322c0-18.136,14.751-32.9,32.887-32.9c0.316,0,11.038-0.177,22.076-4.382c14.612,13.324,33.784,20.839,53.751,20.839
		s39.126-7.502,53.739-20.813c11.253,4.572,21.685,4.357,22.001,4.357C346.503,327.294,361.254,342.057,361.254,360.193z"/>
	<path style="fill:#9B8CCC;" d="M310.938,166.255c-5.671-3.562-12.364-5.633-19.55-5.633h-51.427c-2.235,0-4.345-0.707-6.113-2.021
		c-1.528-1.137-2.69-2.652-3.397-4.395c-2.096-5.241-7.287-8.525-12.933-8.159c-5.645,0.354-10.407,4.281-11.846,9.775
		c-2.16,8.298-5.974,16.09-11.101,22.923c-3.41-26.484,8.828-51.099,29.578-57.098c2.463-0.707,5.077-1.137,7.767-1.25
		c1.654-0.076,3.296-0.518,4.761-1.301c7.098-3.713,14.587-5.608,22.291-5.608C286.222,113.489,308.64,136.74,310.938,166.255z"/>
</g>
<g>
	<path style="fill:#FFFFFF;" d="M291.388,183.355c5.443,0,10.167,3.107,12.516,7.628c-0.189,29.818-12.844,55.444-30.854,66.671
		c-0.568,0.278-8.79,6.087-20.422,6.087c-24.35,0-45.769-25.827-50.341-59.725c8.007-7.477,14.6-16.38,19.374-26.194
		c5.418,3.625,11.708,5.532,18.3,5.532L291.388,183.355L291.388,183.355z"/>
	<path style="fill:#FFFFFF;" d="M269.589,283.974c3.296,10.066,9.081,19.007,16.595,26.118
		c-9.662,7.022-21.394,10.924-33.557,10.924c-12.175,0-23.92-3.915-33.594-10.962c7.502-7.11,13.274-16.039,16.57-26.118
		c5.469,1.654,11.177,2.539,17.025,2.539C258.425,286.475,264.108,285.604,269.589,283.974z"/>
</g>
<g>
</g>
<g>
</g>
<g>
</g>
<g>
</g>
<g>
</g>
<g>
</g>
<g>
</g>
<g>
</g>
<g>
</g>
<g>
</g>
<g>
</g>
<g>
</g>
<g>
</g>
<g>
</g>
<g>
</g>
</svg>
