<?xml version="1.0" encoding="utf-8"?>
<!-- Generator: Adobe Illustrator 17.1.0, SVG Export Plug-In . SVG Version: 6.00 Build 0)  -->
<!DOCTYPE svg PUBLIC "-//W3C//DTD SVG 1.1//EN" "http://www.w3.org/Graphics/SVG/1.1/DTD/svg11.dtd">
<svg version="1.1" id="book-wings-rainbow" xmlns="http://www.w3.org/2000/svg" xmlns:xlink="http://www.w3.org/1999/xlink" x="0px"
	 y="0px" viewBox="0 0 1009.9996 655.8222" enable-background="new 0 0 1009.9996 655.8222" xml:space="preserve">
<g>
	<g>
		<path fill="#DFDFE1" d="M257.4407,377.4062c0,0-104.4429-79.8262-155.0879-59.8574
			C59.7547,334.3154-6.655,441.8789,11.4744,455.8535c15.8638,12.2012,75.9678-49.9385,75.9678-49.9385
			s-35.4712,62.6982-8.6709,71.6318c13.0058,4.3516,58.56-54.2744,58.56-54.2744s-15.3706,51.2696,8.6709,54.2744
			c17.3741,2.168,56.4253-62.9453,56.4253-62.9453l76.0005,13.0391L257.4407,377.4062z"/>
		<path fill="#4D4D4D" d="M80.282,486.1845c-0.9033,0-3.3174-0.3779-4.1709-0.6572c-6.5361-2.1836-11.2983-6.7324-13.7783-13.1865
			c-3.4814-9.0479-1.9048-21.167,1.4946-32.8594c-15.9619,13.3994-34.6338,26.3731-47.1142,26.3731
			c-4.0069,0-7.4883-1.1329-10.3623-3.334c-5.2876-4.0723-7.291-10.9365-5.9444-20.3955
			c4.877-34.42,58.9707-116.6934,98.8594-132.3926c6.3877-2.5293,13.7119-3.794,21.7588-3.794
			c56.0967,0,138.0581,62.1407,141.5235,64.7842c1.1655,0.9033,2.0854,2.086,2.6436,3.4492l20.9873,50.2344
			c1.1821,2.8242,0.7388,6.0752-1.166,8.4736c-1.938,2.3975-5.0249,3.5792-8.0137,3.0538l-70.3677-12.086
			c-13.5644,21.9883-40.9394,62.1563-59.7592,62.1563c-0.3448,0-1.5601-0.0655-1.9048-0.1153
			c-6.6343-0.8203-12.0371-4.1875-15.6333-9.7216c-4.1548-6.3545-5.4029-15.0088-5.2715-23.6309
			C108.7249,469.8125,91.3011,486.1845,80.282,486.1845L80.282,486.1845z M87.4422,397.5068c1.7568,0,3.5303,0.5586,5.0249,1.6748
			c3.3994,2.5293,4.3681,7.1934,2.2988,10.8711c-9.4917,16.7832-20.9375,45.3408-16.7334,56.2617
			c0.5581,1.461,1.3135,2.3477,2.5943,2.9395c7.3408-2.1846,29.8549-25.1416,50.0703-51.1377
			c2.4633-3.2188,6.8642-4.1709,10.477-2.3155c3.5967,1.8555,5.3701,6.0108,4.2207,9.8858
			c-3.7773,12.6289-6.8808,33.7959-1.9707,41.3008c0.9028,1.3799,1.9214,2.0039,3.6289,2.2168
			c7.0781-0.6075,29.6909-28.1299,48.1655-58.9209c1.7735-2.9893,5.189-4.5655,8.6377-3.9746l60.9088,10.4609l-14.1885-34.0098
			c-12.1031-8.917-83.3081-60.0049-129.5518-60.0049c-5.9282,0-11.1836,0.8702-15.5845,2.6114
			c-26.7675,10.542-69.2671,67.0166-83.9809,104.1465c-5.2061,13.1543-4.9268,19.0498-4.3682,20.2158
			c10.3291-0.6904,41.5308-26.1113,64.3076-49.6602C83.0408,398.3769,85.2249,397.5068,87.4422,397.5068L87.4422,397.5068z"/>
	</g>
	<g>
		<path fill="#DFDFE1" d="M752.5594,377.4062c0,0,104.4092-79.8262,155.0869-59.8574
			c42.6318,16.7666,109.0088,124.3301,90.8779,138.3047c-15.8633,12.2012-75.9668-49.9385-75.9668-49.9385
			s35.4707,62.6982,8.7031,71.6318c-13.0058,4.3516-58.5927-54.2744-58.5927-54.2744s15.4033,51.2696-8.6709,54.2744
			c-17.3741,2.168-56.458-62.9453-56.458-62.9453l-75.9346,13.0391L752.5594,377.4062z"/>
		<path fill="#4D4D4D" d="M929.7508,486.1845c-11.0196,0-28.4434-16.372-43.7969-33.6484
			c0.1309,8.6055-1.1172,17.2598-5.2715,23.6152c-3.5976,5.5498-9.0156,8.917-15.6504,9.7373
			c-0.3457,0.0498-1.5605,0.1153-1.9052,0.1153c-18.8195,0-46.2277-40.168-59.7921-62.1397l-70.3018,12.0694
			c-3.0049,0.5586-6.0752-0.6407-7.9971-3.0538c-1.9218-2.3984-2.3652-5.6494-1.1992-8.4736l20.9551-50.2344
			c0.5742-1.3632,1.4941-2.5459,2.6601-3.4492c3.4649-2.6435,85.3926-64.7842,141.5235-64.7842
			c8.0459,0,15.3701,1.2647,21.7578,3.794c39.873,15.6826,93.9668,97.956,98.8594,132.376
			c1.3476,9.4756-0.6563,16.3398-5.9278,20.4121c-2.8906,2.2011-6.3711,3.334-10.3789,3.334
			c-12.4804,0-31.1347-12.9571-47.1132-26.3731c3.3984,11.708,4.9921,23.8272,1.5097,32.876
			c-2.4795,6.4375-7.2245,10.9863-13.7617,13.1699C933.0672,485.8066,930.6531,486.1845,929.7508,486.1845L929.7508,486.1845z
			 M872.6678,414.8652c2.5293,0,4.9922,1.1328,6.6347,3.251c20.2315,25.9961,42.7627,48.9531,50.1026,51.1377
			c1.2646-0.5918,2.0195-1.4619,2.5781-2.9229c4.2051-10.9209-7.2578-39.4951-16.75-56.2783
			c-2.0684-3.6777-1.0996-8.3418,2.2988-10.8711c3.3672-2.5283,8.1133-2.167,11.0684,0.8867
			c22.7939,23.5489,53.9951,48.9698,64.6855,48.9698c0.1817-0.4756,0.46-6.3877-4.7461-19.542
			c-15.0254-37.918-56.7363-93.4073-83.9648-104.1299c-4.4171-1.7412-9.6719-2.6114-15.5996-2.6114
			c-46.3262,0-117.4492,51.0713-129.5361,60.0049l-14.1885,34.0098l60.8594-10.4609c3.3671-0.5909,6.832,1.0019,8.6386,3.958
			c18.4903,30.8076,41.1192,58.33,48.4112,58.9218c1.5107-0.1972,2.5283-0.8212,3.4326-2.2011
			c4.9101-7.5205,1.789-28.6719-1.9707-41.3008c-1.166-3.875,0.6074-8.0303,4.2031-9.8858
			C870.0398,415.1767,871.3543,414.8652,872.6678,414.8652L872.6678,414.8652z"/>
	</g>
</g>
<g>
	<g>
		<polygon fill="#5FD4AF" points="240.0662,233.3867 202.8216,280.5996 202.8216,647.414 807.2107,647.414 807.2107,268.415 
			772.0027,233.3867 601.6746,402.3838 		"/>
		<path fill="#4D4D4D" d="M807.2107,655.8222H202.8216c-4.6475,0-8.4077-3.7607-8.4077-8.4082V280.5996
			c0-1.8887,0.6401-3.7276,1.8061-5.2051l37.2446-47.2129c2.4307-3.0713,6.6016-4.0732,10.1656-2.4141l356.2876,166.5176
			L766.074,227.4257c3.3174-3.2509,8.6045-3.2187,11.8565,0l35.2089,35.0284c1.5918,1.5761,2.4786,3.7275,2.4786,5.9609v378.999
			C815.618,652.0615,811.8582,655.8222,807.2107,655.8222L807.2107,655.8222z M211.2298,639.0058h587.5727V271.9131l-26.7998-26.669
			L607.6033,408.3457c-2.4961,2.5117-6.2402,3.1357-9.4911,1.6582L242.5462,243.831l-31.3164,39.6924V639.0058L211.2298,639.0058z"
			/>
	</g>
	<g>
		<path fill="#FFFFFF" d="M506.3621,610.8593h265.6406V233.3867c0,0-163.1347,4.6474-265.6406,74.5723h-0.6562
			c-102.5381-69.9249-265.6397-74.5723-265.6397-74.5723v377.4726h265.6397H506.3621z"/>
		<path fill="#4D4D4D" d="M772.0027,619.2675H240.0662c-4.647,0-8.4077-3.7607-8.4077-8.4081V233.3867
			c0-2.2656,0.9194-4.4502,2.5454-6.0264c1.6421-1.5928,3.8262-2.4961,6.1089-2.3808
			c6.6509,0.1962,162.2641,5.3857,265.7212,73.0927c103.4248-67.707,259.0547-72.8965,265.7217-73.0927
			c2.2334-0.1153,4.4668,0.788,6.1084,2.3808c1.6269,1.5762,2.5459,3.7608,2.5459,6.0264v377.4726
			C780.41,615.5068,776.6492,619.2675,772.0027,619.2675L772.0027,619.2675z M248.4744,602.4511h515.1201V242.2382
			c-34.7812,2.1514-166.5508,14.0411-252.4863,72.667c-2.8242,1.9043-7.3398,1.9043-10.1318,0
			c-85.9849-58.6259-217.7369-70.5156-252.502-72.667V602.4511L248.4744,602.4511z"/>
	</g>
	<g>
		<line fill="#FFFFFF" x1="240.0662" y1="610.8593" x2="205.8103" y2="639.9746"/>
		<path fill="#4D4D4D" d="M205.8103,648.3828c-2.3808,0-4.7456-1.002-6.4043-2.9561c-3.0053-3.5468-2.5781-8.8506,0.9527-11.8564
			l34.2558-29.1154c3.5796-3.0058,8.8677-2.5781,11.8565,0.9522c3.0054,3.5469,2.5781,8.8516-0.9526,11.8564l-34.2558,29.1163
			C209.6697,647.7265,207.7317,648.3828,205.8103,648.3828L205.8103,648.3828z"/>
	</g>
	<g>
		<line fill="#FFFFFF" x1="770.8523" y1="610.8593" x2="805.075" y2="639.9746"/>
		<path fill="#4D4D4D" d="M805.075,648.3828c-1.9375,0-3.8584-0.6563-5.4512-2.0029l-34.2226-29.1163
			c-3.5313-3.0048-3.958-8.3095-0.9532-11.8564c3.0215-3.5303,8.293-3.9414,11.8565-0.9522l34.2236,29.1154
			c3.5303,3.0058,3.9571,8.3096,0.9522,11.8564C809.8211,647.3808,807.4568,648.3828,805.075,648.3828L805.075,648.3828z"/>
	</g>
	<g>
		<g>
			<line fill="#FFFFFF" x1="506.3621" y1="307.959" x2="506.3621" y2="610.8593"/>
			<path fill="#4D4D4D" d="M506.3621,619.2675c-4.6465,0-8.4072-3.7607-8.4072-8.4081V307.959c0-4.6475,3.7607-8.4083,8.4072-8.4083
				c4.6484,0,8.4082,3.7608,8.4082,8.4083v302.9003C514.7703,615.5068,511.0105,619.2675,506.3621,619.2675L506.3621,619.2675z"/>
		</g>
		<g>
			<line fill="#FFFFFF" x1="284.6351" y1="344.3496" x2="465.7684" y2="344.3496"/>
			<path fill="#4D4D4D" d="M465.7684,352.7578H284.6351c-4.647,0-8.4078-3.7608-8.4078-8.4082c0-4.6475,3.7608-8.4082,8.4078-8.4082
				h181.1333c4.6464,0,8.4082,3.7607,8.4082,8.4082C474.1766,348.997,470.4148,352.7578,465.7684,352.7578L465.7684,352.7578z"/>
		</g>
		<g>
			<line fill="#FFFFFF" x1="284.6351" y1="385.7812" x2="465.7684" y2="385.7812"/>
			<path fill="#4D4D4D" d="M465.7684,394.1894H284.6351c-4.647,0-8.4078-3.7607-8.4078-8.4082c0-4.6465,3.7608-8.4072,8.4078-8.4072
				h181.1333c4.6464,0,8.4082,3.7607,8.4082,8.4072C474.1766,390.4287,470.4148,394.1894,465.7684,394.1894L465.7684,394.1894z"/>
		</g>
		<g>
			<line fill="#FFFFFF" x1="284.6351" y1="427.247" x2="465.7684" y2="427.247"/>
			<path fill="#4D4D4D" d="M465.7684,435.6543H284.6351c-4.647,0-8.4078-3.7598-8.4078-8.4073c0-4.6474,3.7608-8.4082,8.4078-8.4082
				h181.1333c4.6464,0,8.4082,3.7608,8.4082,8.4082C474.1766,431.8945,470.4148,435.6543,465.7684,435.6543L465.7684,435.6543z"/>
		</g>
		<g>
			<line fill="#FFFFFF" x1="284.6351" y1="468.7119" x2="465.7684" y2="468.7119"/>
			<path fill="#4D4D4D" d="M465.7684,477.1201H284.6351c-4.647,0-8.4078-3.7608-8.4078-8.4082c0-4.6475,3.7608-8.4082,8.4078-8.4082
				h181.1333c4.6464,0,8.4082,3.7607,8.4082,8.4082C474.1766,473.3593,470.4148,477.1201,465.7684,477.1201L465.7684,477.1201z"/>
		</g>
		<g>
			<line fill="#FFFFFF" x1="284.6351" y1="510.1601" x2="465.7684" y2="510.1601"/>
			<path fill="#4D4D4D" d="M465.7684,518.5683H284.6351c-4.647,0-8.4078-3.7607-8.4078-8.4082c0-4.6465,3.7608-8.4072,8.4078-8.4072
				h181.1333c4.6464,0,8.4082,3.7607,8.4082,8.4072C474.1766,514.8076,470.4148,518.5683,465.7684,518.5683L465.7684,518.5683z"/>
		</g>
		<g>
			<line fill="#FFFFFF" x1="284.6351" y1="551.6259" x2="465.7684" y2="551.6259"/>
			<path fill="#4D4D4D" d="M465.7684,560.0332H284.6351c-4.647,0-8.4078-3.7598-8.4078-8.4073c0-4.6474,3.7608-8.4082,8.4078-8.4082
				h181.1333c4.6464,0,8.4082,3.7608,8.4082,8.4082C474.1766,556.2734,470.4148,560.0332,465.7684,560.0332L465.7684,560.0332z"/>
		</g>
		<g>
			<line fill="#FFFFFF" x1="547.2195" y1="344.3496" x2="728.3855" y2="344.3496"/>
			<path fill="#4D4D4D" d="M728.3855,352.7578h-181.166c-4.6465,0-8.4072-3.7608-8.4072-8.4082
				c0-4.6475,3.7607-8.4082,8.4072-8.4082h181.166c4.6475,0,8.4082,3.7607,8.4082,8.4082
				C736.7937,348.997,733.033,352.7578,728.3855,352.7578L728.3855,352.7578z"/>
		</g>
		<g>
			<line fill="#FFFFFF" x1="547.2195" y1="385.7812" x2="728.3855" y2="385.7812"/>
			<path fill="#4D4D4D" d="M728.3855,394.1894h-181.166c-4.6465,0-8.4072-3.7607-8.4072-8.4082
				c0-4.6465,3.7607-8.4072,8.4072-8.4072h181.166c4.6475,0,8.4082,3.7607,8.4082,8.4072
				C736.7937,390.4287,733.033,394.1894,728.3855,394.1894L728.3855,394.1894z"/>
		</g>
		<g>
			<line fill="#FFFFFF" x1="547.2195" y1="427.247" x2="728.3855" y2="427.247"/>
			<path fill="#4D4D4D" d="M728.3855,435.6543h-181.166c-4.6465,0-8.4072-3.7598-8.4072-8.4073
				c0-4.6474,3.7607-8.4082,8.4072-8.4082h181.166c4.6475,0,8.4082,3.7608,8.4082,8.4082
				C736.7937,431.8945,733.033,435.6543,728.3855,435.6543L728.3855,435.6543z"/>
		</g>
		<g>
			<line fill="#FFFFFF" x1="547.2195" y1="468.7119" x2="728.3855" y2="468.7119"/>
			<path fill="#4D4D4D" d="M728.3855,477.1201h-181.166c-4.6465,0-8.4072-3.7608-8.4072-8.4082
				c0-4.6475,3.7607-8.4082,8.4072-8.4082h181.166c4.6475,0,8.4082,3.7607,8.4082,8.4082
				C736.7937,473.3593,733.033,477.1201,728.3855,477.1201L728.3855,477.1201z"/>
		</g>
		<g>
			<line fill="#FFFFFF" x1="547.2195" y1="510.1601" x2="728.3855" y2="510.1601"/>
			<path fill="#4D4D4D" d="M728.3855,518.5683h-181.166c-4.6465,0-8.4072-3.7607-8.4072-8.4082
				c0-4.6465,3.7607-8.4072,8.4072-8.4072h181.166c4.6475,0,8.4082,3.7607,8.4082,8.4072
				C736.7937,514.8076,733.033,518.5683,728.3855,518.5683L728.3855,518.5683z"/>
		</g>
		<g>
			<line fill="#FFFFFF" x1="547.2195" y1="551.6259" x2="728.3855" y2="551.6259"/>
			<path fill="#4D4D4D" d="M728.3855,560.0332h-181.166c-4.6465,0-8.4072-3.7598-8.4072-8.4073
				c0-4.6474,3.7607-8.4082,8.4072-8.4082h181.166c4.6475,0,8.4082,3.7608,8.4082,8.4082
				C736.7937,556.2734,733.033,560.0332,728.3855,560.0332L728.3855,560.0332z"/>
		</g>
	</g>
</g>
<g>
	<g>
		<g>
			<path fill="#FFFFFF" d="M627.2273,198.5566l-0.3281-4.7129c-4.4668-66.4267-60.039-118.4839-126.5137-118.4839
				c-66.4428,0-122.0146,52.0572-126.4814,118.4839l-0.3281,4.7129h-28.9356l0.3286-5.3535
				c4.8282-82.3062,73.1099-146.7783,155.4165-146.7783c82.3389,0,150.6211,64.4721,155.3829,146.7783l0.3281,5.3535H627.2273z"/>
		</g>
		<path fill="#5FD4AF" d="M592.3797,198.5566l-0.4258-4.5986c-4.2705-46.8677-44.5039-83.5869-91.5684-83.5869
			c-47.0654,0-87.2661,36.7192-91.5683,83.5869l-0.4273,4.5986h-28.8364l0.4268-5.4355
			c4.7954-62.6333,57.6733-111.6851,120.4052-111.6851c62.7305,0,115.6426,49.0518,120.4043,111.6851l0.4278,5.4355H592.3797z"/>
		<g>
			<path fill="#FF9554" d="M662.1072,198.5566l-0.2627-4.7949c-4.5-86.0181-75.4414-153.3804-161.459-153.3804
				c-85.9848,0-156.9272,67.3789-161.4926,153.396l-0.2627,4.7793h-29.1651l0.2627-5.2881
				C314.556,91.3056,398.3069,11.4463,500.3855,11.4463c102.1436,0,185.8946,79.8593,190.6573,181.8222l0.2295,5.2881H662.1072z"/>
		</g>
	</g>
	<g>
		<g>
			<g>
				<path fill="#4D4D4D" d="M698.8924,209.9863H593.9568c-4.6142,0-8.375-3.7285-8.4082-8.3428
					c-0.3779-44.0268-36.5049-79.8428-80.5322-79.8428c-44.0107,0-80.1226,35.816-80.5,79.8428
					c-0.0327,4.6143-3.7935,8.3428-8.4082,8.3428h-105.001c-2.2334,0-4.3847-0.8867-5.9609-2.4805
					c-1.5767-1.5761-2.4634-3.7275-2.4473-5.9609C303.1756,90.4189,393.9388,0,505.0164,0
					c111.1592,0,201.9063,90.4189,202.2832,201.5449c0,2.2334-0.8691,4.3848-2.4464,5.9609
					C703.2762,209.0996,701.1258,209.9863,698.8924,209.9863L698.8924,209.9863z M601.9383,193.1699h88.332
					c-4.7617-97.9888-86.165-176.354-185.2539-176.354c-99.0239,0-180.4268,78.3652-185.2715,176.354h88.3823
					c4.6641-49.3311,46.5064-88.1851,96.8892-88.1851C555.4148,104.9848,597.2742,143.8388,601.9383,193.1699L601.9383,193.1699z"/>
			</g>
		</g>
		<g>
			<g>
				<path fill="#4D4D4D" d="M346.1185,209.9863c-0.0162,0-0.0328,0-0.0328,0c-4.6474-0.0166-8.3916-3.8106-8.375-8.457
					c0.4434-91.8316,75.5074-166.5342,167.3057-166.5342c91.8301,0,166.8945,74.7192,167.3047,166.5498
					c0.0176,4.6308-3.7266,8.4248-8.375,8.4414c0,0-0.0156,0-0.0322,0c-4.6309,0-8.3916-3.7441-8.4082-8.375
					C655.1277,119.0092,587.618,51.811,505.0164,51.811c-82.5693,0-150.0791,67.1982-150.4897,149.8159
					C354.5101,206.2422,350.7493,209.9863,346.1185,209.9863L346.1185,209.9863z"/>
			</g>
			<g>
				<path fill="#4D4D4D" d="M381.097,209.9863c-0.0161,0-0.0327,0-0.0493,0c-4.6475-0.0332-8.3916-3.8262-8.3584-8.457
					c0.4926-72.5191,59.8574-131.523,132.3271-131.523c72.5508,0,131.9004,59.0039,132.3262,131.523
					c0.0332,4.6464-3.711,8.4238-8.3574,8.457c-0.0176,0-0.0333,0-0.0499,0c-4.6142,0-8.3759-3.7285-8.4082-8.3594
					c-0.3613-63.3056-52.1884-114.8047-115.5107-114.8047c-63.2734,0-115.0845,51.4991-115.5112,114.8047
					C389.472,206.2578,385.7117,209.9863,381.097,209.9863L381.097,209.9863z"/>
			</g>
		</g>
	</g>
</g>
</svg>
