<?xml version="1.0" encoding="utf-8"?>
<!-- Generator: Adobe Illustrator 17.1.0, SVG Export Plug-In . SVG Version: 6.00 Build 0)  -->
<!DOCTYPE svg PUBLIC "-//W3C//DTD SVG 1.1//EN" "http://www.w3.org/Graphics/SVG/1.1/DTD/svg11.dtd">
<svg version="1.1" id="cheque-dollar-coins" xmlns="http://www.w3.org/2000/svg" xmlns:xlink="http://www.w3.org/1999/xlink"
	 x="0px" y="0px" viewBox="0 0 1009.9976 926.4995" enable-background="new 0 0 1009.9976 926.4995" xml:space="preserve">
<g>
	<g>
		<path fill="#FFFFFF" d="M879.2303,115.2236c0,0-1.3691,39.8975-42.7969,45.5337c0,0,37.8047,2.4556,42.7969,42.5142
			c0,0,5.5352-39.9375,41.2461-44.0039C920.4764,159.2676,883.3973,157.8584,879.2303,115.2236z"/>
		<path fill="#4D4D4D" d="M879.2303,213.5781c-0.0195,0-0.041,0-0.0801,0c-5.1542-0.04-9.5019-3.9053-10.1464-9.0381
			c-3.8848-31.2417-32.0469-33.416-33.2344-33.4966c-5.2939-0.3418-9.4404-4.6298-9.6426-9.9238
			c-0.1807-5.2944,3.6641-9.8638,8.918-10.5683c31.5039-4.2876,33.7383-32.5298,33.8789-35.7505
			c0.2617-5.3951,4.6504-9.7027,10.0449-9.8438c4.8916,0.0806,10.0039,3.8853,10.5273,9.2598
			c3.1407,32.2685,28.5645,34.6035,31.4629,34.7646c5.335,0.2818,9.6231,4.6299,9.7832,9.9844
			c0.1415,5.3545-3.7832,9.9439-9.0977,10.5479c-27.457,3.1201-32.168,34.8452-32.209,35.167
			C888.7323,209.7939,884.3631,213.5781,879.2303,213.5781L879.2303,213.5781z M865.2401,160.6162
			c5.1533,3.5229,10.0645,8.1123,14.1514,13.9702c3.4218-5.3345,7.7705-10.4673,13.1845-14.7148
			c-4.8711-3.4219-9.501-7.8706-13.3867-13.5879C875.6678,151.4975,871.078,156.4697,865.2401,160.6162L865.2401,160.6162z"/>
	</g>
	<g>
		<path fill="#FFFFFF" d="M451.6708,231.4131c0,0-1.3687,39.8574-42.8365,45.4936c0,0,37.8242,2.4561,42.8365,42.4741
			c0,0,5.5156-39.8569,41.2666-44.0039C492.9374,275.3769,455.7772,274.0483,451.6708,231.4131z"/>
		<path fill="#4D4D4D" d="M451.6708,329.6675c-0.0401,0-0.0601,0-0.1006,0c-5.1534-0.0606-9.481-3.8853-10.1255-8.9981
			c-3.9048-31.2217-32.0869-33.3955-33.2744-33.4761c-5.2945-0.3422-9.441-4.6298-9.6426-9.9243
			c-0.1812-5.2939,3.664-9.8633,8.918-10.5678c32.4892-4.4288,33.8784-34.3619,33.9184-35.6504
			c0.2017-5.4151,4.5698-9.7627,9.9849-9.9439c6.3408,0.3418,10.0649,3.9253,10.5884,9.3198
			c3.0996,32.2281,28.5639,34.503,31.4428,34.6436c5.3545,0.2822,9.6421,4.6299,9.8233,9.9844
			c0.1611,5.355-3.7642,9.9443-9.0786,10.5683c-27.2159,3.1402-32.0669,33.899-32.2481,35.2076
			C461.1317,325.9033,456.784,329.6675,451.6708,329.6675L451.6708,329.6675z M437.6605,276.7661
			c5.1533,3.5225,10.085,8.1123,14.1514,13.9702c3.4218-5.3345,7.77-10.4477,13.205-14.7153
			c-4.8916-3.4019-9.5214-7.8506-13.4062-13.5674C448.0877,267.6875,443.4979,272.6391,437.6605,276.7661L437.6605,276.7661z"/>
	</g>
	<g>
		<path fill="#FFFFFF" d="M958.4413,233.2651c0,0-1.3487,39.8975-42.7754,45.5342c0,0,37.7832,2.4155,42.7754,42.4741
			c0,0,5.5361-39.8979,41.2871-43.9638C999.7284,277.3096,962.5477,275.9004,958.4413,233.2651z"/>
		<path fill="#4D4D4D" d="M958.4413,331.5796c-0.0196,0-0.0401,0-0.0801,0c-5.1533-0.0401-9.502-3.9053-10.1454-9.0381
			c-3.7842-30.2954-30.2755-33.2344-33.2744-33.4561c-5.2539-0.4228-9.3809-4.7104-9.542-9.9843
			c-0.1612-5.274,3.6631-9.8033,8.8769-10.5079c31.503-4.2875,33.7178-32.5297,33.8584-35.7304
			c0.2617-5.4151,4.6504-9.7432,10.0449-9.8638c6.3008,0.2817,10.0049,3.9053,10.5284,9.2798
			c3.0996,32.248,28.6045,34.583,31.5029,34.7441c5.334,0.2818,9.6221,4.6299,9.7832,9.9844
			c0.1406,5.355-3.7842,9.9443-9.0986,10.5484c-27.4971,3.1201-32.208,34.8046-32.2481,35.1264
			C967.9432,327.7954,963.5741,331.5796,958.4413,331.5796L958.4413,331.5796z M944.4706,278.6382
			c5.1543,3.5224,10.0664,8.1123,14.1318,13.9702c3.4228-5.3345,7.7705-10.4478,13.1846-14.6948
			c-4.8711-3.4024-9.5-7.8711-13.3858-13.5679C954.8788,269.5596,950.3083,274.5112,944.4706,278.6382L944.4706,278.6382z"/>
	</g>
</g>
<g>
	<g>
		<g>
			<g>
				<path fill="#FF9554" d="M837.9637,301.063v305.6523c0,22.586-50.3642,40.9033-112.5263,40.9033
					c-62.1407,0-112.5665-18.3173-112.5665-40.9033V304.9277L837.9637,301.063z"/>
				<path fill="#4D4D4D" d="M725.4374,657.9253c-61.0538,0-122.8731-17.5928-122.8731-51.21V304.9277
					c0-5.6162,4.5098-10.206,10.126-10.3066l225.0928-3.8648c2.4755,0.1006,5.4345,1.0264,7.4082,2.959
					c1.9726,1.9326,3.0791,4.5899,3.0791,7.3477v305.6523C848.2704,640.3325,786.4715,657.9253,725.4374,657.9253L725.4374,657.9253
					z M623.1776,315.0532v291.6621c0,12.1787,40.7831,30.5977,102.2598,30.5977c61.457,0,102.2207-18.419,102.2207-30.5977v-295.165
					L623.1776,315.0532L623.1776,315.0532z"/>
			</g>
			<g>
				<path fill="#FFFFFF" d="M837.9637,301.063c0,22.626-50.3642,40.9438-112.5263,40.9438
					c-62.1407,0-112.5665-18.3178-112.5665-40.9438c0-22.586,50.4258-40.9043,112.5665-40.9043
					C787.5995,260.1587,837.9637,278.477,837.9637,301.063z"/>
				<path fill="#4D4D4D" d="M725.4374,352.3135c-61.0538,0-122.8731-17.6138-122.8731-51.2505
					c0.0205-67.2139,245.7266-67.2344,245.7061,0C848.2704,334.6997,786.4715,352.3135,725.4374,352.3135L725.4374,352.3135z
					 M725.4374,270.4653c-61.4766,0-102.2598,18.419-102.2598,30.5977c0,12.1987,40.7831,30.6377,102.2598,30.6377
					c61.457,0,102.2207-18.439,102.2207-30.6377C827.6581,288.8843,786.8943,270.4653,725.4374,270.4653L725.4374,270.4653z"/>
			</g>
		</g>
		<g>
			<path fill="#4D4D4D" d="M725.4374,404.772c-61.0538,0-122.8731-17.6138-122.8731-51.2505
				c0-5.6968,4.6104-10.3067,10.3066-10.3067c5.6973,0,10.3067,4.6099,10.3067,10.3067c0,12.1987,40.7831,30.6377,102.2598,30.6377
				c61.457,0,102.2207-18.439,102.2207-30.6377c0-5.6968,4.6093-10.3067,10.3056-10.3067s10.3067,4.6099,10.3067,10.3067
				C848.2704,387.1582,786.4715,404.772,725.4374,404.772L725.4374,404.772z"/>
		</g>
		<g>
			<path fill="#4D4D4D" d="M725.4374,455.9018c-61.0538,0-122.8731-17.6132-122.8731-51.2504
				c0-5.6968,4.6104-10.3067,10.3066-10.3067c5.6973,0,10.3067,4.6099,10.3067,10.3067c0,12.1987,40.7831,30.6377,102.2598,30.6377
				c61.457,0,102.2207-18.439,102.2207-30.6377c0-5.6968,4.6093-10.3067,10.3056-10.3067s10.3067,4.6099,10.3067,10.3067
				C848.2704,438.2886,786.4715,455.9018,725.4374,455.9018L725.4374,455.9018z"/>
		</g>
		<g>
			<path fill="#4D4D4D" d="M725.4374,507.0723c-61.0538,0-122.8731-17.6138-122.8731-51.2505
				c0-5.6968,4.6104-10.3067,10.3066-10.3067c5.6973,0,10.3067,4.6099,10.3067,10.3067c0,12.1987,40.7831,30.6377,102.2598,30.6377
				c61.457,0,102.2207-18.439,102.2207-30.6377c0-5.6968,4.6093-10.3067,10.3056-10.3067s10.3067,4.6099,10.3067,10.3067
				C848.2704,489.4585,786.4715,507.0723,725.4374,507.0723L725.4374,507.0723z"/>
		</g>
		<g>
			<path fill="#4D4D4D" d="M725.4374,558.2026c-61.0538,0-122.8731-17.6142-122.8731-51.251
				c0-5.6967,4.6104-10.3066,10.3066-10.3066c5.6973,0,10.3067,4.6099,10.3067,10.3066c0,12.1988,40.7831,30.6377,102.2598,30.6377
				c61.457,0,102.2207-18.4389,102.2207-30.6377c0-5.6967,4.6093-10.3066,10.3056-10.3066s10.3067,4.6099,10.3067,10.3066
				C848.2704,540.5884,786.4715,558.2026,725.4374,558.2026L725.4374,558.2026z"/>
		</g>
		<g>
			<path fill="#4D4D4D" d="M725.4374,606.7964c-61.0538,0-122.8731-17.6143-122.8731-51.252
				c0-5.6963,4.6104-10.3056,10.3066-10.3056c5.6973,0,10.3067,4.6093,10.3067,10.3056c0,12.1992,40.7831,30.6387,102.2598,30.6387
				c61.457,0,102.2207-18.4395,102.2207-30.6387c0-5.6963,4.6093-10.3056,10.3056-10.3056s10.3067,4.6093,10.3067,10.3056
				C848.2704,589.1821,786.4715,606.7964,725.4374,606.7964L725.4374,606.7964z"/>
		</g>
	</g>
	<g>
		<path fill="#4D4D4D" d="M767.9725,213.0952c0-9.2197-3-16.8286-8.998-22.8276c-6.0391-5.9986-16.3057-11.5542-30.8194-16.6675
			c-22.9677-7.3677-40.1992-16.5869-51.6933-27.6987c-11.4942-11.1119-17.2315-26.2896-17.2315-45.4532
			c0-18.1172,5.4756-32.9326,16.4063-44.4472c10.9502-11.5542,25.9668-18.3985,45.0302-20.5728V0h25.8467v35.7505
			c18.8614,2.4961,33.4961,9.9844,43.9033,22.4248c10.4073,12.4804,15.5,28.9062,15.2784,49.2778l-0.4825,0.8052h-38.207
			c0-12.561-3.039-22.5049-9.0986-29.8325c-6.0791-7.3272-14.5733-10.9908-25.5244-10.9908c-11.4942,0-19.9893,2.9791-25.5254,8.857
			c-5.5352,5.9184-8.293,13.8496-8.293,23.834c0,9.2998,2.8789,16.7885,8.6152,22.4248
			c5.7579,5.6362,16.3653,11.313,31.8663,17.0703c22.9677,7.4883,40.1181,16.748,51.4521,27.8193
			c11.3125,11.0313,16.9893,26.169,16.9893,45.3325c0,18.7613-5.7373,33.6973-17.1709,44.8897
			c-11.4336,11.1518-27.0948,17.7549-47.043,19.8081v31.7246h-25.8477v-31.564c-19.5058-1.9321-35.5898-8.8169-48.1904-20.6533
			c-12.6416-11.7959-18.7412-29.188-18.2978-52.1763l0.3222-0.8056h38.2061c0,15.0576,3.7842,25.8066,11.373,32.208
			c7.5889,6.3613,17.1905,9.582,28.7862,9.582c12.3398,0,21.8203-2.9389,28.4433-8.7768
			C764.6708,231.1313,767.9725,223.2002,767.9725,213.0952z"/>
	</g>
</g>
<g>
	<g>
		<g>
			<polygon fill="#5FD4AF" points="103.9466,799.8413 344.8617,916.1929 783.9549,736.8755 549.6229,632.1597 233.5833,644.0766 			
				"/>
			<path fill="#4D4D4D" d="M344.8617,926.4995c-1.5298,0-3.0601-0.3428-4.4893-1.0273L99.4579,809.1216
				c-2.8584-1.3682-4.9117-4.0059-5.5762-7.1065c-0.6841-3.0996,0.1211-6.3203,2.1338-8.7754l129.6367-155.7656
				c1.8721-2.2344,4.6099-3.584,7.5488-3.7041l316.0391-11.917c1.6113-0.0605,3.1406,0.2617,4.5898,0.9063L788.162,727.4741
				c3.7646,1.6719,6.1601,5.4356,6.0996,9.5625c-0.0606,4.127-2.5967,7.8301-6.4004,9.3809L348.7669,925.7339
				C347.4984,926.2378,346.1903,926.4995,344.8617,926.4995L344.8617,926.4995z M120.3124,796.2983L345.204,904.9194
				l412.5419-168.4668l-210.1357-93.9062l-309.0547,11.6552L120.3124,796.2983L120.3124,796.2983z"/>
		</g>
		<g>
			
				<rect x="41.8743" y="458.5978" transform="matrix(0.9359 -0.3521 0.3521 0.9359 -190.3794 136.4776)" fill="#5FD4AF" width="476.1769" height="265.9197"/>
			<path fill="#4D4D4D" d="M103.9466,810.1479c-4.167,0-8.0923-2.5361-9.6421-6.6826L0.66,554.5796
				c-0.9663-2.5567-0.8652-5.3955,0.2617-7.8711c1.1275-2.4961,3.2007-4.4297,5.7574-5.3945l445.6762-167.6832
				c5.2739-2.0532,11.273,0.6646,13.2656,6.0191l93.6446,248.8867c0.9658,2.5566,0.8652,5.3945-0.2617,7.8711
				c-1.127,2.4962-3.2012,4.4277-5.7579,5.3945L107.5702,809.4839C106.3827,809.9468,105.1546,810.1479,103.9466,810.1479
				L103.9466,810.1479z M23.5882,556.9741l86.3775,229.6016l426.372-160.4356l-86.3779-229.601L23.5882,556.9741L23.5882,556.9741z"
				/>
		</g>
		<g>
			<polygon fill="#FFFFFF" points="103.9466,799.8413 215.0638,585.3374 669.5565,413.75 553.6092,631.7163 			"/>
			<path fill="#4D4D4D" d="M103.9466,810.1479c-2.8984,0-5.7168-1.2275-7.7094-3.4619c-2.8384-3.2002-3.4024-7.79-1.4497-11.5947
				l111.1171-214.5039c1.1675-2.2559,3.1402-3.9863,5.5157-4.8926l454.4936-171.5869c4.0059-1.4697,8.5352-0.4028,11.3731,2.8384
				c2.8379,3.2207,3.3818,7.8506,1.3691,11.6347L562.7069,636.5483c-1.1875,2.2344-3.1397,3.9453-5.4951,4.8301l-449.6617,168.125
				C106.3827,809.9272,105.1546,810.1479,103.9466,810.1479L103.9466,810.1479z M222.391,593.5913l-96.9859,187.2275
				l420.9366-157.3955l101.2734-190.3686L222.391,593.5913L222.391,593.5913z"/>
		</g>
		<g>
			<path fill="#4D4D4D" d="M238.8778,632.4018c-4.127,0-8.0117-2.4961-9.6021-6.583c-2.0737-5.2939,0.5635-11.2724,5.878-13.3261
				l355.4741-138.1314c5.2139-2.0737,11.2529,0.5435,13.3252,5.8779c2.0742,5.294-0.5625,11.2725-5.877,13.3257L242.6014,631.6968
				C241.3939,632.1792,240.1258,632.4018,238.8778,632.4018L238.8778,632.4018z"/>
		</g>
		<g>
			<path fill="#4D4D4D" d="M72.9466,587.27c-4.1264,0-8.0317-2.4961-9.602-6.5829c-2.0733-5.2939,0.5639-11.2725,5.8779-13.3262
				L424.6766,429.27c5.2944-2.0532,11.293,0.564,13.3262,5.8779c2.0732,5.2945-0.564,11.273-5.8779,13.3262L76.6708,586.5659
				C75.4427,587.0483,74.1947,587.27,72.9466,587.27L72.9466,587.27z"/>
		</g>
	</g>
	<g>
		<g>
			<path fill="#FF9554" d="M481.8055,726.9311v51.17c0,22.5859-50.3652,40.9043-112.5063,40.9043
				c-62.1612,0-112.5464-18.3184-112.5464-40.9043v-47.3457L481.8055,726.9311z"/>
			<path fill="#4D4D4D" d="M369.2992,829.312c-61.0537,0-122.8526-17.5938-122.8526-51.2109v-47.3457
				c0-5.6153,4.5088-10.2051,10.125-10.3066l225.0528-3.8242c2.4155-0.1602,5.435,1.0273,7.4077,2.9589
				c1.9726,1.9326,3.0796,4.5898,3.0796,7.3477v51.17C492.1117,811.7183,430.3333,829.312,369.2992,829.312L369.2992,829.312z
				 M267.0594,740.8813v37.2198c0,12.1797,40.7832,30.5976,102.2398,30.5976c61.4365,0,102.1997-18.4179,102.1997-30.5976v-40.6817
				L267.0594,740.8813L267.0594,740.8813z"/>
		</g>
		<g>
			<path fill="#FF9554" d="M481.8055,726.9311c0,22.626-50.3652,40.9043-112.5063,40.9043
				c-62.1612,0-112.5464-18.2783-112.5464-40.9043c0-22.5859,50.3852-40.9443,112.5464-40.9443
				C431.4403,685.9868,481.8055,704.3452,481.8055,726.9311z"/>
			<path fill="#4D4D4D" d="M369.2992,778.1421c-61.0537,0-122.8526-17.5938-122.8526-51.211
				c0.02-67.2539,245.6855-67.2734,245.6651,0C492.1117,760.5483,430.3333,778.1421,369.2992,778.1421L369.2992,778.1421z
				 M369.2992,696.2934c-61.4566,0-102.2398,18.4385-102.2398,30.6377c0,12.1788,40.7832,30.5977,102.2398,30.5977
				c61.4365,0,102.1997-18.4189,102.1997-30.5977C471.4989,714.7319,430.7357,696.2934,369.2992,696.2934L369.2992,696.2934z"/>
		</g>
	</g>
</g>
</svg>
