<?xml version="1.0" encoding="UTF-8"?>
<svg xmlns="http://www.w3.org/2000/svg" xmlns:xlink="http://www.w3.org/1999/xlink" width="24px" height="24px" viewBox="0 0 24 26" version="1.1">
<g id="surface1">
<path style=" stroke:none;fill-rule:evenodd;fill:rgb(0%,0%,0%);fill-opacity:1;" d="M 8.15625 11.285156 C 8.1875 11.296875 8.214844 11.316406 8.234375 11.339844 L 9.179688 12.429688 C 9.554688 12.867188 9.953125 13.3125 10.445312 13.640625 C 10.917969 13.957031 11.496094 14.171875 12.257812 14.171875 C 13.082031 14.175781 13.6875 13.953125 14.175781 13.617188 C 14.683594 13.269531 15.085938 12.796875 15.480469 12.324219 L 15.996094 11.707031 C 16.058594 11.632812 16.082031 11.609375 16.105469 11.582031 C 16.171875 11.507812 16.242188 11.425781 16.308594 11.335938 C 16.328125 11.316406 16.351562 11.296875 16.378906 11.28125 C 16.464844 11.007812 16.527344 10.722656 16.570312 10.421875 C 16.71875 9.445312 16.722656 8.6875 16.28125 7.785156 C 15.898438 7.011719 15.359375 6.609375 14.777344 6.320312 C 15.410156 7.023438 15.929688 7.703125 15.792969 8.265625 C 15.023438 7.421875 14.226562 6.683594 13.398438 6.074219 C 11.675781 5.1875 10.660156 3.984375 10.210938 2.53125 C 7.652344 5.074219 7.210938 8.050781 8.15625 11.285156 Z M 18.375 17.757812 C 17.925781 16.855469 17.390625 16.050781 16.789062 15.292969 C 16.628906 15.125 16.316406 14.851562 15.96875 14.554688 C 15.601562 14.234375 15.203125 13.886719 14.910156 13.597656 C 14.792969 13.703125 14.664062 13.800781 14.53125 13.890625 C 13.949219 14.285156 13.234375 14.546875 12.261719 14.546875 C 11.347656 14.542969 10.660156 14.292969 10.097656 13.917969 C 9.84375 13.75 9.617188 13.558594 9.410156 13.355469 C 9.085938 13.652344 8.65625 14.003906 8.257812 14.332031 C 7.757812 14.746094 7.300781 15.121094 7.214844 15.242188 C 7.203125 15.253906 7.195312 15.269531 7.179688 15.277344 C 6.574219 16.039062 6.039062 16.855469 5.585938 17.761719 L 7.523438 17.714844 L 8.34375 19.066406 L 2.851562 19.066406 C 2.386719 19.066406 2.007812 19.5 2.078125 20.03125 L 2.863281 25.957031 C 2.292969 25.960938 1.742188 25.96875 1.207031 25.976562 C 0.0664062 25.996094 -0.0507812 26.078125 0.0703125 24.460938 C 1.601562 17.242188 1.15625 16.925781 7.144531 14.589844 C 7.355469 14.402344 7.632812 14.175781 7.925781 13.933594 C 8.324219 13.605469 8.753906 13.253906 9.050781 12.984375 C 8.945312 12.867188 8.84375 12.75 8.738281 12.632812 L 7.933594 11.699219 L 7.332031 11.714844 L 6.191406 11.746094 C 5.210938 10.621094 5.273438 8.210938 5.367188 6.816406 C 5.824219 4.019531 6.910156 2 8.683594 0.839844 C 9.882812 0.0429688 10.597656 0.00390625 12 0 C 13.222656 0 13.972656 -0.0273438 15.015625 0.65625 C 18.417969 2.886719 19.472656 8.144531 17.808594 11.691406 L 16.621094 11.691406 C 16.59375 11.722656 16.570312 11.75 16.542969 11.777344 L 16.4375 11.902344 L 15.921875 12.519531 C 15.714844 12.765625 15.507812 13.011719 15.28125 13.246094 C 15.566406 13.523438 15.949219 13.859375 16.304688 14.167969 C 16.472656 14.3125 16.632812 14.453125 16.777344 14.582031 C 22.097656 16.691406 23.265625 17.917969 23.914062 24.746094 C 24.035156 26.007812 24.023438 25.953125 22.808594 25.976562 C 22.265625 25.988281 21.707031 25.996094 21.128906 26.003906 L 21.921875 20.03125 C 21.992188 19.5 21.613281 19.066406 21.148438 19.066406 L 15.617188 19.066406 L 16.4375 17.714844 Z M 11.910156 22.660156 C 12.554688 22.660156 13.074219 23.179688 13.074219 23.816406 C 13.074219 24.457031 12.550781 24.972656 11.910156 24.972656 C 11.269531 24.972656 10.75 24.453125 10.75 23.816406 C 10.75 23.179688 11.269531 22.660156 11.910156 22.660156 Z M 10.664062 19.0625 L 11.359375 16.667969 L 10.925781 16.195312 C 10.730469 15.910156 10.6875 15.664062 10.796875 15.449219 C 11.03125 14.988281 11.515625 15.074219 11.96875 15.074219 C 12.441406 15.074219 13.03125 14.984375 13.179688 15.574219 C 13.226562 15.773438 13.167969 15.980469 13.027344 16.191406 L 12.59375 16.664062 L 13.289062 19.0625 Z M 10.664062 19.0625 "/>
</g>
</svg>
