<?xml version="1.0" encoding="utf-8"?>
<!-- Generator: Adobe Illustrator 17.1.0, SVG Export Plug-In . SVG Version: 6.00 Build 0)  -->
<!DOCTYPE svg PUBLIC "-//W3C//DTD SVG 1.1//EN" "http://www.w3.org/Graphics/SVG/1.1/DTD/svg11.dtd">
<svg version="1.1" id="document-checkmark" xmlns="http://www.w3.org/2000/svg" xmlns:xlink="http://www.w3.org/1999/xlink" x="0px"
	 y="0px" viewBox="0 0 1010.0024 981.0195" enable-background="new 0 0 1010.0024 981.0195" xml:space="preserve">
<g>
	<g>
		<polyline fill="#FF9554" points="710.1607,186.5146 710.1607,886.2303 12.9488,886.2303 12.9488,13.5776 517.7491,13.5776 		"/>
		<path fill="#4D4D4D" d="M710.1607,899.1786H12.9488C5.7915,899.1786,0,893.3867,0,886.2303V13.5776
			C0,6.4199,5.7915,0.6284,12.9488,0.6284h504.8003c7.1572,0,12.9487,5.7915,12.9487,12.9492
			c0,7.1572-5.7915,12.9487-12.9487,12.9487H25.8975v846.7549h671.314V186.5146c0-7.1572,5.792-12.9487,12.9492-12.9487
			c7.1572,0,12.9492,5.7915,12.9492,12.9487v699.7158C723.1099,893.3867,717.3179,899.1786,710.1607,899.1786L710.1607,899.1786z"/>
	</g>
	<g>
		<path fill="#4D4D4D" d="M621.3404,300.3222H88.5171c-7.1572,0-12.9487-5.7915-12.9487-12.9487
			c0-7.1573,5.7915-12.9488,12.9487-12.9488h532.8233c7.1562,0,12.9482,5.7915,12.9482,12.9488
			C634.2886,294.5307,628.4966,300.3222,621.3404,300.3222L621.3404,300.3222z"/>
	</g>
	<g>
		<path fill="#4D4D4D" d="M621.3404,395.0102H88.5171c-7.1572,0-12.9487-5.7915-12.9487-12.9487
			c0-7.1573,5.7915-12.9488,12.9487-12.9488h532.8233c7.1562,0,12.9482,5.7915,12.9482,12.9488
			C634.2886,389.2187,628.4966,395.0102,621.3404,395.0102L621.3404,395.0102z"/>
	</g>
	<g>
		<path fill="#4D4D4D" d="M621.3404,495.6669H88.5171c-7.1572,0-12.9487-5.7915-12.9487-12.9492
			c0-7.1572,5.7915-12.9487,12.9487-12.9487h532.8233c7.1562,0,12.9482,5.7915,12.9482,12.9487
			C634.2886,489.8754,628.4966,495.6669,621.3404,495.6669L621.3404,495.6669z"/>
	</g>
	<g>
		<path fill="#4D4D4D" d="M621.3404,590.3808H88.5171c-7.1572,0-12.9487-5.792-12.9487-12.9492
			c0-7.1573,5.7915-12.9492,12.9487-12.9492h532.8233c7.1562,0,12.9482,5.7919,12.9482,12.9492
			C634.2886,584.5888,628.4966,590.3808,621.3404,590.3808L621.3404,590.3808z"/>
	</g>
	<g>
		<path fill="#4D4D4D" d="M621.3404,696.9296H88.5171c-7.1572,0-12.9487-5.791-12.9487-12.9492
			c0-7.1562,5.7915-12.9482,12.9487-12.9482h532.8233c7.1562,0,12.9482,5.792,12.9482,12.9482
			C634.2886,691.1385,628.4966,696.9296,621.3404,696.9296L621.3404,696.9296z"/>
	</g>
	<g>
		<path fill="#4D4D4D" d="M621.3404,791.6933H88.5171c-7.1572,0-12.9487-5.791-12.9487-12.9482
			c0-7.1573,5.7915-12.9483,12.9487-12.9483h532.8233c7.1562,0,12.9482,5.791,12.9482,12.9483
			C634.2886,785.9023,628.4966,791.6933,621.3404,791.6933L621.3404,791.6933z"/>
	</g>
	<g>
		<polygon fill="#FFFFFF" points="705.7095,179.7368 531.4068,12.9701 531.4068,180.5458 		"/>
		<path fill="#4D4D4D" d="M531.4068,193.4946c-3.4151,0-6.7027-1.3658-9.1304-3.7681c-2.4531-2.4282-3.8188-5.7412-3.8188-9.1807
			V12.9701c0-5.1845,3.0854-9.8632,7.8652-11.9116c4.7549-2.0737,10.2685-1.0371,14.037,2.5542l174.3027,166.7661
			c3.8184,3.6421,5.0332,9.2564,3.085,14.1631c-1.9727,4.8809-6.7021,8.1182-11.9872,8.1436l-174.3027,0.8091
			C531.4576,193.4946,531.4322,193.4946,531.4068,193.4946L531.4068,193.4946z M544.356,43.2685v124.2778l129.2344-0.6069
			L544.356,43.2685L544.356,43.2685z"/>
	</g>
	<g>
		<path fill="#4D4D4D" d="M449.667,110.9208H88.5171c-7.1572,0-12.9487-5.7915-12.9487-12.9487
			c0-7.1572,5.7915-12.9487,12.9487-12.9487H449.667c7.1573,0,12.9488,5.7915,12.9488,12.9487
			C462.6158,105.1293,456.8243,110.9208,449.667,110.9208L449.667,110.9208z"/>
	</g>
	<g>
		<path fill="#4D4D4D" d="M449.667,199.6909H88.5171c-7.1572,0-12.9487-5.7916-12.9487-12.9488
			c0-7.1572,5.7915-12.9487,12.9487-12.9487H449.667c7.1573,0,12.9488,5.7915,12.9488,12.9487
			C462.6158,193.8993,456.8243,199.6909,449.667,199.6909L449.667,199.6909z"/>
	</g>
</g>
<g>
	<g>
		<polyline fill="#FFFFFF" points="851.5347,268.3041 851.5347,968.0702 154.273,968.0702 154.273,95.3925 659.1744,95.3925 		"/>
		<path fill="#4D4D4D" d="M851.5347,981.0195H154.273c-7.1577,0-12.9492-5.792-12.9492-12.9493V95.3925
			c0-7.1572,5.7915-12.9487,12.9492-12.9487h504.9014c7.1582,0,12.9492,5.7915,12.9492,12.9487
			c0,7.1572-5.791,12.9487-12.9492,12.9487H167.2217V955.121h671.3638V268.3041c0-7.1572,5.791-12.9487,12.9492-12.9487
			c7.1563,0,12.9492,5.7915,12.9492,12.9487v699.7661C864.4839,975.2275,858.691,981.0195,851.5347,981.0195L851.5347,981.0195z"/>
	</g>
	<g>
		<path fill="#4D4D4D" d="M762.6646,382.1371H229.8662c-7.1572,0-12.9487-5.7915-12.9487-12.9487s5.7915-12.9487,12.9487-12.9487
			h532.7984c7.1553,0,12.9482,5.7915,12.9482,12.9487S769.8199,382.1371,762.6646,382.1371L762.6646,382.1371z"/>
	</g>
	<g>
		<path fill="#4D4D4D" d="M762.6646,476.9013H229.8662c-7.1572,0-12.9487-5.7915-12.9487-12.9492
			c0-7.1572,5.7915-12.9487,12.9487-12.9487h532.7984c7.1553,0,12.9482,5.7915,12.9482,12.9487
			C775.6128,471.1098,769.8199,476.9013,762.6646,476.9013L762.6646,476.9013z"/>
	</g>
	<g>
		<path fill="#4D4D4D" d="M762.6646,577.4824H229.8662c-7.1572,0-12.9487-5.7911-12.9487-12.9493
			c0-7.1562,5.7915-12.9482,12.9487-12.9482h532.7984c7.1553,0,12.9482,5.792,12.9482,12.9482
			C775.6128,571.6913,769.8199,577.4824,762.6646,577.4824L762.6646,577.4824z"/>
	</g>
	<g>
		<path fill="#4D4D4D" d="M762.6646,672.2714H229.8662c-7.1572,0-12.9487-5.791-12.9487-12.9492
			c0-7.1563,5.7915-12.9482,12.9487-12.9482h532.7984c7.1553,0,12.9482,5.7919,12.9482,12.9482
			C775.6128,666.4803,769.8199,672.2714,762.6646,672.2714L762.6646,672.2714z"/>
	</g>
	<g>
		<path fill="#4D4D4D" d="M762.6646,778.8202H229.8662c-7.1572,0-12.9487-5.791-12.9487-12.9482
			c0-7.1572,5.7915-12.9482,12.9487-12.9482h532.7984c7.1553,0,12.9482,5.791,12.9482,12.9482
			C775.6128,773.0292,769.8199,778.8202,762.6646,778.8202L762.6646,778.8202z"/>
	</g>
	<g>
		<path fill="#4D4D4D" d="M762.6646,873.5341H229.8662c-7.1572,0-12.9487-5.792-12.9487-12.9482
			c0-7.1582,5.7915-12.9492,12.9487-12.9492h532.7984c7.1553,0,12.9482,5.791,12.9482,12.9492
			C775.6128,867.7421,769.8199,873.5341,762.6646,873.5341L762.6646,873.5341z"/>
	</g>
	<g>
		<polygon fill="#FFFFFF" points="847.0835,261.5517 672.731,94.7856 672.731,262.3359 		"/>
		<path fill="#4D4D4D" d="M672.731,275.2846c-3.4141,0-6.7031-1.3657-9.1309-3.7686c-2.4531-2.4277-3.8183-5.7407-3.8183-9.1801
			V94.7856c0-5.1846,3.0859-9.8633,7.8652-11.9121c4.7549-2.0738,10.2676-1.0367,14.0371,2.5547l174.3526,166.7661
			c3.8183,3.6416,5.0312,9.2563,3.0839,14.1626c-1.9726,4.8808-6.7011,8.1181-11.9863,8.1435l-174.3525,0.7842
			C672.7818,275.2846,672.7564,275.2846,672.731,275.2846L672.731,275.2846z M685.6792,125.0834v124.253l129.2852-0.5816
			L685.6792,125.0834L685.6792,125.0834z"/>
	</g>
	<g>
		<path fill="#4D4D4D" d="M590.9908,192.6855H229.8662c-7.1572,0-12.9487-5.7915-12.9487-12.9487
			c0-7.1573,5.7915-12.9488,12.9487-12.9488h361.1246c7.1582,0,12.9492,5.7915,12.9492,12.9488
			C603.94,186.894,598.149,192.6855,590.9908,192.6855L590.9908,192.6855z"/>
	</g>
	<g>
		<path fill="#4D4D4D" d="M590.9908,281.5566H229.8662c-7.1572,0-12.9487-5.7915-12.9487-12.9488
			c0-7.1572,5.7915-12.9487,12.9487-12.9487h361.1246c7.1582,0,12.9492,5.7915,12.9492,12.9487
			C603.94,275.7651,598.149,281.5566,590.9908,281.5566L590.9908,281.5566z"/>
	</g>
</g>
<g>
	<polygon fill="#5FD4AF" points="632.0122,505.5551 884.7671,134.9218 997.0562,134.9218 699.438,584.1591 564.5884,584.1591 
		452.2974,337.0439 553.4595,337.0439 	"/>
	<path fill="#4D4D4D" d="M699.438,597.1074H564.5884c-5.084,0-9.6875-2.959-11.7861-7.587L440.5118,342.4057
		c-1.8208-4.021-1.4922-8.6748,0.9106-12.3672c2.377-3.7178,6.4741-5.9434,10.875-5.9434h101.1621
		c5.0332,0,9.6113,2.9087,11.7354,7.4864l68.9423,147.874l239.9307-351.8174c2.4024-3.541,6.4238-5.665,10.6992-5.665h112.2891
		c4.7794,0,9.1562,2.6299,11.4062,6.8281c2.25,4.1982,2.0235,9.3071-0.6074,13.2778L710.2369,591.3163
		C707.8345,594.9335,703.7876,597.1074,699.438,597.1074L699.438,597.1074z M572.9341,571.2109h119.5488l280.4717-423.3404h-81.334
		L642.7105,512.8388c-2.6299,3.8696-7.5361,5.8677-11.7354,5.6147c-4.6523-0.3793-8.7246-3.2119-10.6972-7.4355l-75.0625-161.0249
		h-72.812L572.9341,571.2109L572.9341,571.2109z"/>
</g>
</svg>
