<?xml version="1.0" encoding="utf-8"?>
<!-- Generator: Adobe Illustrator 17.1.0, SVG Export Plug-In . SVG Version: 6.00 Build 0)  -->
<!DOCTYPE svg PUBLIC "-//W3C//DTD SVG 1.1//EN" "http://www.w3.org/Graphics/SVG/1.1/DTD/svg11.dtd">
<svg version="1.1" id="file-folder-pencil" xmlns="http://www.w3.org/2000/svg" xmlns:xlink="http://www.w3.org/1999/xlink" x="0px"
	 y="0px" viewBox="0 0 1010.0017 926.9296" enable-background="new 0 0 1010.0017 926.9296" xml:space="preserve">
<g>
	<path fill="#CCCCCC" d="M77.6409,330.7545l452.0513-217.3633L866.244,690.2695L404.5653,906.3896c0,0-40.3726,21.5264-53.8584,0
		c-19.4146-31.0459,0,0,0,0L77.6409,330.7545z"/>
	<path fill="#4D4D4D" d="M370.6683,926.9296c-16.5635,0-25.0537-7.997-29.2666-14.708c-0.0108-0.0214-0.0215-0.0429-0.043-0.0644
		l-1.0723-1.7373c-0.332-0.5352-0.6533-1.0283-0.9648-1.543l-6.5391-10.4414l0.1504-0.1074
		c-2.2729-4.1387-2.6484-6.0039-1.9404-8.0401L67.7244,335.4503c-2.5942-5.4458-0.2895-11.9639,5.1568-14.5796l452.0512-217.3638
		c5.1885-2.5298,11.3633-0.5786,14.2364,4.3525l336.5517,576.8788c1.5547,2.6582,1.919,5.8526,1.0078,8.7901
		c-0.9218,2.959-3.0341,5.3818-5.831,6.6894L409.2181,916.3378C407.6419,917.1953,388.8387,926.9296,370.6683,926.9296
		L370.6683,926.9296z M92.2415,335.9218l268.3819,565.7725c0.1391,0.0859,2.1543,3.2803,10.0449,3.2803
		c10.7412,0,24.3882-5.9825,28.7514-8.2764l451.2911-211.2744L525.3182,127.6704L92.2415,335.9218L92.2415,335.9218z
		 M411.3299,724.5098c-6.0679,0-10.9775-4.9316-10.9775-10.9775c0-6.0674,4.9096-10.9776,10.9775-10.9776
		c6.0571,0,10.9775,4.9102,10.9775,10.9776C422.3074,719.5781,417.387,724.5098,411.3299,724.5098L411.3299,724.5098z"/>
</g>
<g>
	<g>
		<g>
			<polyline fill="#FFFFFF" points="767.0604,107.1304 999.0252,542.5878 565.0477,773.6298 275.8153,230.6275 589.9403,63.3492 			
				"/>
			<path fill="#4D4D4D" d="M565.0584,784.6074c-3.9238,0-7.7295-2.1006-9.7012-5.8106L266.1243,235.7944
				c-1.3618-2.5723-1.6621-5.5742-0.8042-8.3613c0.8472-2.7871,2.7657-5.1246,5.3384-6.4966L584.784,53.6578
				c5.3496-2.8731,11.9961-0.836,14.8477,4.5239c2.8515,5.3599,0.8144,12.0063-4.5352,14.8579L290.6624,235.1518l278.9097,523.6411
				l414.6055-220.7295L757.369,112.2974c-2.8516-5.3603-0.8252-12.0068,4.5351-14.8584c5.3389-2.8515,12.0069-0.8359,14.8477,4.5244
				l231.9637,435.4566c1.3623,2.5732,1.6622,5.5742,0.8047,8.3623c-0.8466,2.7871-2.7656,5.124-5.3388,6.4961L570.2039,783.3212
				C568.5643,784.2003,566.7957,784.6074,565.0584,784.6074L565.0584,784.6074z"/>
		</g>
		<g>
			<path fill="#4D4D4D" d="M413.5814,386.9716c-3.8809,0-7.6328-2.0581-9.627-5.6816c-2.9267-5.3174-0.9863-12.0068,4.3311-14.9224
				l164.5561-90.4365c5.3174-2.916,11.9961-0.9648,14.9014,4.3311c2.9267,5.3173,0.9863,12.0068-4.3311,14.9228l-164.5561,90.4356
				C417.1829,386.5429,415.3714,386.9716,413.5814,386.9716L413.5814,386.9716z"/>
		</g>
		<g>
			<path fill="#4D4D4D" d="M444.9808,445.8471c-3.8809,0-7.6328-2.0586-9.6377-5.7031c-2.916-5.3174-0.9756-11.9854,4.3418-14.9014
				l164.5884-90.3496c5.3388-2.9375,11.9961-0.9648,14.9121,4.3521c2.916,5.3174,0.9756,11.9853-4.3418,14.9009l-164.5884,90.3505
				C448.5721,445.4185,446.7601,445.8471,444.9808,445.8471L444.9808,445.8471z"/>
		</g>
		<g>
			<path fill="#4D4D4D" d="M478.3529,508.4966c-3.8809,0-7.6329-2.0586-9.6377-5.7031c-2.9161-5.2959-0.9756-11.9853,4.3418-14.9014
				l164.5776-90.3505c5.3603-2.9156,11.9853-0.9644,14.912,4.3525c2.916,5.2959,0.9756,11.9854-4.3418,14.9014l-164.5776,90.3506
				C481.9442,508.0678,480.1321,508.4966,478.3529,508.4966L478.3529,508.4966z"/>
		</g>
		<g>
			<path fill="#4D4D4D" d="M509.7308,567.4581c-3.9234,0-7.729-2.1006-9.7017-5.8096c-2.8515-5.3604-0.8257-12.0068,4.5347-14.8594
				l331.6313-176.6264c5.3282-2.8731,11.9961-0.8365,14.8477,4.5234c2.8516,5.3603,0.8251,12.0068-4.5342,14.8584L514.8768,566.1718
				C513.2366,567.0507,511.4676,567.4581,509.7308,567.4581L509.7308,567.4581z"/>
		</g>
		<g>
			<path fill="#4D4D4D" d="M545.033,633.7089c-3.9238,0-7.7295-2.1005-9.7021-5.8095c-2.8516-5.3604-0.8145-12.0069,4.5351-14.8584
				l331.6202-176.4986c5.3281-2.8515,11.996-0.8359,14.8476,4.5235c2.8516,5.3603,0.8145,12.0068-4.5342,14.8584L550.1785,632.4229
				C548.5389,633.3018,546.7694,633.7089,545.033,633.7089L545.033,633.7089z"/>
		</g>
		<g>
			<path fill="#4D4D4D" d="M576.4647,692.6279c-3.9239,0-7.7295-2.1006-9.7012-5.8106c-2.8516-5.3603-0.8154-12.0068,4.5342-14.8584
				l331.5986-176.5415c5.3281-2.8515,12.0068-0.8144,14.8477,4.5245c2.8515,5.3603,0.8154,12.0068-4.5342,14.8583L581.6102,691.3419
				C579.9705,692.2208,578.202,692.6279,576.4647,692.6279L576.4647,692.6279z"/>
		</g>
		<g>
			<polygon fill="#FFFFFF" points="762.0438,104.4287 598.2596,58.4175 653.8543,162.6611 			"/>
			<path fill="#4D4D4D" d="M653.8543,173.6387c-1.0722,0-2.1328-0.1499-3.1728-0.4717c-2.7979-0.8364-5.1348-2.7661-6.5186-5.3383
				L588.5682,63.5845c-2.0694-3.8808-1.6192-8.6191,1.1367-12.0493c2.7441-3.4302,7.2783-4.8667,11.5234-3.688l163.7842,46.0117
				c4.3096,1.2217,7.4512,4.9097,7.9444,9.3692c0.4931,4.4385-1.7696,8.748-5.7139,10.8701l-108.1895,58.2324
				C657.4461,173.1884,655.6551,173.6387,653.8543,173.6387L653.8543,173.6387z M620.0428,75.9341l38.3144,71.8477l74.5479-40.1367
				L620.0428,75.9341L620.0428,75.9341z"/>
		</g>
		<g>
			<path fill="#4D4D4D" d="M350.8138,269.0918c-3.9234,0-7.729-2.1011-9.7017-5.8101c-2.8515-5.3604-0.8257-12.0068,4.5347-14.8584
				l224.686-119.6807c5.3389-2.873,12.0069-0.8364,14.8477,4.5235c2.8516,5.3603,0.8252,12.0068-4.5342,14.8584L355.9598,267.8051
				C354.3196,268.6845,352.5506,269.0918,350.8138,269.0918L350.8138,269.0918z"/>
		</g>
		<g>
			<path fill="#4D4D4D" d="M380.284,324.3658c-3.9233,0-7.729-2.1016-9.7017-5.8106c-2.8515-5.3603-0.8256-12.0068,4.5342-14.8584
				l224.7183-119.6806c5.3603-2.8731,12.0068-0.8365,14.8476,4.5234c2.8516,5.3604,0.8252,12.0068-4.5341,14.8584L385.43,323.0791
				C383.7894,323.958,382.0208,324.3658,380.284,324.3658L380.284,324.3658z"/>
		</g>
	</g>
	<g>
		<polygon fill="#FF9554" points="811.3348,326.8525 696.1785,385.5996 628.0828,252.4966 743.283,193.75 		"/>
		<path fill="#4D4D4D" d="M696.1883,396.5771c-3.9873,0-7.8359-2.187-9.7871-5.9819l-68.0947-133.1026
			c-1.3194-2.5947-1.5655-5.5962-0.6651-8.3833c0.9004-2.7661,2.8623-5.06,5.4571-6.3891l115.1992-58.7471
			c5.3926-2.7871,11.9961-0.6006,14.7617,4.7813l68.0527,133.1025c1.3184,2.5942,1.5645,5.5957,0.6641,8.3833
			c-0.9003,2.7656-2.8623,5.06-5.4561,6.3892l-115.1572,58.747C699.5653,396.1909,697.8612,396.5771,696.1883,396.5771
			L696.1883,396.5771z M642.866,257.2778l58.0938,113.5703l95.6025-48.7769l-58.0605-113.5703L642.866,257.2778L642.866,257.2778z"
			/>
	</g>
</g>
<g>
	<path fill="#5FD4AF" d="M30.2571,276.253L351.9612,10.9483l336.4556,576.9639L374.2484,846.957
		c-38.4209,34.9043-23.5415,59.4326-23.5415,59.4326L18.7864,341.1748C18.7864,341.1748-4.7555,303.1392,30.2571,276.253z"/>
	<path fill="#4D4D4D" d="M350.6854,917.3458c-2.605,0-5.1675-0.9219-7.1719-2.6582l0,0c-0.0107-0.0215-0.0215-0.0215-0.0322-0.0215
		c0,0,0-0.0215-0.0103-0.0215c0,0-0.0107,0-0.0215-0.0215h-0.0107c-0.0108,0-0.0108-0.0215-0.0215-0.0215
		c0,0,0.0962,0.0215-0.0322-0.0215c0-0.0214-0.0108-0.0214-0.0215-0.0214c0,0,0,0-0.0107-0.0215c0,0-0.0108,0-0.0215-0.0215l0,0
		c-0.0108,0-0.0215-0.0215-0.0323-0.0215l0,0c-0.7504-0.6855-1.4257-1.501-1.9834-2.4014
		c-0.0214-0.0644-0.0644-0.1288-0.1069-0.1924L9.3206,346.7281c-9.8198-15.8447-19.6719-53.1299,14.2471-79.1797L344.9715,2.4791
		c2.4976-2.0367,5.7461-2.8301,8.9194-2.337c3.1729,0.5577,5.9283,2.4874,7.5577,5.2745l336.4555,576.9643
		c2.7012,4.6524,1.6514,10.5703-2.5088,14.001L381.2274,855.4257c-29.7271,27.0362-21.5259,44.4678-20.9903,45.5176
		c0.9219,1.6299,1.3828,3.3877,1.4258,5.1465l0,0v0.0215l0,0c0,0.0215,0,0.0215,0,0.043l0,0c0,0.0214,0,0.0214,0,0.0214v0.0215
		c0,0,0,0,0,0.0215c0,0,0,0,0,0.0205l0,0c0,0.0215,0,0.0215,0,0.0215c0,0.0215,0,0.0215,0,0.0215v0.0215l0,0
		c0.0108,3.1729-1.3403,6.2822-3.8271,8.4052l0,0c-0.0108,0-0.0215,0.0215-0.0215,0.0215c-0.0108,0-0.0108,0-0.0108,0
		c-0.0102,0-0.0102,0.0215-0.021,0.0215c0.0108,0-0.0214,0.043-0.0214,0.0215c-0.0108,0-0.0108,0-0.0108,0
		c-0.0107,0.0215-0.0107,0.0215-0.0215,0.0215c-0.0107,0.0215-0.0107,0.0215-0.0215,0.0215c0,0,0.0323,0.0204-0.0214,0.0204
		c-0.0108,0-0.0108,0-0.0215,0.0215c0,0,0,0-0.0108,0c0,0-0.0107,0-0.0215,0.0214l0,0c-0.0107,0-0.0214,0.0215-0.0214,0.0215l0,0
		c-0.0108,0-0.0215,0.0215-0.0323,0.0215l0,0c-0.2465,0.1934-0.5039,0.3858-0.7822,0.5791l0,0c-0.0107,0-0.0215,0-0.0215,0
		c0,0.0215-0.0107,0.0215-0.0107,0.0215s-0.0108,0-0.0215,0c0,0,0,0-0.0107,0.0215c0,0-0.0108,0-0.0215,0l0,0
		c-0.0108,0.0215-0.0215,0.0215-0.0215,0.0215c-0.0108,0-0.0108,0-0.0108,0c-0.0107,0.0214-0.0107,0.0214-0.0214,0.0214h-0.0108
		c-0.0107,0-0.0107,0.0215-0.0107,0.0215c-0.0108,0-0.0108,0-0.0215,0h-0.0107c-0.0108,0.0215-0.0108,0.0215-0.0215,0.0215l0,0
		c-0.086,0.0645-0.1714,0.1074-0.2569,0.1709C354.5555,916.8525,352.6043,917.3458,350.6854,917.3458L350.6854,917.3458z
		 M348.9808,27.629L37.2464,284.7221c-26.3926,20.2823-10.9453,47.6621-9.1011,50.7281l314.146,534.9404
		c4.4063-9.4766,12.0069-20.1319,24.5708-31.5596l307.3711-253.4482L348.9808,27.629L348.9808,27.629z"/>
</g>
<g>
	<g>
		<path fill="#FFFFFF" d="M254.5892,483.5396c0,0,4.1484-98.8408-11.4922-103.6006c-15.6406-4.8027-65.9297,79.9737-65.9297,79.9737
			l24.3564,56.2597L254.5892,483.5396z"/>
		<path fill="#4D4D4D" d="M201.5237,527.1503c-1.104,0-2.2187-0.1718-3.3017-0.5146c-3.0342-0.9434-5.5103-3.1729-6.7754-6.1104
			l-24.3564-56.2602c-1.3936-3.2168-1.1573-6.9258,0.6328-9.9492c33.6718-56.7744,58.5752-85.5469,74.0019-85.5469
			c1.0933,0,3.5484,0.3643,4.5986,0.6855c6.4756,1.9512,23.7348,7.2256,19.2325,114.5352c-0.1504,3.666-2.1123,6.9902-5.2207,8.8984
			l-53.0655,32.6324C205.5228,526.5927,203.5286,527.1503,201.5237,527.1503L201.5237,527.1503z M189.4847,460.7271l17.0776,39.4502
			l37.2744-22.9199c1.0718-33.5117-0.5039-70.9463-4.6528-84.3252C228.4427,401.83,206.7659,432.2115,189.4847,460.7271
			L189.4847,460.7271z"/>
	</g>
	<g>
		<polygon fill="#FF9554" points="177.1673,459.9126 254.5892,483.5396 152.7679,817.1113 75.3465,793.4843 		"/>
		<path fill="#4D4D4D" d="M152.7679,828.0889c-1.061,0-2.1328-0.1494-3.2051-0.4717l-77.4219-23.6269
			c-2.7871-0.8574-5.1132-2.7871-6.4853-5.3389c-1.3721-2.5732-1.6621-5.5967-0.8042-8.3623l101.8208-333.5718
			c1.7583-5.8095,7.8691-9.0908,13.7007-7.3105l77.4214,23.6269c2.7871,0.8575,5.1138,2.7872,6.4858,5.3389
			c1.3726,2.5723,1.6616,5.5957,0.8042,8.3613L163.263,820.3066C161.8265,825.0449,157.4744,828.0889,152.7679,828.0889
			L152.7679,828.0889z M89.0472,786.1943l56.4311,17.2168l95.4102-312.5816l-56.4312-17.2168L89.0472,786.1943L89.0472,786.1943z"/>
	</g>
</g>
</svg>
