<?xml version="1.0" encoding="utf-8"?>
<!-- Generator: Adobe Illustrator 17.1.0, SVG Export Plug-In . SVG Version: 6.00 Build 0)  -->
<!DOCTYPE svg PUBLIC "-//W3C//DTD SVG 1.1//EN" "http://www.w3.org/Graphics/SVG/1.1/DTD/svg11.dtd">
<svg version="1.1" id="gears" xmlns="http://www.w3.org/2000/svg" xmlns:xlink="http://www.w3.org/1999/xlink" x="0px" y="0px"
	 viewBox="0 0 1009.9997 733.7847" enable-background="new 0 0 1009.9997 733.7847" xml:space="preserve">
<g>
	<g opacity="0.3">
		<path fill="#FFFFFF" d="M349.2793,158.5767c-104.188,0-188.6597,84.4814-188.6597,188.73
			c0,104.2084,84.4717,188.6889,188.6597,188.6889c104.1982,0,188.6895-84.4805,188.6895-188.6889
			C537.9688,243.0581,453.4775,158.5767,349.2793,158.5767z M349.2793,498.6968c-83.5757,0-151.3301-67.7949-151.3301-151.3901
			c0-83.6363,67.7544-151.4009,151.3301-151.4009c83.6162,0,151.3603,67.7646,151.3603,151.4009
			C500.6396,430.9019,432.8955,498.6968,349.2793,498.6968z"/>
	</g>
	<g>
		<g>
			<path fill="#FF9554" d="M685.293,397.9111V297.6885h-88.2451c-6.542-33.0015-19.5049-63.6983-37.5811-90.7417l62.4004-62.3799
				l-70.8945-70.8745l-62.6016,62.6719c-26.9732-17.8345-57.5693-30.6065-90.4502-37.0274V10.3062H297.6685v89.5542
				c-32.4483,6.7431-62.6617,19.7163-89.252,37.6308l-63.8193-63.7988l-70.8843,70.8745l64.272,64.272
				c-17.4317,26.5503-30.063,56.5625-36.4839,88.8496H10.3062v100.2226h91.3759c6.5215,32.146,19.1929,62.0572,36.6953,88.4263
				l-64.6645,64.6348l70.8843,70.9346L209,557.4937c26.4697,17.6738,56.4619,30.5566,88.6685,37.1786v90.6416h100.2524v-90.0782
				c32.6396-6.3203,62.9639-19.0214,89.8062-36.5947l63.2456,63.2656l70.8945-70.9346l-62.8027-62.7832
				c18.0957-26.8711,31.1601-57.4073,37.8828-90.2779H685.293z M349.2793,498.6968c-83.5757,0-151.3301-67.7949-151.3301-151.3901
				c0-83.6363,67.7544-151.4009,151.3301-151.4009c83.6162,0,151.3603,67.7646,151.3603,151.4009
				C500.6396,430.9019,432.8955,498.6968,349.2793,498.6968z"/>
			<path fill="#4D4D4D" d="M397.9209,695.6196H297.6685c-5.6963,0-10.3062-4.6103-10.3062-10.3056v-82.3789
				c-27.1743-6.5118-52.9897-17.3409-76.9531-32.2666l-58.5254,58.5255c-1.9321,1.9326-4.5493,3.0185-7.2866,3.0185l0,0
				c-2.7378,0-5.3545-1.0859-7.2867-3.0185l-70.8847-70.9346c-4.0254-4.0264-4.0254-10.5479,0-14.5742l58.7973-58.7764
				c-14.7246-23.792-25.4028-49.5273-31.8242-76.6919H10.3062C4.6099,408.2168,0,403.6074,0,397.9111V297.6885
				c0-5.6968,4.6099-10.3062,10.3062-10.3062h82.8813c6.3306-27.2143,16.959-53.0703,31.6733-77.0942l-58.435-58.4346
				c-1.9321-1.9326-3.0191-4.5493-3.0191-7.2866c0-2.7378,1.087-5.3545,3.0191-7.2866l70.8847-70.8745
				c4.0259-4.0259,10.5474-4.0259,14.5733,0l57.9111,57.8911c24.0142-15.0767,50.0308-26.0469,77.5674-32.6895V10.3062
				C287.3623,4.6094,291.9722,0,297.6685,0h100.2524c5.6968,0,10.3062,4.6094,10.3062,10.3062v80.6772
				c27.9189,6.3906,54.3183,17.2002,78.7045,32.2363l56.7539-56.8139c3.8448-3.855,10.709-3.875,14.5733,0l70.8945,70.8745
				c1.9326,1.9321,3.0196,4.5488,3.0196,7.2866c0,2.7373-1.087,5.354-3.0196,7.2866l-56.5128,56.5025
				c15.2481,24.4668,26.2285,50.9868,32.7305,79.0263h79.9219c5.6971,0,10.3066,4.6094,10.3066,10.3062v100.2226
				c0,5.6963-4.6094,10.3057-10.3066,10.3057h-80.0723c-6.6328,27.9097-17.6934,54.2788-32.9619,78.5942l56.8945,56.8741
				c4.0264,4.0263,4.0264,10.5479,0,14.5742l-70.8945,70.9346c-3.8643,3.8642-10.708,3.8642-14.5733,0l-57.4179-57.4385
				c-24.3565,14.8955-50.544,25.5742-78.0405,31.8437v81.7149C408.2271,691.0093,403.6177,695.6196,397.9209,695.6196
				L397.9209,695.6196z M307.9746,675.0073h79.6406v-79.7715c0-4.9316,3.5025-9.1787,8.3433-10.1152
				c30.6362-5.9375,59.6123-17.7431,86.1221-35.1045c4.0664-2.6671,9.4707-2.1143,12.9331,1.3389l55.959,55.9785l56.3203-56.3613
				l-55.5157-55.4961c-3.4824-3.4824-4.0156-8.957-1.2578-13.043c17.7442-26.3594,29.9727-55.4863,36.333-86.5854
				c0.9756-4.8008,5.2032-8.2427,10.0948-8.2427h78.04v-79.6104h-77.9394c-4.9219,0-9.1495-3.4721-10.1045-8.3032
				c-6.1895-31.2202-18.3184-60.498-36.0411-87.0181c-2.7382-4.0859-2.205-9.541,1.2774-13.0131l55.1133-55.0933l-56.3106-56.3008
				l-55.3247,55.3848c-3.4521,3.4824-8.8769,4.0058-12.9731,1.3086c-26.4497-17.4824-55.6265-29.4287-86.7359-35.5078
				c-4.8413-0.9458-8.3335-5.1831-8.3335-10.1148V20.6123h-79.6406v79.2481c0,4.8813-3.4321,9.0981-8.2129,10.0947
				c-30.727,6.3808-59.5215,18.5185-85.5884,36.081c-4.0761,2.7779-9.5415,2.2447-13.0439-1.2578l-56.5322-56.5122l-56.3111,56.3008
				l56.9854,56.9854c3.4521,3.4521,4.0058,8.8564,1.3286,12.9428c-17.1802,26.168-28.9458,54.8316-34.9946,85.2061
				c-0.9561,4.8213-5.1831,8.2934-10.1045,8.2934H20.6123v79.6104h81.0698c4.9014,0,9.1284,3.4521,10.1045,8.2529
				c6.1597,30.3643,17.9956,58.8877,35.1758,84.7832c2.7173,4.0869,2.1738,9.5205-1.2983,12.9834l-57.378,57.3477l56.3111,56.3613
				l57.1162-57.1269c3.4824-3.4717,8.9072-3.9952,13.0132-1.2872c26.0976,17.4317,54.7006,29.4278,85.0151,35.6582
				c4.7905,0.9864,8.2329,5.2032,8.2329,10.0948V675.0073L307.9746,675.0073z M349.2793,509.0034
				c-89.1313,0-161.6362-72.5351-161.6362-161.6967c0-89.1617,72.5049-161.7066,161.6362-161.7066
				c89.1416,0,161.6665,72.5449,161.6665,161.7066C510.9458,436.4683,438.4209,509.0034,349.2793,509.0034L349.2793,509.0034z
				 M349.2793,206.2119c-77.7583,0-141.0239,63.2959-141.0239,141.0948c0,77.7983,63.2656,141.0844,141.0239,141.0844
				c77.7788,0,141.0542-63.2861,141.0542-141.0844C490.3335,269.5078,427.0581,206.2119,349.2793,206.2119L349.2793,206.2119z"/>
		</g>
	</g>
	<g>
		<path fill="#5FD4AF" d="M457.9961,347.3067c0,60.0043-48.6616,108.7163-108.7168,108.7163
			c-60.0249,0-108.6665-48.712-108.6665-108.7163c0-60.0552,48.6416-108.7374,108.6665-108.7374
			C409.3345,238.5693,457.9961,287.2515,457.9961,347.3067z"/>
		<path fill="#4D4D4D" d="M349.2793,466.3296c-65.6006,0-118.9727-53.3926-118.9727-119.0229
			c0-65.6412,53.3721-119.0435,118.9727-119.0435c65.6309,0,119.0229,53.4023,119.0229,119.0435
			C468.3022,412.937,414.9102,466.3296,349.2793,466.3296L349.2793,466.3296z M349.2793,248.8755
			c-54.2378,0-98.3604,44.1528-98.3604,98.4312c0,54.2675,44.1226,98.4106,98.3604,98.4106
			c54.2681,0,98.4111-44.1431,98.4111-98.4106C447.6904,293.0283,403.5474,248.8755,349.2793,248.8755L349.2793,248.8755z"/>
	</g>
</g>
<g>
	<path fill="#5FD4AF" d="M956.25,527.522l43.4395-16.1436l-18.2979-49.2959l-43.6201,16.1631
		c-8.9375-14.4316-20.7129-27.1933-34.9844-37.4599l19.4649-42.4522l-47.7852-21.9307l-19.6465,42.7041
		c-16.9688-3.9052-34.1387-4.3481-50.8057-1.5903l-16.4248-44.4248l-49.3369,18.2774l16.6065,44.767
		c-14.1504,8.8164-26.7315,20.4102-36.836,34.3809l-43.4785-20.0088l-21.9814,47.8467l43.5595,19.9277
		c-3.8847,16.8477-4.3681,33.8163-1.832,50.2617l-44.9883,16.7071l18.2774,49.2763l44.8271-16.5663
		c8.7354,14.212,20.2295,26.8926,34.1387,37.1581l-19.8271,43.2178l47.826,21.8799l19.7072-42.9356
		c16.9882,4.126,34.1992,4.71,50.8055,2.2139l16.3047,43.9824l49.3565-18.2773l-16.1837-43.6602
		c14.5332-8.8964,27.4355-20.5918,37.7421-34.8027l42.21,19.3242l21.9004-47.7666l-42.0293-19.3232
		C958.4443,561.8023,958.9473,544.3491,956.25,527.522z M884.5908,575.5698c-15.0361,32.7305-53.7236,47.0616-86.4541,32.1055
		c-32.7295-15.0566-47.082-53.7852-32.0654-86.4336c15.0361-32.7305,53.7246-47.1016,86.4541-32.0859
		C885.2148,504.1724,899.5879,542.8608,884.5908,575.5698z"/>
	<path fill="#4D4D4D" d="M861.3623,733.7847c-4.1865,0-8.1221-2.5664-9.6621-6.7237l-13.4863-36.3632
		c-12.7725,1.1378-25.5537,0.6143-38.0244-1.6396l-16.2735,35.457c-2.375,5.1622-8.4746,7.4571-13.6582,5.0723l-47.8262-21.8808
		c-2.4863-1.1368-4.4179-3.2207-5.375-5.7774c-0.955-2.5664-0.8457-5.4043,0.293-7.8896l16.4453-35.8301
		c-9.7226-8.0918-18.2578-17.3819-25.5038-27.7373l-37.1387,13.7275c-5.3134,1.9727-11.2617-0.7549-13.2343-6.0888l-18.2775-49.2754
		c-1.9824-5.335,0.7451-11.2628,6.0791-13.2462l37.3389-13.8682c-1.1973-12.5303-0.7344-25.0811,1.3594-37.46l-36.1426-16.5361
		c-2.4854-1.1377-4.418-3.2207-5.3731-5.7871c-0.957-2.5566-0.8457-5.3945,0.2911-7.8809l21.9803-47.8466
		c1.1485-2.4864,3.2315-4.418,5.7979-5.3643c2.5556-0.9658,5.4053-0.8555,7.8799,0.3018l36.0214,16.5761
		c7.9913-9.7724,17.1905-18.3574,27.4864-25.6445l-13.7686-37.1274c-0.956-2.5664-0.8447-5.3951,0.2921-7.8809
		c1.1475-2.4858,3.2305-4.418,5.787-5.3643l49.336-18.2773c2.5566-0.9658,5.3945-0.8555,7.8906,0.3022
		c2.4863,1.1373,4.4082,3.2207,5.3545,5.7872l13.5674,36.685c12.7109-1.3286,25.4531-0.916,38.0332,1.2075l16.2539-35.3164
		c2.3652-5.1728,8.4843-7.4477,13.6582-5.062l47.7861,21.9302c5.1729,2.3755,7.4385,8.4946,5.0732,13.668l-16.0429,34.9736
		c10.0439,8.1621,18.8398,17.583,26.2783,28.1406l35.9502-13.3252c5.3047-2.0127,11.2725,0.7549,13.2451,6.0791l18.2979,49.2959
		c1.9824,5.334-0.7354,11.2627-6.0703,13.2451l-35.7589,13.2852c1.3086,12.9629,0.8349,25.9258-1.419,38.708l34.5918,15.9014
		c5.1631,2.375,7.4277,8.4843,5.0625,13.6582l-21.9004,47.7656c-2.3553,5.1641-8.4541,7.458-13.6582,5.0723l-34.7724-15.9219
		c-8.1827,9.9648-17.6827,18.7207-28.3721,26.1582l13.3262,35.9502c0.955,2.5674,0.8457,5.4053-0.293,7.8808
		c-1.1465,2.4854-3.2305,4.419-5.7871,5.3643l-49.3555,18.2773C863.7578,733.5835,862.5498,733.7847,861.3623,733.7847
		L861.3623,733.7847z M845.0684,669.19c4.2462,0,8.1417,2.6376,9.6513,6.7236l12.7217,34.3193l30.0322-11.1212l-12.6006-33.9872
		c-1.7109-4.6201,0.0801-9.8027,4.2774-12.3691c13.7578-8.4248,25.4629-19.2139,34.7832-32.0664
		c2.8887-3.9854,8.1816-5.3535,12.6309-3.3213l32.8505,15.0361l13.3155-29.0459l-32.6797-15.0263
		c-4.459-2.0528-6.8535-6.9649-5.7168-11.7452c3.7031-15.5693,4.2871-31.5322,1.7412-47.4345
		c-0.7744-4.8506,1.9834-9.5811,6.582-11.292l33.7862-12.5498l-11.1309-29.9825l-33.957,12.5801
		c-4.5996,1.6914-9.753-0.0703-12.3496-4.2363c-8.3946-13.5576-19.2334-25.1719-32.2364-34.5215
		c-3.9961-2.8789-5.4052-8.1836-3.3514-12.6621l15.1766-33.0815l-29.0654-13.3457l-15.3496,33.354
		c-2.043,4.4287-6.9043,6.8437-11.6738,5.7373c-15.3594-3.5528-31.2911-4.0469-46.8105-1.4707
		c-4.7607,0.9267-9.6212-1.9414-11.3428-6.5918L781.5,386.3369l-30.002,11.1109l13.0235,35.1054
		c1.7012,4.5889-0.0606,9.7422-4.207,12.3291c-13.3262,8.3028-24.7383,18.9512-33.9375,31.6729
		c-2.8887,3.9951-8.2032,5.3838-12.6613,3.3213l-34.1084-15.6905l-13.3661,29.087l34.169,15.6396
		c4.4492,2.0332,6.8535,6.9141,5.7568,11.6846c-3.5127,15.248-4.0859,30.8476-1.6904,46.3769
		c0.7441,4.8322-2.0137,9.5313-6.5918,11.2325l-35.3379,13.125l11.1113,29.9609l35.1758-13.0029
		c4.5996-1.6708,9.7832,0.0811,12.3496,4.2773c8.2422,13.3955,18.8301,24.9199,31.4824,34.2598
		c3.9238,2.8984,5.2831,8.1523,3.25,12.5908l-15.5294,33.8369l29.0861,13.3057l15.4091-33.5762
		c2.043-4.4883,6.9346-6.9434,11.8057-5.7168c15.1973,3.6943,31.1602,4.3984,46.8398,2.0332
		C844.041,669.23,844.5547,669.19,845.0684,669.19L845.0684,669.19z M825.2402,623.9097c-10.8691,0-21.4277-2.3145-31.3906-6.8633
		c-37.8633-17.4219-54.5195-62.3203-37.1387-100.1123c12.2891-26.751,39.2422-44.0322,68.6807-44.0322
		c10.8897,0,21.4678,2.3144,31.4316,6.8838c37.8116,17.372,54.4688,62.2695,37.1377,100.081
		C881.6719,606.6187,854.6992,623.9097,825.2402,623.9097L825.2402,623.9097z M825.3916,493.5132
		c-21.4072,0-41.0127,12.5713-49.9502,32.0254c-12.6406,27.4668-0.5234,60.1152,27.0029,72.7773
		c26.8526,12.2579,60.5479-0.4228,72.7764-27.0428c12.6016-27.4865,0.4941-60.126-26.9922-72.7471
		C840.9707,495.1948,833.292,493.5132,825.3916,493.5132L825.3916,493.5132z"/>
</g>
</svg>
