<?xml version="1.0" encoding="iso-8859-1"?>
<!-- Generator: Adobe Illustrator 19.0.0, SVG Export Plug-In . SVG Version: 6.00 Build 0)  -->
<svg version="1.1" id="Layer_1" xmlns="http://www.w3.org/2000/svg" xmlns:xlink="http://www.w3.org/1999/xlink" x="0px" y="0px"
	 viewBox="0 0 512 512" style="enable-background:new 0 0 512 512;" xml:space="preserve">
<g>
	<path style="fill:#434C6D;" d="M494.345,110.345H282.483V128h-52.966v-17.655H17.655C7.901,110.345,0,118.246,0,128v335.448
		c0,9.754,7.901,17.655,17.655,17.655h476.69c9.754,0,17.655-7.901,17.655-17.655V128C512,118.246,504.099,110.345,494.345,110.345"
		/>
	<polygon style="fill:#939FBC;" points="35.31,436.966 476.69,436.966 476.69,154.483 35.31,154.483 	"/>
	<g>
		<path style="fill:#434C6D;" d="M344.276,242.759c-9.737,0-17.655,7.918-17.655,17.655c0,9.737,7.918,17.655,17.655,17.655
			c9.737,0,17.655-7.918,17.655-17.655C361.931,250.677,354.013,242.759,344.276,242.759 M344.276,295.724
			c-19.474,0-35.31-15.837-35.31-35.31s15.837-35.31,35.31-35.31c19.474,0,35.31,15.837,35.31,35.31S363.75,295.724,344.276,295.724
			"/>
		<path style="fill:#434C6D;" d="M344.276,207.448c-48.675,0-88.276,39.601-88.276,88.276S295.601,384,344.276,384
			s88.276-39.601,88.276-88.276S392.951,207.448,344.276,207.448 M344.276,401.655c-58.412,0-105.931-47.519-105.931-105.931
			s47.519-105.931,105.931-105.931s105.931,47.519,105.931,105.931S402.688,401.655,344.276,401.655"/>
		<path style="fill:#434C6D;" d="M79.448,269.241h-8.828c-4.873,0-8.828-3.946-8.828-8.828s3.955-8.828,8.828-8.828h8.828
			c4.873,0,8.828,3.946,8.828,8.828S84.321,269.241,79.448,269.241"/>
		<path style="fill:#434C6D;" d="M158.897,269.241h-44.138c-4.873,0-8.828-3.946-8.828-8.828s3.955-8.828,8.828-8.828h44.138
			c4.873,0,8.828,3.946,8.828,8.828S163.769,269.241,158.897,269.241"/>
		<path style="fill:#434C6D;" d="M211.862,269.241h-17.655c-4.873,0-8.828-3.946-8.828-8.828s3.955-8.828,8.828-8.828h17.655
			c4.873,0,8.828,3.946,8.828,8.828S216.735,269.241,211.862,269.241"/>
		<path style="fill:#434C6D;" d="M211.862,322.207h-35.31c-4.873,0-8.828-3.946-8.828-8.828c0-4.882,3.955-8.828,8.828-8.828h35.31
			c4.873,0,8.828,3.946,8.828,8.828C220.69,318.261,216.735,322.207,211.862,322.207"/>
		<path style="fill:#434C6D;" d="M141.241,322.207H70.621c-4.873,0-8.828-3.946-8.828-8.828c0-4.882,3.955-8.828,8.828-8.828h70.621
			c4.873,0,8.828,3.946,8.828,8.828C150.069,318.261,146.114,322.207,141.241,322.207"/>
		<path style="fill:#434C6D;" d="M114.759,375.172H70.621c-4.873,0-8.828-3.946-8.828-8.828c0-4.882,3.955-8.828,8.828-8.828h44.138
			c4.873,0,8.828,3.946,8.828,8.828C123.586,371.227,119.631,375.172,114.759,375.172"/>
		<path style="fill:#434C6D;" d="M211.862,375.172h-61.793c-4.873,0-8.828-3.946-8.828-8.828c0-4.882,3.955-8.828,8.828-8.828
			h61.793c4.873,0,8.828,3.946,8.828,8.828C220.69,371.227,216.735,375.172,211.862,375.172"/>
		<path style="fill:#434C6D;" d="M176.552,216.276h-70.621c-4.873,0-8.828-3.946-8.828-8.828s3.955-8.828,8.828-8.828h70.621
			c4.873,0,8.828,3.946,8.828,8.828S181.425,216.276,176.552,216.276"/>
	</g>
	<polygon style="fill:#6D7AA0;" points="229.517,128 282.483,128 282.483,57.379 229.517,57.379 	"/>
	<path style="fill:#939FBC;" d="M282.483,57.379c0-14.627-11.855-26.483-26.483-26.483c-14.627,0-26.483,11.855-26.483,26.483
		H282.483z"/>
	<path style="fill:#434C6D;" d="M388.414,382.138h0.088H388.414z M308.966,376.568c22.404,9.86,48.216,9.86,70.621,0v-45.533
		c0-19.474-15.837-35.31-35.31-35.31c-19.474,0-35.31,15.837-35.31,35.31V376.568z M344.276,401.656
		c-16.843,0-33.05-3.919-48.163-11.652c-2.948-1.518-4.802-4.555-4.802-7.865v-51.103c0-29.211,23.755-52.966,52.966-52.966
		c29.21,0,52.966,23.755,52.966,52.966v51.103c0,3.31-1.854,6.347-4.802,7.865C377.326,397.737,361.119,401.656,344.276,401.656
		L344.276,401.656z"/>
</g>
<g>
</g>
<g>
</g>
<g>
</g>
<g>
</g>
<g>
</g>
<g>
</g>
<g>
</g>
<g>
</g>
<g>
</g>
<g>
</g>
<g>
</g>
<g>
</g>
<g>
</g>
<g>
</g>
<g>
</g>
</svg>
