<?xml version="1.0" encoding="iso-8859-1"?>
<!-- Generator: Adobe Illustrator 18.0.0, SVG Export Plug-In . SVG Version: 6.00 Build 0)  -->
<!DOCTYPE svg PUBLIC "-//W3C//DTD SVG 1.1//EN" "http://www.w3.org/Graphics/SVG/1.1/DTD/svg11.dtd">
<svg version="1.1" id="Capa_1" xmlns="http://www.w3.org/2000/svg" xmlns:xlink="http://www.w3.org/1999/xlink" x="0px" y="0px"
	 viewBox="0 0 417.295 417.295" style="enable-background:new 0 0 417.295 417.295;" xml:space="preserve">
<g>
	<g>
		<path style="fill:none;" d="M106.119,393.295h271.514c8.635,0,15.662-7.026,15.662-15.663V118.004H106.119V393.295z
			 M147.049,158.127h193.3c6.628,0,12,5.372,12,12s-5.372,12-12,12h-193.3c-6.627,0-12-5.372-12-12S140.422,158.127,147.049,158.127
			z M147.049,215.745h193.3c6.628,0,12,5.372,12,12c0,6.627-5.372,12-12,12h-193.3c-6.627,0-12-5.373-12-12
			C135.049,221.117,140.422,215.745,147.049,215.745z M147.049,273.363h193.3c6.628,0,12,5.372,12,12s-5.372,12-12,12h-193.3
			c-6.627,0-12-5.372-12-12S140.422,273.363,147.049,273.363z M147.049,330.981h107.803c6.629,0,12,5.372,12,12
			c0,6.627-5.371,12-12,12H147.049c-6.627,0-12-5.373-12-12C135.049,336.354,140.422,330.981,147.049,330.981z"/>
		<path style="fill:none;" d="M24,377.632c0,8.637,7.027,15.663,15.662,15.663h42.457V118.004H24V377.632z"/>
		<path style="fill:#73D0F4;" d="M393.295,39.663c0-8.637-7.027-15.663-15.662-15.663H39.662C31.027,24,24,31.026,24,39.663v54.341
			h369.295V39.663z"/>
		<path style="fill:#3D6889;" d="M377.633,0H39.662C17.793,0,0,17.793,0,39.663v337.969c0,21.87,17.793,39.663,39.662,39.663
			h337.971c21.869,0,39.662-17.793,39.662-39.663V39.663C417.295,17.793,399.502,0,377.633,0z M24,39.663
			C24,31.026,31.027,24,39.662,24h337.971c8.635,0,15.662,7.026,15.662,15.663v54.341H24V39.663z M82.119,393.295H39.662
			c-8.635,0-15.662-7.026-15.662-15.663V118.004h58.119V393.295z M393.295,377.632c0,8.637-7.027,15.663-15.662,15.663H106.119
			V118.004h287.176V377.632z"/>
		<path style="fill:#3D6889;" d="M147.049,182.127h193.3c6.628,0,12-5.372,12-12s-5.372-12-12-12h-193.3c-6.627,0-12,5.372-12,12
			S140.422,182.127,147.049,182.127z"/>
		<path style="fill:#3D6889;" d="M147.049,239.745h193.3c6.628,0,12-5.373,12-12c0-6.628-5.372-12-12-12h-193.3
			c-6.627,0-12,5.372-12,12C135.049,234.372,140.422,239.745,147.049,239.745z"/>
		<path style="fill:#3D6889;" d="M147.049,297.363h193.3c6.628,0,12-5.372,12-12s-5.372-12-12-12h-193.3c-6.627,0-12,5.372-12,12
			S140.422,297.363,147.049,297.363z"/>
		<path style="fill:#3D6889;" d="M147.049,354.981h107.803c6.629,0,12-5.373,12-12c0-6.628-5.371-12-12-12H147.049
			c-6.627,0-12,5.372-12,12C135.049,349.608,140.422,354.981,147.049,354.981z"/>
	</g>
</g>
<g>
</g>
<g>
</g>
<g>
</g>
<g>
</g>
<g>
</g>
<g>
</g>
<g>
</g>
<g>
</g>
<g>
</g>
<g>
</g>
<g>
</g>
<g>
</g>
<g>
</g>
<g>
</g>
<g>
</g>
</svg>
