<?xml version="1.0" encoding="utf-8"?>
<!-- Generator: Adobe Illustrator 17.1.0, SVG Export Plug-In . SVG Version: 6.00 Build 0)  -->
<!DOCTYPE svg PUBLIC "-//W3C//DTD SVG 1.1//EN" "http://www.w3.org/Graphics/SVG/1.1/DTD/svg11.dtd">
<svg version="1.1" id="medal" xmlns="http://www.w3.org/2000/svg" xmlns:xlink="http://www.w3.org/1999/xlink" x="0px" y="0px"
	 viewBox="0 0 949.6562 1009.9998" enable-background="new 0 0 949.6562 1009.9998" xml:space="preserve">
<g>
	<rect x="106.6665" y="12.326" fill="#CCCCCC" width="733.7729" height="167.8906"/>
	<path fill="#4D4D4D" d="M840.4394,192.5335H106.6665c-6.8081,0-12.3169-5.5088-12.3169-12.3169V12.326
		c0-6.8076,5.5088-12.3164,12.3169-12.3164h733.7729c6.8076,0,12.3164,5.5088,12.3164,12.3164v167.8906
		C852.7558,187.0247,847.247,192.5335,840.4394,192.5335L840.4394,192.5335z M118.9834,167.8997H828.122V24.6434H118.9834V167.8997
		L118.9834,167.8997z"/>
</g>
<g>
	<g>
		<linearGradient id="SVGID_1_" gradientUnits="userSpaceOnUse" x1="106.6665" y1="357.9885" x2="491.9082" y2="357.9885">
			<stop  offset="0.0056" style="stop-color:#FFFFFF"/>
			<stop  offset="1" style="stop-color:#CCCCCC"/>
		</linearGradient>
		<polygon fill="url(#SVGID_1_)" points="106.6665,122.0359 106.6665,226.5857 445.4306,593.9412 491.9082,530.7327 		"/>
		<linearGradient id="SVGID_2_" gradientUnits="userSpaceOnUse" x1="106.6665" y1="271.5293" x2="536.124" y2="271.5293">
			<stop  offset="0.0056" style="stop-color:#FFFFFF"/>
			<stop  offset="1" style="stop-color:#CCCCCC"/>
		</linearGradient>
		<polygon fill="url(#SVGID_2_)" points="536.124,470.4709 106.6665,12.326 106.6665,122.0359 491.9082,530.7327 		"/>
	</g>
	<g>
		<g>
			<polygon fill="#FFFFFF" points="106.6665,12.326 106.6665,226.5857 445.4306,593.9412 536.124,470.4709 			"/>
			<path fill="#4D4D4D" d="M445.4306,606.2585c-3.4394,0-6.7119-1.4317-9.0449-3.9697L97.6211,234.9334
				c-2.1167-2.2734-3.2715-5.2564-3.2715-8.3477V12.326c0-5.0518,3.0791-9.5987,7.7944-11.4512
				c4.6909-1.8877,10.0557-0.6494,13.5195,3.0312l429.4576,458.1451c4.042,4.3305,4.4502,10.9341,0.9384,15.709l-90.6933,123.4702
				c-2.1895,2.9716-5.5811,4.7998-9.2373,5.0039C445.8877,606.2468,445.6474,606.2585,445.4306,606.2585L445.4306,606.2585z
				 M118.9834,221.7742l325.3652,352.8262l75.8018-103.167L118.9834,43.4793V221.7742L118.9834,221.7742z"/>
		</g>
		<g>
			<line fill="#FFFFFF" x1="488.3476" y1="529.6263" x2="111.3813" y2="123.9847"/>
			<path fill="#4D4D4D" d="M488.3476,541.9432c-3.2959,0-6.5918-1.3233-9.0215-3.9336L102.3603,132.3685
				c-4.643-4.98-4.354-12.7745,0.6255-17.4053c4.9795-4.6065,12.7739-4.354,17.417,0.6377l376.9663,405.6416
				c4.6426,4.9796,4.3535,12.7739-0.626,17.4048C494.3623,540.8483,491.3545,541.9432,488.3476,541.9432L488.3476,541.9432z"/>
		</g>
	</g>
</g>
<g>
	<g>
		<linearGradient id="SVGID_3_" gradientUnits="userSpaceOnUse" x1="455.1494" y1="357.9885" x2="840.4394" y2="357.9885">
			<stop  offset="0.0056" style="stop-color:#FFFFFF"/>
			<stop  offset="1" style="stop-color:#CCCCCC"/>
		</linearGradient>
		<polygon fill="url(#SVGID_3_)" points="840.4394,122.0359 840.4394,226.5857 501.6748,593.9412 455.1494,530.7327 		"/>
		<linearGradient id="SVGID_4_" gradientUnits="userSpaceOnUse" x1="410.9336" y1="271.5293" x2="840.4394" y2="271.5293">
			<stop  offset="0.0056" style="stop-color:#FFFFFF"/>
			<stop  offset="1" style="stop-color:#CCCCCC"/>
		</linearGradient>
		<polygon fill="url(#SVGID_4_)" points="410.9336,470.4709 840.4394,12.326 840.4394,122.0359 455.1494,530.7327 		"/>
	</g>
	<g>
		<g>
			<polygon fill="#FFFFFF" points="840.4394,12.326 840.4394,226.5857 501.6748,593.9412 410.9336,470.4709 			"/>
			<path fill="#4D4D4D" d="M501.6748,606.2585c-0.2158,0-0.4571-0.0117-0.6738-0.0244c-3.6807-0.2041-7.0723-2.0323-9.2618-5.0039
				L400.998,477.7601c-3.5117-4.7749-3.1025-11.3785,0.9385-15.709L831.4424,3.906c3.4638-3.6806,8.8046-4.9189,13.5195-3.0312
				c4.7148,1.8525,7.7939,6.3994,7.7939,11.4512v214.2597c0,3.0913-1.1543,6.0743-3.2714,8.3477L510.7207,602.2889
				C508.3867,604.8268,505.1152,606.2585,501.6748,606.2585L501.6748,606.2585z M426.9316,471.4211l75.8262,103.1909
				L828.122,221.7742V43.4671L426.9316,471.4211L426.9316,471.4211z"/>
		</g>
		<g>
			<line fill="#FFFFFF" x1="835.6758" y1="123.9847" x2="458.7099" y2="529.6263"/>
			<path fill="#4D4D4D" d="M458.7099,541.9432c-3.0068,0-6.0136-1.0948-8.3955-3.2959c-4.9795-4.6309-5.2685-12.4253-0.6259-17.4048
				l376.9667-405.6416c4.667-4.9678,12.4366-5.2324,17.417-0.6377c4.9795,4.6308,5.2676,12.4253,0.625,17.4053L467.7314,538.0096
				C465.3017,540.6199,462.0058,541.9432,458.7099,541.9432L458.7099,541.9432z"/>
		</g>
	</g>
</g>
<g>
	<g>
		<line fill="#FFFFFF" x1="118.3579" y1="598.3923" x2="47.6797" y2="558.5779"/>
		<path fill="#4D4D4D" d="M118.3579,610.7087c-2.0689,0-4.1377-0.5049-6.0381-1.5879l-70.6782-39.8135
			c-5.9419-3.332-8.0347-10.8496-4.6909-16.7793c3.3437-5.9541,10.9213-8.0112,16.7675-4.6792l70.6778,39.814
			c5.9424,3.332,8.0351,10.8496,4.6914,16.7793C126.8257,608.4479,122.6401,610.7087,118.3579,610.7087L118.3579,610.7087z"/>
	</g>
	<g>
		<line fill="#FFFFFF" x1="47.728" y1="876.6188" x2="118.3579" y2="836.8768"/>
		<path fill="#4D4D4D" d="M47.728,888.9352c-4.2822,0-8.4678-2.2617-10.7295-6.2792c-3.3437-5.9297-1.251-13.4356,4.6914-16.7676
			l70.6299-39.7403c5.894-3.3691,13.4233-1.2519,16.7676,4.6905c3.3437,5.9297,1.251,13.4355-4.6914,16.7675l-70.6299,39.7413
			C51.8657,888.4294,49.7729,888.9352,47.728,888.9352L47.728,888.9352z"/>
	</g>
	<g>
		<line fill="#FFFFFF" x1="91.8476" y1="713.1774" x2="12.3169" y2="713.1774"/>
		<path fill="#4D4D4D" d="M91.8476,725.4949H12.3169C5.5088,725.4949,0,719.986,0,713.1774c0-6.8076,5.5088-12.3164,12.3169-12.3164
			h79.5307c6.8081,0,12.3169,5.5089,12.3169,12.3164C104.1645,719.986,98.6557,725.4949,91.8476,725.4949L91.8476,725.4949z"/>
	</g>
</g>
<g>
	<g>
		<line fill="#FFFFFF" x1="831.2978" y1="598.3923" x2="902.0244" y2="558.5779"/>
		<path fill="#4D4D4D" d="M831.2978,610.7087c-4.2822,0-8.4677-2.2608-10.7295-6.2783c-3.3437-5.9307-1.2509-13.4356,4.6914-16.7676
			l70.7266-39.814c5.8213-3.332,13.3994-1.2749,16.7666,4.6909c3.3447,5.9302,1.251,13.4356-4.6904,16.7676l-70.7266,39.8135
			C835.4355,610.2039,833.3672,610.7087,831.2978,610.7087L831.2978,610.7087z"/>
	</g>
	<g>
		<line fill="#FFFFFF" x1="901.9756" y1="876.6188" x2="831.2978" y2="836.8768"/>
		<path fill="#4D4D4D" d="M901.9756,888.9352c-2.044,0-4.1377-0.5058-6.0381-1.5761l-70.6778-39.7411
			c-5.9179-3.3438-8.0351-10.8496-4.6914-16.7794c3.3203-5.9307,10.8496-8.0469,16.7676-4.7032l70.6787,39.7413
			c5.917,3.3437,8.0342,10.8496,4.6905,16.7793C910.4443,886.6735,906.2822,888.9352,901.9756,888.9352L901.9756,888.9352z"/>
	</g>
	<g>
		<line fill="#FFFFFF" x1="857.8564" y1="713.1774" x2="937.3388" y2="713.1774"/>
		<path fill="#4D4D4D" d="M937.3388,725.4949h-79.4824c-6.8086,0-12.3174-5.5089-12.3174-12.3174
			c0-6.8076,5.5088-12.3164,12.3174-12.3164h79.4824c6.8086,0,12.3174,5.5089,12.3174,12.3164
			C949.6562,719.986,944.1474,725.4949,937.3388,725.4949L937.3388,725.4949z"/>
	</g>
</g>
<g>
	<g>
		<path fill="#5FD4AF" d="M765.2871,705.949c0,161.0947-130.6279,291.7344-291.7578,291.7344
			c-161.0352,0-291.6621-130.6397-291.6621-291.7344c0-161.083,130.6269-291.6621,291.6621-291.6621
			C634.6592,414.2869,765.2871,544.866,765.2871,705.949z"/>
		<path fill="#4D4D4D" d="M473.5293,1009.9998c-167.6265,0-303.979-136.4004-303.979-304.0508
			c0-167.6142,136.3525-303.979,303.979-303.979c167.6738,0,304.0742,136.3648,304.0742,303.979
			C777.6035,873.5994,641.2031,1009.9998,473.5293,1009.9998L473.5293,1009.9998z M473.5293,426.6038
			c-154.0347,0-279.3452,125.3106-279.3452,279.3452c0,154.0703,125.3105,279.417,279.3452,279.417
			c154.082,0,279.4404-125.3467,279.4404-279.417C752.9697,551.9144,627.6113,426.6038,473.5293,426.6038L473.5293,426.6038z"/>
	</g>
	<g>
		<path fill="#FF9554" d="M700.8633,705.949c0,125.5752-101.7588,227.334-227.334,227.334
			c-125.4795,0-227.335-101.7588-227.335-227.334c0-125.4912,101.8555-227.311,227.335-227.311
			C599.1045,478.638,700.8633,580.4578,700.8633,705.949z"/>
		<path fill="#4D4D4D" d="M473.5293,945.6003c-132.1426,0-239.6519-107.5088-239.6519-239.6514
			c0-132.1308,107.5093-239.6279,239.6519-239.6279S713.1806,573.8182,713.1806,705.949
			C713.1806,838.0916,605.6719,945.6003,473.5293,945.6003L473.5293,945.6003z M473.5293,490.9554
			c-118.5508,0-215.0181,96.4428-215.0181,214.9936c0,118.5625,96.4673,215.0176,215.0181,215.0176
			c118.5498,0,215.0166-96.4551,215.0166-215.0176C688.5459,587.3981,592.0791,490.9554,473.5293,490.9554L473.5293,490.9554z"/>
	</g>
	<g>
		<g>
			<polygon fill="#FFFFFF" points="436.626,537.5286 381.248,619.2604 434.0761,619.2604 434.0761,787.9333 373.4052,787.9333 
				373.4052,853.8494 573.7002,853.8494 573.7002,787.9216 515.7724,787.9333 515.7724,537.5164 			"/>
			<path fill="#4D4D4D" d="M573.7002,866.1658h-200.295c-6.8076,0-12.3164-5.5097-12.3164-12.3164v-65.916
				c0-6.8076,5.5088-12.3164,12.3164-12.3164h48.3536V631.5779H381.248c-4.5713,0-8.7568-2.5136-10.874-6.5429
				c-2.1406-4.0303-1.876-8.9131,0.6738-12.6778l55.378-81.7329c2.2861-3.3921,6.1103-5.4126,10.2002-5.4126l79.1464-0.0122
				c3.2715,0,6.3985,1.2993,8.708,3.6089c2.3096,2.3091,3.6084,5.4365,3.6084,8.708v238.1006l45.6114-0.0117
				c3.2715,0,6.3994,1.2988,8.709,3.6074c2.3085,2.3105,3.6084,5.4375,3.6084,8.709v65.9277
				C586.0176,860.6561,580.5088,866.1658,573.7002,866.1658L573.7002,866.1658z M385.7226,841.5311h175.6612v-41.293
				l-45.6114,0.0127c-3.2724,0-6.3994-1.2998-8.7089-3.6084c-2.3096-2.3096-3.6084-5.4375-3.6084-8.709V549.8337l-60.2852,0.0117
				l-38.707,57.0986h29.6132c6.8077,0,12.3174,5.5089,12.3174,12.3164v168.6729c0,6.8086-5.5097,12.3174-12.3174,12.3174h-48.3535
				V841.5311L385.7226,841.5311z"/>
		</g>
	</g>
</g>
</svg>
