<?xml version="1.0" encoding="utf-8"?>
<!-- Generator: Adobe Illustrator 17.1.0, SVG Export Plug-In . SVG Version: 6.00 Build 0)  -->
<!DOCTYPE svg PUBLIC "-//W3C//DTD SVG 1.1//EN" "http://www.w3.org/Graphics/SVG/1.1/DTD/svg11.dtd">
<svg version="1.1" id="megaphone" xmlns="http://www.w3.org/2000/svg" xmlns:xlink="http://www.w3.org/1999/xlink" x="0px" y="0px"
	 viewBox="0 0 1009.9995 744.3003" enable-background="new 0 0 1009.9995 744.3003" xml:space="preserve">
<g>
	<g>
		<g>
			<path fill="#5FD4AF" d="M165.9632,656.7866l53.9311,63.836c1.7027,1.9921,4.6236,2.2636,6.6543,0.6386l23.4546-19.3633
				c1.5186-1.2578,2.1084-3.3671,1.4414-5.2031l-73.1787-211.914c-0.4062-1.1807-1.2959-2.1866-2.437-2.709
				c-1.1606-0.541-2.4761-0.6192-3.6562-0.1739l-55.0821,20.1563c-2.3984,0.9287-3.6557,3.5596-2.8047,6.0352l50.8262,147.2285
				C165.2962,655.8394,165.5765,656.3433,165.9632,656.7866z"/>
			<path fill="#4D4D4D" d="M223.5506,732.2183c-4.3042,0-8.376-1.875-11.1909-5.1641l-53.96-63.873
				c-0.7734-0.92-2.2339-3.4434-2.6309-4.5762l-50.8457-147.2852c-2.582-7.5146,1.19-15.6387,8.5889-18.5019l55.2564-20.2246
				c1.0927-0.3965,3.8398-0.8897,5.0004-0.8897c2.1372,0,4.294,0.4834,6.2481,1.3936c3.5205,1.6152,6.3252,4.7089,7.6118,8.4629
				l73.1782,211.9043c2.041,5.6191,0.2612,12.127-4.4878,16.0645l-23.4643,19.373
				C230.137,731.0776,226.868,732.2183,223.5506,732.2183L223.5506,732.2183z M174.1458,651.1187l50.043,59.2421l16.7324-13.8027
				l-70.3926-203.8379l-45.2554,16.8594L174.1458,651.1187L174.1458,651.1187z"/>
		</g>
	</g>
	<g>
		<polygon fill="#5FD4AF" points="145.9422,510.4497 221.471,721.7065 146.1263,734.396 73.0735,530.2573 		"/>
		<path fill="#4D4D4D" d="M146.1165,744.3003c-4.1201,0-7.8926-2.584-9.3145-6.5684L63.7498,533.5952
			c-0.9287-2.6016-0.7354-5.4745,0.5415-7.9219c1.2769-2.4472,3.5205-4.2461,6.1807-4.9707l72.8686-19.8086
			c5.0293-1.4023,10.1944,1.3438,11.9253,6.2188l75.5288,211.2559c0.9868,2.7656,0.7061,5.8221-0.7837,8.3476
			c-1.4795,2.5234-4.0039,4.2656-6.896,4.7578l-75.3447,12.6895C147.219,744.2515,146.6678,744.3003,146.1165,744.3003
			L146.1165,744.3003z M86.0052,537.0093l66.6494,186.2441l55.5078-9.3535l-68.4585-191.4863L86.0052,537.0093L86.0052,537.0093z"/>
	</g>
	<g>
		<path fill="#DFDFE1" d="M171.6116,367.6235l-24.5473-11.9257L16.0569,416.8442c0,0-31.7143,81.6319,46.3096,129.1787
			l141.5015-37.5273l12.7187-17.0996L171.6116,367.6235z"/>
		<path fill="#4D4D4D" d="M62.3665,555.9272c-1.7988,0-3.5884-0.4931-5.1553-1.4511
			C-26.9157,503.2144,6.4817,414.1553,6.8299,413.2559c0.9189-2.3794,2.7275-4.3042,5.039-5.3873l131.0074-61.1464
			c2.6792-1.2671,5.813-1.2476,8.5112,0.0678l24.5478,11.9253c2.3213,1.1221,4.1104,3.105,4.981,5.523l44.9746,123.7729
			c1.1416,3.1328,0.6289,6.625-1.354,9.2949l-12.7187,17.0997c-1.3443,1.7988-3.2496,3.0849-5.4161,3.666L64.9007,555.5991
			C64.0686,555.8208,63.2176,555.9272,62.3665,555.9272L62.3665,555.9272z M24.075,424.0303
			c-4.6519,15.2046-17.7866,73.5649,39.9263,111.3148l133.9863-35.5351l7.4668-10.0489l-41.7832-114.9804l-16.6939-8.1148
			L24.075,424.0303L24.075,424.0303z"/>
	</g>
	<g>
		<path fill="#FF9554" d="M545.1248,524.8999c-211.5073-82.1348-352.9312-33.6973-352.9312-33.6973s-37.3144-5.6875-51.2421-50.1211
			c-14.1499-45.3032,10.4941-67.1811,10.4941-67.1811C319.6419,330.7539,419.302,160.1592,419.302,160.1592L545.1248,524.8999z"/>
		<path fill="#4D4D4D" d="M545.1248,534.8042c-1.209,0-2.418-0.2227-3.5889-0.668
			c-80.6635-31.3281-160.2065-47.2187-236.3925-47.2187c-68.7388,0-109.3516,13.5215-109.7481,13.6572
			c-1.4995,0.5127-3.1143,0.6572-4.6909,0.416c-1.7798-0.2705-43.6113-7.1865-59.2022-56.9482
			c-15.8818-50.8369,12.167-76.4771,13.3663-77.5508c1.1801-1.0444,2.5922-1.7891,4.1206-2.186
			c162.3056-41.6377,260.7861-207.4737,261.7627-209.147c1.9443-3.3369,5.726-5.1748,9.517-4.8555
			c3.8594,0.3775,7.1382,2.9693,8.3956,6.6255l125.8227,364.7407c1.2578,3.6465,0.2803,7.6895-2.4951,10.3682
			C550.115,533.8462,547.6394,534.8042,545.1248,534.8042L545.1248,534.8042z M305.1434,467.1089
			c72.3852,0,147.5752,13.8418,223.7714,41.164L416.6131,182.7334c-30.5825,45.1973-121.6929,163.3408-259.9541,200.0459
			c-4.2749,5.0293-16.3745,22.9419-6.2578,55.353c10.1748,32.4395,34.1035,40.9707,41.309,42.8369
			C202.243,477.7876,242.2366,467.1089,305.1434,467.1089L305.1434,467.1089z"/>
	</g>
	<g>
		<g>
			<path fill="#DFDFE1" d="M492.8768,15.7949c93.0253-32.1396,213.2285,70.4893,267.875,228.7427
				c34.9355,101.1401,35.6708,207.0674,1.954,276.3965c-16.8877,34.7226-41.667,58.5166-71.67,68.9033
				c-29.9638,10.3496-64.164,6.9062-98.9248-10.0195c-69.2993-33.7559-134.0342-117.5352-168.9594-218.6944
				C368.4949,202.8706,399.7644,47.9736,492.8768,15.7949z"/>
			<path fill="#4D4D4D" d="M655.5594,605.5835c-22.0039,0-44.8105-5.6777-67.7813-16.8574
				c-71.5727-34.8692-138.2417-120.8428-173.9892-224.3721C357.3528,200.9556,391.3792,40.3906,489.6463,6.4326
				C501.9974,2.167,515.0643,0,528.4793,0c91.7295,0,193.3525,101.4795,241.6348,241.3071
				c35.7578,103.5196,36.3281,212.3291,1.499,283.96c-18.0381,37.0918-44.7813,62.6562-77.3369,73.9336
				C682.0027,603.437,668.9842,605.5835,655.5594,605.5835L655.5594,605.5835z M528.4793,19.8086
				c-11.2095,0-22.1001,1.7988-32.3721,5.3486c-87.938,30.3897-116.4604,179.6573-63.5932,332.7364
				c34.0937,98.7504,96.913,180.3725,163.9301,213.0161c32.2373,15.6972,63.961,19.0449,91.3614,9.5664
				c27.4785-9.5088,50.2949-31.5996,65.9922-63.875c32.624-67.0752,31.705-170.0821-2.4083-268.833
				C705.7762,115.6777,612.0359,19.8086,528.4793,19.8086L528.4793,19.8086z"/>
		</g>
	</g>
	<g>
		<path fill="#DFDFE1" d="M451.887,351.1133c49.0757,142.2749,152.6626,235.4741,231.3921,208.2768
			c78.7305-27.1396,102.6973-164.4238,53.583-306.6508C687.7478,110.6289,584.199,17.3809,505.4891,44.54
			C426.8074,71.7275,402.7918,209.0024,451.887,351.1133z"/>
		<path fill="#4D4D4D" d="M654.7664,574.0142c-0.0098,0-0.0098,0-0.0195,0c-79.0684-0.0196-168.3213-92.3965-212.2222-219.6705
			c-50.7978-147.0532-24.0063-290.2275,59.7339-319.166c10.0879-3.4824,20.7563-5.2422,31.7139-5.2422
			c79.0107,0,168.2831,92.3379,212.2519,219.5733c24.2959,70.3447,31.9473,141.8784,21.54,201.4194
			c-10.7656,61.6299-39.6171,103.4717-81.2548,117.8242C676.4119,572.2436,665.7244,574.0142,654.7664,574.0142L654.7664,574.0142z
			 M533.9725,49.7432c-8.7525,0-17.2545,1.4023-25.253,4.1591c-73.4106,25.3702-94.708,157.2476-47.4702,293.9805
			c41.2319,119.5366,122.6118,206.3042,193.5073,206.3228h0.0098c8.7627,0,17.2647-1.4121,25.2822-4.1787
			c34.5196-11.8965,58.7383-48.3008,68.2071-102.5127c9.8359-56.2813,2.4668-124.3047-20.7559-191.5445
			C686.2,136.4722,604.8103,49.7432,533.9725,49.7432L533.9725,49.7432z"/>
	</g>
	<g>
		<path fill="#FFFFFF" d="M511.95,279.4438c0,0,34.3545,9.1978,40.4287,37.3531c6.0938,28.1841-10.6582,51.7549-10.6582,51.7549
			l-70.7119,29.664c0,0-24.8862-42.0054-35.0029-101.1885L511.95,279.4438z"/>
		<path fill="#4D4D4D" d="M471.0086,408.1201c-3.4048,0-6.6929-1.7602-8.521-4.8555
			c-1.0547-1.7797-25.9404-44.2783-36.2412-104.5639c-0.8897-5.1743,2.418-10.1362,7.5249-11.3257l75.9443-17.584
			c1.5767-0.3677,3.2212-0.3481,4.7974,0.0869c1.6445,0.4356,40.2837,11.1519,47.5473,44.8301
			c6.9346,32.082-11.4804,58.4766-12.2636,59.5791c-1.0742,1.5093-2.544,2.6792-4.2461,3.395l-70.7119,29.6641
			C473.5911,407.8686,472.2947,408.1201,471.0086,408.1201L471.0086,408.1201z M447.4861,304.5327
			c7.7085,37.9727,21.2495,67.7622,27.9908,81.0708l59.5209-24.9731c3.4141-5.8706,11.7901-22.8257,7.6993-41.7442
			c-3.9073-18.1255-24.4507-26.8012-31.1724-29.1806L447.4861,304.5327L447.4861,304.5327z"/>
	</g>
	<g>
		<path fill="#FFFFFF" d="M541.7205,368.5518c0,0-39.3359-28.3775-30.5444-85.5972"/>
		<path fill="#4D4D4D" d="M541.6912,378.4561c-2.0019,0-4.0137-0.6094-5.7646-1.8765
			c-1.8086-1.2959-44.1426-32.6333-34.5386-95.1338c0.832-5.4067,5.7842-9.1011,11.2969-8.2793
			c5.4067,0.832,9.1113,5.8901,8.2794,11.2969c-7.7086,50.1689,25.186,75.0547,26.5883,76.0898
			c4.3907,3.2305,5.3584,9.4107,2.1465,13.8213C547.7654,377.0342,544.7478,378.4561,541.6912,378.4561L541.6912,378.4561z"/>
	</g>
</g>
<g>
	<g>
		<path fill="#4D4D4D" d="M836.2127,306.564c-2.5049,0-5-0.938-6.9248-2.8243c-3.917-3.83-3.9756-10.0976-0.1553-14.0048
			c11.6553-11.8965,18.7256-27.5557,19.9346-44.1045c1.3633-18.7154-4.6328-36.8311-16.8975-51.0293
			c-12.2635-14.189-29.3348-22.7583-48.0508-24.1221c-5.4638-0.3965-9.5556-5.1357-9.1591-10.5908
			c0.3964-5.4551,5.2333-9.6719,10.5908-9.1592c24.0058,1.7505,45.875,12.728,61.6015,30.9214
			c15.7266,18.2026,23.4258,41.4248,21.6651,65.4214c-1.5381,21.2104-10.6104,41.2798-25.5244,56.5132
			C841.3484,305.5679,838.7859,306.564,836.2127,306.564L836.2127,306.564z"/>
	</g>
	<g>
		<path fill="#4D4D4D" d="M878.073,349.0146c-2.5048,0-5.0097-0.9482-6.9443-2.8339c-3.8975-3.8399-3.9561-10.1075-0.126-14.0147
			c21.9366-22.3232,35.2842-51.8711,37.586-83.1792c2.582-35.3125-8.7442-69.5127-31.8788-96.314
			c-23.1456-26.791-55.3438-42.9628-90.6652-45.5449c-5.4551-0.3974-9.5469-5.1367-9.1504-10.6006
			c0.3965-5.4453,5.0196-9.663,10.6006-9.1503c40.5938,2.9599,77.5987,21.5498,104.1964,52.3549
			c26.6074,30.7954,39.626,70.1123,36.6475,110.7056c-2.6407,35.98-17.9805,69.938-43.1953,95.6172
			C883.199,348.0278,880.6365,349.0146,878.073,349.0146L878.073,349.0146z"/>
	</g>
	<g>
		<path fill="#4D4D4D" d="M940.9988,383.7368c-2.5049,0-5.0098-0.9477-6.9346-2.834c-3.9073-3.8398-3.9649-10.1069-0.1348-14.0049
			c32.5459-33.1459,52.3349-76.9311,55.7295-123.3081c3.8301-52.3545-12.96-103.0649-47.2764-142.788
			c-34.3066-39.7325-82.0381-63.709-134.373-67.5196c-5.4551-0.3974-9.5567-5.1367-9.1602-10.5908
			c0.3877-5.4551,5.2617-9.5273,10.5918-9.1602c57.625,4.1983,110.1641,30.5928,147.9326,74.3204
			c37.7695,43.7363,56.253,99.5537,52.0352,157.1889c-3.7334,51.0391-25.5147,99.2442-61.3399,135.7271
			C946.1258,382.7505,943.5623,383.7368,940.9988,383.7368L940.9988,383.7368z"/>
	</g>
</g>
</svg>
