<?xml version="1.0" encoding="utf-8"?>
<!-- Generator: Adobe Illustrator 17.1.0, SVG Export Plug-In . SVG Version: 6.00 Build 0)  -->
<!DOCTYPE svg PUBLIC "-//W3C//DTD SVG 1.1//EN" "http://www.w3.org/Graphics/SVG/1.1/DTD/svg11.dtd">
<svg version="1.1" id="news" xmlns="http://www.w3.org/2000/svg" xmlns:xlink="http://www.w3.org/1999/xlink" x="0px" y="0px"
	 viewBox="0 0 965.3554 1010" enable-background="new 0 0 965.3554 1010" xml:space="preserve">
<g>
	<g>
		<rect x="13.2895" y="13.2896" fill="#EFEFF0" width="938.7769" height="983.4213"/>
		<path fill="#4D4D4D" d="M952.0664,1010H13.2895C5.9438,1010,0,1004.0566,0,996.7109V13.2896C0,5.9438,5.9438,0,13.2895,0h938.7769
			c7.3457,0,13.289,5.9438,13.289,13.2896v983.4213C965.3554,1004.0566,959.4121,1010,952.0664,1010L952.0664,1010z
			 M26.5786,983.4209h912.1977V26.5791H26.5786V983.4209L26.5786,983.4209z"/>
	</g>
	<g>
		<path fill="#4D4D4D" d="M142.1606,301.0898h-18.792h-18.9219V108.6001h21.1021h21.1802l77.1152,135.127v-135.127h18.8184h18.9218
			v192.4897h-20.1157h-20.0639l-79.2442-138.7089V301.0898z"/>
		<path fill="#4D4D4D" d="M300.2329,301.0898V108.6001h141.7456v17.105v17.1567H340.3867v40.9068h94.2724v16.4301v16.7159h-94.2724
			v49.9389h106.186v17.0274v17.2089H300.2329z"/>
		<path fill="#4D4D4D" d="M516.2382,301.0898l-53.5209-192.4897h20.9208h20.9205l32.1328,140.8369h-0.0772l27.6172-140.8369h21.2842
			h21.4912l27.8506,139.6689h0.0527l31.8994-139.6689h20.376h20.2715l-53.5215,192.4897h-19.1299h-19.1552l-30.9141-151.4272
			l-30.2129,151.4272h-19.1289H516.2382z"/>
		<path fill="#4D4D4D" d="M836.3808,166.2744c-0.7275-9.1626-4.75-16.3525-12.0449-21.6733
			c-7.3447-5.3731-16.8965-8.0205-28.7324-8.0205c-10.2529,0-18.1953,2.2583-23.9835,6.7226
			c-5.7627,4.4903-8.6689,10.7715-8.6689,18.7661c0,5.7622,3.0625,10.2007,9.0586,13.3155
			c5.9951,3.1923,18.5586,6.8525,37.8946,11.1352c28.0586,6.2813,46.7988,13.4971,56.2988,21.6992
			c9.4219,8.0982,14.1465,21.2061,14.1465,39.1158c0,18.0913-7.1115,32.4707-21.3615,43.0346
			c-14.1982,10.6421-33.5351,15.937-57.83,15.937c-24.3213,0-43.3467-5.6064-57.1035-16.8969
			c-13.6524-11.291-20.9727-27.2798-21.959-48.0708h38.7265c0.4151,10.1748,4.1524,18.0654,11.1612,23.4902
			c6.9306,5.5288,16.7158,8.332,29.1484,8.332c12.8486,0,22.8154-2.0766,30.0049-6.2295
			c7.1894-4.1528,10.8242-9.915,10.8242-17.2348c0-7.19-2.5957-12.5108-7.7871-15.937c-5.0879-3.3741-15.8848-6.9561-32.419-10.6158
			c-30.499-6.7226-50.8994-14.1464-61.1786-22.0888c-10.1738-7.8648-15.3134-20.0899-15.3134-36.8057
			c0-18.6621,6.7744-33.4311,20.2978-44.4365c13.5488-10.9536,31.8223-16.3784,54.793-16.3784
			c21.5693,0,39.1152,5.6064,52.6122,16.9492c13.5498,11.3428,21.0771,26.6308,22.5303,45.8906H836.3808z"/>
	</g>
	<g>
		<g>
			<line fill="#FFFFFF" x1="102.6557" y1="432.7646" x2="516.1875" y2="432.7646"/>
			<path fill="#4D4D4D" d="M516.1875,446.0542H102.6557c-7.3457,0-13.2895-5.9443-13.2895-13.2896
				c0-7.3457,5.9438-13.2895,13.2895-13.2895h413.5318c7.3447,0,13.289,5.9438,13.289,13.2895
				C529.4765,440.1099,523.5322,446.0542,516.1875,446.0542L516.1875,446.0542z"/>
		</g>
		<g>
			<rect x="654.3769" y="432.7646" fill="#5FD4AF" width="212.294" height="245.8545"/>
			<path fill="#4D4D4D" d="M866.6709,691.9092h-212.294c-7.3457,0-13.289-5.9444-13.289-13.2901V432.7646
				c0-7.3457,5.9433-13.2895,13.289-13.2895h212.294c7.3447,0,13.29,5.9438,13.29,13.2895v245.8545
				C879.9609,685.9648,874.0156,691.9092,866.6709,691.9092L866.6709,691.9092z M667.666,665.3301h185.7148V446.0542H667.666
				V665.3301L667.666,665.3301z"/>
		</g>
		<g>
			<line fill="#FFFFFF" x1="102.6557" y1="483.0415" x2="516.1875" y2="483.0415"/>
			<path fill="#4D4D4D" d="M516.1875,496.3306H102.6557c-7.3457,0-13.2895-5.9439-13.2895-13.2891
				c0-7.3457,5.9438-13.2895,13.2895-13.2895h413.5318c7.3447,0,13.289,5.9438,13.289,13.2895
				C529.4765,490.3867,523.5322,496.3306,516.1875,496.3306L516.1875,496.3306z"/>
		</g>
		<g>
			<line fill="#FFFFFF" x1="102.6557" y1="531.501" x2="516.1875" y2="531.501"/>
			<path fill="#4D4D4D" d="M516.1875,544.7905H102.6557c-7.3457,0-13.2895-5.9438-13.2895-13.2896
				c0-7.3452,5.9438-13.2896,13.2895-13.2896h413.5318c7.3447,0,13.289,5.9444,13.289,13.2896
				C529.4765,538.8467,523.5322,544.7905,516.1875,544.7905L516.1875,544.7905z"/>
		</g>
		<g>
			<line fill="#FFFFFF" x1="102.6557" y1="581.7773" x2="516.1875" y2="581.7773"/>
			<path fill="#4D4D4D" d="M516.1875,595.0674H102.6557c-7.3457,0-13.2895-5.9444-13.2895-13.2901s5.9438-13.289,13.2895-13.289
				h413.5318c7.3447,0,13.289,5.9433,13.289,13.289S523.5322,595.0674,516.1875,595.0674L516.1875,595.0674z"/>
		</g>
		<g>
			<line fill="#FFFFFF" x1="102.6557" y1="632.0801" x2="516.1875" y2="632.0801"/>
			<path fill="#4D4D4D" d="M516.1875,645.3701H102.6557c-7.3457,0-13.2895-5.9443-13.2895-13.29s5.9438-13.2891,13.2895-13.2891
				h413.5318c7.3447,0,13.289,5.9434,13.289,13.2891S523.5322,645.3701,516.1875,645.3701L516.1875,645.3701z"/>
		</g>
		<g>
			<line fill="#FFFFFF" x1="102.6557" y1="682.332" x2="516.1875" y2="682.332"/>
			<path fill="#4D4D4D" d="M516.1875,695.6211H102.6557c-7.3457,0-13.2895-5.9434-13.2895-13.2891
				c0-7.3456,5.9438-13.29,13.2895-13.29h413.5318c7.3447,0,13.289,5.9443,13.289,13.29
				C529.4765,689.6777,523.5322,695.6211,516.1875,695.6211L516.1875,695.6211z"/>
		</g>
		<g>
			<line fill="#FFFFFF" x1="102.6557" y1="730.791" x2="516.1875" y2="730.791"/>
			<path fill="#4D4D4D" d="M516.1875,744.0801H102.6557c-7.3457,0-13.2895-5.9434-13.2895-13.2891s5.9438-13.289,13.2895-13.289
				h413.5318c7.3447,0,13.289,5.9433,13.289,13.289S523.5322,744.0801,516.1875,744.0801L516.1875,744.0801z"/>
		</g>
		<g>
			<line fill="#FFFFFF" x1="102.6557" y1="781.0684" x2="516.1875" y2="781.0684"/>
			<path fill="#4D4D4D" d="M516.1875,794.3574H102.6557c-7.3457,0-13.2895-5.9433-13.2895-13.289s5.9438-13.2891,13.2895-13.2891
				h413.5318c7.3447,0,13.289,5.9434,13.289,13.2891S523.5322,794.3574,516.1875,794.3574L516.1875,794.3574z"/>
		</g>
		<g>
			<line fill="#FFFFFF" x1="102.6557" y1="883.8535" x2="516.1875" y2="883.8535"/>
			<path fill="#4D4D4D" d="M516.1875,897.1436H102.6557c-7.3457,0-13.2895-5.9444-13.2895-13.2901s5.9438-13.289,13.2895-13.289
				h413.5318c7.3447,0,13.289,5.9433,13.289,13.289S523.5322,897.1436,516.1875,897.1436L516.1875,897.1436z"/>
		</g>
		<g>
			<line fill="#FFFFFF" x1="102.6557" y1="833.1875" x2="516.1875" y2="833.1875"/>
			<path fill="#4D4D4D" d="M516.1875,846.4766H102.6557c-7.3457,0-13.2895-5.9434-13.2895-13.2891s5.9438-13.2891,13.2895-13.2891
				h413.5318c7.3447,0,13.289,5.9434,13.289,13.2891S523.5322,846.4766,516.1875,846.4766L516.1875,846.4766z"/>
		</g>
		<g>
			<path fill="#4D4D4D" d="M868.747,796.2783H647.4726c-7.3457,0-13.289-5.9443-13.289-13.29s5.9433-13.2891,13.289-13.2891H868.747
				c7.3457,0,13.2901,5.9434,13.2901,13.2891S876.0927,796.2783,868.747,796.2783L868.747,796.2783z"/>
		</g>
		<g>
			<path fill="#4D4D4D" d="M868.747,846.7363H647.4726c-7.3457,0-13.289-5.9433-13.289-13.289s5.9433-13.2891,13.289-13.2891
				H868.747c7.3457,0,13.2901,5.9434,13.2901,13.2891S876.0927,846.7363,868.747,846.7363L868.747,846.7363z"/>
		</g>
		<g>
			<path fill="#4D4D4D" d="M868.747,897.1436H647.4726c-7.3457,0-13.289-5.9444-13.289-13.2901s5.9433-13.289,13.289-13.289H868.747
				c7.3457,0,13.2901,5.9433,13.2901,13.289S876.0927,897.1436,868.747,897.1436L868.747,897.1436z"/>
		</g>
		<g>
			<path fill="#4D4D4D" d="M870.5117,745.8711H649.2636c-7.3457,0-13.29-5.9434-13.29-13.2891
				c0-7.3456,5.9443-13.2889,13.29-13.2889h221.2481c7.3456,0,13.29,5.9433,13.29,13.2889
				C883.8017,739.9277,877.8574,745.8711,870.5117,745.8711L870.5117,745.8711z"/>
		</g>
	</g>
</g>
</svg>
