<?xml version="1.0" encoding="utf-8"?>
<!-- Generator: Adobe Illustrator 17.1.0, SVG Export Plug-In . SVG Version: 6.00 Build 0)  -->
<!DOCTYPE svg PUBLIC "-//W3C//DTD SVG 1.1//EN" "http://www.w3.org/Graphics/SVG/1.1/DTD/svg11.dtd">
<svg version="1.1" id="screen-security-hand" xmlns="http://www.w3.org/2000/svg" xmlns:xlink="http://www.w3.org/1999/xlink"
	 x="0px" y="0px" viewBox="0 0 1010 894.1426" enable-background="new 0 0 1010 894.1426" xml:space="preserve">
<g>
	<g>
		<g>
			<path fill="#CCCCCC" d="M637,716.7481V817.835c0,0-3.3926,60.6709,53.9346,63.9902H273.0083
				c57.2793-3.3193,53.9351-63.9902,53.9351-63.9902V716.7481H637z"/>
			<path fill="#4D4D4D" d="M690.9346,894.1426H273.0083c-6.6636,0-12.1245-5.3037-12.3174-11.9561
				c-0.1924-6.664,4.9561-12.2695,11.6074-12.6543c44.5054-2.5859,42.4605-49.039,42.3521-51.0234l-0.0239-101.7607
				c0-6.8077,5.5088-12.3174,12.3169-12.3174H637c6.8076,0,12.3164,5.5097,12.3164,12.3174V817.835
				c-0.2519,5.6054-1.082,49.1836,42.3281,51.6972c6.6514,0.3848,11.7998,5.9903,11.6075,12.6543
				C703.0586,888.8389,697.5986,894.1426,690.9346,894.1426L690.9346,894.1426z M323.8159,869.5088h316.3345
				c-12.8457-16.707-16.2383-38.2021-15.4434-52.3594l-0.0254-88.084H339.2607v88.7696
				C340.0303,831.5947,336.6265,852.8858,323.8159,869.5088L323.8159,869.5088z"/>
		</g>
		<g>
			<rect x="12.3169" y="12.3174" fill="#FFFFFF" width="939.2495" height="728.0059"/>
			<path fill="#4D4D4D" d="M951.5664,752.6406H12.3169C5.5088,752.6406,0,747.1318,0,740.3233V12.3174C0,5.5093,5.5088,0,12.3169,0
				h939.2495c6.8076,0,12.3164,5.5093,12.3164,12.3174v728.0059C963.8828,747.1318,958.374,752.6406,951.5664,752.6406
				L951.5664,752.6406z M24.6338,728.0068H939.249V24.6343H24.6338V728.0068L24.6338,728.0068z"/>
		</g>
		<g>
			<rect x="75.2012" y="66.2647" fill="#5FD4AF" width="816.8476" height="620.123"/>
			<path fill="#4D4D4D" d="M892.0488,698.7061H75.2012c-6.8081,0-12.3169-5.5098-12.3169-12.3184V66.2647
				c0-6.8081,5.5088-12.3169,12.3169-12.3169h816.8475c6.8086,0,12.3184,5.5088,12.3184,12.3169v620.123
				C904.3672,693.1963,898.8574,698.7061,892.0488,698.7061L892.0488,698.7061z M87.5186,674.0713h792.2137V78.5816H87.5186
				V674.0713L87.5186,674.0713z"/>
		</g>
	</g>
	<g>
		<rect x="184.9121" y="203.9898" fill="#FF9554" width="596.0664" height="146.6142"/>
		<path fill="#4D4D4D" d="M780.9785,362.9209H184.9121c-6.8081,0-12.3169-5.5093-12.3169-12.3169V203.9898
			c0-6.8081,5.5088-12.3169,12.3169-12.3169h596.0664c6.8086,0,12.3184,5.5088,12.3184,12.3169V350.604
			C793.2969,357.4116,787.7871,362.9209,780.9785,362.9209L780.9785,362.9209z M197.2295,338.2866h571.4326V216.3067H197.2295
			V338.2866L197.2295,338.2866z"/>
	</g>
</g>
<g>
	<g>
		<polygon fill="#FFFFFF" points="774.5078,684.9932 774.5078,522.3936 837.7051,522.3936 837.7051,640.8975 997.6826,640.8975 
			997.6826,881.8252 776.5049,881.8252 724.4941,801.5 724.4941,684.9697 		"/>
		<path fill="#4D4D4D" d="M997.6826,894.1426H776.5049c-4.1738,0-8.0713-2.1162-10.3447-5.6172l-52.0108-80.3252
			c-1.2871-1.9971-1.9726-4.3301-1.9726-6.7002V684.9697c0-3.2724,1.2997-6.4004,3.6084-8.7089
			c2.3094-2.3096,5.4492-3.6094,8.7089-3.6094l0,0l37.6973,0.0244V522.3936c0-6.8087,5.5078-12.3174,12.3164-12.3174h63.1973
			c6.8086,0,12.3164,5.5088,12.3164,12.3174v106.1865h147.6611c6.8076,0,12.3174,5.5088,12.3174,12.3174v240.9277
			C1010,888.6338,1004.4902,894.1426,997.6826,894.1426L997.6826,894.1426z M783.2051,869.5088h202.1601V653.2139H837.7051
			c-6.8086,0-12.3164-5.5088-12.3164-12.3164V534.71h-38.5635v150.2832c0,3.2715-1.2998,6.3984-3.6084,8.709
			c-2.3096,2.3086-5.4492,3.6074-8.709,3.6074l0,0l-37.6973-0.0234v100.5693L783.2051,869.5088L783.2051,869.5088z"/>
	</g>
	<g>
		<path fill="#4D4D4D" d="M837.7051,726.9238c-6.8086,0-12.3164-5.5087-12.3164-12.3173v-73.709
			c0-6.8086,5.5078-12.3174,12.3164-12.3174s12.3164,5.5088,12.3164,12.3174v73.709
			C850.0215,721.4151,844.5137,726.9238,837.7051,726.9238L837.7051,726.9238z"/>
	</g>
	<g>
		<path fill="#4D4D4D" d="M894.9844,726.9238L894.9844,726.9238c-6.8086,0-12.3163-5.5205-12.3163-12.3173l0.0234-71.088
			c0-6.8077,5.5215-12.3163,12.3164-12.3163l0,0c6.8086,0,12.3184,5.5214,12.3184,12.3163l-0.0254,71.088
			C907.3008,721.4151,901.7803,726.9238,894.9844,726.9238L894.9844,726.9238z"/>
	</g>
	<g>
		<path fill="#4D4D4D" d="M946.3213,726.9238c-6.7959,0-12.3174-5.5087-12.3174-12.3173l-0.0234-71.088
			c0-6.795,5.5088-12.3163,12.3164-12.3163c6.7969,0,12.3183,5.5087,12.3183,12.3163l0.0235,71.088
			C958.6387,721.4033,953.1289,726.9238,946.3213,726.9238L946.3213,726.9238z"/>
	</g>
	<g>
		<path fill="#4D4D4D" d="M774.5078,726.9238c-6.8087,0-12.3164-5.5087-12.3164-12.3173v-31.586
			c0-6.8087,5.5078-12.3174,12.3164-12.3174c6.8086,0,12.3174,5.5088,12.3174,12.3174v31.586
			C786.8252,721.4151,781.3164,726.9238,774.5078,726.9238L774.5078,726.9238z"/>
	</g>
</g>
<g>
	<g>
		<g>
			<path fill="#4D4D4D" d="M282.2339,290.209h-20.1597c-6.8081,0-12.3169-5.5088-12.3169-12.3169s5.5088-12.3169,12.3169-12.3169
				h20.1597c6.8081,0,12.3174,5.5088,12.3174,12.3169S289.042,290.209,282.2339,290.209L282.2339,290.209z"/>
		</g>
		<g>
			<path fill="#4D4D4D" d="M333.6792,290.209h-20.1714c-6.8081,0-12.3169-5.5088-12.3169-12.3169s5.5088-12.3169,12.3169-12.3169
				h20.1714c6.8081,0,12.3174,5.5088,12.3174,12.3169S340.4873,290.209,333.6792,290.209L333.6792,290.209z"/>
		</g>
		<g>
			<path fill="#4D4D4D" d="M297.8711,276.7617c-6.8081,0-12.3174-5.5092-12.3174-12.3174v-20.1352
				c0-6.8081,5.5093-12.3174,12.3174-12.3174s12.3169,5.5093,12.3169,12.3174v20.1352
				C310.188,271.2525,304.6792,276.7617,297.8711,276.7617L297.8711,276.7617z"/>
		</g>
		<g>
			<path fill="#4D4D4D" d="M297.8711,328.231c-6.8081,0-12.3174-5.5088-12.3174-12.3169v-20.1358
				c0-6.8081,5.5093-12.3169,12.3174-12.3169s12.3169,5.5088,12.3169,12.3169v20.1358
				C310.188,322.7222,304.6792,328.231,297.8711,328.231L297.8711,328.231z"/>
		</g>
	</g>
	<g>
		<g>
			<path fill="#4D4D4D" d="M404.9355,290.209h-20.1596c-6.8081,0-12.3169-5.5088-12.3169-12.3169s5.5088-12.3169,12.3169-12.3169
				h20.1596c6.8082,0,12.3174,5.5088,12.3174,12.3169S411.7437,290.209,404.9355,290.209L404.9355,290.209z"/>
		</g>
		<g>
			<path fill="#4D4D4D" d="M456.4053,290.209h-20.1597c-6.8081,0-12.3174-5.5088-12.3174-12.3169s5.5093-12.3169,12.3174-12.3169
				h20.1597c6.8081,0,12.3169,5.5088,12.3169,12.3169S463.2134,290.209,456.4053,290.209L456.4053,290.209z"/>
		</g>
		<g>
			<path fill="#4D4D4D" d="M420.6084,276.7617c-6.8076,0-12.3169-5.5092-12.3169-12.3174v-20.1352
				c0-6.8081,5.5093-12.3174,12.3169-12.3174c6.8081,0,12.3174,5.5093,12.3174,12.3174v20.1352
				C432.9258,271.2525,427.4165,276.7617,420.6084,276.7617L420.6084,276.7617z"/>
		</g>
		<g>
			<path fill="#4D4D4D" d="M420.6084,328.231c-6.8076,0-12.3169-5.5088-12.3169-12.3169v-20.1358
				c0-6.8081,5.5093-12.3169,12.3169-12.3169c6.8081,0,12.3174,5.5088,12.3174,12.3169v20.1358
				C432.9258,322.7222,427.4165,328.231,420.6084,328.231L420.6084,328.231z"/>
		</g>
	</g>
	<g>
		<g>
			<path fill="#4D4D4D" d="M527.6494,290.209h-20.1357c-6.8081,0-12.3169-5.5088-12.3169-12.3169s5.5088-12.3169,12.3169-12.3169
				h20.1357c6.8076,0,12.3174,5.5088,12.3174,12.3169S534.457,290.209,527.6494,290.209L527.6494,290.209z"/>
		</g>
		<g>
			<path fill="#4D4D4D" d="M579.0947,290.209h-20.1113c-6.8076,0-12.3174-5.5088-12.3174-12.3169s5.5098-12.3169,12.3174-12.3169
				h20.1113c6.8076,0,12.3174,5.5088,12.3174,12.3169S585.9023,290.209,579.0947,290.209L579.0947,290.209z"/>
		</g>
		<g>
			<path fill="#4D4D4D" d="M543.3223,276.7617c-6.8086,0-12.3163-5.5092-12.3163-12.3174v-20.1352
				c0-6.8081,5.5078-12.3174,12.3163-12.3174c6.8087,0,12.3164,5.5093,12.3164,12.3174v20.1352
				C555.6387,271.2525,550.1309,276.7617,543.3223,276.7617L543.3223,276.7617z"/>
		</g>
		<g>
			<path fill="#4D4D4D" d="M543.3223,328.231c-6.8086,0-12.3163-5.5088-12.3163-12.3169v-20.1358
				c0-6.8081,5.5078-12.3169,12.3163-12.3169c6.8087,0,12.3164,5.5088,12.3164,12.3169v20.1358
				C555.6387,322.7222,550.1309,328.231,543.3223,328.231L543.3223,328.231z"/>
		</g>
	</g>
	<g>
		<g>
			<path fill="#4D4D4D" d="M650.3516,290.209h-20.1122c-6.8077,0-12.3174-5.5088-12.3174-12.3169s5.5097-12.3169,12.3174-12.3169
				h20.1122c6.8076,0,12.3165,5.5088,12.3165,12.3169S657.1592,290.209,650.3516,290.209L650.3516,290.209z"/>
		</g>
		<g>
			<path fill="#4D4D4D" d="M701.832,290.209h-20.1591c-6.8077,0-12.3174-5.5088-12.3174-12.3169s5.5097-12.3169,12.3174-12.3169
				h20.1591c6.8086,0,12.3174,5.5088,12.3174,12.3169S708.6406,290.209,701.832,290.209L701.832,290.209z"/>
		</g>
		<g>
			<path fill="#4D4D4D" d="M666.0117,276.7617c-6.8087,0-12.3164-5.5092-12.3164-12.3174v-20.1352
				c0-6.8081,5.5078-12.3174,12.3164-12.3174c6.8086,0,12.3174,5.5093,12.3174,12.3174v20.1352
				C678.3291,271.2525,672.8203,276.7617,666.0117,276.7617L666.0117,276.7617z"/>
		</g>
		<g>
			<path fill="#4D4D4D" d="M666.0117,328.231c-6.8087,0-12.3164-5.5088-12.3164-12.3169v-20.1358
				c0-6.8081,5.5078-12.3169,12.3164-12.3169c6.8086,0,12.3174,5.5088,12.3174,12.3169v20.1358
				C678.3291,322.7222,672.8203,328.231,666.0117,328.231L666.0117,328.231z"/>
		</g>
	</g>
</g>
</svg>
