<?xml version="1.0" encoding="utf-8"?>
<!-- Generator: Adobe Illustrator 17.1.0, SVG Export Plug-In . SVG Version: 6.00 Build 0)  -->
<!DOCTYPE svg PUBLIC "-//W3C//DTD SVG 1.1//EN" "http://www.w3.org/Graphics/SVG/1.1/DTD/svg11.dtd">
<svg version="1.1" id="screen-file-checkmark" xmlns="http://www.w3.org/2000/svg" xmlns:xlink="http://www.w3.org/1999/xlink"
	 x="0px" y="0px" viewBox="0 0 1010 892.0274" enable-background="new 0 0 1010 892.0274" xml:space="preserve">
<g>
	<g>
		<path fill="#CCCCCC" d="M635.584,715.1133v100.9248c0,0-3.3535,60.4981,53.8379,63.8985H272.2886
			c57.1684-3.4004,53.8149-63.8985,53.8149-63.8985V715.1133H635.584z"/>
		<path fill="#4D4D4D" d="M689.4219,892.0274H272.2886c-6.541,0-11.9014-5.1953-12.0904-11.7365
			c-0.189-6.5293,4.8409-12.0312,11.3819-12.4209c43.4961-2.5859,42.6933-46.2353,42.457-51.206l-0.0234-101.5508
			c0-6.6816,5.4072-12.0898,12.0898-12.0898H635.584c6.6816,0,12.0898,5.4083,12.0898,12.0898v100.9248
			c-0.2597,5.5967-1.0625,49.2461,42.4571,51.832c6.541,0.3897,11.5703,5.8916,11.3809,12.4209
			C701.3242,886.8321,695.9629,892.0274,689.4219,892.0274L689.4219,892.0274z M322.5381,867.8467h316.6582
			c-13.0342-16.6826-16.4824-38.29-15.6797-52.4814l-0.0234-88.1612H338.1938v88.834
			C338.9731,829.8282,335.5254,851.2344,322.5381,867.8467L322.5381,867.8467z"/>
	</g>
	<g>
		<rect x="12.0903" y="12.0904" fill="#FFFFFF" width="937.5064" height="726.5424"/>
		<path fill="#4D4D4D" d="M949.5967,750.7227H12.0903C5.4077,750.7227,0,745.3155,0,738.6328V12.0904C0,5.4077,5.4077,0,12.0903,0
			h937.5064c6.6826,0,12.0908,5.4077,12.0908,12.0904v726.5424C961.6875,745.3155,956.2793,750.7227,949.5967,750.7227
			L949.5967,750.7227z M24.1807,726.543h913.3251V24.1807H24.1807V726.543L24.1807,726.543z"/>
	</g>
	<g>
		<rect x="74.8555" y="65.9058" fill="#FF9554" width="815.33" height="618.936"/>
		<path fill="#4D4D4D" d="M890.1855,696.9316h-815.33c-6.6831,0-12.0904-5.4082-12.0904-12.0898V65.9058
			c0-6.6826,5.4073-12.0903,12.0904-12.0903h815.33c6.6817,0,12.0899,5.4077,12.0899,12.0903v618.936
			C902.2754,691.5234,896.8672,696.9316,890.1855,696.9316L890.1855,696.9316z M86.9453,672.751h791.1494V77.9956H86.9453V672.751
			L86.9453,672.751z"/>
	</g>
</g>
<g>
	<g>
		<polygon fill="#FFFFFF" points="764.75,671.2403 764.75,501.3638 830.7734,501.3638 830.7734,625.1465 997.9102,625.1465 
			997.9102,876.8203 766.8281,876.8672 712.4922,792.9444 712.4922,671.1924 		"/>
		<path fill="#4D4D4D" d="M766.8281,888.9571c-4.1093,0-7.9111-2.0782-10.1543-5.5137l-54.3349-83.9229
			c-1.251-1.9599-1.9366-4.2509-1.9366-6.5761v-121.752c0-3.2119,1.2754-6.2812,3.543-8.5478
			c2.2656-2.2676,5.336-3.542,8.5469-3.542l0,0l40.167,0.0351V501.3638c0-6.6826,5.4072-12.0903,12.0908-12.0903h66.0234
			c6.6817,0,12.0899,5.4077,12.0899,12.0903v111.6929h155.0469c6.6826,0,12.0898,5.4062,12.0898,12.0898v251.6738
			c0,6.67-5.4072,12.0898-12.0898,12.0898L766.8281,888.9571L766.8281,888.9571z M724.583,789.3672l48.8096,75.4102l212.4277-0.0479
			V637.2364H830.7734c-6.6836,0-12.0898-5.4082-12.0898-12.0899V513.4532h-41.8438v157.7871c0,3.2109-1.2753,6.2812-3.5419,8.5478
			s-5.337,3.542-8.5479,3.542l0,0l-40.167-0.0352V789.3672L724.583,789.3672z"/>
	</g>
	<g>
		<path fill="#4D4D4D" d="M830.7734,714.2637c-6.6836,0-12.0898-5.4072-12.0898-12.0898v-77.0273
			c0-6.6836,5.4062-12.0898,12.0898-12.0898c6.6817,0,12.0899,5.4062,12.0899,12.0898v77.0273
			C842.8633,708.8565,837.4551,714.2637,830.7734,714.2637L830.7734,714.2637z"/>
	</g>
	<g>
		<path fill="#4D4D4D" d="M890.6094,714.2637L890.6094,714.2637c-6.6817,0-12.0899-5.4199-12.0899-12.0898l0.0236-74.2891
			c0-6.6816,5.4081-12.0899,12.0908-12.0899l0,0c6.6826,0,12.0898,5.42,12.0898,12.0899l-0.0234,74.2891
			C902.7002,708.8565,897.293,714.2637,890.6094,714.2637L890.6094,714.2637z"/>
	</g>
	<g>
		<path fill="#4D4D4D" d="M944.2598,714.2637c-6.6827,0-12.0899-5.4072-12.0899-12.0898l-0.0234-74.2891
			c0-6.6699,5.4072-12.0899,12.0898-12.0899c6.6826,0,12.0899,5.4083,12.0899,12.0899l0.0234,74.2891
			C956.3496,708.8438,950.9434,714.2637,944.2598,714.2637L944.2598,714.2637z"/>
	</g>
	<g>
		<path fill="#4D4D4D" d="M764.75,714.2637c-6.6836,0-12.0908-5.4072-12.0908-12.0898v-33.0117
			c0-6.6837,5.4072-12.0898,12.0908-12.0898c6.6816,0,12.0898,5.4062,12.0898,12.0898v33.0117
			C776.8398,708.8565,771.4316,714.2637,764.75,714.2637L764.75,714.2637z"/>
	</g>
</g>
<g>
	<g>
		<polyline fill="#FFFFFF" points="662.8574,252.7837 662.8574,592.8907 323.9785,592.8907 323.9785,168.7666 569.3242,168.7666 		
			"/>
		<path fill="#4D4D4D" d="M662.8574,604.9805H323.9785c-6.6826,0-12.0903-5.4082-12.0903-12.0898V168.7666
			c0-6.6826,5.4077-12.0903,12.0903-12.0903h245.3457c6.6817,0,12.0898,5.4077,12.0898,12.0903
			c0,6.6826-5.4081,12.0899-12.0898,12.0899H336.0688v399.9433h314.6978V252.7837c0-6.6826,5.4072-12.0903,12.0908-12.0903
			c6.6817,0,12.0899,5.4077,12.0899,12.0903v340.107C674.9473,599.5723,669.5391,604.9805,662.8574,604.9805L662.8574,604.9805z"/>
	</g>
	<g>
		<path fill="#4D4D4D" d="M619.668,348.5366H360.7212c-6.6826,0-12.0903-5.4077-12.0903-12.0903s5.4077-12.0898,12.0903-12.0898
			H619.668c6.6826,0,12.0898,5.4072,12.0898,12.0898S626.3506,348.5366,619.668,348.5366L619.668,348.5366z"/>
	</g>
	<g>
		<path fill="#4D4D4D" d="M619.668,432.4356H360.7212c-6.6826,0-12.0903-5.4073-12.0903-12.0899
			c0-6.6826,5.4077-12.0903,12.0903-12.0903H619.668c6.6826,0,12.0898,5.4077,12.0898,12.0903
			C631.7578,427.0283,626.3506,432.4356,619.668,432.4356L619.668,432.4356z"/>
	</g>
	<g>
		<path fill="#4D4D4D" d="M619.668,519.168H360.7212c-6.6826,0-12.0903-5.4072-12.0903-12.0898
			c0-6.6827,5.4077-12.0899,12.0903-12.0899H619.668c6.6826,0,12.0898,5.4072,12.0898,12.0899
			C631.7578,513.7608,626.3506,519.168,619.668,519.168L619.668,519.168z"/>
	</g>
	<g>
		<polygon fill="#FFFFFF" points="660.6846,249.5015 575.959,168.4361 575.959,249.9029 		"/>
		<path fill="#4D4D4D" d="M575.959,261.9927c-3.1875,0-6.2578-1.2632-8.5244-3.5181c-2.2901-2.2671-3.5655-5.3603-3.5655-8.5717
			v-81.4668c0-4.8409,2.8809-9.2212,7.3438-11.1221c4.416-1.9009,9.5869-0.9917,13.1055,2.3848l84.7255,81.0654
			c3.5655,3.4121,4.6983,8.6308,2.8809,13.2119c-1.8428,4.5811-6.2578,7.5918-11.1924,7.6152l-84.7264,0.4014
			C576.0059,261.9927,575.9824,261.9927,575.959,261.9927L575.959,261.9927z M588.0488,196.7368v41.0166l42.67-0.2006
			L588.0488,196.7368L588.0488,196.7368z"/>
	</g>
	<g>
		<path fill="#4D4D4D" d="M536.2168,264.6846H360.7212c-6.6826,0-12.0903-5.4072-12.0903-12.0898
			c0-6.6827,5.4077-12.0904,12.0903-12.0904h175.4956c6.6836,0,12.0908,5.4077,12.0908,12.0904
			C548.3076,259.2774,542.9004,264.6846,536.2168,264.6846L536.2168,264.6846z"/>
	</g>
</g>
<g>
	<polygon fill="#5FD4AF" points="588.0723,396.2598 710.9336,216.0879 765.4814,216.0879 620.8486,434.4195 555.3203,434.4195 
		500.7495,314.3677 549.8896,314.3677 	"/>
	<path fill="#4D4D4D" d="M620.8486,446.5093h-65.5283c-4.7461,0-9.043-2.7744-11.0039-7.084l-54.5708-120.0512
		c-1.7002-3.7432-1.3931-8.0997,0.8501-11.5474c2.2197-3.4595,6.0454-5.5488,10.1538-5.5488h49.1401
		c4.6993,0,8.9737,2.727,10.9561,6.9775l29.2109,62.6353l110.8887-162.6153c2.2442-3.3056,5.998-5.2773,9.9883-5.2773h54.5478
		c4.4629,0,8.5479,2.4438,10.6495,6.3755c2.1015,3.9199,1.8896,8.6782-0.5663,12.3969L630.9316,441.1021
		C628.6875,444.4785,624.9102,446.5093,620.8486,446.5093L620.8486,446.5093z M563.1133,422.3291h51.2412l128.624-194.1508H717.334
		l-119.2725,174.894c-2.456,3.5893-6.9424,5.561-10.957,5.2422c-4.3447-0.3545-8.1465-3.0108-9.9883-6.9424l-34.9248-74.9141
		h-22.6689L563.1133,422.3291L563.1133,422.3291z"/>
</g>
</svg>
