<?xml version="1.0" encoding="utf-8"?>
<!-- Generator: Adobe Illustrator 17.1.0, SVG Export Plug-In . SVG Version: 6.00 Build 0)  -->
<!DOCTYPE svg PUBLIC "-//W3C//DTD SVG 1.1//EN" "http://www.w3.org/Graphics/SVG/1.1/DTD/svg11.dtd">
<svg version="1.1" id="send-receive-package" xmlns="http://www.w3.org/2000/svg" xmlns:xlink="http://www.w3.org/1999/xlink"
	 x="0px" y="0px" viewBox="0 0 1010.0013 812.8979" enable-background="new 0 0 1010.0013 812.8979" xml:space="preserve">
<g>
	<g>
		<g>
			<polygon fill="#CCCCCC" points="197.3447,227.5078 197.3447,434.0503 344.8975,581.6245 817.1332,581.6245 817.1332,375.021 			
				"/>
			<path fill="#4D4D4D" d="M817.1332,592.0464H344.8975c-2.7676,0-5.4141-1.0997-7.3682-3.0528L189.9756,441.4189
				c-1.9541-1.9541-3.0527-4.6006-3.0527-7.3686V227.5078c0-3.1856,1.4648-6.1978,3.9687-8.1826
				c2.4834-1.9947,5.7197-2.7276,8.875-1.9541l619.7905,147.5127c4.6817,1.1196,7.9981,5.3129,7.9981,10.1372v206.6035
				C827.5552,587.3842,822.895,592.0464,817.1332,592.0464L817.1332,592.0464z M349.2129,571.2026h457.4985V383.2544
				L207.7656,240.6982v189.0366L349.2129,571.2026L349.2129,571.2026z"/>
		</g>
		<g>
			<polygon fill="#DFDFE1" points="817.1332,375.021 344.8975,375.021 197.3447,227.5078 669.5815,227.5078 			"/>
			<path fill="#4D4D4D" d="M817.1332,385.4424H344.8975c-2.7676,0-5.4141-1.0992-7.3682-3.0533L189.9756,234.8764
				c-2.9717-2.9819-3.8672-7.4599-2.2588-11.3579c1.6074-3.8877,5.4141-6.4321,9.6279-6.4321h472.2369
				c2.7675,0,5.414,1.0991,7.3681,3.0532l147.5528,147.5127c2.9726,2.9819,3.8671,7.46,2.2597,11.3579
				C825.1547,382.8979,821.3481,385.4424,817.1332,385.4424L817.1332,385.4424z M349.2129,364.5991H791.975l-126.709-126.6694
				H222.5029L349.2129,364.5991L349.2129,364.5991z"/>
		</g>
		<g>
			<path fill="#4D4D4D" d="M344.8975,592.0464c-5.7598,0-10.4219-4.6622-10.4219-10.4219V375.021l16.2842-86.6411
				c1.0791-5.6587,6.4531-9.3228,12.1933-8.295c5.6377,1.0786,9.3633,6.5342,8.2842,12.1826l-16.1006,84.6973l0.1826,204.6597
				C355.3192,587.3842,350.6582,592.0464,344.8975,592.0464L344.8975,592.0464z"/>
		</g>
	</g>
	<g>
		<path fill="#4D4D4D" d="M631.558,298.2622H360.999c-1.2011,0-2.4023-0.2036-3.5214-0.6109l-153.7012-55.2636
			c-5.4141-1.9541-8.2237-7.9185-6.2901-13.3326c1.9541-5.4248,7.9795-8.2236,13.333-6.29l151.9913,54.6533h262.9868
			l34.9697-55.4673c3.0742-4.8852,9.5264-6.31,14.3711-3.2568c4.8643,3.0635,6.3301,9.5059,3.2568,14.3706l-38.0234,60.332
			C638.4584,296.4301,635.1401,298.2622,631.558,298.2622L631.558,298.2622z"/>
	</g>
	<g>
		<path fill="#4D4D4D" d="M807.4457,383.1118c-1.5273,0-3.0742-0.336-4.5195-1.0381l-175.8867-84.8496
			c-5.1914-2.4937-7.3692-8.7324-4.8653-13.9131c2.5039-5.2104,8.8135-7.3481,13.9024-4.8545l175.8867,84.8501
			c5.1914,2.4932,7.3691,8.7319,4.8652,13.9126C815.0375,380.9438,811.3129,383.1118,807.4457,383.1118L807.4457,383.1118z"/>
	</g>
</g>
<g>
	<path fill="#5FD4AF" d="M87.1631,271.2304l86.6709-93.2968h-41.6865c0-45.5547,36.9648-82.4888,82.5595-82.4888
		c45.5547,0,82.4786,36.9341,82.4786,82.4888h85.0429c0-92.4932-75.0283-167.5118-167.5215-167.5118
		c-92.5341,0-167.583,75.0186-167.583,167.5118H10.4238L87.1631,271.2304z"/>
	<path fill="#4D4D4D" d="M87.1631,281.6523c-0.1025,0-0.2041,0-0.3057,0c-3.0127-0.0918-5.8418-1.4756-7.7353-3.8061
		L2.3838,184.5488c-2.5645-3.104-3.1143-7.4194-1.3838-11.063c1.7305-3.6538,5.3936-5.9741,9.4238-5.9741h26.584
		C42.4219,74.2246,120.0567,0,214.707,0c98.1114,0,177.9434,79.8222,177.9434,177.9336c0,5.7602-4.6611,10.4213-10.4219,10.4213
		h-85.0429c-5.7608,0-10.4219-4.6611-10.4219-10.4213c0-39.7334-32.3233-72.0669-72.0567-72.0669
		c-36.2314,0-66.3164,26.8276-71.3847,61.645h30.5117c4.1523,0,7.8984,2.4526,9.5469,6.2593
		c1.6689,3.7959,0.916,8.2231-1.9131,11.2563l-86.6719,93.2969C92.8213,280.4511,90.0527,281.6523,87.1631,281.6523
		L87.1631,281.6523z M32.4893,188.3549l55.1416,67.0499l62.3066-67.0499h-17.79c-5.7608,0-10.4219-4.6611-10.4219-10.4213
		c0-51.2339,41.707-92.9107,92.9814-92.9107c47.6924,0,87.1192,36.1504,92.3106,82.4888h64.4433
		c-5.374-81.7866-73.624-146.668-156.7539-146.668c-86.6513,0-157.1611,70.4688-157.1611,157.0899
		c0,5.7602-4.6611,10.4213-10.4219,10.4213H32.4893L32.4893,188.3549z"/>
</g>
<g>
	<path fill="#FF9554" d="M922.8774,541.4839l-86.67,93.3691h41.666c0,45.6348-36.9648,82.5605-82.498,82.5605
		c-45.5753,0-82.499-36.9257-82.499-82.5605h-85.0635c0,92.5742,75.0488,167.623,167.5626,167.623
		c92.5331,0,167.541-75.0488,167.541-167.623h36.6602L922.8774,541.4839z"/>
	<path fill="#4D4D4D" d="M795.3755,812.8979c-98.1318,0-177.9844-79.873-177.9844-178.0449c0-5.7617,4.6612-10.4219,10.4219-10.4219
		h85.0635c5.7597,0,10.4219,4.6602,10.4219,10.4219c0,39.7734,32.3232,72.1387,72.0771,72.1387
		c36.2109,0,66.2753-26.8594,71.3223-61.7168h-30.4903c-4.1523,0-7.8984-2.4532-9.5468-6.2598
		c-1.67-3.7969-0.9161-8.2129,1.9121-11.2559l86.6718-93.3691c2.0352-2.209,4.8457-3.5117,7.9395-3.3281
		c3.0117,0.0918,5.8418,1.4863,7.7539,3.8066l76.6992,93.3692c2.543,3.1132,3.0938,7.4296,1.3633,11.0722
		c-1.7305,3.6446-5.3945,5.9649-9.4238,5.9649h-26.543C967.6176,738.6128,890.0043,812.8979,795.3755,812.8979L795.3755,812.8979z
		 M638.5806,645.2749c5.374,81.8359,73.6445,146.7793,156.7949,146.7793c86.6309,0,157.1191-70.5196,157.1191-157.2012
		c0-5.7617,4.6622-10.4219,10.4219-10.4219h14.6153l-55.1426-67.1113l-62.2852,67.1113h17.7695
		c5.7598,0,10.4219,4.6602,10.4219,10.4219c0,51.2734-41.6875,92.9805-92.9199,92.9805c-47.713,0-87.1406-36.1797-92.3516-82.5586
		H638.5806L638.5806,645.2749z"/>
</g>
</svg>
