<?xml version="1.0" encoding="utf-8"?>
<!-- Generator: Adobe Illustrator 17.1.0, SVG Export Plug-In . SVG Version: 6.00 Build 0)  -->
<!DOCTYPE svg PUBLIC "-//W3C//DTD SVG 1.1//EN" "http://www.w3.org/Graphics/SVG/1.1/DTD/svg11.dtd">
<svg version="1.1" id="shopping-cart" xmlns="http://www.w3.org/2000/svg" xmlns:xlink="http://www.w3.org/1999/xlink" x="0px"
	 y="0px" viewBox="0 0 820.2186 1010" enable-background="new 0 0 820.2186 1010" xml:space="preserve">
<g>
	<g>
		<g>
			<g>
				<polygon fill="#FF9554" points="205.1063,374.4277 205.1063,233.395 325.3978,283.1504 325.3978,324.6328 				"/>
				<path fill="#4D4D4D" d="M205.1063,384.708c-2.0078,0-3.9956-0.582-5.7124-1.7266c-2.8511-1.9072-4.5679-5.1201-4.5679-8.5537
					V233.395c0-3.4331,1.7168-6.646,4.5679-8.5532c2.8613-1.8877,6.4756-2.249,9.6377-0.9439l120.292,49.7549
					c3.8447,1.5865,6.3544,5.3413,6.3544,9.4976v41.4824c0,4.1563-2.5097,7.9111-6.3447,9.4971l-120.2915,49.7949
					C207.7767,384.4473,206.4417,384.708,205.1063,384.708L205.1063,384.708z M215.3865,248.7754v110.2725l99.731-41.2823v-27.7485
					L215.3865,248.7754L215.3865,248.7754z"/>
			</g>
			<g>
				<polygon fill="#FF9554" points="487.1922,374.4277 487.1922,233.395 366.9207,283.1504 366.9207,324.6328 				"/>
				<path fill="#4D4D4D" d="M487.1922,384.708c-1.335,0-2.6699-0.2607-3.9346-0.7832l-120.2719-49.7949
					c-3.8355-1.586-6.3452-5.3408-6.3452-9.4971v-41.4824c0-4.1563,2.5097-7.9111,6.3549-9.4976l120.272-49.7549
					c3.1719-1.3051,6.7861-0.9438,9.6377,0.9439c2.8516,1.9072,4.5674,5.1201,4.5674,8.5532v141.0327
					c0,3.4336-1.7158,6.6465-4.5674,8.5537C491.1883,384.126,489.201,384.708,487.1922,384.708L487.1922,384.708z M377.201,317.7656
					l99.7109,41.2823V248.7754l-99.7109,41.2417V317.7656L377.201,317.7656z"/>
			</g>
		</g>
		<g>
			<rect x="308.7728" y="264.3965" fill="#FF9554" width="72.1631" height="75.456"/>
			<path fill="#4D4D4D" d="M380.9359,350.1328h-72.1631c-5.6822,0-10.2803-4.5981-10.2803-10.2803v-75.456
				c0-5.6821,4.5981-10.2803,10.2803-10.2803h72.1631c5.6821,0,10.2802,4.5982,10.2802,10.2803v75.456
				C391.2161,345.5347,386.618,350.1328,380.9359,350.1328L380.9359,350.1328z M319.053,329.5723h51.6026v-54.8955H319.053V329.5723
				L319.053,329.5723z"/>
		</g>
	</g>
	<g>
		<rect x="114.5111" y="309.333" fill="#5FD4AF" width="422.1557" height="206.1279"/>
		<path fill="#4D4D4D" d="M536.6667,525.7412H114.5111c-5.6822,0-10.2803-4.5976-10.2803-10.2803V309.333
			c0-5.6826,4.5981-10.2803,10.2803-10.2803h422.1557c5.6817,0,10.2803,4.5977,10.2803,10.2803v206.1279
			C546.9471,521.1436,542.3484,525.7412,536.6667,525.7412L536.6667,525.7412z M124.7913,505.1807h401.5952V319.6133H124.7913
			V505.1807L124.7913,505.1807z"/>
	</g>
	<g>
		<rect x="317.1253" y="309.333" fill="#FF9554" width="58.0278" height="206.1279"/>
		<path fill="#4D4D4D" d="M375.1531,525.7412h-58.0278c-5.6821,0-10.2803-4.5976-10.2803-10.2803V309.333
			c0-5.6826,4.5982-10.2803,10.2803-10.2803h58.0278c5.6822,0,10.2803,4.5977,10.2803,10.2803v206.1279
			C385.4334,521.1436,380.8353,525.7412,375.1531,525.7412L375.1531,525.7412z M327.4056,505.1807h37.4673V319.6133h-37.4673
			V505.1807L327.4056,505.1807z"/>
	</g>
</g>
<g>
	<polygon fill="#F9F9F9" points="10.2825,489.7607 122.181,881.4561 653.7458,881.4561 653.7458,489.7607 	"/>
	<g>
		<g>
			<path fill="#FFFFFF" d="M306.6444,950.4463c0,27.2266-22.0464,49.2734-49.253,49.2734
				c-27.2065,0-49.2534-22.0468-49.2534-49.2734c0-27.1865,22.0469-49.2324,49.2534-49.2324
				C284.598,901.2139,306.6444,923.2598,306.6444,950.4463z"/>
			<path fill="#4D4D4D" d="M257.3914,1010c-32.8286,0-59.5337-26.7246-59.5337-59.5537c0-32.8086,26.7051-59.5127,59.5337-59.5127
				s59.5332,26.7041,59.5332,59.5127C316.9246,983.2754,290.22,1010,257.3914,1010L257.3914,1010z M257.3914,911.4941
				c-21.4946,0-38.9731,17.4678-38.9731,38.9522c0,21.5049,17.4785,38.9932,38.9731,38.9932
				c21.4942,0,38.9727-17.4883,38.9727-38.9932C296.3641,928.9619,278.8856,911.4941,257.3914,911.4941L257.3914,911.4941z"/>
		</g>
		<path fill="#4D4D4D" d="M282.3089,950.4463c0,13.7744-11.1235,24.9375-24.9175,24.9375
			c-13.7539,0-24.9175-11.1631-24.9175-24.9375c0-13.7734,11.1636-24.9375,24.9175-24.9375
			C271.1854,925.5088,282.3089,936.6729,282.3089,950.4463z"/>
	</g>
	<g>
		<g>
			<path fill="#FFFFFF" d="M586.4012,950.4463c0,27.2266-22.0459,49.2734-49.2529,49.2734
				c-27.1866,0-49.2325-22.0468-49.2325-49.2734c0-27.1865,22.0459-49.2324,49.2325-49.2324
				C564.3553,901.2139,586.4012,923.2598,586.4012,950.4463z"/>
			<path fill="#4D4D4D" d="M537.1483,1010c-32.8184,0-59.5127-26.7246-59.5127-59.5537c0-32.8086,26.6943-59.5127,59.5127-59.5127
				c32.8291,0,59.5332,26.7041,59.5332,59.5127C596.6815,983.2754,569.9774,1010,537.1483,1010L537.1483,1010z M537.1483,911.4941
				c-21.4737,0-38.9522,17.4678-38.9522,38.9522c0,21.5049,17.4785,38.9932,38.9522,38.9932
				c21.4941,0,38.9726-17.4883,38.9726-38.9932C576.1208,928.9619,558.6424,911.4941,537.1483,911.4941L537.1483,911.4941z"/>
		</g>
		<path fill="#4D4D4D" d="M562.0867,950.4463c0,13.7744-11.1445,24.9375-24.9384,24.9375
			c-13.7334,0-24.8975-11.1631-24.8975-24.9375c0-13.7734,11.1641-24.9375,24.8975-24.9375
			C550.9422,925.5088,562.0867,936.6729,562.0867,950.4463z"/>
	</g>
	<g>
		<polygon fill="#CCCCCC" points="809.9383,352.2207 681.7156,352.2207 681.7156,354.9517 680.5311,354.1885 579.6951,506.7471 
			639.7313,508.4736 707.9783,398.8437 809.9383,398.8437 		"/>
		<path fill="#4D4D4D" d="M639.7313,518.7539c-0.1006,0-0.2012,0-0.291,0l-60.0362-1.7266
			c-3.7344-0.1211-7.1074-2.2285-8.8348-5.5419c-1.7169-3.3125-1.5059-7.2881,0.5527-10.4004l100.835-152.5586
			c0.1308-0.2007,0.2617-0.4014,0.4121-0.5821c1.6162-3.5341,5.2003-6.0039,9.3466-6.0039h128.2227
			c5.6826,0,10.2803,4.5982,10.2803,10.2803v46.623c0,5.6827-4.5977,10.2803-10.2803,10.2803h-96.2471l-65.2363,104.791
			C646.578,516.9268,643.2752,518.7539,639.7313,518.7539L639.7313,518.7539z M598.4588,497.0088l35.6699,1.0234l65.126-104.6299
			c1.877-3.0117,5.1699-4.8388,8.7236-4.8388h91.6797V362.501H688.6932c-0.6123,0.5625-1.3057,1.0644-2.0586,1.4863
			c-0.1201,0.0606-0.251,0.1201-0.3809,0.1807L598.4588,497.0088L598.4588,497.0088z"/>
	</g>
	<g>
		<path fill="#CCCCCC" d="M10.2825,489.7607L122.181,881.4561h531.5649V489.7607H10.2825z M611.119,602.8838h-92.6035v-75.8174
			h92.6035V602.8838z M95.8577,644.8486H201.432v81.5995h-82.2422L95.8577,644.8486z M380.9559,644.8486h95.5752v81.5995h-95.5752
			V644.8486z M243.3963,602.8838v-75.8174h95.5747v75.8174H243.3963z M338.971,644.8486v81.5995h-95.5747v-81.5995H338.971z
			 M338.971,768.4131v75.7363h-95.5747v-75.7363H338.971z M380.9559,768.4131h95.5752v75.7363h-95.5752V768.4131z
			 M380.9559,602.8838v-75.8174h95.5752v75.8174H380.9559z M518.5155,644.8486h92.6035v81.5995h-92.6035V644.8486z
			 M201.432,527.0664v75.8174H83.8909l-21.665-75.8174H201.432z M131.1966,768.4131h70.2354v75.7363h-48.6309L131.1966,768.4131z
			 M518.5155,844.1494v-75.7363h92.6035v75.7363H518.5155z"/>
		<path fill="#4D4D4D" d="M653.7458,891.7363H122.181c-4.5879,0-8.6236-3.0518-9.8887-7.4492L0.3939,492.5918
			c-0.8838-3.1123-0.2613-6.4453,1.6762-9.0156c1.9478-2.5908,4.9898-4.0967,8.2124-4.0967h643.4634
			c5.6826,0,10.2803,4.5986,10.2803,10.2812v391.6954C664.0262,887.1387,659.4285,891.7363,653.7458,891.7363L653.7458,891.7363z
			 M129.9315,871.1758h513.5341V500.041H23.9158L129.9315,871.1758L129.9315,871.1758z M611.119,854.4297h-92.6035
			c-5.6827,0-10.2803-4.5977-10.2803-10.2803v-75.7363c0-5.6826,4.5976-10.2803,10.2803-10.2803h92.6035
			c5.6816,0,10.2802,4.5977,10.2802,10.2803v75.7363C621.3992,849.832,616.8006,854.4297,611.119,854.4297L611.119,854.4297z
			 M528.7957,833.8691h72.043v-55.1757h-72.043V833.8691L528.7957,833.8691z M476.5311,854.4297h-95.5752
			c-5.6821,0-10.2803-4.5977-10.2803-10.2803v-75.7363c0-5.6826,4.5982-10.2803,10.2803-10.2803h95.5752
			c5.6816,0,10.2802,4.5977,10.2802,10.2803v75.7363C486.8113,849.832,482.2127,854.4297,476.5311,854.4297L476.5311,854.4297z
			 M391.2362,833.8691h75.0146v-55.1757h-75.0146V833.8691L391.2362,833.8691z M338.971,854.4297h-95.5747
			c-5.6821,0-10.2803-4.5977-10.2803-10.2803v-75.7363c0-5.6826,4.5982-10.2803,10.2803-10.2803h95.5747
			c5.6826,0,10.2803,4.5977,10.2803,10.2803v75.7363C349.2513,849.832,344.6536,854.4297,338.971,854.4297L338.971,854.4297z
			 M253.6771,833.8691h75.0136v-55.1757h-75.0136V833.8691L253.6771,833.8691z M201.432,854.4297h-48.6309
			c-4.5879,0-8.6235-3.0518-9.8887-7.4688l-21.6045-75.7373c-0.8838-3.0918-0.2612-6.4247,1.6866-8.9951
			c1.9375-2.5898,4.9794-4.0957,8.2021-4.0957h70.2354c5.6821,0,10.2802,4.5977,10.2802,10.2803v75.7363
			C211.7122,849.832,207.1141,854.4297,201.432,854.4297L201.432,854.4297z M160.5618,833.8691h30.5899v-55.1757h-46.3316
			L160.5618,833.8691L160.5618,833.8691z M611.119,736.7285h-92.6035c-5.6827,0-10.2803-4.5976-10.2803-10.2803v-81.5995
			c0-5.6826,4.5976-10.2802,10.2803-10.2802h92.6035c5.6816,0,10.2802,4.5976,10.2802,10.2802v81.5995
			C621.3992,732.1309,616.8006,736.7285,611.119,736.7285L611.119,736.7285z M528.7957,716.168h72.043v-61.0391h-72.043V716.168
			L528.7957,716.168z M476.5311,736.7285h-95.5752c-5.6821,0-10.2803-4.5976-10.2803-10.2803v-81.5995
			c0-5.6826,4.5982-10.2802,10.2803-10.2802h95.5752c5.6816,0,10.2802,4.5976,10.2802,10.2802v81.5995
			C486.8113,732.1309,482.2127,736.7285,476.5311,736.7285L476.5311,736.7285z M391.2362,716.168h75.0146v-61.0391h-75.0146V716.168
			L391.2362,716.168z M338.971,736.7285h-95.5747c-5.6821,0-10.2803-4.5976-10.2803-10.2803v-81.5995
			c0-5.6826,4.5982-10.2802,10.2803-10.2802h95.5747c5.6826,0,10.2803,4.5976,10.2803,10.2802v81.5995
			C349.2513,732.1309,344.6536,736.7285,338.971,736.7285L338.971,736.7285z M253.6771,716.168h75.0136v-61.0391h-75.0136V716.168
			L253.6771,716.168z M201.432,736.7285h-82.2422c-4.5884,0-8.6241-3.0322-9.8892-7.4492l-23.3315-81.5996
			c-0.8833-3.1123-0.2608-6.4453,1.6767-9.0156c1.9478-2.5899,4.9898-4.0957,8.2119-4.0957H201.432
			c5.6821,0,10.2802,4.5976,10.2802,10.2802v81.5995C211.7122,732.1309,207.1141,736.7285,201.432,736.7285L201.432,736.7285z
			 M126.9398,716.168h64.2119v-61.0391h-81.6602L126.9398,716.168L126.9398,716.168z M611.119,613.1641h-92.6035
			c-5.6827,0-10.2803-4.5977-10.2803-10.2803v-75.8174c0-5.6826,4.5976-10.2803,10.2803-10.2803h92.6035
			c5.6816,0,10.2802,4.5977,10.2802,10.2803v75.8174C621.3992,608.5664,616.8006,613.1641,611.119,613.1641L611.119,613.1641z
			 M528.7957,592.6035h72.043v-55.2568h-72.043V592.6035L528.7957,592.6035z M476.5311,613.1641h-95.5752
			c-5.6821,0-10.2803-4.5977-10.2803-10.2803v-75.8174c0-5.6826,4.5982-10.2803,10.2803-10.2803h95.5752
			c5.6816,0,10.2802,4.5977,10.2802,10.2803v75.8174C486.8113,608.5664,482.2127,613.1641,476.5311,613.1641L476.5311,613.1641z
			 M391.2362,592.6035h75.0146v-55.2568h-75.0146V592.6035L391.2362,592.6035z M338.971,613.1641h-95.5747
			c-5.6821,0-10.2803-4.5977-10.2803-10.2803v-75.8174c0-5.6826,4.5982-10.2803,10.2803-10.2803h95.5747
			c5.6826,0,10.2803,4.5977,10.2803,10.2803v75.8174C349.2513,608.5664,344.6536,613.1641,338.971,613.1641L338.971,613.1641z
			 M253.6771,592.6035h75.0136v-55.2568h-75.0136V592.6035L253.6771,592.6035z M201.432,613.1641H83.8909
			c-4.5879,0-8.6235-3.0518-9.8886-7.4493l-21.6651-75.8173c-0.8833-3.1123-0.2607-6.4454,1.6768-9.0157
			c1.9477-2.5898,4.9892-4.0957,8.2119-4.0957H201.432c5.6821,0,10.2802,4.5977,10.2802,10.2803v75.8174
			C211.7122,608.5664,207.1141,613.1641,201.432,613.1641L201.432,613.1641z M91.6414,592.6035h99.5103v-55.2568H75.8597
			L91.6414,592.6035L91.6414,592.6035z"/>
	</g>
</g>
<g>
	<g>
		<path fill="#FFFFFF" d="M85.0154,161.0312c0,0-1.4458,42.2862-45.4179,48.2696c0,0,40.1172,2.6103,45.4179,45.0967
			c0,0,5.8433-42.3262,43.7515-46.7032C128.7669,207.6943,89.4129,206.2485,85.0154,161.0312z"/>
		<path fill="#4D4D4D" d="M85.0154,264.6777c-0.02,0-0.04,0-0.0703,0c-5.1601-0.04-9.4868-3.8955-10.1294-9.0151
			c-4.0761-32.6885-32.6982-35.8608-35.9511-36.1016c-5.2408-0.4218-9.3565-4.7187-9.5074-9.9594
			c-0.1503-5.2603,3.6441-9.7784,8.855-10.481c34.9771-4.7583,36.4829-37.0649,36.5332-38.4507
			c0.1807-5.4013,4.5376-9.7383,9.9488-9.9189c5.6923,0.1406,10.0293,3.8955,10.5512,9.2763
			c3.3833,34.7964,30.8511,37.2261,33.9737,37.4068c5.3408,0.2612,9.6172,4.5981,9.7783,9.9389
			c0.1704,5.3409-3.7451,9.919-9.0557,10.5416c-29.6465,3.413-34.6963,37.5473-34.7461,37.8881
			C94.4925,260.8828,90.1458,264.6777,85.0154,264.6777L85.0154,264.6777z M69.0028,209.1401
			c5.9331,3.9351,11.6054,9.1758,16.1835,16.023c3.8248-6.124,8.7842-12.0474,15.0889-16.8462
			c-5.602-3.7749-10.9429-8.855-15.31-15.541C81.0399,198.7793,75.8196,204.502,69.0028,209.1401L69.0028,209.1401z"/>
	</g>
	<g>
		<path fill="#FFFFFF" d="M271.6873,10.2803c0,0-1.4658,42.2861-45.438,48.2695c0,0,40.1372,2.6099,45.438,45.0566
			c0,0,5.8433-42.2861,43.7515-46.663C315.4388,56.9434,276.0848,55.4976,271.6873,10.2803z"/>
		<path fill="#4D4D4D" d="M271.6873,113.8867c-0.02,0-0.04,0-0.0703,0c-5.1601-0.04-9.4868-3.8955-10.1294-9.0156
			c-4.1968-33.6118-34.6162-35.981-35.9009-36.0615c-5.271-0.3409-9.4272-4.6182-9.6079-9.8985
			c-0.1904-5.2807,3.6543-9.8388,8.8848-10.5415c34.9775-4.7588,36.5034-37.0654,36.5537-38.4507
			C261.598,4.5176,265.9549,0.1807,271.366,0c5.9331,0,10.0293,3.8955,10.5513,9.2764
			c3.3833,34.7964,30.8511,37.226,33.9736,37.4067c5.3409,0.2612,9.6172,4.5981,9.7784,9.939
			c0.1704,5.3408-3.7452,9.9189-9.0557,10.541c-29.6465,3.4136-34.6963,37.5073-34.7461,37.8486
			C281.1644,110.0918,276.8177,113.8867,271.6873,113.8867L271.6873,113.8867z M255.6644,58.3887
			c5.9336,3.9355,11.6054,9.1762,16.1938,16.0029c3.8247-6.124,8.7842-12.0273,15.0889-16.8262
			c-5.6021-3.7944-10.9429-8.8745-15.3101-15.5405C267.7117,48.0283,262.4813,53.751,255.6644,58.3887L255.6644,58.3887z"/>
	</g>
	<g>
		<path fill="#FFFFFF" d="M339.8948,107.1802c0,0-1.4658,42.3261-45.4179,48.3095c0,0,40.1172,2.6099,45.4179,45.0567
			c0,0,5.8428-42.3262,43.7715-46.7031C383.6663,153.8433,344.2718,152.3975,339.8948,107.1802z"/>
		<path fill="#4D4D4D" d="M339.8948,210.8066c-0.0302,0-0.0703,0-0.1005,0c-5.1499-0.0605-9.4668-3.875-10.0997-8.9951
			c-4.0756-32.6484-32.6982-35.8208-35.9506-36.0615c-5.2408-0.4219-9.357-4.7188-9.5074-9.959
			c-0.1503-5.2607,3.6446-9.7783,8.8545-10.4814c33.9834-4.6382,36.3731-35.0772,36.5332-38.5508
			c0.251-5.3814,4.6182-9.6983,10.0098-9.8189c5.9531,0.6026,9.9688,3.8955,10.4907,9.2564
			c3.3736,34.7764,30.8711,37.206,33.9937,37.3667c5.3408,0.2807,9.6172,4.6182,9.7783,9.959
			c0.1704,5.3408-3.7451,9.9189-9.0557,10.5415c-29.3852,3.393-34.5654,36.5229-34.7666,37.9287
			C349.3319,207.0518,344.9949,210.8066,339.8948,210.8066L339.8948,210.8066z M323.8821,155.3291
			c5.9229,3.9355,11.5953,9.1558,16.1836,16.0029c3.8145-6.1445,8.7842-12.0473,15.0992-16.8462
			c-5.6021-3.7949-10.9532-8.875-15.3203-15.541C335.9193,144.9482,330.6986,150.6709,323.8821,155.3291L323.8821,155.3291z"/>
	</g>
</g>
</svg>
