<?xml version="1.0" encoding="utf-8"?>
<!-- Generator: Adobe Illustrator 17.1.0, SVG Export Plug-In . SVG Version: 6.00 Build 0)  -->
<!DOCTYPE svg PUBLIC "-//W3C//DTD SVG 1.1//EN" "http://www.w3.org/Graphics/SVG/1.1/DTD/svg11.dtd">
<svg version="1.1" id="up-download-disks" xmlns="http://www.w3.org/2000/svg" xmlns:xlink="http://www.w3.org/1999/xlink" x="0px"
	 y="0px" viewBox="0 0 710.2661 1010" enable-background="new 0 0 710.2661 1010" xml:space="preserve">
<g>
	<g>
		<path fill="#CCCCCC" d="M698.1831,908.8076c0,48.2051-39.0674,87.2725-87.2725,87.2725H99.0576
			c-48.2051,0-87.2729-39.0674-87.2729-87.2725l89.0234-360.6196c12.2969-49.4434,52.8589-73.7803,101.0215-73.7803h311.9443
			c40.3067,0,80.6983,21.6475,95.3858,73.7803L698.1831,908.8076z"/>
		<path fill="#4D4D4D" d="M610.9106,1007.0117H99.0576c-54.1509,0-98.2036-44.0527-98.2036-98.2041
			c0-0.8857,0.1069-1.7607,0.3203-2.6142l89.0235-360.6206c12.7876-51.418,54.5136-82.0957,111.6318-82.0957h311.9443
			c51.8985,0,91.4903,30.5605,105.9102,81.7436l89.1094,360.9727c0.2128,0.8535,0.3203,1.7285,0.3203,2.6142
			C709.1138,962.959,665.061,1007.0117,610.9106,1007.0117L610.9106,1007.0117z M22.7256,910.0889
			c0.6831,41.5127,34.6699,75.0615,76.332,75.0615h511.853c41.6622,0,75.6485-33.5488,76.3321-75.0615l-88.6934-359.2857
			c-11.5176-40.8608-43.2412-65.4653-84.7755-65.4653H201.8296c-47.106,0-80.0679,23.8677-90.4111,65.4868L22.7256,910.0889
			L22.7256,910.0889z"/>
	</g>
	<g>
		<path fill="#DFDFE1" d="M699.3364,918.4141c0,44.5332-35.3105,80.6552-78.8613,80.6552H89.7495
			c-43.5513,0-78.8188-36.1219-78.8188-80.6552l0,0c0-44.5752,35.2675-80.6973,78.8188-80.6973h530.7256
			C664.0259,837.7168,699.3364,873.8389,699.3364,918.4141L699.3364,918.4141z"/>
		<path fill="#4D4D4D" d="M620.4751,1010H89.7495C40.2637,1010,0,968.9141,0,918.4141c0-50.5205,40.2637-91.627,89.7495-91.627
			h530.7256c49.5068,0,89.791,41.1065,89.791,91.627C710.2661,968.9141,669.9819,1010,620.4751,1010L620.4751,1010z
			 M89.7495,848.6475c-37.4346,0-67.8887,31.2978-67.8887,69.7666c0,38.4492,30.4541,69.7245,67.8887,69.7245h530.7256
			c37.4551,0,67.9307-31.2754,67.9307-69.7245c0-38.4688-30.4756-69.7666-67.9307-69.7666H89.7495L89.7495,848.6475z"/>
	</g>
	<path fill="#4D4D4D" d="M487.4302,918.4141c0,6.662-5.2949,12.0839-11.8272,12.0839H73.311
		c-6.5327,0-11.8271-5.4218-11.8271-12.0839l0,0c0-6.7032,5.2944-12.125,11.8271-12.125h402.292
		C482.1353,906.2891,487.4302,911.7109,487.4302,918.4141L487.4302,918.4141z"/>
	<rect x="606.5552" y="902.2754" fill="#4D4D4D" width="32.2793" height="32.2578"/>
	<path fill="#4D4D4D" d="M562.1929,918.4141c0,9.9922-8.1553,18.1464-18.1455,18.1464c-10.0352,0-18.1895-8.1542-18.1895-18.1464
		c0-10.0332,8.1543-18.1671,18.1895-18.1671C554.0376,900.2471,562.1929,908.3809,562.1929,918.4141z"/>
</g>
<g>
	<g>
		<path fill="#FFFFFF" d="M698.1831,674.8711c0,48.2051-39.0674,87.251-87.2725,87.251H99.0576
			c-48.2051,0-87.2729-39.0459-87.2729-87.251l89.0234-360.6206c12.2969-49.4644,52.8589-73.8233,101.0215-73.8233h311.9443
			c40.3067,0,80.6983,21.6905,95.3858,73.8233L698.1831,674.8711z"/>
		<path fill="#4D4D4D" d="M610.9106,773.0527H99.0576c-54.1509,0-98.2036-44.0428-98.2036-98.1816
			c0-0.8867,0.1069-1.7617,0.3203-2.6152l89.0235-360.6206c12.7876-51.439,54.5136-82.1382,111.6318-82.1382h311.9443
			c51.8887,0,91.4785,30.5708,105.9102,81.7861l89.1094,360.9727c0.2128,0.8535,0.3203,1.7285,0.3203,2.6152
			C709.1138,729.0098,665.061,773.0527,610.9106,773.0527L610.9106,773.0527z M22.7256,676.1514
			c0.6831,41.5009,34.6699,75.04,76.332,75.04h511.853c41.6622,0,75.6485-33.5391,76.3321-75.04l-88.6934-359.2857
			c-11.5273-40.893-43.252-65.5078-84.7755-65.5078H201.8296c-47.106,0-80.0571,23.8892-90.4111,65.5293L22.7256,676.1514
			L22.7256,676.1514z"/>
	</g>
	<g>
		<path fill="#FFFFFF" d="M699.3364,684.4346c0,44.5753-35.3105,80.6982-78.8613,80.6982H89.7495
			c-43.5513,0-78.8188-36.123-78.8188-80.6982l0,0c0-44.5331,35.2675-80.6553,78.8188-80.6553h530.7256
			C664.0259,603.7793,699.3364,639.9014,699.3364,684.4346L699.3364,684.4346z"/>
		<path fill="#4D4D4D" d="M620.4751,776.0625H89.7495C40.2637,776.0625,0,734.9561,0,684.4346
			c0-50.4999,40.2637-91.585,89.7495-91.585h530.7256c49.5068,0,89.791,41.085,89.791,91.585
			C710.2661,734.9561,669.9819,776.0625,620.4751,776.0625L620.4751,776.0625z M89.7495,614.71
			c-37.4346,0-67.8887,31.2763-67.8887,69.7245c0,38.4697,30.4541,69.7666,67.8887,69.7666h530.7256
			c37.4551,0,67.9307-31.2969,67.9307-69.7666c0-38.4482-30.4756-69.7245-67.9307-69.7245H89.7495L89.7495,614.71z"/>
	</g>
	<path fill="#4D4D4D" d="M487.4302,684.4346c0,6.7041-5.2949,12.1259-11.8272,12.1259H73.311
		c-6.5327,0-11.8271-5.4218-11.8271-12.1259l0,0c0-6.6612,5.2944-12.0829,11.8271-12.0829h402.292
		C482.1353,672.3516,487.4302,677.7734,487.4302,684.4346L487.4302,684.4346z"/>
	<rect x="606.5552" y="668.2949" fill="#4D4D4D" width="32.2793" height="32.2793"/>
	<path fill="#4D4D4D" d="M562.1929,684.4346c0,10.0341-8.1553,18.1671-18.1455,18.1671c-10.0352,0-18.1895-8.1329-18.1895-18.1671
		c0-10.0127,8.1543-18.1465,18.1895-18.1465C554.0376,666.2881,562.1929,674.4219,562.1929,684.4346z"/>
</g>
<g>
	<path fill="#5FD4AF" d="M352.5928,173.521L243.8862,22.3091c-19.2993-25.127-36.7622-0.8111-36.7622-0.8111L94.4888,171.2153
		c-10.1192,20.6656,12.0405,20.1319,12.0405,20.1319h52.4751v198.1997h127.4932V191.3472h54.4389
		C340.9365,191.3472,357.9302,191.582,352.5928,173.521z"/>
	<path fill="#4D4D4D" d="M286.4976,400.4775H159.0044c-6.042,0-10.9307-4.8886-10.9307-10.9306V202.2773h-41.5444h-0.0107
		c-3.8638,0-16.3848-0.7793-22.5971-10.7382c-2.957-4.7393-5.2197-12.937,0.7471-25.127L198.3921,14.9224
		C199.353,13.5776,209.5684,0,225.4194,0c10.0235,0,19.1607,5.2622,27.1343,15.6484l108.9097,151.4893
		c0.7256,1.0034,1.2593,2.1138,1.6118,3.2876c3.3516,11.3364,0.3735,18.6377-2.7114,22.7685
		c-6.458,8.646-17.2925,9.0835-19.3951,9.0835h-43.5405v187.2696C297.4282,395.5889,292.5396,400.4775,286.4976,400.4775
		L286.4976,400.4775z M169.9346,378.6167h105.6328V191.3472c0-6.042,4.8887-10.9307,10.9302-10.9307h54.4389
		c0.5659-0.0215,1.4409-0.2134,1.9214-0.4268c-0.0962-0.1494-0.1279-0.726-0.3418-1.7612L235.0156,28.6924
		c-1.8359-2.3804-5.8174-6.8316-9.5962-6.8316c-3.7251,0-7.9843,4.0992-9.4677,6.0845L103.2202,177.7905
		c-0.5229,1.4839-0.459,2.7969-0.4482,2.9356c-0.0425-0.7471,2.0815-0.3096,3.6079-0.3096h52.6245
		c6.0415,0,10.9302,4.8887,10.9302,10.9307V378.6167L169.9346,378.6167z"/>
</g>
<g>
	<path fill="#FF9554" d="M339.9971,413.436l108.7065,151.2329c19.2988,25.128,36.7627,0.8116,36.7627,0.8116l112.5928-149.6963
		c10.1611-20.6865-11.9981-20.1529-11.9981-20.1529h-52.4746V197.4102H406.0493v198.2211h-54.396
		C351.6533,395.6313,334.6602,395.375,339.9971,413.436z"/>
	<path fill="#4D4D4D" d="M467.1704,586.9785c-10.0234,0-19.1601-5.2627-27.1338-15.6484L331.127,419.8193
		c-0.7261-1.0034-1.2598-2.1137-1.6119-3.2876c-3.3515-11.3256-0.3735-18.6269,2.7115-22.7578
		c6.4472-8.6352,17.2812-9.0732,19.3842-9.0732h43.5088V197.4102c0-6.042,4.8887-10.9307,10.9297-10.9307h127.5371
		c6.041,0,10.9297,4.8887,10.9297,10.9307v187.2905h41.5449h0.0098c3.8535,0,16.375,0.7793,22.5879,10.7383
		c2.9453,4.7397,5.209,12.9589-0.791,25.1596L494.1978,572.0557C493.2368,573.4004,483.022,586.9785,467.1704,586.9785
		L467.1704,586.9785z M350.0737,408.7285l107.501,149.5576c1.8359,2.3804,5.8164,6.8311,9.5957,6.8311
		c3.7256,0,7.9844-4.0986,9.4688-6.084L589.3267,409.209c0.5234-1.4839,0.4804-2.7754,0.4697-2.9673
		c0.0322,0.7686-2.0283,0.3306-3.5869,0.3203h-52.6231c-6.042,0-10.9316-4.8891-10.9316-10.9307v-187.291H416.98v187.291
		c0,6.0416-4.8887,10.9307-10.9307,10.9307h-54.396c-0.5654,0.0103-1.4409,0.2134-1.9214,0.416
		C349.8281,407.1274,349.8604,407.7041,350.0737,408.7285L350.0737,408.7285z"/>
</g>
</svg>
