<?xml version="1.0" encoding="iso-8859-1"?>
<!-- Generator: Adobe Illustrator 19.0.0, SVG Export Plug-In . SVG Version: 6.00 Build 0)  -->
<svg version="1.1" id="Layer_1" xmlns="http://www.w3.org/2000/svg" xmlns:xlink="http://www.w3.org/1999/xlink" x="0px" y="0px"
	 viewBox="0 0 512 512" style="enable-background:new 0 0 512 512;" xml:space="preserve">
<g>
	<path style="fill:#FF6600;" d="M28.16,127.36l150.784-77.632v22.416L51.888,135.808v0.656l127.056,63.696v22.416L28.16,144.912
		V127.36z"/>
	<path style="fill:#FF6600;" d="M199.92,235.584L290.56,0h22.112l-90.976,235.584H199.92z"/>
	<path style="fill:#FF6600;" d="M483.84,145.264l-150.784,77.328V200.16l128.016-63.696v-0.656L333.056,72.144V49.728
		l150.784,77.328L483.84,145.264L483.84,145.264z"/>
</g>
<circle cx="256" cy="323.2" r="56.816"/>
<path d="M253.312,512l-54.896-119.008c0,0-57.584,0.768-57.584,53.744s0,65.264,0,65.264S253.696,512,253.312,512z"/>
<path d="M258.688,512l54.896-119.008c0,0,57.584,0.768,57.584,53.744s0,65.264,0,65.264S258.304,512,258.688,512z"/>
<polygon style="fill:#22ACDD;" points="256,392.992 216.464,392.992 256,480.528 295.536,392.992 "/>
<g>
</g>
<g>
</g>
<g>
</g>
<g>
</g>
<g>
</g>
<g>
</g>
<g>
</g>
<g>
</g>
<g>
</g>
<g>
</g>
<g>
</g>
<g>
</g>
<g>
</g>
<g>
</g>
<g>
</g>
</svg>
