<?xml version="1.0" encoding="iso-8859-1"?>
<!-- Generator: Adobe Illustrator 19.0.0, SVG Export Plug-In . SVG Version: 6.00 Build 0)  -->
<svg version="1.1" id="Layer_1" xmlns="http://www.w3.org/2000/svg" xmlns:xlink="http://www.w3.org/1999/xlink" x="0px" y="0px"
	 viewBox="0 0 512 512" style="enable-background:new 0 0 512 512;" xml:space="preserve">
<g>
	<path style="fill:#BDCCD4;" d="M157.223,150.805c0-23.476,9.116-44.819,23.997-60.695c-5.667-1.238-11.546-1.909-17.583-1.909
		c-45.296,0-82.016,36.719-82.016,82.016c0,45.296,36.719,82.016,82.016,82.016c19.497,0,37.393-6.815,51.468-18.177
		C181.307,221.506,157.223,188.969,157.223,150.805z"/>
	<path style="fill:#BDCCD4;" d="M379.405,306.726c12.547-8.531,27.697-13.521,44.014-13.521c3.396,0,6.736,0.241,10.018,0.659
		c-27.456-25.813-64.414-41.634-105.073-41.634c-5.609,0-11.145,0.305-16.597,0.891
		C338.776,264.783,362.077,283.402,379.405,306.726z"/>
	<path style="fill:#BDCCD4;" d="M180.233,253.122c-5.452-0.586-10.989-0.891-16.597-0.891c-84.741,0-153.437,68.697-153.437,153.438
		h69.714C79.913,337.305,121.221,278.599,180.233,253.122z"/>
	<path style="fill:#BDCCD4;" d="M276.894,234.054c14.075,11.362,31.971,18.177,51.468,18.177c45.296,0,82.016-36.719,82.016-82.016
		c0-45.296-36.719-82.016-82.016-82.016c-6.038,0-11.917,0.671-17.583,1.909c14.881,15.875,23.997,37.219,23.997,60.695
		C334.777,188.969,310.692,221.506,276.894,234.054z"/>
</g>
<g>
	<path style="fill:#29ABE2;" d="M379.405,306.726c-17.328-23.326-40.629-41.943-67.639-53.604
		c-20.169-8.707-42.401-13.54-65.766-13.54s-45.597,4.833-65.765,13.54c-59.013,25.477-100.32,84.183-100.32,152.545h95.013h142.148
		h35.741c-4.983-10.305-7.779-21.865-7.779-34.08C345.035,344.615,358.663,320.829,379.405,306.726z"/>
	<path style="fill:#29ABE2;" d="M334.777,150.805c0-23.476-9.116-44.819-23.997-60.695C294.583,72.829,271.554,62.028,246,62.028
		s-48.582,10.801-64.78,28.081c-14.881,15.875-23.997,37.219-23.997,60.695c0,38.164,24.084,70.701,57.882,83.249
		c9.622,3.573,20.029,5.528,30.895,5.528c10.866,0,21.272-1.955,30.895-5.528C310.692,221.506,334.777,188.969,334.777,150.805z"/>
</g>
<path style="fill:#7AC943;" d="M433.436,293.865c-3.283-0.419-6.621-0.659-10.018-0.659c-16.317,0-31.466,4.989-44.014,13.521
	c-20.742,14.102-34.369,37.889-34.369,64.862c0,12.215,2.796,23.774,7.779,34.08c12.679,26.218,39.528,44.303,70.603,44.303
	c43.29,0,78.383-35.093,78.383-78.383C501.801,331.696,471.991,298.787,433.436,293.865z"/>
<path d="M120.381,382.472c-0.788,0-1.59-0.092-2.392-0.285c-5.476-1.317-8.85-6.822-7.534-12.3
	c8.683-36.128,32.034-67.825,64.067-86.962c4.836-2.889,11.098-1.311,13.987,3.525c2.888,4.835,1.311,11.098-3.525,13.986
	c-27.352,16.341-47.289,43.393-54.695,74.218C129.167,379.329,124.988,382.472,120.381,382.472z"/>
<path d="M215.916,287.185c-4.617,0-8.802-3.158-9.915-7.846c-1.3-5.481,2.088-10.978,7.568-12.279
	c10.511-2.495,21.365-3.76,32.265-3.76c5.632,0,10.199,4.566,10.199,10.199s-4.567,10.199-10.199,10.199
	c-9.315,0-18.585,1.08-27.554,3.209C217.489,287.095,216.696,287.185,215.916,287.185z"/>
<path d="M437.881,284.194c-17.589-15.873-38.628-27.987-61.844-35.07c26.677-16.178,44.54-45.496,44.54-78.908
	c0-50.847-41.368-92.215-92.215-92.215c-4.832,0-9.577,0.375-14.211,1.095C296.391,62.209,272.385,51.829,246,51.829
	s-50.391,10.379-68.152,27.268c-4.633-0.72-9.379-1.095-14.212-1.095c-50.847,0-92.214,41.368-92.214,92.215
	c0,33.412,17.863,62.729,44.539,78.907C48.914,269.582,0,332.016,0,405.669c0,5.633,4.567,10.199,10.199,10.199h69.714h266.808
	c15.338,26.464,43.973,44.303,76.697,44.303c48.844,0,88.582-39.737,88.582-88.582C512,327.669,479.869,291.119,437.881,284.194z
	 M405.276,284.878c-8.304,1.735-16.182,4.639-23.459,8.527c-9.022-10.897-19.328-20.692-30.684-29.155
	C370.793,267.402,389.132,274.563,405.276,284.878z M400.179,170.216c0,39.599-32.217,71.817-71.817,71.817
	c-10.953,0-21.336-2.474-30.634-6.878c28.322-17.434,47.248-48.721,47.248-84.348c0-19.216-5.511-37.167-15.025-52.366
	C368.818,99.29,400.179,131.148,400.179,170.216z M246,72.227c16.528,0,31.871,5.141,44.54,13.891
	c6.269,4.331,11.878,9.547,16.65,15.469c10.864,13.48,17.387,30.598,17.387,49.217c0,31.604-18.764,58.892-45.729,71.355
	c-6.807,3.146-14.132,5.347-21.816,6.433c-3.607,0.509-7.287,0.79-11.032,0.79c-3.746,0-7.426-0.28-11.033-0.79
	c-7.683-1.085-15.009-3.286-21.816-6.433c-26.964-12.463-45.728-39.751-45.728-71.355c0-18.62,6.523-35.737,17.387-49.217
	c4.772-5.922,10.381-11.138,16.65-15.469C214.128,77.369,229.472,72.227,246,72.227z M91.82,170.216
	c0-39.068,31.362-70.926,70.229-71.777c-9.515,15.199-15.025,33.149-15.025,52.366c0,35.628,18.925,66.915,47.247,84.348
	c-9.299,4.404-19.681,6.878-30.634,6.878C124.037,242.032,91.82,209.815,91.82,170.216z M140.868,264.249
	c-40.6,30.26-67.776,77.564-70.853,131.221H20.758C25.465,328.84,75.951,274.661,140.868,264.249z M90.441,395.47
	c3.81-58.73,40.297-108.693,91.412-131.863c11.944-5.415,24.685-9.37,37.997-11.627c8.505-1.442,17.24-2.197,26.149-2.197
	c8.909,0,17.644,0.755,26.148,2.197c13.312,2.258,26.053,6.212,37.998,11.627c21.239,9.628,39.953,23.875,54.845,41.463
	c-18.474,16.246-30.154,40.043-30.154,66.521c0,8.272,1.143,16.28,3.273,23.88H90.441V395.47z M423.418,439.772
	c-20.705,0-39.271-9.289-51.785-23.905c-5.133-5.994-9.251-12.88-12.072-20.398c-2.79-7.436-4.327-15.481-4.327-23.88
	c0-19.765,8.46-37.584,21.942-50.049c4.992-4.616,10.669-8.502,16.867-11.473c8.901-4.267,18.862-6.662,29.375-6.662
	c1.811,0,3.601,0.093,5.377,0.232c14.69,1.153,28.08,6.972,38.693,15.984c14.737,12.517,24.114,31.164,24.114,51.969
	c0,4.116-0.387,8.141-1.089,12.059c-2.18,12.157-7.586,23.203-15.308,32.22C462.689,430.483,444.123,439.772,423.418,439.772z"/>
<path d="M459.336,362.968h-25.593v-25.592c0-5.633-4.567-10.199-10.199-10.199c-5.632,0-10.199,4.566-10.199,10.199v25.592h-25.592
	c-5.632,0-10.199,4.566-10.199,10.199s4.567,10.199,10.199,10.199h25.592v25.592c0,5.633,4.567,10.199,10.199,10.199
	c5.632,0,10.199-4.566,10.199-10.199v-25.592h25.593c5.632,0,10.199-4.566,10.199-10.199S464.969,362.968,459.336,362.968z"/>
<g>
</g>
<g>
</g>
<g>
</g>
<g>
</g>
<g>
</g>
<g>
</g>
<g>
</g>
<g>
</g>
<g>
</g>
<g>
</g>
<g>
</g>
<g>
</g>
<g>
</g>
<g>
</g>
<g>
</g>
</svg>
