<?xml version="1.0" encoding="iso-8859-1"?>
<!-- Generator: Adobe Illustrator 19.0.0, SVG Export Plug-In . SVG Version: 6.00 Build 0)  -->
<svg version="1.1" id="Layer_1" xmlns="http://www.w3.org/2000/svg" xmlns:xlink="http://www.w3.org/1999/xlink" x="0px" y="0px"
	 viewBox="0 0 512 512" style="enable-background:new 0 0 512 512;" xml:space="preserve">
<polygon style="fill:#C7CAC7;" points="448.08,257.063 448.08,426.545 205.155,426.545 205.155,494.337 120.414,426.545 
	63.92,426.545 63.92,257.063 306.845,257.063 306.845,324.856 391.586,257.063 "/>
<polygon style="fill:#FFD248;" points="448.08,8.489 448.08,257.063 391.586,257.063 306.845,324.856 306.845,257.063 
	63.92,257.063 63.92,8.489 "/>
<g>
	<path style="fill:#231F20;" d="M55.431,0v435.034h62.005L213.644,512v-76.966h242.925V0H55.431z M72.409,16.978h367.182v231.596
		h-50.983l-73.274,58.62v-58.62H72.409V16.978z M439.591,418.056H196.666v58.62l-73.274-58.62H72.409V265.552h225.947v76.966
		l96.207-76.966h45.027L439.591,418.056L439.591,418.056z"/>
	<rect x="109.122" y="56.494" style="fill:#231F20;" width="293.772" height="16.978"/>
	<rect x="109.122" y="101.686" style="fill:#231F20;" width="293.772" height="16.978"/>
	<rect x="109.122" y="146.88" style="fill:#231F20;" width="293.772" height="16.978"/>
	<rect x="109.122" y="192.075" style="fill:#231F20;" width="293.772" height="16.978"/>
	<rect x="363.336" y="316.364" style="fill:#231F20;" width="39.545" height="16.978"/>
	<rect x="109.122" y="316.364" style="fill:#231F20;" width="163.836" height="16.978"/>
	<rect x="109.122" y="361.559" style="fill:#231F20;" width="293.772" height="16.978"/>
</g>
<g>
</g>
<g>
</g>
<g>
</g>
<g>
</g>
<g>
</g>
<g>
</g>
<g>
</g>
<g>
</g>
<g>
</g>
<g>
</g>
<g>
</g>
<g>
</g>
<g>
</g>
<g>
</g>
<g>
</g>
</svg>
