<?xml version="1.0" encoding="iso-8859-1"?>
<!-- Generator: Adobe Illustrator 19.0.0, SVG Export Plug-In . SVG Version: 6.00 Build 0)  -->
<svg version="1.1" id="Layer_1" xmlns="http://www.w3.org/2000/svg" xmlns:xlink="http://www.w3.org/1999/xlink" x="0px" y="0px"
	 viewBox="0 0 512 512" style="enable-background:new 0 0 512 512;" xml:space="preserve">
<rect x="8.272" y="393.626" style="fill:#FF9D48;" width="495.459" height="71.566"/>
<polygon style="fill:#FFD248;" points="228.475,134.889 503.728,134.889 503.728,393.627 8.272,393.627 8.272,46.807 
	173.424,46.807 "/>
<path style="fill:#231F20;" d="M233.06,126.616l-55.051-88.08H0v434.929h512V126.616H233.06z M168.84,55.079l44.711,71.536H52.313
	v16.544h57.789v220.203h110.13v-176.19h-66.09v134.889h16.544V203.716h33.002v143.103h-77.042V143.16h368.811v242.194H16.544V55.079
	H168.84z M16.544,456.921v-55.023h478.912v21.991H112.869v16.544h382.587v16.487H16.544V456.921z"/>
<g>
</g>
<g>
</g>
<g>
</g>
<g>
</g>
<g>
</g>
<g>
</g>
<g>
</g>
<g>
</g>
<g>
</g>
<g>
</g>
<g>
</g>
<g>
</g>
<g>
</g>
<g>
</g>
<g>
</g>
</svg>
