<?xml version="1.0" encoding="iso-8859-1"?>
<!-- Generator: Adobe Illustrator 19.0.0, SVG Export Plug-In . SVG Version: 6.00 Build 0)  -->
<svg version="1.1" id="Layer_1" xmlns="http://www.w3.org/2000/svg" xmlns:xlink="http://www.w3.org/1999/xlink" x="0px" y="0px"
	 viewBox="0 0 503.467 503.467" style="enable-background:new 0 0 503.467 503.467;" xml:space="preserve">
<g transform="translate(1 1)">
	<path style="fill:#E4F2DE;" d="M498.2,353.133v136.533c0,4.267-3.413,8.533-8.533,8.533H370.2c-5.12,0-8.533-4.267-8.533-8.533
		V353.133c0-4.267,3.413-8.533,8.533-8.533h59.733h59.733C494.787,344.6,498.2,348.867,498.2,353.133z M319,353.133v136.533
		c0,4.267-3.413,8.533-8.533,8.533H191c-5.12,0-8.533-4.267-8.533-8.533V353.133c0-4.267,3.413-8.533,8.533-8.533h59.733h59.733
		C315.587,344.6,319,348.867,319,353.133z M139.8,353.133v136.533c0,4.267-4.267,8.533-8.533,8.533H11.8
		c-4.267,0-8.533-4.267-8.533-8.533V353.133c0-4.267,4.267-8.533,8.533-8.533h59.733h59.733
		C135.533,344.6,139.8,348.867,139.8,353.133z"/>
	<g>
		<path style="fill:#7EE1E6;" d="M250.733,259.267c9.387,0,17.067,7.68,17.067,17.067s-7.68,17.067-17.067,17.067
			c-9.387,0-17.067-7.68-17.067-17.067S241.347,259.267,250.733,259.267"/>
		<path style="fill:#7EE1E6;" d="M308.76,74.093c5.973-1.707,12.8-2.56,18.773-2.56c37.547,0,68.267,30.72,68.267,68.267
			s-30.72,68.267-68.267,68.267h-76.8h-93.867c-28.16,0-51.2-23.04-51.2-51.2c0-23.04,15.36-42.667,36.693-48.64
			c-1.707-5.973-2.56-12.8-2.56-19.627c0-46.933,38.4-85.333,85.333-85.333c29.867,0,56.32,15.36,71.68,39.253
			c0,0,11.093,14.507,11.093,30.72L308.76,74.093z"/>
	</g>
</g>
<path style="fill:#51565F;" d="M490.667,503.467H371.2c-6.827,0-12.8-5.973-12.8-12.8V354.133c0-6.827,5.973-12.8,12.8-12.8h119.467
	c6.827,0,12.8,5.973,12.8,12.8v136.533C503.467,497.493,497.493,503.467,490.667,503.467z M371.2,349.867
	c-2.56,0-4.267,1.707-4.267,4.267v136.533c0,2.56,1.707,4.267,4.267,4.267h119.467c2.56,0,4.267-1.707,4.267-4.267V354.133
	c0-2.56-1.707-4.267-4.267-4.267H371.2z M311.467,503.467H192c-6.827,0-12.8-5.973-12.8-12.8V354.133c0-6.827,5.973-12.8,12.8-12.8
	h119.467c6.827,0,12.8,5.973,12.8,12.8v136.533C324.267,497.493,318.293,503.467,311.467,503.467z M192,349.867
	c-2.56,0-4.267,1.707-4.267,4.267v136.533c0,2.56,1.707,4.267,4.267,4.267h119.467c2.56,0,4.267-1.707,4.267-4.267V354.133
	c0-2.56-1.707-4.267-4.267-4.267H192z M132.267,503.467H12.8c-6.827,0-12.8-5.973-12.8-12.8V354.133c0-6.827,5.973-12.8,12.8-12.8
	h119.467c6.827,0,12.8,5.973,12.8,12.8v136.533C145.067,497.493,139.093,503.467,132.267,503.467z M12.8,349.867
	c-2.56,0-4.267,1.707-4.267,4.267v136.533c0,2.56,1.707,4.267,4.267,4.267h119.467c2.56,0,4.267-1.707,4.267-4.267V354.133
	c0-2.56-1.707-4.267-4.267-4.267H12.8z M465.067,469.333H396.8c-2.56,0-4.267-1.707-4.267-4.267c0-2.56,1.707-4.267,4.267-4.267
	h68.267c2.56,0,4.267,1.707,4.267,4.267C469.333,467.627,467.627,469.333,465.067,469.333z M285.867,469.333H217.6
	c-2.56,0-4.267-1.707-4.267-4.267c0-2.56,1.707-4.267,4.267-4.267h68.267c2.56,0,4.267,1.707,4.267,4.267
	C290.133,467.627,288.427,469.333,285.867,469.333z M106.667,469.333H38.4c-2.56,0-4.267-1.707-4.267-4.267
	c0-2.56,1.707-4.267,4.267-4.267h68.267c2.56,0,4.267,1.707,4.267,4.267C110.933,467.627,109.227,469.333,106.667,469.333z
	 M465.067,435.2H396.8c-2.56,0-4.267-1.707-4.267-4.267c0-2.56,1.707-4.267,4.267-4.267h68.267c2.56,0,4.267,1.707,4.267,4.267
	C469.333,433.493,467.627,435.2,465.067,435.2z M285.867,435.2H217.6c-2.56,0-4.267-1.707-4.267-4.267
	c0-2.56,1.707-4.267,4.267-4.267h68.267c2.56,0,4.267,1.707,4.267,4.267C290.133,433.493,288.427,435.2,285.867,435.2z
	 M106.667,435.2H38.4c-2.56,0-4.267-1.707-4.267-4.267c0-2.56,1.707-4.267,4.267-4.267h68.267c2.56,0,4.267,1.707,4.267,4.267
	C110.933,433.493,109.227,435.2,106.667,435.2z M430.933,401.067H396.8c-2.56,0-4.267-1.707-4.267-4.267s1.707-4.267,4.267-4.267
	h34.133c2.56,0,4.267,1.707,4.267,4.267S433.493,401.067,430.933,401.067z M251.733,401.067H217.6c-2.56,0-4.267-1.707-4.267-4.267
	s1.707-4.267,4.267-4.267h34.133c2.56,0,4.267,1.707,4.267,4.267S254.293,401.067,251.733,401.067z M72.533,401.067H38.4
	c-2.56,0-4.267-1.707-4.267-4.267s1.707-4.267,4.267-4.267h34.133c2.56,0,4.267,1.707,4.267,4.267S75.093,401.067,72.533,401.067z
	 M430.933,315.733c-2.56,0-4.267-1.707-4.267-4.267V281.6H272.213c-1.707,8.533-8.533,15.36-17.067,17.067v12.8
	c0,2.56-1.707,4.267-4.267,4.267s-4.267-1.707-4.267-4.267v-12.8c-8.533-1.707-15.36-8.533-16.213-17.067H75.947v29.867
	c0,2.56-1.707,4.267-4.267,4.267c-2.56,0-4.267-1.707-4.267-4.267v-34.133c0-2.56,1.707-4.267,4.267-4.267H230.4
	c1.707-8.533,8.533-15.36,16.213-16.213V243.2c0-2.56,1.707-4.267,4.267-4.267s4.267,1.707,4.267,4.267v13.653
	c8.533,1.707,15.36,8.533,17.067,16.213h158.72c2.56,0,4.267,1.707,4.267,4.267v34.133
	C435.2,314.027,433.493,315.733,430.933,315.733z M251.733,264.533c-6.827,0-12.8,5.973-12.8,12.8s5.973,12.8,12.8,12.8
	c6.827,0,12.8-5.973,12.8-12.8S258.56,264.533,251.733,264.533z M328.533,213.333H157.867c-30.72,0-55.467-24.747-55.467-55.467
	c0-23.04,14.507-43.52,35.84-52.053c-0.853-5.973-1.707-11.093-1.707-16.213c0-49.493,40.107-89.6,89.6-89.6
	c30.72,0,58.88,15.36,75.093,40.96c1.707,1.707,0.853,4.267-0.853,5.973c-1.707,0.853-4.267,0.853-5.973-0.853
	c-15.36-23.04-40.107-36.693-68.267-36.693c-44.373,0-81.067,36.693-81.067,81.067c0,5.973,0.853,11.947,2.56,17.92
	c0.853,2.56-0.853,4.267-2.56,5.12c-19.627,5.973-33.28,24.747-33.28,45.227c0,25.6,21.333,46.933,46.933,46.933h170.667
	c34.987,0,64-29.013,64-64s-29.013-64-64-64c-14.507,0-29.013,5.12-40.96,14.507c-1.707,1.707-4.267,0.853-5.973-0.853
	s-0.853-4.267,0.853-5.973c12.8-11.093,29.013-16.213,46.08-16.213c40.107,0,72.533,32.427,72.533,72.533
	S368.64,213.333,328.533,213.333z"/>
<g>
</g>
<g>
</g>
<g>
</g>
<g>
</g>
<g>
</g>
<g>
</g>
<g>
</g>
<g>
</g>
<g>
</g>
<g>
</g>
<g>
</g>
<g>
</g>
<g>
</g>
<g>
</g>
<g>
</g>
</svg>
